<?xml version="1.0" encoding="UTF-8" standalone="no"?>
<!DOCTYPE svg PUBLIC "-//W3C//DTD SVG 1.1//EN"
 "http://www.w3.org/Graphics/SVG/1.1/DTD/svg11.dtd">
<!-- Generated by graphviz version 2.38.0 (20140413.2041)
 -->
<!-- Title: %3 Pages: 1 -->
<svg width="488pt" height="1133pt"
 viewBox="0.00 0.00 487.60 1133.00" xmlns="http://www.w3.org/2000/svg" xmlns:xlink="http://www.w3.org/1999/xlink">
<g id="graph0" class="graph" transform="scale(1 1) rotate(0) translate(4 1129)">
<title>%3</title>
<polygon fill="white" stroke="none" points="-4,4 -4,-1129 483.597,-1129 483.597,4 -4,4"/>
<!-- 0 -->
<g id="node1" class="node"><title>0</title>
<ellipse fill="none" stroke="black" cx="410.597" cy="-1107" rx="27" ry="18"/>
<text text-anchor="middle" x="410.597" y="-1103.3" font-family="Times New Roman,serif" font-size="14.00">e,k</text>
</g>
<!-- 3 -->
<g id="node4" class="node"><title>3</title>
<ellipse fill="none" stroke="black" cx="306.597" cy="-1020" rx="27" ry="18"/>
<text text-anchor="middle" x="306.597" y="-1016.3" font-family="Times New Roman,serif" font-size="14.00">e,p</text>
</g>
<!-- 0&#45;&gt;3 -->
<g id="edge40" class="edge"><title>0&#45;&gt;3</title>
<path fill="none" stroke="black" d="M393.37,-1092.87C384.933,-1086.37 374.664,-1078.36 365.597,-1071 353.803,-1061.42 340.908,-1050.54 330.19,-1041.38"/>
<polygon fill="black" stroke="black" points="332.341,-1038.62 322.472,-1034.76 327.784,-1043.93 332.341,-1038.62"/>
<text text-anchor="middle" x="369.597" y="-1059.8" font-family="Times New Roman,serif" font-size="14.00">b</text>
</g>
<!-- 15 -->
<g id="node16" class="node"><title>15</title>
<ellipse fill="none" stroke="black" cx="419.597" cy="-773" rx="27" ry="18"/>
<text text-anchor="middle" x="419.597" y="-769.3" font-family="Times New Roman,serif" font-size="14.00">e</text>
</g>
<!-- 0&#45;&gt;15 -->
<g id="edge48" class="edge"><title>0&#45;&gt;15</title>
<path fill="none" stroke="black" d="M414.711,-1089.18C418.519,-1072.12 423.597,-1044.89 423.597,-1021 423.597,-1021 423.597,-1021 423.597,-859 423.597,-839.731 422.559,-818.033 421.541,-801.382"/>
<polygon fill="black" stroke="black" points="425.023,-800.999 420.885,-791.245 418.038,-801.45 425.023,-800.999"/>
<text text-anchor="middle" x="427.097" y="-943.3" font-family="Times New Roman,serif" font-size="14.00">s</text>
</g>
<!-- 1 -->
<g id="node2" class="node"><title>1</title>
<ellipse fill="none" stroke="black" cx="306.597" cy="-773" rx="27" ry="18"/>
<text text-anchor="middle" x="306.597" y="-769.3" font-family="Times New Roman,serif" font-size="14.00">I</text>
</g>
<!-- 11 -->
<g id="node12" class="node"><title>11</title>
<ellipse fill="none" stroke="black" cx="306.597" cy="-860" rx="27" ry="18"/>
</g>
<!-- 1&#45;&gt;11 -->
<g id="edge14" class="edge"><title>1&#45;&gt;11</title>
<path fill="none" stroke="black" d="M312.097,-790.758C313.412,-802.508 313.69,-818.47 312.931,-832.002"/>
<polygon fill="black" stroke="black" points="309.424,-831.956 312.101,-842.207 316.401,-832.524 309.424,-831.956"/>
</g>
<!-- 2 -->
<g id="node3" class="node"><title>2</title>
<ellipse fill="none" stroke="black" cx="452.597" cy="-599" rx="27" ry="18"/>
<text text-anchor="middle" x="452.597" y="-595.3" font-family="Times New Roman,serif" font-size="14.00">e,i,p</text>
</g>
<!-- 14 -->
<g id="node15" class="node"><title>14</title>
<ellipse fill="none" stroke="black" cx="419.597" cy="-686" rx="27" ry="18"/>
<text text-anchor="middle" x="419.597" y="-682.3" font-family="Times New Roman,serif" font-size="14.00">e</text>
</g>
<!-- 2&#45;&gt;14 -->
<g id="edge34" class="edge"><title>2&#45;&gt;14</title>
<path fill="none" stroke="black" d="M452.289,-617.214C451.603,-627.119 449.853,-639.619 445.597,-650 443.918,-654.097 441.648,-658.15 439.146,-661.964"/>
<polygon fill="black" stroke="black" points="436.105,-660.194 433.053,-670.34 441.766,-664.312 436.105,-660.194"/>
<text text-anchor="middle" x="453.097" y="-638.8" font-family="Times New Roman,serif" font-size="14.00">k</text>
</g>
<!-- 3&#45;&gt;0 -->
<g id="edge39" class="edge"><title>3&#45;&gt;0</title>
<path fill="none" stroke="black" d="M329.733,-1029.37C344.008,-1035.3 362.105,-1044.29 375.597,-1056 383.675,-1063.01 390.824,-1072.27 396.521,-1080.91"/>
<polygon fill="black" stroke="black" points="393.656,-1082.93 401.91,-1089.57 399.599,-1079.23 393.656,-1082.93"/>
<text text-anchor="middle" x="392.597" y="-1059.8" font-family="Times New Roman,serif" font-size="14.00">b</text>
</g>
<!-- 4 -->
<g id="node5" class="node"><title>4</title>
<ellipse fill="none" stroke="black" cx="371.597" cy="-599" rx="27" ry="18"/>
<text text-anchor="middle" x="371.597" y="-595.3" font-family="Times New Roman,serif" font-size="14.00">m,k</text>
</g>
<!-- 3&#45;&gt;4 -->
<g id="edge29" class="edge"><title>3&#45;&gt;4</title>
<path fill="none" stroke="black" d="M288.588,-1006.58C272.548,-993.907 251.597,-972.636 251.597,-948 251.597,-948 251.597,-948 251.597,-685 251.597,-643.058 301.016,-619.942 336.426,-608.763"/>
<polygon fill="black" stroke="black" points="337.848,-611.992 346.442,-605.794 335.859,-605.28 337.848,-611.992"/>
</g>
<!-- 6 -->
<g id="node7" class="node"><title>6</title>
<ellipse fill="none" stroke="black" cx="196.597" cy="-947" rx="27" ry="18"/>
<text text-anchor="middle" x="196.597" y="-943.3" font-family="Times New Roman,serif" font-size="14.00">e</text>
</g>
<!-- 3&#45;&gt;6 -->
<g id="edge20" class="edge"><title>3&#45;&gt;6</title>
<path fill="none" stroke="black" d="M282.297,-1011.78C266.105,-1005.37 245.283,-995.293 228.597,-984 223.038,-980.237 217.414,-975.798 212.378,-971.346"/>
<polygon fill="black" stroke="black" points="214.722,-968.746 205.044,-964.435 209.921,-973.84 214.722,-968.746"/>
</g>
<!-- 4&#45;&gt;3 -->
<g id="edge30" class="edge"><title>4&#45;&gt;3</title>
<path fill="none" stroke="black" d="M368.378,-617.187C365.455,-634.307 361.597,-661.375 361.597,-685 361.597,-948 361.597,-948 361.597,-948 361.597,-968.786 346.682,-987.178 332.386,-1000.03"/>
<polygon fill="black" stroke="black" points="330.001,-997.464 324.607,-1006.58 334.51,-1002.82 330.001,-997.464"/>
<text text-anchor="middle" x="363.597" y="-812.8" font-family="Times New Roman,serif" font-size="14.00">l</text>
</g>
<!-- 4&#45;&gt;14 -->
<g id="edge18" class="edge"><title>4&#45;&gt;14</title>
<path fill="none" stroke="black" d="M385.101,-614.627C393.499,-626.737 403.736,-644.248 411.076,-658.772"/>
<polygon fill="black" stroke="black" points="407.934,-660.314 415.433,-667.799 414.238,-657.272 407.934,-660.314"/>
</g>
<!-- 5 -->
<g id="node6" class="node"><title>5</title>
<ellipse fill="none" stroke="black" cx="28.5975" cy="-18" rx="27" ry="18"/>
<text text-anchor="middle" x="28.5975" y="-14.3" font-family="Times New Roman,serif" font-size="14.00">t</text>
</g>
<!-- 12 -->
<g id="node13" class="node"><title>12</title>
<ellipse fill="none" stroke="black" cx="28.5975" cy="-105" rx="27" ry="18"/>
<text text-anchor="middle" x="28.5975" y="-101.3" font-family="Times New Roman,serif" font-size="14.00">b</text>
</g>
<!-- 5&#45;&gt;12 -->
<g id="edge32" class="edge"><title>5&#45;&gt;12</title>
<path fill="none" stroke="black" d="M28.5975,-36.1754C28.5975,-47.806 28.5975,-63.4194 28.5975,-76.7339"/>
<polygon fill="black" stroke="black" points="25.0976,-76.7989 28.5975,-86.799 32.0976,-76.799 25.0976,-76.7989"/>
<text text-anchor="middle" x="30.5975" y="-57.8" font-family="Times New Roman,serif" font-size="14.00">l</text>
</g>
<!-- 6&#45;&gt;3 -->
<g id="edge19" class="edge"><title>6&#45;&gt;3</title>
<path fill="none" stroke="black" d="M216.204,-959.888C225.345,-967.355 236.086,-976.885 246.597,-984 256.562,-990.744 268.001,-997.054 278.278,-1002.41"/>
<polygon fill="black" stroke="black" points="276.818,-1005.59 287.313,-1007.04 280.012,-999.363 276.818,-1005.59"/>
</g>
<!-- 7 -->
<g id="node8" class="node"><title>7</title>
<ellipse fill="none" stroke="black" cx="110.597" cy="-860" rx="27" ry="18"/>
<text text-anchor="middle" x="110.597" y="-856.3" font-family="Times New Roman,serif" font-size="14.00">e,k</text>
</g>
<!-- 6&#45;&gt;7 -->
<g id="edge27" class="edge"><title>6&#45;&gt;7</title>
<path fill="none" stroke="black" d="M182.009,-931.581C168.418,-918.148 147.974,-897.942 132.439,-882.587"/>
<polygon fill="black" stroke="black" points="134.83,-880.03 125.258,-875.49 129.91,-885.009 134.83,-880.03"/>
</g>
<!-- 6&#45;&gt;11 -->
<g id="edge47" class="edge"><title>6&#45;&gt;11</title>
<path fill="none" stroke="black" d="M213.785,-932.719C231.948,-918.684 260.774,-896.409 281.482,-880.407"/>
<polygon fill="black" stroke="black" points="283.758,-883.072 289.531,-874.188 279.478,-877.533 283.758,-883.072"/>
</g>
<!-- 7&#45;&gt;6 -->
<g id="edge28" class="edge"><title>7&#45;&gt;6</title>
<path fill="none" stroke="black" d="M132.138,-870.951C143.636,-877.02 157.463,-885.608 167.597,-896 174.419,-902.995 180.246,-911.901 184.849,-920.253"/>
<polygon fill="black" stroke="black" points="181.825,-922.026 189.513,-929.316 188.049,-918.822 181.825,-922.026"/>
<text text-anchor="middle" x="181.597" y="-899.8" font-family="Times New Roman,serif" font-size="14.00">l</text>
</g>
<!-- 8 -->
<g id="node9" class="node"><title>8</title>
<ellipse fill="none" stroke="black" cx="64.5975" cy="-599" rx="27" ry="18"/>
<text text-anchor="middle" x="64.5975" y="-595.3" font-family="Times New Roman,serif" font-size="14.00">e,k</text>
</g>
<!-- 7&#45;&gt;8 -->
<g id="edge35" class="edge"><title>7&#45;&gt;8</title>
<path fill="none" stroke="black" d="M93.4121,-845.777C78.8845,-833.42 59.1168,-813.532 50.5975,-791 29.5842,-735.425 44.729,-664.37 55.7911,-626.526"/>
<polygon fill="black" stroke="black" points="59.1961,-627.36 58.7695,-616.773 52.5013,-625.315 59.1961,-627.36"/>
<text text-anchor="middle" x="44.0975" y="-725.8" font-family="Times New Roman,serif" font-size="14.00">k</text>
</g>
<!-- 21 -->
<g id="node22" class="node"><title>21</title>
<ellipse fill="none" stroke="black" cx="86.5975" cy="-773" rx="27" ry="18"/>
<text text-anchor="middle" x="86.5975" y="-769.3" font-family="Times New Roman,serif" font-size="14.00">e</text>
</g>
<!-- 7&#45;&gt;21 -->
<g id="edge10" class="edge"><title>7&#45;&gt;21</title>
<path fill="none" stroke="black" d="M100.672,-843.012C95.9507,-831.209 91.0271,-814.863 87.8965,-801.042"/>
<polygon fill="black" stroke="black" points="91.2955,-800.192 85.8851,-791.083 84.4341,-801.578 91.2955,-800.192"/>
</g>
<!-- 8&#45;&gt;7 -->
<g id="edge36" class="edge"><title>8&#45;&gt;7</title>
<path fill="none" stroke="black" d="M81.2225,-613.348C95.2741,-625.786 114.388,-645.724 122.597,-668 136.839,-706.643 128.409,-783.69 121.597,-824 121.136,-826.732 120.513,-829.546 119.798,-832.335"/>
<polygon fill="black" stroke="black" points="116.379,-831.559 116.923,-842.14 123.096,-833.529 116.379,-831.559"/>
<text text-anchor="middle" x="134.097" y="-725.8" font-family="Times New Roman,serif" font-size="14.00">k</text>
</g>
<!-- 9 -->
<g id="node10" class="node"><title>9</title>
<ellipse fill="none" stroke="black" cx="86.5975" cy="-686" rx="27" ry="18"/>
<text text-anchor="middle" x="86.5975" y="-682.3" font-family="Times New Roman,serif" font-size="14.00">e,i</text>
</g>
<!-- 8&#45;&gt;9 -->
<g id="edge44" class="edge"><title>8&#45;&gt;9</title>
<path fill="none" stroke="black" d="M63.2962,-616.984C63.0291,-626.812 63.5291,-639.312 66.5975,-650 67.5932,-653.468 68.9992,-656.96 70.6098,-660.324"/>
<polygon fill="black" stroke="black" points="67.6645,-662.234 75.5199,-669.343 73.8125,-658.887 67.6645,-662.234"/>
<text text-anchor="middle" x="70.5975" y="-638.8" font-family="Times New Roman,serif" font-size="14.00">b</text>
</g>
<!-- 10 -->
<g id="node11" class="node"><title>10</title>
<ellipse fill="none" stroke="black" cx="62.5975" cy="-512" rx="27" ry="18"/>
<text text-anchor="middle" x="62.5975" y="-508.3" font-family="Times New Roman,serif" font-size="14.00">e,i</text>
</g>
<!-- 8&#45;&gt;10 -->
<g id="edge8" class="edge"><title>8&#45;&gt;10</title>
<path fill="none" stroke="black" d="M58.6986,-581.207C57.1097,-569.448 56.4581,-553.485 56.9001,-539.958"/>
<polygon fill="black" stroke="black" points="60.4066,-539.944 57.4919,-529.758 53.4184,-539.539 60.4066,-539.944"/>
</g>
<!-- 9&#45;&gt;8 -->
<g id="edge43" class="edge"><title>9&#45;&gt;8</title>
<path fill="none" stroke="black" d="M82.251,-668.207C79.1975,-656.409 75.0483,-640.378 71.5397,-626.822"/>
<polygon fill="black" stroke="black" points="74.9043,-625.853 69.0102,-617.049 68.1276,-627.607 74.9043,-625.853"/>
<text text-anchor="middle" x="81.5975" y="-638.8" font-family="Times New Roman,serif" font-size="14.00">b</text>
</g>
<!-- 9&#45;&gt;21 -->
<g id="edge38" class="edge"><title>9&#45;&gt;21</title>
<path fill="none" stroke="black" d="M86.5975,-704.175C86.5975,-715.806 86.5975,-731.419 86.5975,-744.734"/>
<polygon fill="black" stroke="black" points="83.0976,-744.799 86.5975,-754.799 90.0976,-744.799 83.0976,-744.799"/>
<text text-anchor="middle" x="90.0975" y="-725.8" font-family="Times New Roman,serif" font-size="14.00">k</text>
</g>
<!-- 22 -->
<g id="node23" class="node"><title>22</title>
<ellipse fill="none" stroke="black" cx="28.5975" cy="-439" rx="28.6953" ry="18"/>
<text text-anchor="middle" x="28.5975" y="-435.3" font-family="Times New Roman,serif" font-size="14.00">e,p,k</text>
</g>
<!-- 9&#45;&gt;22 -->
<g id="edge41" class="edge"><title>9&#45;&gt;22</title>
<path fill="none" stroke="black" d="M70.0965,-671.606C56.1264,-659.137 37.0625,-639.18 28.5975,-617 9.53222,-567.046 16.3838,-503.228 22.7292,-467.471"/>
<polygon fill="black" stroke="black" points="26.2294,-467.798 24.6529,-457.321 19.3519,-466.494 26.2294,-467.798"/>
<text text-anchor="middle" x="21.5975" y="-551.8" font-family="Times New Roman,serif" font-size="14.00">b</text>
</g>
<!-- 10&#45;&gt;8 -->
<g id="edge7" class="edge"><title>10&#45;&gt;8</title>
<path fill="none" stroke="black" d="M68.4916,-529.758C70.0823,-541.508 70.7359,-557.47 70.2962,-571.002"/>
<polygon fill="black" stroke="black" points="66.7893,-571.021 69.7061,-581.207 73.7776,-571.425 66.7893,-571.021"/>
</g>
<!-- 10&#45;&gt;22 -->
<g id="edge6" class="edge"><title>10&#45;&gt;22</title>
<path fill="none" stroke="black" d="M49.751,-495.943C44.603,-487.394 39.0548,-476.447 34.7373,-466.507"/>
<polygon fill="black" stroke="black" points="37.8943,-464.979 30.8905,-457.029 31.4081,-467.611 37.8943,-464.979"/>
</g>
<!-- 11&#45;&gt;1 -->
<g id="edge13" class="edge"><title>11&#45;&gt;1</title>
<path fill="none" stroke="black" d="M301.094,-842.207C299.782,-830.448 299.506,-814.485 300.266,-800.958"/>
<polygon fill="black" stroke="black" points="303.773,-801.01 301.098,-790.758 296.796,-800.441 303.773,-801.01"/>
</g>
<!-- 11&#45;&gt;15 -->
<g id="edge11" class="edge"><title>11&#45;&gt;15</title>
<path fill="none" stroke="black" d="M323.68,-845.915C333.945,-839.8 346.782,-832.09 357.597,-824 369.988,-814.733 382.637,-802.907 393.451,-793.084"/>
<polygon fill="black" stroke="black" points="395.856,-795.628 400.971,-786.349 391.186,-790.413 395.856,-795.628"/>
</g>
<!-- 12&#45;&gt;5 -->
<g id="edge31" class="edge"><title>12&#45;&gt;5</title>
<path fill="none" stroke="black" d="M27.4257,-86.9185C27.0871,-81.2225 26.7642,-74.8405 26.5975,-69 26.3876,-61.6485 26.5352,-53.6914 26.8269,-46.3331"/>
<polygon fill="black" stroke="black" points="30.3336,-46.2819 27.3324,-36.1211 23.3422,-45.9358 30.3336,-46.2819"/>
</g>
<!-- 13 -->
<g id="node14" class="node"><title>13</title>
<ellipse fill="none" stroke="black" cx="28.5975" cy="-192" rx="27" ry="18"/>
<text text-anchor="middle" x="28.5975" y="-188.3" font-family="Times New Roman,serif" font-size="14.00">e,i,k</text>
</g>
<!-- 12&#45;&gt;13 -->
<g id="edge51" class="edge"><title>12&#45;&gt;13</title>
<path fill="none" stroke="black" d="M28.5975,-123.175C28.5975,-134.806 28.5975,-150.419 28.5975,-163.734"/>
<polygon fill="black" stroke="black" points="25.0976,-163.799 28.5975,-173.799 32.0976,-163.799 25.0976,-163.799"/>
<text text-anchor="middle" x="32.0975" y="-144.8" font-family="Times New Roman,serif" font-size="14.00">k</text>
</g>
<!-- 13&#45;&gt;12 -->
<g id="edge50" class="edge"><title>13&#45;&gt;12</title>
<path fill="none" stroke="black" d="M21.7094,-174.556C19.6335,-168.794 17.6324,-162.209 16.5975,-156 15.306,-148.251 16.3204,-139.921 18.2079,-132.326"/>
<polygon fill="black" stroke="black" points="21.6209,-133.133 21.1886,-122.547 14.925,-131.092 21.6209,-133.133"/>
<text text-anchor="middle" x="20.0975" y="-144.8" font-family="Times New Roman,serif" font-size="14.00">k</text>
</g>
<!-- 19 -->
<g id="node20" class="node"><title>19</title>
<ellipse fill="none" stroke="black" cx="28.5975" cy="-265" rx="27" ry="18"/>
<text text-anchor="middle" x="28.5975" y="-261.3" font-family="Times New Roman,serif" font-size="14.00">e,i</text>
</g>
<!-- 13&#45;&gt;19 -->
<g id="edge22" class="edge"><title>13&#45;&gt;19</title>
<path fill="none" stroke="black" d="M34.4243,-209.705C35.3059,-217.822 35.556,-227.78 35.1749,-236.942"/>
<polygon fill="black" stroke="black" points="31.6655,-236.948 34.4374,-247.174 38.6473,-237.452 31.6655,-236.948"/>
</g>
<!-- 14&#45;&gt;2 -->
<g id="edge33" class="edge"><title>14&#45;&gt;2</title>
<path fill="none" stroke="black" d="M426.117,-668.207C430.773,-656.216 437.126,-639.851 442.442,-626.157"/>
<polygon fill="black" stroke="black" points="445.735,-627.347 446.091,-616.758 439.209,-624.814 445.735,-627.347"/>
<text text-anchor="middle" x="441.097" y="-638.8" font-family="Times New Roman,serif" font-size="14.00">k</text>
</g>
<!-- 14&#45;&gt;4 -->
<g id="edge17" class="edge"><title>14&#45;&gt;4</title>
<path fill="none" stroke="black" d="M405.97,-670.194C397.627,-658.137 387.499,-640.811 380.201,-626.39"/>
<polygon fill="black" stroke="black" points="383.155,-624.458 375.658,-616.971 376.85,-627.499 383.155,-624.458"/>
</g>
<!-- 14&#45;&gt;15 -->
<g id="edge16" class="edge"><title>14&#45;&gt;15</title>
<path fill="none" stroke="black" d="M425.097,-703.758C426.412,-715.508 426.69,-731.47 425.931,-745.002"/>
<polygon fill="black" stroke="black" points="422.424,-744.956 425.101,-755.207 429.401,-745.524 422.424,-744.956"/>
</g>
<!-- 15&#45;&gt;0 -->
<g id="edge49" class="edge"><title>15&#45;&gt;0</title>
<path fill="none" stroke="black" d="M433.699,-788.621C447.543,-804.57 466.597,-831.514 466.597,-859 466.597,-1021 466.597,-1021 466.597,-1021 466.597,-1046.06 449.417,-1069.43 434.088,-1085.31"/>
<polygon fill="black" stroke="black" points="431.477,-1082.96 426.795,-1092.47 436.382,-1087.96 431.477,-1082.96"/>
<text text-anchor="middle" x="470.097" y="-943.3" font-family="Times New Roman,serif" font-size="14.00">s</text>
</g>
<!-- 15&#45;&gt;11 -->
<g id="edge12" class="edge"><title>15&#45;&gt;11</title>
<path fill="none" stroke="black" d="M411.917,-790.326C403.057,-800.624 389.172,-813.848 375.597,-824 364.548,-832.264 351.391,-840.132 339.413,-846.308"/>
<polygon fill="black" stroke="black" points="337.554,-843.321 330.123,-850.873 340.641,-849.604 337.554,-843.321"/>
</g>
<!-- 15&#45;&gt;14 -->
<g id="edge15" class="edge"><title>15&#45;&gt;14</title>
<path fill="none" stroke="black" d="M414.094,-755.207C412.782,-743.448 412.506,-727.485 413.266,-713.958"/>
<polygon fill="black" stroke="black" points="416.773,-714.01 414.098,-703.758 409.796,-713.441 416.773,-714.01"/>
</g>
<!-- 16 -->
<g id="node17" class="node"><title>16</title>
<ellipse fill="none" stroke="black" cx="196.597" cy="-686" rx="27" ry="18"/>
<text text-anchor="middle" x="196.597" y="-682.3" font-family="Times New Roman,serif" font-size="14.00">e,k</text>
</g>
<!-- 17 -->
<g id="node18" class="node"><title>17</title>
<ellipse fill="none" stroke="black" cx="196.597" cy="-599" rx="27" ry="18"/>
</g>
<!-- 16&#45;&gt;17 -->
<g id="edge4" class="edge"><title>16&#45;&gt;17</title>
<path fill="none" stroke="black" d="M191.094,-668.207C189.782,-656.448 189.506,-640.485 190.266,-626.958"/>
<polygon fill="black" stroke="black" points="193.773,-627.01 191.098,-616.758 186.796,-626.441 193.773,-627.01"/>
</g>
<!-- 16&#45;&gt;21 -->
<g id="edge26" class="edge"><title>16&#45;&gt;21</title>
<path fill="none" stroke="black" d="M191.641,-703.736C187.717,-714.464 181.265,-728.014 171.597,-737 157.755,-749.867 138.53,-758.319 121.865,-763.688"/>
<polygon fill="black" stroke="black" points="120.484,-760.447 111.89,-766.644 122.473,-767.158 120.484,-760.447"/>
<text text-anchor="middle" x="185.597" y="-725.8" font-family="Times New Roman,serif" font-size="14.00">l</text>
</g>
<!-- 17&#45;&gt;16 -->
<g id="edge3" class="edge"><title>17&#45;&gt;16</title>
<path fill="none" stroke="black" d="M202.097,-616.758C203.412,-628.508 203.69,-644.47 202.931,-658.002"/>
<polygon fill="black" stroke="black" points="199.424,-657.956 202.101,-668.207 206.401,-658.524 199.424,-657.956"/>
</g>
<!-- 20 -->
<g id="node21" class="node"><title>20</title>
<ellipse fill="none" stroke="black" cx="196.597" cy="-512" rx="27" ry="18"/>
<text text-anchor="middle" x="196.597" y="-508.3" font-family="Times New Roman,serif" font-size="14.00">s</text>
</g>
<!-- 17&#45;&gt;20 -->
<g id="edge2" class="edge"><title>17&#45;&gt;20</title>
<path fill="none" stroke="black" d="M191.094,-581.207C189.782,-569.448 189.506,-553.485 190.266,-539.958"/>
<polygon fill="black" stroke="black" points="193.773,-540.01 191.098,-529.758 186.796,-539.441 193.773,-540.01"/>
</g>
<!-- 18 -->
<g id="node19" class="node"><title>18</title>
<ellipse fill="none" stroke="black" cx="28.5975" cy="-352" rx="27" ry="18"/>
<text text-anchor="middle" x="28.5975" y="-348.3" font-family="Times New Roman,serif" font-size="14.00">e,k</text>
</g>
<!-- 18&#45;&gt;19 -->
<g id="edge45" class="edge"><title>18&#45;&gt;19</title>
<path fill="none" stroke="black" d="M27.4257,-333.919C27.0871,-328.222 26.7642,-321.84 26.5975,-316 26.3876,-308.648 26.5352,-300.691 26.8269,-293.333"/>
<polygon fill="black" stroke="black" points="30.3336,-293.282 27.3324,-283.121 23.3422,-292.936 30.3336,-293.282"/>
</g>
<!-- 18&#45;&gt;22 -->
<g id="edge23" class="edge"><title>18&#45;&gt;22</title>
<path fill="none" stroke="black" d="M28.5975,-370.175C28.5975,-381.806 28.5975,-397.419 28.5975,-410.734"/>
<polygon fill="black" stroke="black" points="25.0976,-410.799 28.5975,-420.799 32.0976,-410.799 25.0976,-410.799"/>
</g>
<!-- 19&#45;&gt;13 -->
<g id="edge21" class="edge"><title>19&#45;&gt;13</title>
<path fill="none" stroke="black" d="M22.7575,-247.174C21.8823,-239.039 21.6383,-229.076 22.0258,-219.921"/>
<polygon fill="black" stroke="black" points="25.5341,-219.933 22.7706,-209.705 18.5526,-219.424 25.5341,-219.933"/>
</g>
<!-- 19&#45;&gt;18 -->
<g id="edge46" class="edge"><title>19&#45;&gt;18</title>
<path fill="none" stroke="black" d="M28.5975,-283.175C28.5975,-294.806 28.5975,-310.419 28.5975,-323.734"/>
<polygon fill="black" stroke="black" points="25.0976,-323.799 28.5975,-333.799 32.0976,-323.799 25.0976,-323.799"/>
<text text-anchor="middle" x="30.5975" y="-304.8" font-family="Times New Roman,serif" font-size="14.00">l</text>
</g>
<!-- 20&#45;&gt;17 -->
<g id="edge1" class="edge"><title>20&#45;&gt;17</title>
<path fill="none" stroke="black" d="M202.097,-529.758C203.412,-541.508 203.69,-557.47 202.931,-571.002"/>
<polygon fill="black" stroke="black" points="199.424,-570.956 202.101,-581.207 206.401,-571.524 199.424,-570.956"/>
</g>
<!-- 21&#45;&gt;7 -->
<g id="edge9" class="edge"><title>21&#45;&gt;7</title>
<path fill="none" stroke="black" d="M96.5381,-790.025C101.243,-801.798 106.148,-818.074 109.276,-831.859"/>
<polygon fill="black" stroke="black" points="105.874,-832.693 111.289,-841.799 112.734,-831.303 105.874,-832.693"/>
</g>
<!-- 21&#45;&gt;9 -->
<g id="edge37" class="edge"><title>21&#45;&gt;9</title>
<path fill="none" stroke="black" d="M79.7094,-755.556C77.6335,-749.794 75.6324,-743.209 74.5975,-737 73.306,-729.251 74.3204,-720.921 76.2079,-713.326"/>
<polygon fill="black" stroke="black" points="79.6209,-714.133 79.1886,-703.547 72.925,-712.092 79.6209,-714.133"/>
<text text-anchor="middle" x="78.0975" y="-725.8" font-family="Times New Roman,serif" font-size="14.00">k</text>
</g>
<!-- 21&#45;&gt;16 -->
<g id="edge25" class="edge"><title>21&#45;&gt;16</title>
<path fill="none" stroke="black" d="M108.326,-762.028C120.966,-755.728 136.863,-746.918 149.597,-737 159.775,-729.073 169.751,-718.907 177.876,-709.813"/>
<polygon fill="black" stroke="black" points="180.588,-712.029 184.498,-702.182 175.301,-707.441 180.588,-712.029"/>
</g>
<!-- 22&#45;&gt;9 -->
<g id="edge42" class="edge"><title>22&#45;&gt;9</title>
<path fill="none" stroke="black" d="M22.7968,-456.835C19.3624,-467.394 15.1895,-481.356 12.5975,-494 1.61571,-547.569 -3.75181,-565.855 15.5975,-617 21.5859,-632.829 23.0567,-637.621 34.5975,-650 41.1916,-657.073 49.4731,-663.452 57.4761,-668.768"/>
<polygon fill="black" stroke="black" points="55.6292,-671.741 65.9579,-674.101 59.3551,-665.815 55.6292,-671.741"/>
<text text-anchor="middle" x="7.59746" y="-551.8" font-family="Times New Roman,serif" font-size="14.00">b</text>
</g>
<!-- 22&#45;&gt;10 -->
<g id="edge5" class="edge"><title>22&#45;&gt;10</title>
<path fill="none" stroke="black" d="M41.4701,-455.101C46.59,-463.608 52.1028,-474.482 56.4054,-484.373"/>
<polygon fill="black" stroke="black" points="53.2353,-485.869 60.2452,-493.813 59.7194,-483.231 53.2353,-485.869"/>
</g>
<!-- 22&#45;&gt;18 -->
<g id="edge24" class="edge"><title>22&#45;&gt;18</title>
<path fill="none" stroke="black" d="M26.8399,-420.929C26.3321,-415.234 25.8477,-408.849 25.5975,-403 25.2828,-395.645 25.5043,-387.687 25.9418,-380.328"/>
<polygon fill="black" stroke="black" points="29.4498,-380.349 26.7,-370.117 22.4691,-379.83 29.4498,-380.349"/>
<text text-anchor="middle" x="27.5975" y="-391.8" font-family="Times New Roman,serif" font-size="14.00">l</text>
</g>
</g>
</svg>
