<?xml version="1.0" encoding="UTF-8" standalone="no"?>
<!DOCTYPE svg PUBLIC "-//W3C//DTD SVG 1.1//EN"
 "http://www.w3.org/Graphics/SVG/1.1/DTD/svg11.dtd">
<!-- Generated by graphviz version 2.38.0 (20140413.2041)
 -->
<!-- Title: %3 Pages: 1 -->
<svg width="284pt" height="872pt"
 viewBox="0.00 0.00 284.00 872.00" xmlns="http://www.w3.org/2000/svg" xmlns:xlink="http://www.w3.org/1999/xlink">
<g id="graph0" class="graph" transform="scale(1 1) rotate(0) translate(4 868)">
<title>%3</title>
<polygon fill="white" stroke="none" points="-4,4 -4,-868 280,-868 280,4 -4,4"/>
<!-- 0 -->
<g id="node1" class="node"><title>0</title>
<ellipse fill="none" stroke="black" cx="171" cy="-846" rx="27" ry="18"/>
<text text-anchor="middle" x="171" y="-842.3" font-family="Times New Roman,serif" font-size="14.00">e,p</text>
</g>
<!-- 1 -->
<g id="node2" class="node"><title>1</title>
<ellipse fill="none" stroke="black" cx="99" cy="-759" rx="27" ry="18"/>
<text text-anchor="middle" x="99" y="-755.3" font-family="Times New Roman,serif" font-size="14.00">e</text>
</g>
<!-- 0&#45;&gt;1 -->
<g id="edge10" class="edge"><title>0&#45;&gt;1</title>
<path fill="none" stroke="black" d="M150.256,-834.471C140.048,-828.445 128.206,-820.075 120,-810 114.42,-803.149 110.11,-794.602 106.887,-786.523"/>
<polygon fill="black" stroke="black" points="110.158,-785.275 103.484,-777.046 103.57,-787.64 110.158,-785.275"/>
<text text-anchor="middle" x="123.5" y="-798.8" font-family="Times New Roman,serif" font-size="14.00">k</text>
</g>
<!-- 3 -->
<g id="node4" class="node"><title>3</title>
<ellipse fill="none" stroke="black" cx="171" cy="-759" rx="27" ry="18"/>
<text text-anchor="middle" x="171" y="-755.3" font-family="Times New Roman,serif" font-size="14.00">e,p</text>
</g>
<!-- 0&#45;&gt;3 -->
<g id="edge6" class="edge"><title>0&#45;&gt;3</title>
<path fill="none" stroke="black" d="M165.496,-828.207C164.184,-816.448 163.908,-800.485 164.668,-786.958"/>
<polygon fill="black" stroke="black" points="168.176,-787.01 165.5,-776.758 161.199,-786.441 168.176,-787.01"/>
</g>
<!-- 7 -->
<g id="node8" class="node"><title>7</title>
<ellipse fill="none" stroke="black" cx="243" cy="-759" rx="27" ry="18"/>
<text text-anchor="middle" x="243" y="-755.3" font-family="Times New Roman,serif" font-size="14.00">e,p</text>
</g>
<!-- 0&#45;&gt;7 -->
<g id="edge11" class="edge"><title>0&#45;&gt;7</title>
<path fill="none" stroke="black" d="M179.424,-828.611C189.323,-815.097 205.484,-795.833 219.152,-781.155"/>
<polygon fill="black" stroke="black" points="222.053,-783.186 226.433,-773.539 216.993,-778.349 222.053,-783.186"/>
</g>
<!-- 1&#45;&gt;0 -->
<g id="edge9" class="edge"><title>1&#45;&gt;0</title>
<path fill="none" stroke="black" d="M111.761,-775.065C122.784,-788.079 138.885,-807.087 151.52,-822.002"/>
<polygon fill="black" stroke="black" points="148.994,-824.435 158.128,-829.804 154.335,-819.911 148.994,-824.435"/>
<text text-anchor="middle" x="143.5" y="-798.8" font-family="Times New Roman,serif" font-size="14.00">k</text>
</g>
<!-- 6 -->
<g id="node7" class="node"><title>6</title>
<ellipse fill="none" stroke="black" cx="27" cy="-672" rx="27" ry="18"/>
<text text-anchor="middle" x="27" y="-668.3" font-family="Times New Roman,serif" font-size="14.00">e,k</text>
</g>
<!-- 1&#45;&gt;6 -->
<g id="edge7" class="edge"><title>1&#45;&gt;6</title>
<path fill="none" stroke="black" d="M82.3171,-744.343C69.8414,-731.673 53.2731,-712.525 41.3827,-697.256"/>
<polygon fill="black" stroke="black" points="44.1398,-695.099 35.314,-689.238 38.5583,-699.324 44.1398,-695.099"/>
</g>
<!-- 10 -->
<g id="node11" class="node"><title>10</title>
<ellipse fill="none" stroke="black" cx="99" cy="-672" rx="27" ry="18"/>
<text text-anchor="middle" x="99" y="-668.3" font-family="Times New Roman,serif" font-size="14.00">e,p</text>
</g>
<!-- 1&#45;&gt;10 -->
<g id="edge19" class="edge"><title>1&#45;&gt;10</title>
<path fill="none" stroke="black" d="M93.4963,-741.207C92.1841,-729.448 91.9081,-713.485 92.6683,-699.958"/>
<polygon fill="black" stroke="black" points="96.1756,-700.01 93.5002,-689.758 89.1988,-699.441 96.1756,-700.01"/>
</g>
<!-- 2 -->
<g id="node3" class="node"><title>2</title>
<ellipse fill="none" stroke="black" cx="171" cy="-672" rx="27" ry="18"/>
</g>
<!-- 2&#45;&gt;3 -->
<g id="edge3" class="edge"><title>2&#45;&gt;3</title>
<path fill="none" stroke="black" d="M176.5,-689.758C177.814,-701.508 178.092,-717.47 177.334,-731.002"/>
<polygon fill="black" stroke="black" points="173.826,-730.956 176.504,-741.207 180.803,-731.524 173.826,-730.956"/>
</g>
<!-- 4 -->
<g id="node5" class="node"><title>4</title>
<ellipse fill="none" stroke="black" cx="171" cy="-585" rx="27" ry="18"/>
<text text-anchor="middle" x="171" y="-581.3" font-family="Times New Roman,serif" font-size="14.00">s</text>
</g>
<!-- 2&#45;&gt;4 -->
<g id="edge2" class="edge"><title>2&#45;&gt;4</title>
<path fill="none" stroke="black" d="M165.496,-654.207C164.184,-642.448 163.908,-626.485 164.668,-612.958"/>
<polygon fill="black" stroke="black" points="168.176,-613.01 165.5,-602.758 161.199,-612.441 168.176,-613.01"/>
</g>
<!-- 3&#45;&gt;0 -->
<g id="edge5" class="edge"><title>3&#45;&gt;0</title>
<path fill="none" stroke="black" d="M176.5,-776.758C177.814,-788.508 178.092,-804.47 177.334,-818.002"/>
<polygon fill="black" stroke="black" points="173.826,-817.956 176.504,-828.207 180.803,-818.524 173.826,-817.956"/>
</g>
<!-- 3&#45;&gt;2 -->
<g id="edge4" class="edge"><title>3&#45;&gt;2</title>
<path fill="none" stroke="black" d="M165.496,-741.207C164.184,-729.448 163.908,-713.485 164.668,-699.958"/>
<polygon fill="black" stroke="black" points="168.176,-700.01 165.5,-689.758 161.199,-699.441 168.176,-700.01"/>
</g>
<!-- 4&#45;&gt;2 -->
<g id="edge1" class="edge"><title>4&#45;&gt;2</title>
<path fill="none" stroke="black" d="M176.5,-602.758C177.814,-614.508 178.092,-630.47 177.334,-644.002"/>
<polygon fill="black" stroke="black" points="173.826,-643.956 176.504,-654.207 180.803,-644.524 173.826,-643.956"/>
</g>
<!-- 5 -->
<g id="node6" class="node"><title>5</title>
<ellipse fill="none" stroke="black" cx="244" cy="-105" rx="27" ry="18"/>
<text text-anchor="middle" x="244" y="-101.3" font-family="Times New Roman,serif" font-size="14.00">b</text>
</g>
<!-- 8 -->
<g id="node9" class="node"><title>8</title>
<ellipse fill="none" stroke="black" cx="244" cy="-18" rx="27" ry="18"/>
<text text-anchor="middle" x="244" y="-14.3" font-family="Times New Roman,serif" font-size="14.00">t</text>
</g>
<!-- 5&#45;&gt;8 -->
<g id="edge36" class="edge"><title>5&#45;&gt;8</title>
<path fill="none" stroke="black" d="M242.828,-86.9185C242.49,-81.2225 242.167,-74.8405 242,-69 241.79,-61.6485 241.938,-53.6914 242.229,-46.3331"/>
<polygon fill="black" stroke="black" points="245.736,-46.2819 242.735,-36.1211 238.745,-45.9358 245.736,-46.2819"/>
</g>
<!-- 9 -->
<g id="node10" class="node"><title>9</title>
<ellipse fill="none" stroke="black" cx="244" cy="-192" rx="27" ry="18"/>
<text text-anchor="middle" x="244" y="-188.3" font-family="Times New Roman,serif" font-size="14.00">e</text>
</g>
<!-- 5&#45;&gt;9 -->
<g id="edge24" class="edge"><title>5&#45;&gt;9</title>
<path fill="none" stroke="black" d="M244,-123.175C244,-134.806 244,-150.419 244,-163.734"/>
<polygon fill="black" stroke="black" points="240.5,-163.799 244,-173.799 247.5,-163.799 240.5,-163.799"/>
<text text-anchor="middle" x="247.5" y="-144.8" font-family="Times New Roman,serif" font-size="14.00">k</text>
</g>
<!-- 6&#45;&gt;1 -->
<g id="edge8" class="edge"><title>6&#45;&gt;1</title>
<path fill="none" stroke="black" d="M43.5669,-686.539C56.0106,-699.163 72.5698,-718.288 84.4877,-733.577"/>
<polygon fill="black" stroke="black" points="81.7464,-735.755 90.5757,-741.611 87.3254,-731.527 81.7464,-735.755"/>
</g>
<!-- 7&#45;&gt;0 -->
<g id="edge12" class="edge"><title>7&#45;&gt;0</title>
<path fill="none" stroke="black" d="M234.686,-776.238C224.738,-789.841 208.37,-809.347 194.6,-824.111"/>
<polygon fill="black" stroke="black" points="192.065,-821.697 187.683,-831.343 197.124,-826.535 192.065,-821.697"/>
</g>
<!-- 15 -->
<g id="node16" class="node"><title>15</title>
<ellipse fill="none" stroke="black" cx="249" cy="-672" rx="27" ry="18"/>
<text text-anchor="middle" x="249" y="-668.3" font-family="Times New Roman,serif" font-size="14.00">e</text>
</g>
<!-- 7&#45;&gt;15 -->
<g id="edge25" class="edge"><title>7&#45;&gt;15</title>
<path fill="none" stroke="black" d="M243.919,-740.868C244.465,-731.211 245.204,-718.928 246,-708 246.186,-705.445 246.392,-702.787 246.606,-700.127"/>
<polygon fill="black" stroke="black" points="250.1,-700.34 247.448,-690.083 243.125,-699.756 250.1,-700.34"/>
<text text-anchor="middle" x="248" y="-711.8" font-family="Times New Roman,serif" font-size="14.00">l</text>
</g>
<!-- 8&#45;&gt;5 -->
<g id="edge35" class="edge"><title>8&#45;&gt;5</title>
<path fill="none" stroke="black" d="M244,-36.1754C244,-47.806 244,-63.4194 244,-76.7339"/>
<polygon fill="black" stroke="black" points="240.5,-76.7989 244,-86.799 247.5,-76.799 240.5,-76.7989"/>
<text text-anchor="middle" x="246" y="-57.8" font-family="Times New Roman,serif" font-size="14.00">l</text>
</g>
<!-- 9&#45;&gt;5 -->
<g id="edge23" class="edge"><title>9&#45;&gt;5</title>
<path fill="none" stroke="black" d="M237.112,-174.556C235.036,-168.794 233.035,-162.209 232,-156 230.709,-148.251 231.723,-139.921 233.61,-132.326"/>
<polygon fill="black" stroke="black" points="237.023,-133.133 236.591,-122.547 230.328,-131.092 237.023,-133.133"/>
<text text-anchor="middle" x="235.5" y="-144.8" font-family="Times New Roman,serif" font-size="14.00">k</text>
</g>
<!-- 12 -->
<g id="node13" class="node"><title>12</title>
<ellipse fill="none" stroke="black" cx="244" cy="-265" rx="27" ry="18"/>
<text text-anchor="middle" x="244" y="-261.3" font-family="Times New Roman,serif" font-size="14.00">e</text>
</g>
<!-- 9&#45;&gt;12 -->
<g id="edge22" class="edge"><title>9&#45;&gt;12</title>
<path fill="none" stroke="black" d="M249.827,-209.705C250.708,-217.822 250.959,-227.78 250.577,-236.942"/>
<polygon fill="black" stroke="black" points="247.068,-236.948 249.84,-247.174 254.05,-237.452 247.068,-236.948"/>
</g>
<!-- 10&#45;&gt;1 -->
<g id="edge20" class="edge"><title>10&#45;&gt;1</title>
<path fill="none" stroke="black" d="M104.5,-689.758C105.814,-701.508 106.092,-717.47 105.334,-731.002"/>
<polygon fill="black" stroke="black" points="101.826,-730.956 104.504,-741.207 108.803,-731.524 101.826,-730.956"/>
</g>
<!-- 14 -->
<g id="node15" class="node"><title>14</title>
<ellipse fill="none" stroke="black" cx="91" cy="-585" rx="27" ry="18"/>
<text text-anchor="middle" x="91" y="-581.3" font-family="Times New Roman,serif" font-size="14.00">m,k</text>
</g>
<!-- 10&#45;&gt;14 -->
<g id="edge34" class="edge"><title>10&#45;&gt;14</title>
<path fill="none" stroke="black" d="M97.3811,-653.799C96.2859,-642.163 94.8163,-626.548 93.5635,-613.237"/>
<polygon fill="black" stroke="black" points="97.0382,-612.803 92.6165,-603.175 90.069,-613.459 97.0382,-612.803"/>
</g>
<!-- 11 -->
<g id="node12" class="node"><title>11</title>
<ellipse fill="none" stroke="black" cx="244" cy="-352" rx="27" ry="18"/>
<text text-anchor="middle" x="244" y="-348.3" font-family="Times New Roman,serif" font-size="14.00">m</text>
</g>
<!-- 11&#45;&gt;12 -->
<g id="edge32" class="edge"><title>11&#45;&gt;12</title>
<path fill="none" stroke="black" d="M242.828,-333.919C242.49,-328.222 242.167,-321.84 242,-316 241.79,-308.648 241.938,-300.691 242.229,-293.333"/>
<polygon fill="black" stroke="black" points="245.736,-293.282 242.735,-283.121 238.745,-292.936 245.736,-293.282"/>
</g>
<!-- 18 -->
<g id="node19" class="node"><title>18</title>
<ellipse fill="none" stroke="black" cx="244" cy="-425" rx="28.6953" ry="18"/>
<text text-anchor="middle" x="244" y="-421.3" font-family="Times New Roman,serif" font-size="14.00">e,p,k</text>
</g>
<!-- 11&#45;&gt;18 -->
<g id="edge16" class="edge"><title>11&#45;&gt;18</title>
<path fill="none" stroke="black" d="M249.827,-369.705C250.708,-377.822 250.959,-387.78 250.577,-396.942"/>
<polygon fill="black" stroke="black" points="247.068,-396.948 249.84,-407.174 254.05,-397.452 247.068,-396.948"/>
</g>
<!-- 12&#45;&gt;9 -->
<g id="edge21" class="edge"><title>12&#45;&gt;9</title>
<path fill="none" stroke="black" d="M238.16,-247.174C237.285,-239.039 237.041,-229.076 237.428,-219.921"/>
<polygon fill="black" stroke="black" points="240.937,-219.933 238.173,-209.705 233.955,-219.424 240.937,-219.933"/>
</g>
<!-- 12&#45;&gt;11 -->
<g id="edge31" class="edge"><title>12&#45;&gt;11</title>
<path fill="none" stroke="black" d="M244,-283.175C244,-294.806 244,-310.419 244,-323.734"/>
<polygon fill="black" stroke="black" points="240.5,-323.799 244,-333.799 247.5,-323.799 240.5,-323.799"/>
<text text-anchor="middle" x="246" y="-304.8" font-family="Times New Roman,serif" font-size="14.00">l</text>
</g>
<!-- 13 -->
<g id="node14" class="node"><title>13</title>
<ellipse fill="none" stroke="black" cx="91" cy="-498" rx="27" ry="18"/>
<text text-anchor="middle" x="91" y="-494.3" font-family="Times New Roman,serif" font-size="14.00">e,I</text>
</g>
<!-- 13&#45;&gt;14 -->
<g id="edge17" class="edge"><title>13&#45;&gt;14</title>
<path fill="none" stroke="black" d="M96.4998,-515.758C97.8141,-527.508 98.0921,-543.47 97.3339,-557.002"/>
<polygon fill="black" stroke="black" points="93.8262,-556.956 96.5037,-567.207 100.803,-557.524 93.8262,-556.956"/>
</g>
<!-- 14&#45;&gt;10 -->
<g id="edge33" class="edge"><title>14&#45;&gt;10</title>
<path fill="none" stroke="black" d="M92.6165,-603.175C93.7112,-614.806 95.1807,-630.419 96.4338,-643.734"/>
<polygon fill="black" stroke="black" points="92.9594,-644.171 97.3811,-653.799 99.9286,-643.515 92.9594,-644.171"/>
<text text-anchor="middle" x="98" y="-624.8" font-family="Times New Roman,serif" font-size="14.00">l</text>
</g>
<!-- 14&#45;&gt;13 -->
<g id="edge18" class="edge"><title>14&#45;&gt;13</title>
<path fill="none" stroke="black" d="M85.4963,-567.207C84.1841,-555.448 83.9081,-539.485 84.6683,-525.958"/>
<polygon fill="black" stroke="black" points="88.1756,-526.01 85.5002,-515.758 81.1988,-525.441 88.1756,-526.01"/>
</g>
<!-- 15&#45;&gt;7 -->
<g id="edge26" class="edge"><title>15&#45;&gt;7</title>
<path fill="none" stroke="black" d="M247.788,-690.175C246.967,-701.806 245.865,-717.419 244.925,-730.734"/>
<polygon fill="black" stroke="black" points="241.427,-730.577 244.214,-740.799 248.41,-731.07 241.427,-730.577"/>
</g>
<!-- 16 -->
<g id="node17" class="node"><title>16</title>
<ellipse fill="none" stroke="black" cx="245" cy="-585" rx="27" ry="18"/>
<text text-anchor="middle" x="245" y="-581.3" font-family="Times New Roman,serif" font-size="14.00">e,p</text>
</g>
<!-- 15&#45;&gt;16 -->
<g id="edge27" class="edge"><title>15&#45;&gt;16</title>
<path fill="none" stroke="black" d="M241.541,-654.605C239.292,-648.847 237.124,-642.252 236,-636 234.627,-628.361 235.262,-620.065 236.686,-612.467"/>
<polygon fill="black" stroke="black" points="240.108,-613.203 239.002,-602.666 233.296,-611.593 240.108,-613.203"/>
<text text-anchor="middle" x="238" y="-624.8" font-family="Times New Roman,serif" font-size="14.00">l</text>
</g>
<!-- 16&#45;&gt;15 -->
<g id="edge28" class="edge"><title>16&#45;&gt;15</title>
<path fill="none" stroke="black" d="M245.808,-603.175C246.356,-614.806 247.09,-630.419 247.717,-643.734"/>
<polygon fill="black" stroke="black" points="244.224,-643.975 248.191,-653.799 251.217,-643.645 244.224,-643.975"/>
</g>
<!-- 17 -->
<g id="node18" class="node"><title>17</title>
<ellipse fill="none" stroke="black" cx="244" cy="-498" rx="27" ry="18"/>
<text text-anchor="middle" x="244" y="-494.3" font-family="Times New Roman,serif" font-size="14.00">e,i,p</text>
</g>
<!-- 16&#45;&gt;17 -->
<g id="edge29" class="edge"><title>16&#45;&gt;17</title>
<path fill="none" stroke="black" d="M242.657,-566.944C241.98,-561.249 241.334,-554.862 241,-549 240.581,-541.65 240.768,-533.693 241.205,-526.335"/>
<polygon fill="black" stroke="black" points="244.713,-526.36 241.983,-516.123 237.733,-525.828 244.713,-526.36"/>
<text text-anchor="middle" x="243" y="-537.8" font-family="Times New Roman,serif" font-size="14.00">l</text>
</g>
<!-- 17&#45;&gt;16 -->
<g id="edge30" class="edge"><title>17&#45;&gt;16</title>
<path fill="none" stroke="black" d="M244.202,-516.175C244.339,-527.806 244.523,-543.419 244.679,-556.734"/>
<polygon fill="black" stroke="black" points="241.18,-556.841 244.798,-566.799 248.18,-556.758 241.18,-556.841"/>
</g>
<!-- 17&#45;&gt;18 -->
<g id="edge13" class="edge"><title>17&#45;&gt;18</title>
<path fill="none" stroke="black" d="M238.16,-480.174C237.285,-472.039 237.041,-462.076 237.428,-452.921"/>
<polygon fill="black" stroke="black" points="240.937,-452.933 238.173,-442.705 233.955,-452.424 240.937,-452.933"/>
</g>
<!-- 18&#45;&gt;11 -->
<g id="edge15" class="edge"><title>18&#45;&gt;11</title>
<path fill="none" stroke="black" d="M238.16,-407.174C237.285,-399.039 237.041,-389.076 237.428,-379.921"/>
<polygon fill="black" stroke="black" points="240.937,-379.933 238.173,-369.705 233.955,-379.424 240.937,-379.933"/>
</g>
<!-- 18&#45;&gt;17 -->
<g id="edge14" class="edge"><title>18&#45;&gt;17</title>
<path fill="none" stroke="black" d="M249.827,-442.705C250.708,-450.822 250.959,-460.78 250.577,-469.942"/>
<polygon fill="black" stroke="black" points="247.068,-469.948 249.84,-480.174 254.05,-470.452 247.068,-469.948"/>
</g>
</g>
</svg>
