<?xml version="1.0" encoding="UTF-8" standalone="no"?>
<!DOCTYPE svg PUBLIC "-//W3C//DTD SVG 1.1//EN"
 "http://www.w3.org/Graphics/SVG/1.1/DTD/svg11.dtd">
<!-- Generated by graphviz version 2.38.0 (20140413.2041)
 -->
<!-- Title: %3 Pages: 1 -->
<svg width="367pt" height="1328pt"
 viewBox="0.00 0.00 367.45 1328.00" xmlns="http://www.w3.org/2000/svg" xmlns:xlink="http://www.w3.org/1999/xlink">
<g id="graph0" class="graph" transform="scale(1 1) rotate(0) translate(4 1324)">
<title>%3</title>
<polygon fill="white" stroke="none" points="-4,4 -4,-1324 363.447,-1324 363.447,4 -4,4"/>
<!-- 0 -->
<g id="node1" class="node"><title>0</title>
<ellipse fill="none" stroke="black" cx="163.447" cy="-1302" rx="27" ry="18"/>
<text text-anchor="middle" x="163.447" y="-1298.3" font-family="Times New Roman,serif" font-size="14.00">s</text>
</g>
<!-- 1 -->
<g id="node2" class="node"><title>1</title>
<ellipse fill="none" stroke="black" cx="163.447" cy="-1229" rx="27" ry="18"/>
</g>
<!-- 0&#45;&gt;1 -->
<g id="edge1" class="edge"><title>0&#45;&gt;1</title>
<path fill="none" stroke="black" d="M157.607,-1284.17C156.732,-1276.04 156.488,-1266.08 156.875,-1256.92"/>
<polygon fill="black" stroke="black" points="160.384,-1256.93 157.62,-1246.71 153.402,-1256.42 160.384,-1256.93"/>
</g>
<!-- 1&#45;&gt;0 -->
<g id="edge2" class="edge"><title>1&#45;&gt;0</title>
<path fill="none" stroke="black" d="M169.274,-1246.71C170.155,-1254.82 170.406,-1264.78 170.024,-1273.94"/>
<polygon fill="black" stroke="black" points="166.515,-1273.95 169.287,-1284.17 173.497,-1274.45 166.515,-1273.95"/>
</g>
<!-- 2 -->
<g id="node3" class="node"><title>2</title>
<ellipse fill="none" stroke="black" cx="196.447" cy="-1156" rx="27" ry="18"/>
<text text-anchor="middle" x="196.447" y="-1152.3" font-family="Times New Roman,serif" font-size="14.00">e,p,i</text>
</g>
<!-- 1&#45;&gt;2 -->
<g id="edge3" class="edge"><title>1&#45;&gt;2</title>
<path fill="none" stroke="black" d="M165.557,-1210.81C168.783,-1201.86 173.76,-1190.76 178.883,-1180.97"/>
<polygon fill="black" stroke="black" points="182.011,-1182.55 183.787,-1172.1 175.885,-1179.16 182.011,-1182.55"/>
</g>
<!-- 3 -->
<g id="node4" class="node"><title>3</title>
<ellipse fill="none" stroke="black" cx="124.447" cy="-1156" rx="27" ry="18"/>
<text text-anchor="middle" x="124.447" y="-1152.3" font-family="Times New Roman,serif" font-size="14.00">e</text>
</g>
<!-- 1&#45;&gt;3 -->
<g id="edge5" class="edge"><title>1&#45;&gt;3</title>
<path fill="none" stroke="black" d="M149.773,-1213.29C143.906,-1204.61 137.415,-1193.37 132.307,-1183.22"/>
<polygon fill="black" stroke="black" points="135.351,-1181.47 127.899,-1173.94 129.028,-1184.47 135.351,-1181.47"/>
</g>
<!-- 2&#45;&gt;1 -->
<g id="edge4" class="edge"><title>2&#45;&gt;1</title>
<path fill="none" stroke="black" d="M194.394,-1174.03C191.17,-1183.01 186.165,-1194.18 181.013,-1204.03"/>
<polygon fill="black" stroke="black" points="177.859,-1202.5 176.081,-1212.94 183.984,-1205.89 177.859,-1202.5"/>
</g>
<!-- 8 -->
<g id="node9" class="node"><title>8</title>
<ellipse fill="none" stroke="black" cx="234.447" cy="-1015" rx="27" ry="18"/>
<text text-anchor="middle" x="234.447" y="-1011.3" font-family="Times New Roman,serif" font-size="14.00">e,p</text>
</g>
<!-- 2&#45;&gt;8 -->
<g id="edge53" class="edge"><title>2&#45;&gt;8</title>
<path fill="none" stroke="black" d="M199.564,-1137.85C203.535,-1117.06 211.028,-1081.06 220.447,-1051 221.376,-1048.04 222.442,-1044.97 223.562,-1041.94"/>
<polygon fill="black" stroke="black" points="226.851,-1043.13 227.223,-1032.55 220.329,-1040.59 226.851,-1043.13"/>
<text text-anchor="middle" x="208.447" y="-1108.8" font-family="Times New Roman,serif" font-size="14.00">l</text>
</g>
<!-- 3&#45;&gt;1 -->
<g id="edge6" class="edge"><title>3&#45;&gt;1</title>
<path fill="none" stroke="black" d="M138.066,-1171.63C143.903,-1180.26 150.363,-1191.43 155.469,-1201.55"/>
<polygon fill="black" stroke="black" points="152.422,-1203.29 159.884,-1210.81 158.741,-1200.28 152.422,-1203.29"/>
</g>
<!-- 4 -->
<g id="node5" class="node"><title>4</title>
<ellipse fill="none" stroke="black" cx="105.447" cy="-1069" rx="27" ry="18"/>
<text text-anchor="middle" x="105.447" y="-1065.3" font-family="Times New Roman,serif" font-size="14.00">e,p</text>
</g>
<!-- 3&#45;&gt;4 -->
<g id="edge34" class="edge"><title>3&#45;&gt;4</title>
<path fill="none" stroke="black" d="M117.412,-1138.52C115.197,-1132.75 112.942,-1126.17 111.447,-1120 109.685,-1112.72 108.431,-1104.72 107.541,-1097.29"/>
<polygon fill="black" stroke="black" points="111.019,-1096.89 106.512,-1087.3 104.056,-1097.61 111.019,-1096.89"/>
<text text-anchor="middle" x="113.447" y="-1108.8" font-family="Times New Roman,serif" font-size="14.00">l</text>
</g>
<!-- 4&#45;&gt;3 -->
<g id="edge33" class="edge"><title>4&#45;&gt;3</title>
<path fill="none" stroke="black" d="M109.221,-1086.89C111.823,-1098.53 115.339,-1114.25 118.336,-1127.66"/>
<polygon fill="black" stroke="black" points="115.005,-1128.8 120.602,-1137.8 121.836,-1127.28 115.005,-1128.8"/>
</g>
<!-- 5 -->
<g id="node6" class="node"><title>5</title>
<ellipse fill="none" stroke="black" cx="105.447" cy="-961" rx="27" ry="18"/>
<text text-anchor="middle" x="105.447" y="-957.3" font-family="Times New Roman,serif" font-size="14.00">e,p</text>
</g>
<!-- 4&#45;&gt;5 -->
<g id="edge7" class="edge"><title>4&#45;&gt;5</title>
<path fill="none" stroke="black" d="M100.332,-1050.97C98.4912,-1034.28 98.2047,-1008.58 99.4725,-989.084"/>
<polygon fill="black" stroke="black" points="102.971,-989.251 100.337,-978.988 95.9965,-988.653 102.971,-989.251"/>
</g>
<!-- 5&#45;&gt;4 -->
<g id="edge8" class="edge"><title>5&#45;&gt;4</title>
<path fill="none" stroke="black" d="M110.557,-978.988C112.401,-995.663 112.69,-1021.36 111.425,-1040.87"/>
<polygon fill="black" stroke="black" points="107.925,-1040.71 110.562,-1050.97 114.9,-1041.3 107.925,-1040.71"/>
</g>
<!-- 6 -->
<g id="node7" class="node"><title>6</title>
<ellipse fill="none" stroke="black" cx="124.447" cy="-874" rx="27" ry="18"/>
<text text-anchor="middle" x="124.447" y="-870.3" font-family="Times New Roman,serif" font-size="14.00">m,p</text>
</g>
<!-- 5&#45;&gt;6 -->
<g id="edge32" class="edge"><title>5&#45;&gt;6</title>
<path fill="none" stroke="black" d="M106.512,-942.697C107.361,-932.986 108.855,-920.707 111.447,-910 112.148,-907.106 113.015,-904.124 113.968,-901.178"/>
<polygon fill="black" stroke="black" points="117.362,-902.079 117.412,-891.484 110.766,-899.735 117.362,-902.079"/>
<text text-anchor="middle" x="113.447" y="-913.8" font-family="Times New Roman,serif" font-size="14.00">l</text>
</g>
<!-- 10 -->
<g id="node11" class="node"><title>10</title>
<ellipse fill="none" stroke="black" cx="46.4469" cy="-874" rx="27" ry="18"/>
<text text-anchor="middle" x="46.4469" y="-870.3" font-family="Times New Roman,serif" font-size="14.00">e,p</text>
</g>
<!-- 5&#45;&gt;10 -->
<g id="edge55" class="edge"><title>5&#45;&gt;10</title>
<path fill="none" stroke="black" d="M83.9074,-949.93C73.7132,-944.071 62.2986,-935.711 55.4469,-925 51.1992,-918.359 48.8204,-910.261 47.5233,-902.533"/>
<polygon fill="black" stroke="black" points="50.9766,-901.926 46.3512,-892.394 44.023,-902.73 50.9766,-901.926"/>
<text text-anchor="middle" x="57.4469" y="-913.8" font-family="Times New Roman,serif" font-size="14.00">l</text>
</g>
<!-- 6&#45;&gt;5 -->
<g id="edge31" class="edge"><title>6&#45;&gt;5</title>
<path fill="none" stroke="black" d="M120.673,-891.885C118.071,-903.525 114.555,-919.253 111.557,-932.664"/>
<polygon fill="black" stroke="black" points="108.058,-932.276 109.292,-942.799 114.889,-933.803 108.058,-932.276"/>
</g>
<!-- 17 -->
<g id="node18" class="node"><title>17</title>
<ellipse fill="none" stroke="black" cx="234.447" cy="-787" rx="27" ry="18"/>
<text text-anchor="middle" x="234.447" y="-783.3" font-family="Times New Roman,serif" font-size="14.00">e,p</text>
</g>
<!-- 6&#45;&gt;17 -->
<g id="edge61" class="edge"><title>6&#45;&gt;17</title>
<path fill="none" stroke="black" d="M141.634,-859.719C159.797,-845.684 188.623,-823.409 209.332,-807.407"/>
<polygon fill="black" stroke="black" points="211.607,-810.072 217.38,-801.188 207.327,-804.533 211.607,-810.072"/>
<text text-anchor="middle" x="188.447" y="-826.8" font-family="Times New Roman,serif" font-size="14.00">l</text>
</g>
<!-- 23 -->
<g id="node24" class="node"><title>23</title>
<ellipse fill="none" stroke="black" cx="113.447" cy="-787" rx="27" ry="18"/>
<text text-anchor="middle" x="113.447" y="-783.3" font-family="Times New Roman,serif" font-size="14.00">e,p</text>
</g>
<!-- 6&#45;&gt;23 -->
<g id="edge29" class="edge"><title>6&#45;&gt;23</title>
<path fill="none" stroke="black" d="M116.417,-856.657C113.996,-850.903 111.66,-844.298 110.447,-838 109.039,-830.687 108.908,-822.671 109.358,-815.241"/>
<polygon fill="black" stroke="black" points="112.845,-815.549 110.309,-805.262 105.876,-814.885 112.845,-815.549"/>
</g>
<!-- 7 -->
<g id="node8" class="node"><title>7</title>
<ellipse fill="none" stroke="black" cx="332.447" cy="-366" rx="27" ry="18"/>
<text text-anchor="middle" x="332.447" y="-362.3" font-family="Times New Roman,serif" font-size="14.00">p</text>
</g>
<!-- 30 -->
<g id="node31" class="node"><title>30</title>
<ellipse fill="none" stroke="black" cx="277.447" cy="-453" rx="27" ry="18"/>
<text text-anchor="middle" x="277.447" y="-449.3" font-family="Times New Roman,serif" font-size="14.00">p</text>
</g>
<!-- 7&#45;&gt;30 -->
<g id="edge43" class="edge"><title>7&#45;&gt;30</title>
<path fill="none" stroke="black" d="M314.566,-379.645C307.141,-385.678 298.984,-393.447 293.447,-402 288.97,-408.916 285.659,-417.181 283.25,-424.981"/>
<polygon fill="black" stroke="black" points="279.823,-424.246 280.58,-434.814 286.578,-426.081 279.823,-424.246"/>
</g>
<!-- 8&#45;&gt;2 -->
<g id="edge54" class="edge"><title>8&#45;&gt;2</title>
<path fill="none" stroke="black" d="M232.142,-1033.29C229.045,-1054.22 222.711,-1090.35 212.447,-1120 211.409,-1123 210.206,-1126.09 208.935,-1129.13"/>
<polygon fill="black" stroke="black" points="205.62,-1127.97 204.76,-1138.53 212.018,-1130.81 205.62,-1127.97"/>
<text text-anchor="middle" x="219.447" y="-1108.8" font-family="Times New Roman,serif" font-size="14.00">l</text>
</g>
<!-- 8&#45;&gt;7 -->
<g id="edge42" class="edge"><title>8&#45;&gt;7</title>
<path fill="none" stroke="black" d="M256.685,-1004.34C285.599,-990.105 332.447,-960.549 332.447,-918.5 332.447,-918.5 332.447,-918.5 332.447,-452 332.447,-432.753 332.447,-411.054 332.447,-394.397"/>
<polygon fill="black" stroke="black" points="335.947,-394.256 332.447,-384.256 328.947,-394.256 335.947,-394.256"/>
</g>
<!-- 8&#45;&gt;17 -->
<g id="edge41" class="edge"><title>8&#45;&gt;17</title>
<path fill="none" stroke="black" d="M234.447,-996.641C234.447,-957.518 234.447,-862.209 234.447,-815.172"/>
<polygon fill="black" stroke="black" points="237.947,-815.108 234.447,-805.108 230.947,-815.108 237.947,-815.108"/>
</g>
<!-- 9 -->
<g id="node10" class="node"><title>9</title>
<ellipse fill="none" stroke="black" cx="34.4469" cy="-787" rx="34.394" ry="18"/>
<text text-anchor="middle" x="34.4469" y="-783.3" font-family="Times New Roman,serif" font-size="14.00">e,p,k,I</text>
</g>
<!-- 9&#45;&gt;10 -->
<g id="edge16" class="edge"><title>9&#45;&gt;10</title>
<path fill="none" stroke="black" d="M42.2717,-804.597C45.2326,-816.244 47.7608,-832.087 48.9343,-845.593"/>
<polygon fill="black" stroke="black" points="45.4548,-846.035 49.5672,-855.799 52.4414,-845.601 45.4548,-846.035"/>
</g>
<!-- 10&#45;&gt;5 -->
<g id="edge56" class="edge"><title>10&#45;&gt;5</title>
<path fill="none" stroke="black" d="M57.3997,-890.779C66.1974,-903.454 78.698,-921.463 88.7432,-935.935"/>
<polygon fill="black" stroke="black" points="86.048,-938.19 94.6254,-944.41 91.7985,-934.199 86.048,-938.19"/>
<text text-anchor="middle" x="82.4469" y="-913.8" font-family="Times New Roman,serif" font-size="14.00">l</text>
</g>
<!-- 10&#45;&gt;9 -->
<g id="edge15" class="edge"><title>10&#45;&gt;9</title>
<path fill="none" stroke="black" d="M38.6752,-856.611C35.6961,-844.963 33.1479,-829.042 31.9651,-815.469"/>
<polygon fill="black" stroke="black" points="35.4413,-814.977 31.3271,-805.214 28.4548,-815.412 35.4413,-814.977"/>
</g>
<!-- 11 -->
<g id="node12" class="node"><title>11</title>
<ellipse fill="none" stroke="black" cx="188.447" cy="-366" rx="27" ry="18"/>
<text text-anchor="middle" x="188.447" y="-362.3" font-family="Times New Roman,serif" font-size="14.00">e,p</text>
</g>
<!-- 16 -->
<g id="node17" class="node"><title>16</title>
<ellipse fill="none" stroke="black" cx="205.447" cy="-453" rx="27" ry="18"/>
<text text-anchor="middle" x="205.447" y="-449.3" font-family="Times New Roman,serif" font-size="14.00">p</text>
</g>
<!-- 11&#45;&gt;16 -->
<g id="edge35" class="edge"><title>11&#45;&gt;16</title>
<path fill="none" stroke="black" d="M191.824,-383.885C194.152,-395.525 197.298,-411.253 199.98,-424.664"/>
<polygon fill="black" stroke="black" points="196.613,-425.68 202.007,-434.799 203.478,-424.307 196.613,-425.68"/>
<text text-anchor="middle" x="200.447" y="-405.8" font-family="Times New Roman,serif" font-size="14.00">l</text>
</g>
<!-- 25 -->
<g id="node26" class="node"><title>25</title>
<ellipse fill="none" stroke="black" cx="181.447" cy="-279" rx="27" ry="18"/>
<text text-anchor="middle" x="181.447" y="-275.3" font-family="Times New Roman,serif" font-size="14.00">e</text>
</g>
<!-- 11&#45;&gt;25 -->
<g id="edge59" class="edge"><title>11&#45;&gt;25</title>
<path fill="none" stroke="black" d="M183.764,-348.042C182.411,-342.354 181.118,-335.946 180.447,-330 179.623,-322.696 179.453,-314.755 179.595,-307.397"/>
<polygon fill="black" stroke="black" points="183.101,-307.303 179.986,-297.176 176.106,-307.035 183.101,-307.303"/>
<text text-anchor="middle" x="182.447" y="-318.8" font-family="Times New Roman,serif" font-size="14.00">l</text>
</g>
<!-- 12 -->
<g id="node13" class="node"><title>12</title>
<ellipse fill="none" stroke="black" cx="103.447" cy="-279" rx="27" ry="18"/>
<text text-anchor="middle" x="103.447" y="-275.3" font-family="Times New Roman,serif" font-size="14.00">e,p</text>
</g>
<!-- 28 -->
<g id="node29" class="node"><title>28</title>
<ellipse fill="none" stroke="black" cx="76.4469" cy="-366" rx="28.6953" ry="18"/>
<text text-anchor="middle" x="76.4469" y="-362.3" font-family="Times New Roman,serif" font-size="14.00">e,k,p</text>
</g>
<!-- 12&#45;&gt;28 -->
<g id="edge58" class="edge"><title>12&#45;&gt;28</title>
<path fill="none" stroke="black" d="M98.1237,-296.758C94.3544,-308.625 89.2206,-324.787 84.8953,-338.403"/>
<polygon fill="black" stroke="black" points="81.473,-337.616 81.7813,-348.207 88.1445,-339.736 81.473,-337.616"/>
<text text-anchor="middle" x="94.4469" y="-318.8" font-family="Times New Roman,serif" font-size="14.00">l</text>
</g>
<!-- 13 -->
<g id="node14" class="node"><title>13</title>
<ellipse fill="none" stroke="black" cx="277.447" cy="-700" rx="27" ry="18"/>
<text text-anchor="middle" x="277.447" y="-696.3" font-family="Times New Roman,serif" font-size="14.00">e,p,i</text>
</g>
<!-- 13&#45;&gt;17 -->
<g id="edge21" class="edge"><title>13&#45;&gt;17</title>
<path fill="none" stroke="black" d="M269.182,-717.339C263.001,-729.555 254.434,-746.491 247.354,-760.486"/>
<polygon fill="black" stroke="black" points="244.129,-759.108 242.738,-769.611 250.375,-762.268 244.129,-759.108"/>
<text text-anchor="middle" x="262.947" y="-739.8" font-family="Times New Roman,serif" font-size="14.00">k</text>
</g>
<!-- 14 -->
<g id="node15" class="node"><title>14</title>
<ellipse fill="none" stroke="black" cx="206.447" cy="-627" rx="27" ry="18"/>
<text text-anchor="middle" x="206.447" y="-623.3" font-family="Times New Roman,serif" font-size="14.00">p</text>
</g>
<!-- 14&#45;&gt;12 -->
<g id="edge39" class="edge"><title>14&#45;&gt;12</title>
<path fill="none" stroke="black" d="M186.499,-614.358C164.885,-600.074 133.447,-573.68 133.447,-541 133.447,-541 133.447,-541 133.447,-365 133.447,-343.939 125.155,-321.529 117.29,-305.01"/>
<polygon fill="black" stroke="black" points="120.391,-303.385 112.775,-296.02 114.135,-306.527 120.391,-303.385"/>
</g>
<!-- 18 -->
<g id="node19" class="node"><title>18</title>
<ellipse fill="none" stroke="black" cx="208.447" cy="-540" rx="27" ry="18"/>
<text text-anchor="middle" x="208.447" y="-536.3" font-family="Times New Roman,serif" font-size="14.00">p</text>
</g>
<!-- 14&#45;&gt;18 -->
<g id="edge49" class="edge"><title>14&#45;&gt;18</title>
<path fill="none" stroke="black" d="M201.338,-609.207C200.303,-597.448 200.402,-581.485 201.481,-567.958"/>
<polygon fill="black" stroke="black" points="204.988,-568.069 202.553,-557.758 198.027,-567.338 204.988,-568.069"/>
</g>
<!-- 15 -->
<g id="node16" class="node"><title>15</title>
<ellipse fill="none" stroke="black" cx="260.447" cy="-366" rx="27" ry="18"/>
<text text-anchor="middle" x="260.447" y="-362.3" font-family="Times New Roman,serif" font-size="14.00">m</text>
</g>
<!-- 15&#45;&gt;16 -->
<g id="edge37" class="edge"><title>15&#45;&gt;16</title>
<path fill="none" stroke="black" d="M250.148,-382.916C242.018,-395.481 230.536,-413.226 221.244,-427.586"/>
<polygon fill="black" stroke="black" points="218.286,-425.715 215.792,-436.012 224.163,-429.518 218.286,-425.715"/>
</g>
<!-- 16&#45;&gt;11 -->
<g id="edge36" class="edge"><title>16&#45;&gt;11</title>
<path fill="none" stroke="black" d="M198.272,-435.548C196.046,-429.785 193.819,-423.202 192.447,-417 190.836,-409.718 189.855,-401.713 189.263,-394.283"/>
<polygon fill="black" stroke="black" points="192.757,-394.069 188.66,-384.298 185.769,-394.491 192.757,-394.069"/>
</g>
<!-- 16&#45;&gt;15 -->
<g id="edge38" class="edge"><title>16&#45;&gt;15</title>
<path fill="none" stroke="black" d="M220.236,-437.861C226.067,-431.796 232.53,-424.409 237.447,-417 242.33,-409.642 246.685,-401.08 250.257,-393.142"/>
<polygon fill="black" stroke="black" points="253.498,-394.464 254.208,-383.892 247.061,-391.714 253.498,-394.464"/>
<text text-anchor="middle" x="248.447" y="-405.8" font-family="Times New Roman,serif" font-size="14.00">l</text>
</g>
<!-- 16&#45;&gt;18 -->
<g id="edge45" class="edge"><title>16&#45;&gt;18</title>
<path fill="none" stroke="black" d="M206.053,-471.175C206.464,-482.806 207.015,-498.419 207.485,-511.734"/>
<polygon fill="black" stroke="black" points="203.989,-511.929 207.84,-521.799 210.985,-511.682 203.989,-511.929"/>
</g>
<!-- 17&#45;&gt;13 -->
<g id="edge22" class="edge"><title>17&#45;&gt;13</title>
<path fill="none" stroke="black" d="M235.548,-768.551C236.748,-758.568 239.248,-746.068 244.447,-736 247.034,-730.991 250.55,-726.191 254.327,-721.836"/>
<polygon fill="black" stroke="black" points="256.914,-724.195 261.261,-714.533 251.837,-719.375 256.914,-724.195"/>
<text text-anchor="middle" x="247.947" y="-739.8" font-family="Times New Roman,serif" font-size="14.00">k</text>
</g>
<!-- 29 -->
<g id="node30" class="node"><title>29</title>
<ellipse fill="none" stroke="black" cx="205.447" cy="-700" rx="27" ry="18"/>
<text text-anchor="middle" x="205.447" y="-696.3" font-family="Times New Roman,serif" font-size="14.00">p</text>
</g>
<!-- 17&#45;&gt;29 -->
<g id="edge40" class="edge"><title>17&#45;&gt;29</title>
<path fill="none" stroke="black" d="M227.447,-769.38C225.109,-763.603 222.561,-757.055 220.447,-751 217.818,-743.471 215.223,-735.21 212.951,-727.609"/>
<polygon fill="black" stroke="black" points="216.245,-726.402 210.079,-717.786 209.526,-728.367 216.245,-726.402"/>
</g>
<!-- 18&#45;&gt;14 -->
<g id="edge50" class="edge"><title>18&#45;&gt;14</title>
<path fill="none" stroke="black" d="M213.552,-557.758C214.59,-569.508 214.493,-585.47 213.416,-599.002"/>
<polygon fill="black" stroke="black" points="209.908,-598.896 212.346,-609.207 216.87,-599.626 209.908,-598.896"/>
</g>
<!-- 18&#45;&gt;16 -->
<g id="edge46" class="edge"><title>18&#45;&gt;16</title>
<path fill="none" stroke="black" d="M203.181,-522.077C201.658,-516.391 200.203,-509.975 199.447,-504 198.507,-496.572 198.868,-488.518 199.764,-481.088"/>
<polygon fill="black" stroke="black" points="203.234,-481.549 201.307,-471.131 196.316,-480.477 203.234,-481.549"/>
<text text-anchor="middle" x="201.447" y="-492.8" font-family="Times New Roman,serif" font-size="14.00">l</text>
</g>
<!-- 18&#45;&gt;30 -->
<g id="edge51" class="edge"><title>18&#45;&gt;30</title>
<path fill="none" stroke="black" d="M216.293,-522.611C225.715,-509.097 241.196,-489.833 254.346,-475.155"/>
<polygon fill="black" stroke="black" points="257.16,-477.267 261.358,-467.539 252.01,-472.525 257.16,-477.267"/>
</g>
<!-- 19 -->
<g id="node20" class="node"><title>19</title>
<ellipse fill="none" stroke="black" cx="181.447" cy="-105" rx="27" ry="18"/>
<text text-anchor="middle" x="181.447" y="-101.3" font-family="Times New Roman,serif" font-size="14.00">b</text>
</g>
<!-- 20 -->
<g id="node21" class="node"><title>20</title>
<ellipse fill="none" stroke="black" cx="181.447" cy="-18" rx="27" ry="18"/>
<text text-anchor="middle" x="181.447" y="-14.3" font-family="Times New Roman,serif" font-size="14.00">t</text>
</g>
<!-- 19&#45;&gt;20 -->
<g id="edge25" class="edge"><title>19&#45;&gt;20</title>
<path fill="none" stroke="black" d="M180.275,-86.9185C179.937,-81.2225 179.614,-74.8405 179.447,-69 179.237,-61.6485 179.385,-53.6914 179.676,-46.3331"/>
<polygon fill="black" stroke="black" points="183.183,-46.2819 180.182,-36.1211 176.192,-45.9358 183.183,-46.2819"/>
</g>
<!-- 26 -->
<g id="node27" class="node"><title>26</title>
<ellipse fill="none" stroke="black" cx="181.447" cy="-192" rx="27" ry="18"/>
<text text-anchor="middle" x="181.447" y="-188.3" font-family="Times New Roman,serif" font-size="14.00">e,p,i</text>
</g>
<!-- 19&#45;&gt;26 -->
<g id="edge20" class="edge"><title>19&#45;&gt;26</title>
<path fill="none" stroke="black" d="M181.447,-123.175C181.447,-134.806 181.447,-150.419 181.447,-163.734"/>
<polygon fill="black" stroke="black" points="177.947,-163.799 181.447,-173.799 184.947,-163.799 177.947,-163.799"/>
<text text-anchor="middle" x="183.447" y="-144.8" font-family="Times New Roman,serif" font-size="14.00">l</text>
</g>
<!-- 20&#45;&gt;19 -->
<g id="edge26" class="edge"><title>20&#45;&gt;19</title>
<path fill="none" stroke="black" d="M181.447,-36.1754C181.447,-47.806 181.447,-63.4194 181.447,-76.7339"/>
<polygon fill="black" stroke="black" points="177.947,-76.7989 181.447,-86.799 184.947,-76.799 177.947,-76.7989"/>
<text text-anchor="middle" x="183.447" y="-57.8" font-family="Times New Roman,serif" font-size="14.00">l</text>
</g>
<!-- 21 -->
<g id="node22" class="node"><title>21</title>
<ellipse fill="none" stroke="black" cx="105.447" cy="-627" rx="27" ry="18"/>
<text text-anchor="middle" x="105.447" y="-623.3" font-family="Times New Roman,serif" font-size="14.00">e,p,i</text>
</g>
<!-- 22 -->
<g id="node23" class="node"><title>22</title>
<ellipse fill="none" stroke="black" cx="78.4469" cy="-540" rx="27" ry="18"/>
<text text-anchor="middle" x="78.4469" y="-536.3" font-family="Times New Roman,serif" font-size="14.00">e,p</text>
</g>
<!-- 21&#45;&gt;22 -->
<g id="edge17" class="edge"><title>21&#45;&gt;22</title>
<path fill="none" stroke="black" d="M100.113,-609.207C96.3406,-597.332 91.2063,-581.168 86.8826,-567.557"/>
<polygon fill="black" stroke="black" points="90.1334,-566.229 83.7702,-557.758 83.4619,-568.349 90.1334,-566.229"/>
<text text-anchor="middle" x="96.4469" y="-579.8" font-family="Times New Roman,serif" font-size="14.00">l</text>
</g>
<!-- 24 -->
<g id="node25" class="node"><title>24</title>
<ellipse fill="none" stroke="black" cx="108.447" cy="-700" rx="27" ry="18"/>
<text text-anchor="middle" x="108.447" y="-696.3" font-family="Times New Roman,serif" font-size="14.00">e,p,i</text>
</g>
<!-- 21&#45;&gt;24 -->
<g id="edge12" class="edge"><title>21&#45;&gt;24</title>
<path fill="none" stroke="black" d="M111.98,-644.705C113.204,-652.822 113.875,-662.78 113.881,-671.942"/>
<polygon fill="black" stroke="black" points="110.376,-672.074 113.576,-682.174 117.373,-672.283 110.376,-672.074"/>
</g>
<!-- 22&#45;&gt;21 -->
<g id="edge18" class="edge"><title>22&#45;&gt;21</title>
<path fill="none" stroke="black" d="M78.7278,-558.06C79.3214,-567.913 80.8214,-580.413 84.4469,-591 85.6666,-594.562 87.2843,-598.152 89.0825,-601.606"/>
<polygon fill="black" stroke="black" points="86.0817,-603.409 94.1141,-610.318 92.1433,-599.908 86.0817,-603.409"/>
<text text-anchor="middle" x="86.4469" y="-579.8" font-family="Times New Roman,serif" font-size="14.00">l</text>
</g>
<!-- 27 -->
<g id="node28" class="node"><title>27</title>
<ellipse fill="none" stroke="black" cx="78.4469" cy="-453" rx="27" ry="18"/>
<text text-anchor="middle" x="78.4469" y="-449.3" font-family="Times New Roman,serif" font-size="14.00">m,p</text>
</g>
<!-- 22&#45;&gt;27 -->
<g id="edge13" class="edge"><title>22&#45;&gt;27</title>
<path fill="none" stroke="black" d="M72.9432,-522.207C71.631,-510.448 71.355,-494.485 72.1153,-480.958"/>
<polygon fill="black" stroke="black" points="75.6225,-481.01 72.9471,-470.758 68.6457,-480.441 75.6225,-481.01"/>
</g>
<!-- 23&#45;&gt;6 -->
<g id="edge30" class="edge"><title>23&#45;&gt;6</title>
<path fill="none" stroke="black" d="M115.67,-805.175C117.175,-816.806 119.195,-832.419 120.918,-845.734"/>
<polygon fill="black" stroke="black" points="117.466,-846.331 122.221,-855.799 124.408,-845.432 117.466,-846.331"/>
<text text-anchor="middle" x="122.447" y="-826.8" font-family="Times New Roman,serif" font-size="14.00">l</text>
</g>
<!-- 23&#45;&gt;24 -->
<g id="edge9" class="edge"><title>23&#45;&gt;24</title>
<path fill="none" stroke="black" d="M106.955,-769.207C104.952,-757.448 103.736,-741.485 103.701,-727.958"/>
<polygon fill="black" stroke="black" points="107.205,-727.835 103.933,-717.758 100.206,-727.676 107.205,-727.835"/>
</g>
<!-- 24&#45;&gt;21 -->
<g id="edge11" class="edge"><title>24&#45;&gt;21</title>
<path fill="none" stroke="black" d="M101.896,-682.174C100.677,-674.039 100.012,-664.076 100.013,-654.921"/>
<polygon fill="black" stroke="black" points="103.518,-654.808 100.326,-644.705 96.5211,-654.593 103.518,-654.808"/>
</g>
<!-- 24&#45;&gt;23 -->
<g id="edge10" class="edge"><title>24&#45;&gt;23</title>
<path fill="none" stroke="black" d="M114.933,-717.758C116.938,-729.508 118.155,-745.47 118.193,-759.002"/>
<polygon fill="black" stroke="black" points="114.689,-759.13 117.963,-769.207 121.687,-759.288 114.689,-759.13"/>
</g>
<!-- 25&#45;&gt;11 -->
<g id="edge60" class="edge"><title>25&#45;&gt;11</title>
<path fill="none" stroke="black" d="M182.861,-297.175C183.819,-308.806 185.105,-324.419 186.202,-337.734"/>
<polygon fill="black" stroke="black" points="182.721,-338.12 187.03,-347.799 189.698,-337.545 182.721,-338.12"/>
<text text-anchor="middle" x="187.447" y="-318.8" font-family="Times New Roman,serif" font-size="14.00">l</text>
</g>
<!-- 25&#45;&gt;26 -->
<g id="edge23" class="edge"><title>25&#45;&gt;26</title>
<path fill="none" stroke="black" d="M174.559,-261.556C172.483,-255.794 170.482,-249.209 169.447,-243 168.155,-235.251 169.17,-226.921 171.057,-219.326"/>
<polygon fill="black" stroke="black" points="174.47,-220.133 174.038,-209.547 167.774,-218.092 174.47,-220.133"/>
<text text-anchor="middle" x="172.947" y="-231.8" font-family="Times New Roman,serif" font-size="14.00">k</text>
</g>
<!-- 26&#45;&gt;19 -->
<g id="edge19" class="edge"><title>26&#45;&gt;19</title>
<path fill="none" stroke="black" d="M177.349,-174.012C176.164,-168.322 175.033,-161.92 174.447,-156 173.707,-148.53 174.246,-140.462 175.29,-133.033"/>
<polygon fill="black" stroke="black" points="178.755,-133.536 177.023,-123.083 171.859,-132.335 178.755,-133.536"/>
<text text-anchor="middle" x="176.447" y="-144.8" font-family="Times New Roman,serif" font-size="14.00">l</text>
</g>
<!-- 26&#45;&gt;25 -->
<g id="edge24" class="edge"><title>26&#45;&gt;25</title>
<path fill="none" stroke="black" d="M181.447,-210.175C181.447,-221.806 181.447,-237.419 181.447,-250.734"/>
<polygon fill="black" stroke="black" points="177.947,-250.799 181.447,-260.799 184.947,-250.799 177.947,-250.799"/>
<text text-anchor="middle" x="184.947" y="-231.8" font-family="Times New Roman,serif" font-size="14.00">k</text>
</g>
<!-- 27&#45;&gt;22 -->
<g id="edge14" class="edge"><title>27&#45;&gt;22</title>
<path fill="none" stroke="black" d="M83.9468,-470.758C85.261,-482.508 85.5391,-498.47 84.7809,-512.002"/>
<polygon fill="black" stroke="black" points="81.2732,-511.956 83.9507,-522.207 88.2501,-512.524 81.2732,-511.956"/>
</g>
<!-- 27&#45;&gt;28 -->
<g id="edge27" class="edge"><title>27&#45;&gt;28</title>
<path fill="none" stroke="black" d="M78.0422,-434.799C77.7684,-423.163 77.401,-407.548 77.0878,-394.237"/>
<polygon fill="black" stroke="black" points="80.5854,-394.09 76.8511,-384.175 73.5874,-394.255 80.5854,-394.09"/>
</g>
<!-- 28&#45;&gt;12 -->
<g id="edge57" class="edge"><title>28&#45;&gt;12</title>
<path fill="none" stroke="black" d="M76.7278,-347.94C77.3214,-338.087 78.8214,-325.587 82.4469,-315 83.6666,-311.438 85.2843,-307.848 87.0825,-304.394"/>
<polygon fill="black" stroke="black" points="90.1433,-306.092 92.1141,-295.682 84.0817,-302.591 90.1433,-306.092"/>
<text text-anchor="middle" x="84.4469" y="-318.8" font-family="Times New Roman,serif" font-size="14.00">l</text>
</g>
<!-- 28&#45;&gt;27 -->
<g id="edge28" class="edge"><title>28&#45;&gt;27</title>
<path fill="none" stroke="black" d="M74.942,-384.131C74.2993,-393.788 73.8245,-406.071 74.4469,-417 74.593,-419.565 74.7988,-422.23 75.0408,-424.893"/>
<polygon fill="black" stroke="black" points="71.5713,-425.367 76.1038,-434.944 78.5325,-424.631 71.5713,-425.367"/>
<text text-anchor="middle" x="76.4469" y="-405.8" font-family="Times New Roman,serif" font-size="14.00">l</text>
</g>
<!-- 29&#45;&gt;14 -->
<g id="edge47" class="edge"><title>29&#45;&gt;14</title>
<path fill="none" stroke="black" d="M205.689,-681.813C205.802,-673.789 205.939,-664.047 206.066,-655.069"/>
<polygon fill="black" stroke="black" points="209.566,-655.077 206.207,-645.029 202.567,-654.979 209.566,-655.077"/>
</g>
<!-- 29&#45;&gt;30 -->
<g id="edge48" class="edge"><title>29&#45;&gt;30</title>
<path fill="none" stroke="black" d="M218.332,-683.947C226.483,-673.637 236.557,-659.289 242.447,-645 265.248,-589.683 273.257,-519.264 276.024,-481.271"/>
<polygon fill="black" stroke="black" points="279.535,-481.222 276.7,-471.013 272.55,-480.762 279.535,-481.222"/>
</g>
<!-- 30&#45;&gt;7 -->
<g id="edge44" class="edge"><title>30&#45;&gt;7</title>
<path fill="none" stroke="black" d="M287.792,-436.012C295.935,-423.427 307.419,-405.679 316.702,-391.333"/>
<polygon fill="black" stroke="black" points="319.654,-393.213 322.148,-382.916 313.777,-389.41 319.654,-393.213"/>
<text text-anchor="middle" x="310.447" y="-405.8" font-family="Times New Roman,serif" font-size="14.00">l</text>
</g>
<!-- 30&#45;&gt;18 -->
<g id="edge52" class="edge"><title>30&#45;&gt;18</title>
<path fill="none" stroke="black" d="M269.497,-470.539C260.085,-484.017 244.713,-503.143 231.629,-517.755"/>
<polygon fill="black" stroke="black" points="228.842,-515.614 224.648,-525.343 233.994,-520.353 228.842,-515.614"/>
</g>
</g>
</svg>
