<?xml version="1.0" encoding="UTF-8" standalone="no"?>
<!DOCTYPE svg PUBLIC "-//W3C//DTD SVG 1.1//EN"
 "http://www.w3.org/Graphics/SVG/1.1/DTD/svg11.dtd">
<!-- Generated by graphviz version 2.38.0 (20140413.2041)
 -->
<!-- Title: %3 Pages: 1 -->
<svg width="446pt" height="1669pt"
 viewBox="0.00 0.00 446.00 1669.00" xmlns="http://www.w3.org/2000/svg" xmlns:xlink="http://www.w3.org/1999/xlink">
<g id="graph0" class="graph" transform="scale(1 1) rotate(0) translate(4 1665)">
<title>%3</title>
<polygon fill="white" stroke="none" points="-4,4 -4,-1665 442,-1665 442,4 -4,4"/>
<!-- 0 -->
<g id="node1" class="node"><title>0</title>
<ellipse fill="none" stroke="black" cx="272" cy="-1643" rx="28.6953" ry="18"/>
<text text-anchor="middle" x="272" y="-1639.3" font-family="Times New Roman,serif" font-size="14.00">e,p,k</text>
</g>
<!-- 11 -->
<g id="node12" class="node"><title>11</title>
<ellipse fill="none" stroke="black" cx="272" cy="-1556" rx="27" ry="18"/>
<text text-anchor="middle" x="272" y="-1552.3" font-family="Times New Roman,serif" font-size="14.00">e</text>
</g>
<!-- 0&#45;&gt;11 -->
<g id="edge49" class="edge"><title>0&#45;&gt;11</title>
<path fill="none" stroke="black" d="M264.541,-1625.61C262.292,-1619.85 260.124,-1613.25 259,-1607 257.588,-1599.14 258.729,-1590.71 260.819,-1583.04"/>
<polygon fill="black" stroke="black" points="264.149,-1584.12 263.977,-1573.53 257.505,-1581.91 264.149,-1584.12"/>
<text text-anchor="middle" x="263" y="-1595.8" font-family="Times New Roman,serif" font-size="14.00">b</text>
</g>
<!-- 1 -->
<g id="node2" class="node"><title>1</title>
<ellipse fill="none" stroke="black" cx="27" cy="-1121" rx="27" ry="18"/>
<text text-anchor="middle" x="27" y="-1117.3" font-family="Times New Roman,serif" font-size="14.00">t</text>
</g>
<!-- 2 -->
<g id="node3" class="node"><title>2</title>
<ellipse fill="none" stroke="black" cx="63" cy="-1208" rx="27" ry="18"/>
<text text-anchor="middle" x="63" y="-1204.3" font-family="Times New Roman,serif" font-size="14.00">b</text>
</g>
<!-- 1&#45;&gt;2 -->
<g id="edge60" class="edge"><title>1&#45;&gt;2</title>
<path fill="none" stroke="black" d="M33.9752,-1138.47C39.0528,-1150.46 46.0341,-1166.94 51.8774,-1180.74"/>
<polygon fill="black" stroke="black" points="48.7647,-1182.36 55.8876,-1190.21 55.2104,-1179.63 48.7647,-1182.36"/>
<text text-anchor="middle" x="50" y="-1160.8" font-family="Times New Roman,serif" font-size="14.00">l</text>
</g>
<!-- 2&#45;&gt;1 -->
<g id="edge59" class="edge"><title>2&#45;&gt;1</title>
<path fill="none" stroke="black" d="M52.2993,-1191.07C48.6938,-1185.24 44.8632,-1178.48 42,-1172 38.7776,-1164.7 35.9982,-1156.52 33.7379,-1148.91"/>
<polygon fill="black" stroke="black" points="37.0429,-1147.73 30.9847,-1139.04 30.3003,-1149.61 37.0429,-1147.73"/>
</g>
<!-- 7 -->
<g id="node8" class="node"><title>7</title>
<ellipse fill="none" stroke="black" cx="84" cy="-1295" rx="27" ry="18"/>
<text text-anchor="middle" x="84" y="-1291.3" font-family="Times New Roman,serif" font-size="14.00">m,p</text>
</g>
<!-- 2&#45;&gt;7 -->
<g id="edge61" class="edge"><title>2&#45;&gt;7</title>
<path fill="none" stroke="black" d="M67.2122,-1226.05C70.1419,-1237.91 74.1055,-1253.95 77.4458,-1267.47"/>
<polygon fill="black" stroke="black" points="74.0547,-1268.34 79.8511,-1277.21 80.8504,-1266.66 74.0547,-1268.34"/>
</g>
<!-- 3 -->
<g id="node4" class="node"><title>3</title>
<ellipse fill="none" stroke="black" cx="149" cy="-1469" rx="27" ry="18"/>
<text text-anchor="middle" x="149" y="-1465.3" font-family="Times New Roman,serif" font-size="14.00">m</text>
</g>
<!-- 4 -->
<g id="node5" class="node"><title>4</title>
<ellipse fill="none" stroke="black" cx="121" cy="-1382" rx="27" ry="18"/>
<text text-anchor="middle" x="121" y="-1378.3" font-family="Times New Roman,serif" font-size="14.00">e,p</text>
</g>
<!-- 3&#45;&gt;4 -->
<g id="edge57" class="edge"><title>3&#45;&gt;4</title>
<path fill="none" stroke="black" d="M143.752,-1451.31C140.67,-1441.57 136.67,-1429.07 133,-1418 132.072,-1415.2 131.09,-1412.28 130.104,-1409.37"/>
<polygon fill="black" stroke="black" points="133.352,-1408.04 126.808,-1399.71 126.727,-1410.31 133.352,-1408.04"/>
</g>
<!-- 3&#45;&gt;11 -->
<g id="edge52" class="edge"><title>3&#45;&gt;11</title>
<path fill="none" stroke="black" d="M171.771,-1478.82C186.48,-1485.05 205.664,-1494.19 221,-1505 232.243,-1512.93 243.319,-1523.37 252.262,-1532.66"/>
<polygon fill="black" stroke="black" points="249.844,-1535.2 259.229,-1540.12 254.958,-1530.42 249.844,-1535.2"/>
<text text-anchor="middle" x="243.5" y="-1508.8" font-family="Times New Roman,serif" font-size="14.00">k</text>
</g>
<!-- 4&#45;&gt;3 -->
<g id="edge58" class="edge"><title>4&#45;&gt;3</title>
<path fill="none" stroke="black" d="M124.205,-1399.9C126.274,-1409.7 129.274,-1422.2 133,-1433 134.034,-1436 135.235,-1439.09 136.505,-1442.13"/>
<polygon fill="black" stroke="black" points="133.422,-1443.81 140.679,-1451.53 139.82,-1440.97 133.422,-1443.81"/>
<text text-anchor="middle" x="135" y="-1421.8" font-family="Times New Roman,serif" font-size="14.00">l</text>
</g>
<!-- 4&#45;&gt;7 -->
<g id="edge63" class="edge"><title>4&#45;&gt;7</title>
<path fill="none" stroke="black" d="M109.981,-1365.48C106.135,-1359.58 102.027,-1352.67 99,-1346 95.7021,-1338.74 92.8991,-1330.56 90.6404,-1322.96"/>
<polygon fill="black" stroke="black" points="93.9466,-1321.78 87.9023,-1313.08 87.2009,-1323.65 93.9466,-1321.78"/>
</g>
<!-- 5 -->
<g id="node6" class="node"><title>5</title>
<ellipse fill="none" stroke="black" cx="223" cy="-613" rx="27" ry="18"/>
<text text-anchor="middle" x="223" y="-609.3" font-family="Times New Roman,serif" font-size="14.00">e,p</text>
</g>
<!-- 15 -->
<g id="node16" class="node"><title>15</title>
<ellipse fill="none" stroke="black" cx="251" cy="-526" rx="27" ry="18"/>
<text text-anchor="middle" x="251" y="-522.3" font-family="Times New Roman,serif" font-size="14.00">e,p,i</text>
</g>
<!-- 5&#45;&gt;15 -->
<g id="edge23" class="edge"><title>5&#45;&gt;15</title>
<path fill="none" stroke="black" d="M228.532,-595.207C232.444,-583.332 237.768,-567.168 242.252,-553.557"/>
<polygon fill="black" stroke="black" points="245.675,-554.351 245.48,-543.758 239.027,-552.161 245.675,-554.351"/>
<text text-anchor="middle" x="241.5" y="-565.8" font-family="Times New Roman,serif" font-size="14.00">I</text>
</g>
<!-- 16 -->
<g id="node17" class="node"><title>16</title>
<ellipse fill="none" stroke="black" cx="194" cy="-700" rx="27" ry="18"/>
</g>
<!-- 5&#45;&gt;16 -->
<g id="edge41" class="edge"><title>5&#45;&gt;16</title>
<path fill="none" stroke="black" d="M208.022,-628.316C202.893,-634.187 197.755,-641.391 195,-649 192.429,-656.102 191.489,-664.152 191.37,-671.685"/>
<polygon fill="black" stroke="black" points="187.876,-671.942 191.663,-681.837 194.873,-671.74 187.876,-671.942"/>
<text text-anchor="middle" x="199" y="-652.8" font-family="Times New Roman,serif" font-size="14.00">b</text>
</g>
<!-- 6 -->
<g id="node7" class="node"><title>6</title>
<ellipse fill="none" stroke="black" cx="235" cy="-352" rx="27" ry="18"/>
<text text-anchor="middle" x="235" y="-348.3" font-family="Times New Roman,serif" font-size="14.00">e,p</text>
</g>
<!-- 9 -->
<g id="node10" class="node"><title>9</title>
<ellipse fill="none" stroke="black" cx="236" cy="-265" rx="27" ry="18"/>
<text text-anchor="middle" x="236" y="-261.3" font-family="Times New Roman,serif" font-size="14.00">e,i</text>
</g>
<!-- 6&#45;&gt;9 -->
<g id="edge39" class="edge"><title>6&#45;&gt;9</title>
<path fill="none" stroke="black" d="M226.872,-334.455C223.079,-324.773 219.829,-312.273 222,-301 222.587,-297.949 223.438,-294.827 224.435,-291.764"/>
<polygon fill="black" stroke="black" points="227.734,-292.935 227.97,-282.343 221.18,-290.476 227.734,-292.935"/>
<text text-anchor="middle" x="226" y="-304.8" font-family="Times New Roman,serif" font-size="14.00">b</text>
</g>
<!-- 14 -->
<g id="node15" class="node"><title>14</title>
<ellipse fill="none" stroke="black" cx="279" cy="-439" rx="27" ry="18"/>
<text text-anchor="middle" x="279" y="-435.3" font-family="Times New Roman,serif" font-size="14.00">e,p</text>
</g>
<!-- 6&#45;&gt;14 -->
<g id="edge30" class="edge"><title>6&#45;&gt;14</title>
<path fill="none" stroke="black" d="M243.458,-369.339C249.781,-381.555 258.548,-398.491 265.793,-412.486"/>
<polygon fill="black" stroke="black" points="262.811,-414.339 270.516,-421.611 269.027,-411.121 262.811,-414.339"/>
<text text-anchor="middle" x="262.5" y="-391.8" font-family="Times New Roman,serif" font-size="14.00">I</text>
</g>
<!-- 7&#45;&gt;2 -->
<g id="edge62" class="edge"><title>7&#45;&gt;2</title>
<path fill="none" stroke="black" d="M75.8303,-1277.61C73.2708,-1271.85 70.6791,-1265.26 69,-1259 67.0595,-1251.77 65.7459,-1243.78 64.8568,-1236.35"/>
<polygon fill="black" stroke="black" points="68.3353,-1235.96 63.8616,-1226.35 61.3698,-1236.65 68.3353,-1235.96"/>
<text text-anchor="middle" x="71" y="-1247.8" font-family="Times New Roman,serif" font-size="14.00">l</text>
</g>
<!-- 7&#45;&gt;4 -->
<g id="edge64" class="edge"><title>7&#45;&gt;4</title>
<path fill="none" stroke="black" d="M91.2383,-1312.63C96.5029,-1324.72 103.731,-1341.33 109.746,-1355.15"/>
<polygon fill="black" stroke="black" points="106.666,-1356.84 113.866,-1364.61 113.084,-1354.05 106.666,-1356.84"/>
<text text-anchor="middle" x="107" y="-1334.8" font-family="Times New Roman,serif" font-size="14.00">l</text>
</g>
<!-- 8 -->
<g id="node9" class="node"><title>8</title>
<ellipse fill="none" stroke="black" cx="266" cy="-700" rx="27" ry="18"/>
<text text-anchor="middle" x="266" y="-696.3" font-family="Times New Roman,serif" font-size="14.00">p,I</text>
</g>
<!-- 22 -->
<g id="node23" class="node"><title>22</title>
<ellipse fill="none" stroke="black" cx="242" cy="-787" rx="27" ry="18"/>
<text text-anchor="middle" x="242" y="-783.3" font-family="Times New Roman,serif" font-size="14.00">e,i</text>
</g>
<!-- 8&#45;&gt;22 -->
<g id="edge10" class="edge"><title>8&#45;&gt;22</title>
<path fill="none" stroke="black" d="M266.712,-718.083C264.605,-730.276 260.151,-746.88 255.404,-760.619"/>
<polygon fill="black" stroke="black" points="252.116,-759.419 251.926,-770.012 258.681,-761.85 252.116,-759.419"/>
</g>
<!-- 9&#45;&gt;6 -->
<g id="edge40" class="edge"><title>9&#45;&gt;6</title>
<path fill="none" stroke="black" d="M235.798,-283.175C235.661,-294.806 235.477,-310.419 235.321,-323.734"/>
<polygon fill="black" stroke="black" points="231.82,-323.758 235.202,-333.799 238.82,-323.841 231.82,-323.758"/>
<text text-anchor="middle" x="240" y="-304.8" font-family="Times New Roman,serif" font-size="14.00">b</text>
</g>
<!-- 10 -->
<g id="node11" class="node"><title>10</title>
<ellipse fill="none" stroke="black" cx="291" cy="-1295" rx="27" ry="18"/>
<text text-anchor="middle" x="291" y="-1291.3" font-family="Times New Roman,serif" font-size="14.00">e,p</text>
</g>
<!-- 13 -->
<g id="node14" class="node"><title>13</title>
<ellipse fill="none" stroke="black" cx="270" cy="-1208" rx="27" ry="18"/>
<text text-anchor="middle" x="270" y="-1204.3" font-family="Times New Roman,serif" font-size="14.00">e,p</text>
</g>
<!-- 10&#45;&gt;13 -->
<g id="edge28" class="edge"><title>10&#45;&gt;13</title>
<path fill="none" stroke="black" d="M280.477,-1278.28C277.136,-1272.46 273.835,-1265.67 272,-1259 270.025,-1251.83 269.148,-1243.86 268.855,-1236.43"/>
<polygon fill="black" stroke="black" points="272.355,-1236.39 268.776,-1226.42 265.355,-1236.45 272.355,-1236.39"/>
<text text-anchor="middle" x="274.5" y="-1247.8" font-family="Times New Roman,serif" font-size="14.00">I</text>
</g>
<!-- 20 -->
<g id="node21" class="node"><title>20</title>
<ellipse fill="none" stroke="black" cx="307" cy="-1382" rx="27" ry="18"/>
<text text-anchor="middle" x="307" y="-1378.3" font-family="Times New Roman,serif" font-size="14.00">e</text>
</g>
<!-- 10&#45;&gt;20 -->
<g id="edge45" class="edge"><title>10&#45;&gt;20</title>
<path fill="none" stroke="black" d="M294.178,-1312.89C296.369,-1324.53 299.33,-1340.25 301.854,-1353.66"/>
<polygon fill="black" stroke="black" points="298.473,-1354.62 303.762,-1363.8 305.352,-1353.32 298.473,-1354.62"/>
<text text-anchor="middle" x="304" y="-1334.8" font-family="Times New Roman,serif" font-size="14.00">b</text>
</g>
<!-- 11&#45;&gt;0 -->
<g id="edge50" class="edge"><title>11&#45;&gt;0</title>
<path fill="none" stroke="black" d="M272,-1574.18C272,-1585.81 272,-1601.42 272,-1614.73"/>
<polygon fill="black" stroke="black" points="268.5,-1614.8 272,-1624.8 275.5,-1614.8 268.5,-1614.8"/>
<text text-anchor="middle" x="276" y="-1595.8" font-family="Times New Roman,serif" font-size="14.00">b</text>
</g>
<!-- 11&#45;&gt;3 -->
<g id="edge51" class="edge"><title>11&#45;&gt;3</title>
<path fill="none" stroke="black" d="M252.055,-1543.71C240.704,-1537.1 226.333,-1528.43 214,-1520 200.283,-1510.63 185.567,-1499.41 173.613,-1489.98"/>
<polygon fill="black" stroke="black" points="175.452,-1486.97 165.449,-1483.48 171.091,-1492.45 175.452,-1486.97"/>
<text text-anchor="middle" x="217.5" y="-1508.8" font-family="Times New Roman,serif" font-size="14.00">k</text>
</g>
<!-- 19 -->
<g id="node20" class="node"><title>19</title>
<ellipse fill="none" stroke="black" cx="339" cy="-1469" rx="27" ry="18"/>
<text text-anchor="middle" x="339" y="-1465.3" font-family="Times New Roman,serif" font-size="14.00">e,p</text>
</g>
<!-- 11&#45;&gt;19 -->
<g id="edge66" class="edge"><title>11&#45;&gt;19</title>
<path fill="none" stroke="black" d="M282.637,-1539.38C289.605,-1529.37 299.049,-1516.2 308,-1505 311.336,-1500.83 315.005,-1496.49 318.617,-1492.34"/>
<polygon fill="black" stroke="black" points="321.373,-1494.51 325.386,-1484.7 316.134,-1489.87 321.373,-1494.51"/>
<text text-anchor="middle" x="310" y="-1508.8" font-family="Times New Roman,serif" font-size="14.00">l</text>
</g>
<!-- 12 -->
<g id="node13" class="node"><title>12</title>
<ellipse fill="none" stroke="black" cx="363" cy="-105" rx="27" ry="18"/>
<text text-anchor="middle" x="363" y="-101.3" font-family="Times New Roman,serif" font-size="14.00">e</text>
</g>
<!-- 18 -->
<g id="node19" class="node"><title>18</title>
<ellipse fill="none" stroke="black" cx="411" cy="-18" rx="27" ry="18"/>
<text text-anchor="middle" x="411" y="-14.3" font-family="Times New Roman,serif" font-size="14.00">e,p</text>
</g>
<!-- 12&#45;&gt;18 -->
<g id="edge38" class="edge"><title>12&#45;&gt;18</title>
<path fill="none" stroke="black" d="M372.028,-88.0122C379.024,-75.625 388.844,-58.235 396.876,-44.0109"/>
<polygon fill="black" stroke="black" points="399.979,-45.6337 401.849,-35.2052 393.884,-42.1917 399.979,-45.6337"/>
<text text-anchor="middle" x="392.5" y="-57.8" font-family="Times New Roman,serif" font-size="14.00">I</text>
</g>
<!-- 21 -->
<g id="node22" class="node"><title>21</title>
<ellipse fill="none" stroke="black" cx="363" cy="-178" rx="27" ry="18"/>
<text text-anchor="middle" x="363" y="-174.3" font-family="Times New Roman,serif" font-size="14.00">e,p</text>
</g>
<!-- 12&#45;&gt;21 -->
<g id="edge18" class="edge"><title>12&#45;&gt;21</title>
<path fill="none" stroke="black" d="M368.827,-122.705C369.708,-130.822 369.959,-140.78 369.577,-149.942"/>
<polygon fill="black" stroke="black" points="366.068,-149.948 368.84,-160.174 373.05,-150.452 366.068,-149.948"/>
</g>
<!-- 13&#45;&gt;10 -->
<g id="edge27" class="edge"><title>13&#45;&gt;10</title>
<path fill="none" stroke="black" d="M274.212,-1226.05C277.142,-1237.91 281.106,-1253.95 284.446,-1267.47"/>
<polygon fill="black" stroke="black" points="281.055,-1268.34 286.851,-1277.21 287.85,-1266.66 281.055,-1268.34"/>
<text text-anchor="middle" x="284.5" y="-1247.8" font-family="Times New Roman,serif" font-size="14.00">I</text>
</g>
<!-- 13&#45;&gt;15 -->
<g id="edge26" class="edge"><title>13&#45;&gt;15</title>
<path fill="none" stroke="black" d="M285.91,-1193.07C301.838,-1177.49 324,-1150.67 324,-1122 324,-1122 324,-1122 324,-612 324,-583.278 299.715,-559.411 279.158,-544.354"/>
<polygon fill="black" stroke="black" points="281.155,-541.479 270.948,-538.642 277.158,-547.226 281.155,-541.479"/>
<text text-anchor="middle" x="326.5" y="-870.3" font-family="Times New Roman,serif" font-size="14.00">I</text>
</g>
<!-- 26 -->
<g id="node27" class="node"><title>26</title>
<ellipse fill="none" stroke="black" cx="265" cy="-1121" rx="27" ry="18"/>
<text text-anchor="middle" x="265" y="-1117.3" font-family="Times New Roman,serif" font-size="14.00">e,p</text>
</g>
<!-- 13&#45;&gt;26 -->
<g id="edge43" class="edge"><title>13&#45;&gt;26</title>
<path fill="none" stroke="black" d="M268.988,-1189.8C268.304,-1178.16 267.385,-1162.55 266.602,-1149.24"/>
<polygon fill="black" stroke="black" points="270.092,-1148.95 266.01,-1139.18 263.104,-1149.36 270.092,-1148.95"/>
<text text-anchor="middle" x="272" y="-1160.8" font-family="Times New Roman,serif" font-size="14.00">b</text>
</g>
<!-- 14&#45;&gt;6 -->
<g id="edge29" class="edge"><title>14&#45;&gt;6</title>
<path fill="none" stroke="black" d="M260.973,-425.268C253.916,-419.322 246.458,-411.645 242,-403 238.409,-396.037 236.473,-387.842 235.473,-380.124"/>
<polygon fill="black" stroke="black" points="238.952,-379.724 234.622,-370.054 231.976,-380.313 238.952,-379.724"/>
<text text-anchor="middle" x="244.5" y="-391.8" font-family="Times New Roman,serif" font-size="14.00">I</text>
</g>
<!-- 14&#45;&gt;15 -->
<g id="edge32" class="edge"><title>14&#45;&gt;15</title>
<path fill="none" stroke="black" d="M273.48,-456.758C269.571,-468.625 264.247,-484.787 259.761,-498.403"/>
<polygon fill="black" stroke="black" points="256.336,-497.614 256.532,-508.207 262.985,-499.804 256.336,-497.614"/>
<text text-anchor="middle" x="269.5" y="-478.8" font-family="Times New Roman,serif" font-size="14.00">I</text>
</g>
<!-- 29 -->
<g id="node30" class="node"><title>29</title>
<ellipse fill="none" stroke="black" cx="307" cy="-352" rx="27" ry="18"/>
<text text-anchor="middle" x="307" y="-348.3" font-family="Times New Roman,serif" font-size="14.00">e,p</text>
</g>
<!-- 14&#45;&gt;29 -->
<g id="edge11" class="edge"><title>14&#45;&gt;29</title>
<path fill="none" stroke="black" d="M279.118,-420.799C281.823,-408.542 287.091,-391.871 292.501,-378.127"/>
<polygon fill="black" stroke="black" points="295.797,-379.318 296.432,-368.742 289.341,-376.614 295.797,-379.318"/>
</g>
<!-- 15&#45;&gt;5 -->
<g id="edge24" class="edge"><title>15&#45;&gt;5</title>
<path fill="none" stroke="black" d="M238.733,-542.17C234.631,-548.033 230.477,-555.009 228,-562 225.465,-569.154 224.076,-577.22 223.346,-584.752"/>
<polygon fill="black" stroke="black" points="219.843,-584.693 222.703,-594.894 226.829,-585.136 219.843,-584.693"/>
<text text-anchor="middle" x="230.5" y="-565.8" font-family="Times New Roman,serif" font-size="14.00">I</text>
</g>
<!-- 15&#45;&gt;13 -->
<g id="edge25" class="edge"><title>15&#45;&gt;13</title>
<path fill="none" stroke="black" d="M224.221,-528.491C176.568,-532.744 82,-549.107 82,-612 82,-1122 82,-1122 82,-1122 82,-1187.62 178.271,-1202.85 233.031,-1206.21"/>
<polygon fill="black" stroke="black" points="232.899,-1209.71 243.064,-1206.72 233.255,-1202.71 232.899,-1209.71"/>
<text text-anchor="middle" x="84.5" y="-870.3" font-family="Times New Roman,serif" font-size="14.00">I</text>
</g>
<!-- 15&#45;&gt;14 -->
<g id="edge31" class="edge"><title>15&#45;&gt;14</title>
<path fill="none" stroke="black" d="M250.703,-507.894C251.021,-498.025 252.271,-485.525 256,-475 257.355,-471.177 259.211,-467.358 261.286,-463.724"/>
<polygon fill="black" stroke="black" points="264.314,-465.484 266.733,-455.17 258.41,-461.724 264.314,-465.484"/>
<text text-anchor="middle" x="258.5" y="-478.8" font-family="Times New Roman,serif" font-size="14.00">I</text>
</g>
<!-- 16&#45;&gt;5 -->
<g id="edge42" class="edge"><title>16&#45;&gt;5</title>
<path fill="none" stroke="black" d="M199.729,-682.207C203.781,-670.332 209.295,-654.168 213.939,-640.557"/>
<polygon fill="black" stroke="black" points="217.366,-641.353 217.282,-630.758 210.741,-639.093 217.366,-641.353"/>
<text text-anchor="middle" x="215" y="-652.8" font-family="Times New Roman,serif" font-size="14.00">b</text>
</g>
<!-- 16&#45;&gt;22 -->
<g id="edge56" class="edge"><title>16&#45;&gt;22</title>
<path fill="none" stroke="black" d="M203.151,-717.205C210.179,-729.65 220.005,-747.051 228.017,-761.238"/>
<polygon fill="black" stroke="black" points="225.007,-763.026 232.972,-770.012 231.102,-759.584 225.007,-763.026"/>
<text text-anchor="middle" x="224.5" y="-739.8" font-family="Times New Roman,serif" font-size="14.00">k</text>
</g>
<!-- 17 -->
<g id="node18" class="node"><title>17</title>
<ellipse fill="none" stroke="black" cx="351" cy="-265" rx="27" ry="18"/>
<text text-anchor="middle" x="351" y="-261.3" font-family="Times New Roman,serif" font-size="14.00">e,p</text>
</g>
<!-- 17&#45;&gt;19 -->
<g id="edge14" class="edge"><title>17&#45;&gt;19</title>
<path fill="none" stroke="black" d="M363.375,-281.103C371.692,-297.906 380,-325.986 380,-351 380,-1383 380,-1383 380,-1383 380,-1405.22 370.305,-1428.73 360.088,-1445.38"/>
<polygon fill="black" stroke="black" points="357.059,-1443.61 354.415,-1453.87 362.88,-1447.5 357.059,-1443.61"/>
</g>
<!-- 17&#45;&gt;21 -->
<g id="edge35" class="edge"><title>17&#45;&gt;21</title>
<path fill="none" stroke="black" d="M353.428,-246.799C355.071,-235.163 357.276,-219.548 359.155,-206.237"/>
<polygon fill="black" stroke="black" points="362.643,-206.567 360.575,-196.175 355.712,-205.588 362.643,-206.567"/>
<text text-anchor="middle" x="360.5" y="-217.8" font-family="Times New Roman,serif" font-size="14.00">I</text>
</g>
<!-- 17&#45;&gt;29 -->
<g id="edge34" class="edge"><title>17&#45;&gt;29</title>
<path fill="none" stroke="black" d="M342.542,-282.339C336.219,-294.555 327.452,-311.491 320.207,-325.486"/>
<polygon fill="black" stroke="black" points="316.973,-324.121 315.484,-334.611 323.189,-327.339 316.973,-324.121"/>
<text text-anchor="middle" x="334.5" y="-304.8" font-family="Times New Roman,serif" font-size="14.00">I</text>
</g>
<!-- 18&#45;&gt;12 -->
<g id="edge37" class="edge"><title>18&#45;&gt;12</title>
<path fill="none" stroke="black" d="M392.018,-31.1801C384.285,-37.1271 376.003,-44.9567 371,-54 367.197,-60.875 365.074,-69.0439 363.922,-76.7652"/>
<polygon fill="black" stroke="black" points="360.426,-76.5481 362.886,-86.8533 367.389,-77.2632 360.426,-76.5481"/>
<text text-anchor="middle" x="373.5" y="-57.8" font-family="Times New Roman,serif" font-size="14.00">I</text>
</g>
<!-- 18&#45;&gt;19 -->
<g id="edge16" class="edge"><title>18&#45;&gt;19</title>
<path fill="none" stroke="black" d="M422.348,-34.5015C429.434,-51.4157 436,-79.3736 436,-104 436,-1383 436,-1383 436,-1383 436,-1417.54 400.491,-1442.5 372.279,-1456.11"/>
<polygon fill="black" stroke="black" points="370.718,-1452.97 363.053,-1460.29 373.606,-1459.35 370.718,-1452.97"/>
</g>
<!-- 19&#45;&gt;11 -->
<g id="edge65" class="edge"><title>19&#45;&gt;11</title>
<path fill="none" stroke="black" d="M331.013,-1486.56C325.739,-1496.7 318.288,-1509.67 310,-1520 305.875,-1525.14 300.987,-1530.22 296.113,-1534.84"/>
<polygon fill="black" stroke="black" points="293.633,-1532.36 288.578,-1541.67 298.336,-1537.55 293.633,-1532.36"/>
</g>
<!-- 19&#45;&gt;17 -->
<g id="edge13" class="edge"><title>19&#45;&gt;17</title>
<path fill="none" stroke="black" d="M342.594,-1451.12C349.811,-1434.45 362,-1407.91 362,-1383 362,-1383 362,-1383 362,-351 362,-331.351 356.873,-309.811 352.979,-293.33"/>
<polygon fill="black" stroke="black" points="356.324,-292.258 350.665,-283.302 349.503,-293.833 356.324,-292.258"/>
</g>
<!-- 19&#45;&gt;18 -->
<g id="edge15" class="edge"><title>19&#45;&gt;18</title>
<path fill="none" stroke="black" d="M358.726,-1456.21C382.324,-1442.62 418,-1417.62 418,-1383 418,-1383 418,-1383 418,-104 418,-84.4145 413.847,-62.7219 410.963,-46.1533"/>
<polygon fill="black" stroke="black" points="414.382,-45.379 409.307,-36.079 407.475,-46.5142 414.382,-45.379"/>
</g>
<!-- 19&#45;&gt;20 -->
<g id="edge48" class="edge"><title>19&#45;&gt;20</title>
<path fill="none" stroke="black" d="M327.767,-1452.41C321.86,-1440.53 315.274,-1423.89 310.791,-1409.88"/>
<polygon fill="black" stroke="black" points="314.135,-1408.84 307.939,-1400.25 307.423,-1410.83 314.135,-1408.84"/>
</g>
<!-- 20&#45;&gt;10 -->
<g id="edge46" class="edge"><title>20&#45;&gt;10</title>
<path fill="none" stroke="black" d="M296.328,-1365.31C292.973,-1359.51 289.702,-1352.7 288,-1346 286.138,-1338.67 285.888,-1330.54 286.369,-1323.01"/>
<polygon fill="black" stroke="black" points="289.867,-1323.22 287.445,-1312.91 282.906,-1322.48 289.867,-1323.22"/>
<text text-anchor="middle" x="292" y="-1334.8" font-family="Times New Roman,serif" font-size="14.00">b</text>
</g>
<!-- 20&#45;&gt;19 -->
<g id="edge47" class="edge"><title>20&#45;&gt;19</title>
<path fill="none" stroke="black" d="M318.169,-1398.46C324.093,-1410.35 330.713,-1427.07 335.212,-1441.13"/>
<polygon fill="black" stroke="black" points="331.879,-1442.2 338.073,-1450.8 338.591,-1440.22 331.879,-1442.2"/>
</g>
<!-- 21&#45;&gt;12 -->
<g id="edge17" class="edge"><title>21&#45;&gt;12</title>
<path fill="none" stroke="black" d="M357.16,-160.174C356.285,-152.039 356.041,-142.076 356.428,-132.921"/>
<polygon fill="black" stroke="black" points="359.937,-132.933 357.173,-122.705 352.955,-132.424 359.937,-132.933"/>
</g>
<!-- 21&#45;&gt;17 -->
<g id="edge36" class="edge"><title>21&#45;&gt;17</title>
<path fill="none" stroke="black" d="M354.4,-195.287C351.806,-201.037 349.303,-207.654 348,-214 346.503,-221.295 346.343,-229.305 346.793,-236.735"/>
<polygon fill="black" stroke="black" points="343.312,-237.102 347.76,-246.718 350.28,-236.427 343.312,-237.102"/>
<text text-anchor="middle" x="350.5" y="-217.8" font-family="Times New Roman,serif" font-size="14.00">I</text>
</g>
<!-- 22&#45;&gt;8 -->
<g id="edge9" class="edge"><title>22&#45;&gt;8</title>
<path fill="none" stroke="black" d="M241.308,-768.799C243.403,-756.738 247.777,-740.403 252.455,-726.79"/>
<polygon fill="black" stroke="black" points="255.88,-727.619 256.059,-717.025 249.313,-725.195 255.88,-727.619"/>
</g>
<!-- 22&#45;&gt;16 -->
<g id="edge55" class="edge"><title>22&#45;&gt;16</title>
<path fill="none" stroke="black" d="M222.337,-774.416C214.06,-768.488 205.166,-760.508 200,-751 196.269,-744.134 194.412,-735.968 193.575,-728.247"/>
<polygon fill="black" stroke="black" points="197.063,-727.935 192.986,-718.156 190.075,-728.343 197.063,-727.935"/>
<text text-anchor="middle" x="203.5" y="-739.8" font-family="Times New Roman,serif" font-size="14.00">k</text>
</g>
<!-- 23 -->
<g id="node24" class="node"><title>23</title>
<ellipse fill="none" stroke="black" cx="253" cy="-874" rx="27" ry="18"/>
<text text-anchor="middle" x="253" y="-870.3" font-family="Times New Roman,serif" font-size="14.00">e,p</text>
</g>
<!-- 22&#45;&gt;23 -->
<g id="edge53" class="edge"><title>22&#45;&gt;23</title>
<path fill="none" stroke="black" d="M238.246,-805.271C236.728,-814.971 235.794,-827.252 238,-838 238.631,-841.074 239.544,-844.211 240.612,-847.283"/>
<polygon fill="black" stroke="black" points="237.425,-848.738 244.4,-856.713 243.92,-846.129 237.425,-848.738"/>
<text text-anchor="middle" x="241.5" y="-826.8" font-family="Times New Roman,serif" font-size="14.00">k</text>
</g>
<!-- 23&#45;&gt;22 -->
<g id="edge54" class="edge"><title>23&#45;&gt;22</title>
<path fill="none" stroke="black" d="M250.774,-855.799C249.268,-844.163 247.247,-828.548 245.525,-815.237"/>
<polygon fill="black" stroke="black" points="248.977,-814.644 244.223,-805.175 242.035,-815.542 248.977,-814.644"/>
<text text-anchor="middle" x="252.5" y="-826.8" font-family="Times New Roman,serif" font-size="14.00">k</text>
</g>
<!-- 25 -->
<g id="node26" class="node"><title>25</title>
<ellipse fill="none" stroke="black" cx="211" cy="-961" rx="28.6953" ry="18"/>
<text text-anchor="middle" x="211" y="-957.3" font-family="Times New Roman,serif" font-size="14.00">e,p,k</text>
</g>
<!-- 23&#45;&gt;25 -->
<g id="edge20" class="edge"><title>23&#45;&gt;25</title>
<path fill="none" stroke="black" d="M244.927,-891.339C238.89,-903.555 230.522,-920.491 223.607,-934.486"/>
<polygon fill="black" stroke="black" points="220.39,-933.095 219.098,-943.611 226.666,-936.196 220.39,-933.095"/>
<text text-anchor="middle" x="237.5" y="-913.8" font-family="Times New Roman,serif" font-size="14.00">I</text>
</g>
<!-- 23&#45;&gt;26 -->
<g id="edge8" class="edge"><title>23&#45;&gt;26</title>
<path fill="none" stroke="black" d="M257.463,-891.884C263.361,-933.531 268.921,-1041.48 268.108,-1092.51"/>
<polygon fill="black" stroke="black" points="264.602,-1092.68 267.824,-1102.77 271.599,-1092.87 264.602,-1092.68"/>
</g>
<!-- 24 -->
<g id="node25" class="node"><title>24</title>
<ellipse fill="none" stroke="black" cx="137" cy="-874" rx="27" ry="18"/>
<text text-anchor="middle" x="137" y="-870.3" font-family="Times New Roman,serif" font-size="14.00">s</text>
</g>
<!-- 28 -->
<g id="node29" class="node"><title>28</title>
<ellipse fill="none" stroke="black" cx="137" cy="-961" rx="27" ry="18"/>
</g>
<!-- 24&#45;&gt;28 -->
<g id="edge1" class="edge"><title>24&#45;&gt;28</title>
<path fill="none" stroke="black" d="M142.5,-891.758C143.814,-903.508 144.092,-919.47 143.334,-933.002"/>
<polygon fill="black" stroke="black" points="139.826,-932.956 142.504,-943.207 146.803,-933.524 139.826,-932.956"/>
</g>
<!-- 25&#45;&gt;23 -->
<g id="edge19" class="edge"><title>25&#45;&gt;23</title>
<path fill="none" stroke="black" d="M210.725,-942.998C211.193,-932.933 212.918,-920.199 218,-910 220.587,-904.808 224.243,-899.921 228.224,-895.539"/>
<polygon fill="black" stroke="black" points="230.948,-897.767 235.582,-888.239 226.018,-892.798 230.948,-897.767"/>
<text text-anchor="middle" x="220.5" y="-913.8" font-family="Times New Roman,serif" font-size="14.00">I</text>
</g>
<!-- 27 -->
<g id="node28" class="node"><title>27</title>
<ellipse fill="none" stroke="black" cx="205" cy="-1048" rx="27" ry="18"/>
<text text-anchor="middle" x="205" y="-1044.3" font-family="Times New Roman,serif" font-size="14.00">k,e,i</text>
</g>
<!-- 25&#45;&gt;27 -->
<g id="edge21" class="edge"><title>25&#45;&gt;27</title>
<path fill="none" stroke="black" d="M202.4,-978.287C199.806,-984.037 197.303,-990.654 196,-997 194.439,-1004.6 195.015,-1012.89 196.443,-1020.49"/>
<polygon fill="black" stroke="black" points="193.06,-1021.39 198.798,-1030.29 199.867,-1019.75 193.06,-1021.39"/>
<text text-anchor="middle" x="198.5" y="-1000.8" font-family="Times New Roman,serif" font-size="14.00">I</text>
</g>
<!-- 26&#45;&gt;13 -->
<g id="edge44" class="edge"><title>26&#45;&gt;13</title>
<path fill="none" stroke="black" d="M261.262,-1139.16C259.663,-1148.83 258.475,-1161.11 260,-1172 260.381,-1174.72 260.922,-1177.53 261.556,-1180.32"/>
<polygon fill="black" stroke="black" points="258.208,-1181.34 264.15,-1190.11 264.975,-1179.55 258.208,-1181.34"/>
<text text-anchor="middle" x="264" y="-1160.8" font-family="Times New Roman,serif" font-size="14.00">b</text>
</g>
<!-- 26&#45;&gt;23 -->
<g id="edge7" class="edge"><title>26&#45;&gt;23</title>
<path fill="none" stroke="black" d="M260.544,-1103.16C254.631,-1061.46 249.056,-953.109 249.897,-902.19"/>
<polygon fill="black" stroke="black" points="253.402,-902.053 250.188,-891.958 246.405,-901.854 253.402,-902.053"/>
</g>
<!-- 26&#45;&gt;27 -->
<g id="edge6" class="edge"><title>26&#45;&gt;27</title>
<path fill="none" stroke="black" d="M248.303,-1106.65C239.088,-1097.3 227.962,-1084.54 219.175,-1073.4"/>
<polygon fill="black" stroke="black" points="221.83,-1071.11 212.982,-1065.29 216.265,-1075.36 221.83,-1071.11"/>
</g>
<!-- 27&#45;&gt;25 -->
<g id="edge22" class="edge"><title>27&#45;&gt;25</title>
<path fill="none" stroke="black" d="M206.214,-1029.8C207.036,-1018.16 208.138,-1002.55 209.077,-989.237"/>
<polygon fill="black" stroke="black" points="212.575,-989.397 209.788,-979.175 205.592,-988.904 212.575,-989.397"/>
<text text-anchor="middle" x="211.5" y="-1000.8" font-family="Times New Roman,serif" font-size="14.00">I</text>
</g>
<!-- 27&#45;&gt;26 -->
<g id="edge5" class="edge"><title>27&#45;&gt;26</title>
<path fill="none" stroke="black" d="M221.862,-1062.52C231.011,-1071.82 242.011,-1084.43 250.73,-1095.48"/>
<polygon fill="black" stroke="black" points="248.033,-1097.71 256.885,-1103.53 253.596,-1093.46 248.033,-1097.71"/>
</g>
<!-- 27&#45;&gt;28 -->
<g id="edge4" class="edge"><title>27&#45;&gt;28</title>
<path fill="none" stroke="black" d="M188.96,-1033.34C177.264,-1020.87 161.896,-1002.12 150.762,-986.967"/>
<polygon fill="black" stroke="black" points="153.41,-984.651 144.756,-978.539 147.709,-988.713 153.41,-984.651"/>
</g>
<!-- 28&#45;&gt;24 -->
<g id="edge2" class="edge"><title>28&#45;&gt;24</title>
<path fill="none" stroke="black" d="M131.496,-943.207C130.184,-931.448 129.908,-915.485 130.668,-901.958"/>
<polygon fill="black" stroke="black" points="134.176,-902.01 131.5,-891.758 127.199,-901.441 134.176,-902.01"/>
</g>
<!-- 28&#45;&gt;27 -->
<g id="edge3" class="edge"><title>28&#45;&gt;27</title>
<path fill="none" stroke="black" d="M152.93,-975.539C164.67,-988.046 180.149,-1006.93 191.325,-1022.15"/>
<polygon fill="black" stroke="black" points="188.696,-1024.49 197.347,-1030.61 194.399,-1020.43 188.696,-1024.49"/>
</g>
<!-- 29&#45;&gt;14 -->
<g id="edge12" class="edge"><title>29&#45;&gt;14</title>
<path fill="none" stroke="black" d="M306.873,-370.246C304.154,-382.544 298.864,-399.268 293.439,-413.024"/>
<polygon fill="black" stroke="black" points="290.143,-411.834 289.5,-422.41 296.597,-414.544 290.143,-411.834"/>
</g>
<!-- 29&#45;&gt;17 -->
<g id="edge33" class="edge"><title>29&#45;&gt;17</title>
<path fill="none" stroke="black" d="M306.622,-333.946C307.054,-323.863 308.777,-311.127 314,-301 316.856,-295.462 320.943,-290.321 325.367,-285.778"/>
<polygon fill="black" stroke="black" points="328.016,-288.095 332.973,-278.732 323.259,-282.96 328.016,-288.095"/>
<text text-anchor="middle" x="316.5" y="-304.8" font-family="Times New Roman,serif" font-size="14.00">I</text>
</g>
</g>
</svg>
