<?xml version="1.0" encoding="UTF-8" standalone="no"?>
<!DOCTYPE svg PUBLIC "-//W3C//DTD SVG 1.1//EN"
 "http://www.w3.org/Graphics/SVG/1.1/DTD/svg11.dtd">
<!-- Generated by graphviz version 2.38.0 (20140413.2041)
 -->
<!-- Title: %3 Pages: 1 -->
<svg width="378pt" height="2243pt"
 viewBox="0.00 0.00 378.00 2243.00" xmlns="http://www.w3.org/2000/svg" xmlns:xlink="http://www.w3.org/1999/xlink">
<g id="graph0" class="graph" transform="scale(1 1) rotate(0) translate(4 2239)">
<title>%3</title>
<polygon fill="white" stroke="none" points="-4,4 -4,-2239 374,-2239 374,4 -4,4"/>
<!-- 0 -->
<g id="node1" class="node"><title>0</title>
<ellipse fill="none" stroke="black" cx="309" cy="-2217" rx="39.7935" ry="18"/>
<text text-anchor="middle" x="309" y="-2213.3" font-family="Times New Roman,serif" font-size="14.00">e,p,I,S1</text>
</g>
<!-- 3 -->
<g id="node4" class="node"><title>3</title>
<ellipse fill="none" stroke="black" cx="309" cy="-2130" rx="27" ry="18"/>
<text text-anchor="middle" x="309" y="-2126.3" font-family="Times New Roman,serif" font-size="14.00">e,p</text>
</g>
<!-- 0&#45;&gt;3 -->
<g id="edge45" class="edge"><title>0&#45;&gt;3</title>
<path fill="none" stroke="black" d="M301.429,-2199C298.029,-2189.38 295.151,-2177.1 297,-2166 297.485,-2163.09 298.183,-2160.1 299,-2157.14"/>
<polygon fill="black" stroke="black" points="302.39,-2158.03 302.112,-2147.44 295.725,-2155.9 302.39,-2158.03"/>
<text text-anchor="middle" x="300.5" y="-2169.8" font-family="Times New Roman,serif" font-size="14.00">k</text>
</g>
<!-- 1 -->
<g id="node2" class="node"><title>1</title>
<ellipse fill="none" stroke="black" cx="339" cy="-700" rx="27" ry="18"/>
</g>
<!-- 1&#45;&gt;3 -->
<g id="edge58" class="edge"><title>1&#45;&gt;3</title>
<path fill="none" stroke="black" d="M338.622,-718.215C338.339,-732.593 338,-753.632 338,-772 338,-2044 338,-2044 338,-2044 338,-2064.98 329.985,-2087.4 322.382,-2103.94"/>
<polygon fill="black" stroke="black" points="319.23,-2102.42 318.017,-2112.94 325.528,-2105.47 319.23,-2102.42"/>
</g>
<!-- 35 -->
<g id="node36" class="node"><title>35</title>
<ellipse fill="none" stroke="black" cx="293" cy="-627" rx="27" ry="18"/>
</g>
<!-- 1&#45;&gt;35 -->
<g id="edge56" class="edge"><title>1&#45;&gt;35</title>
<path fill="none" stroke="black" d="M324.143,-684.632C317.218,-675.732 309.325,-664.045 303.075,-653.6"/>
<polygon fill="black" stroke="black" points="306.071,-651.789 298.071,-644.843 299.993,-655.262 306.071,-651.789"/>
</g>
<!-- 2 -->
<g id="node3" class="node"><title>2</title>
<ellipse fill="none" stroke="black" cx="224" cy="-947" rx="27.0966" ry="18"/>
<text text-anchor="middle" x="224" y="-943.3" font-family="Times New Roman,serif" font-size="14.00">e,p,I</text>
</g>
<!-- 4 -->
<g id="node5" class="node"><title>4</title>
<ellipse fill="none" stroke="black" cx="214" cy="-1034" rx="27" ry="18"/>
<text text-anchor="middle" x="214" y="-1030.3" font-family="Times New Roman,serif" font-size="14.00">m,p</text>
</g>
<!-- 2&#45;&gt;4 -->
<g id="edge47" class="edge"><title>2&#45;&gt;4</title>
<path fill="none" stroke="black" d="M219.457,-964.975C218.112,-970.664 216.79,-977.069 216,-983 215.03,-990.29 214.482,-998.227 214.184,-1005.58"/>
<polygon fill="black" stroke="black" points="210.679,-1005.72 213.906,-1015.81 217.677,-1005.91 210.679,-1005.72"/>
<text text-anchor="middle" x="219.5" y="-986.8" font-family="Times New Roman,serif" font-size="14.00">k</text>
</g>
<!-- 3&#45;&gt;0 -->
<g id="edge46" class="edge"><title>3&#45;&gt;0</title>
<path fill="none" stroke="black" d="M309,-2148.18C309,-2159.81 309,-2175.42 309,-2188.73"/>
<polygon fill="black" stroke="black" points="305.5,-2188.8 309,-2198.8 312.5,-2188.8 305.5,-2188.8"/>
<text text-anchor="middle" x="312.5" y="-2169.8" font-family="Times New Roman,serif" font-size="14.00">k</text>
</g>
<!-- 20 -->
<g id="node21" class="node"><title>20</title>
<ellipse fill="none" stroke="black" cx="282" cy="-2043" rx="27" ry="18"/>
<text text-anchor="middle" x="282" y="-2039.3" font-family="Times New Roman,serif" font-size="14.00">e,k</text>
</g>
<!-- 3&#45;&gt;20 -->
<g id="edge28" class="edge"><title>3&#45;&gt;20</title>
<path fill="none" stroke="black" d="M297.667,-2113.32C294.002,-2107.51 290.296,-2100.7 288,-2094 285.536,-2086.8 284.054,-2078.72 283.17,-2071.19"/>
<polygon fill="black" stroke="black" points="286.642,-2070.72 282.281,-2061.06 279.669,-2071.33 286.642,-2070.72"/>
<text text-anchor="middle" x="290" y="-2082.8" font-family="Times New Roman,serif" font-size="14.00">l</text>
</g>
<!-- 4&#45;&gt;2 -->
<g id="edge48" class="edge"><title>4&#45;&gt;2</title>
<path fill="none" stroke="black" d="M217.891,-1015.99C219.062,-1010.3 220.237,-1003.9 221,-998 221.945,-990.699 222.592,-982.759 223.037,-975.401"/>
<polygon fill="black" stroke="black" points="226.544,-975.343 223.552,-965.179 219.553,-974.99 226.544,-975.343"/>
<text text-anchor="middle" x="226.5" y="-986.8" font-family="Times New Roman,serif" font-size="14.00">k</text>
</g>
<!-- 6 -->
<g id="node7" class="node"><title>6</title>
<ellipse fill="none" stroke="black" cx="148" cy="-947" rx="27" ry="18"/>
<text text-anchor="middle" x="148" y="-943.3" font-family="Times New Roman,serif" font-size="14.00">e,p</text>
</g>
<!-- 4&#45;&gt;6 -->
<g id="edge74" class="edge"><title>4&#45;&gt;6</title>
<path fill="none" stroke="black" d="M195.117,-1021.09C186.594,-1014.99 176.912,-1006.97 170,-998 164.567,-990.951 160.161,-982.351 156.759,-974.285"/>
<polygon fill="black" stroke="black" points="159.98,-972.911 153.105,-964.85 153.452,-975.439 159.98,-972.911"/>
<text text-anchor="middle" x="172" y="-986.8" font-family="Times New Roman,serif" font-size="14.00">l</text>
</g>
<!-- 5 -->
<g id="node6" class="node"><title>5</title>
<ellipse fill="none" stroke="black" cx="142" cy="-1034" rx="27" ry="18"/>
<text text-anchor="middle" x="142" y="-1030.3" font-family="Times New Roman,serif" font-size="14.00">e,p,i</text>
</g>
<!-- 7 -->
<g id="node8" class="node"><title>7</title>
<ellipse fill="none" stroke="black" cx="147" cy="-1121" rx="27" ry="18"/>
<text text-anchor="middle" x="147" y="-1117.3" font-family="Times New Roman,serif" font-size="14.00">e,p</text>
</g>
<!-- 5&#45;&gt;7 -->
<g id="edge70" class="edge"><title>5&#45;&gt;7</title>
<path fill="none" stroke="black" d="M135.899,-1051.69C133.115,-1061.41 130.865,-1073.91 133,-1085 133.587,-1088.05 134.438,-1091.17 135.435,-1094.24"/>
<polygon fill="black" stroke="black" points="132.18,-1095.52 138.97,-1103.66 138.734,-1093.07 132.18,-1095.52"/>
<text text-anchor="middle" x="137" y="-1073.8" font-family="Times New Roman,serif" font-size="14.00">b</text>
</g>
<!-- 6&#45;&gt;4 -->
<g id="edge73" class="edge"><title>6&#45;&gt;4</title>
<path fill="none" stroke="black" d="M159.92,-963.351C169.936,-976.251 184.409,-994.89 195.862,-1009.64"/>
<polygon fill="black" stroke="black" points="193.303,-1012.05 202.201,-1017.8 198.832,-1007.76 193.303,-1012.05"/>
<text text-anchor="middle" x="187" y="-986.8" font-family="Times New Roman,serif" font-size="14.00">l</text>
</g>
<!-- 12 -->
<g id="node13" class="node"><title>12</title>
<ellipse fill="none" stroke="black" cx="78" cy="-860" rx="27" ry="18"/>
<text text-anchor="middle" x="78" y="-856.3" font-family="Times New Roman,serif" font-size="14.00">e,p</text>
</g>
<!-- 6&#45;&gt;12 -->
<g id="edge20" class="edge"><title>6&#45;&gt;12</title>
<path fill="none" stroke="black" d="M135.485,-930.804C124.735,-917.75 109.076,-898.735 96.8154,-883.847"/>
<polygon fill="black" stroke="black" points="99.4651,-881.559 90.4063,-876.065 94.0616,-886.009 99.4651,-881.559"/>
<text text-anchor="middle" x="120" y="-899.8" font-family="Times New Roman,serif" font-size="14.00">l</text>
</g>
<!-- 18 -->
<g id="node19" class="node"><title>18</title>
<ellipse fill="none" stroke="black" cx="166" cy="-860" rx="27" ry="18"/>
<text text-anchor="middle" x="166" y="-856.3" font-family="Times New Roman,serif" font-size="14.00">e,p</text>
</g>
<!-- 6&#45;&gt;18 -->
<g id="edge75" class="edge"><title>6&#45;&gt;18</title>
<path fill="none" stroke="black" d="M151.643,-928.799C154.123,-917.086 157.457,-901.342 160.288,-887.974"/>
<polygon fill="black" stroke="black" points="163.777,-888.394 162.424,-877.885 156.928,-886.943 163.777,-888.394"/>
</g>
<!-- 7&#45;&gt;4 -->
<g id="edge59" class="edge"><title>7&#45;&gt;4</title>
<path fill="none" stroke="black" d="M158.978,-1104.8C169.11,-1091.95 183.796,-1073.32 195.447,-1058.54"/>
<polygon fill="black" stroke="black" points="198.458,-1060.37 201.9,-1050.35 192.96,-1056.04 198.458,-1060.37"/>
</g>
<!-- 7&#45;&gt;5 -->
<g id="edge69" class="edge"><title>7&#45;&gt;5</title>
<path fill="none" stroke="black" d="M145.988,-1102.8C145.304,-1091.16 144.385,-1075.55 143.602,-1062.24"/>
<polygon fill="black" stroke="black" points="147.092,-1061.95 143.01,-1052.18 140.104,-1062.36 147.092,-1061.95"/>
<text text-anchor="middle" x="149" y="-1073.8" font-family="Times New Roman,serif" font-size="14.00">b</text>
</g>
<!-- 11 -->
<g id="node12" class="node"><title>11</title>
<ellipse fill="none" stroke="black" cx="120" cy="-1229" rx="27" ry="18"/>
<text text-anchor="middle" x="120" y="-1225.3" font-family="Times New Roman,serif" font-size="14.00">e,p</text>
</g>
<!-- 7&#45;&gt;11 -->
<g id="edge25" class="edge"><title>7&#45;&gt;11</title>
<path fill="none" stroke="black" d="M142.673,-1138.99C138.406,-1155.74 131.819,-1181.6 126.842,-1201.14"/>
<polygon fill="black" stroke="black" points="123.415,-1200.41 124.338,-1210.97 130.198,-1202.14 123.415,-1200.41"/>
<text text-anchor="middle" x="140" y="-1171.3" font-family="Times New Roman,serif" font-size="14.00">l</text>
</g>
<!-- 8 -->
<g id="node9" class="node"><title>8</title>
<ellipse fill="none" stroke="black" cx="147" cy="-773" rx="27" ry="18"/>
<text text-anchor="middle" x="147" y="-769.3" font-family="Times New Roman,serif" font-size="14.00">e,p</text>
</g>
<!-- 8&#45;&gt;1 -->
<g id="edge57" class="edge"><title>8&#45;&gt;1</title>
<path fill="none" stroke="black" d="M168.151,-761.547C172.987,-759.288 178.136,-756.984 183,-755 224.428,-738.106 273.338,-721.736 305.201,-711.533"/>
<polygon fill="black" stroke="black" points="306.447,-714.81 314.916,-708.444 304.326,-708.139 306.447,-714.81"/>
</g>
<!-- 8&#45;&gt;18 -->
<g id="edge23" class="edge"><title>8&#45;&gt;18</title>
<path fill="none" stroke="black" d="M143.774,-790.963C142.532,-800.783 142.032,-813.283 145,-824 146.005,-827.628 147.497,-831.257 149.231,-834.732"/>
<polygon fill="black" stroke="black" points="146.217,-836.511 154.217,-843.457 152.294,-833.038 146.217,-836.511"/>
<text text-anchor="middle" x="147" y="-812.8" font-family="Times New Roman,serif" font-size="14.00">l</text>
</g>
<!-- 28 -->
<g id="node29" class="node"><title>28</title>
<ellipse fill="none" stroke="black" cx="200" cy="-453" rx="27" ry="18"/>
<text text-anchor="middle" x="200" y="-449.3" font-family="Times New Roman,serif" font-size="14.00">e,p,i</text>
</g>
<!-- 8&#45;&gt;28 -->
<g id="edge72" class="edge"><title>8&#45;&gt;28</title>
<path fill="none" stroke="black" d="M160.99,-757.544C172.525,-744.056 187,-722.788 187,-701 187,-701 187,-701 187,-539 187,-519.406 190.417,-497.561 193.748,-480.923"/>
<polygon fill="black" stroke="black" points="197.24,-481.326 195.887,-470.818 190.392,-479.876 197.24,-481.326"/>
<text text-anchor="middle" x="189" y="-623.3" font-family="Times New Roman,serif" font-size="14.00">l</text>
</g>
<!-- 9 -->
<g id="node10" class="node"><title>9</title>
<ellipse fill="none" stroke="black" cx="263" cy="-540" rx="27" ry="18"/>
</g>
<!-- 9&#45;&gt;28 -->
<g id="edge16" class="edge"><title>9&#45;&gt;28</title>
<path fill="none" stroke="black" d="M247.431,-524.964C236.631,-512.625 222.736,-494.361 212.622,-479.452"/>
<polygon fill="black" stroke="black" points="215.285,-477.13 206.875,-470.686 209.431,-480.968 215.285,-477.13"/>
</g>
<!-- 30 -->
<g id="node31" class="node"><title>30</title>
<ellipse fill="none" stroke="black" cx="286" cy="-453" rx="27" ry="18"/>
<text text-anchor="middle" x="286" y="-449.3" font-family="Times New Roman,serif" font-size="14.00">e,p</text>
</g>
<!-- 9&#45;&gt;30 -->
<g id="edge52" class="edge"><title>9&#45;&gt;30</title>
<path fill="none" stroke="black" d="M276.733,-524.116C281.235,-518.283 285.676,-511.253 288,-504 290.307,-496.802 290.814,-488.722 290.48,-481.191"/>
<polygon fill="black" stroke="black" points="293.949,-480.694 289.545,-471.058 286.978,-481.337 293.949,-480.694"/>
<text text-anchor="middle" x="303" y="-492.8" font-family="Times New Roman,serif" font-size="14.00">I,S1</text>
</g>
<!-- 9&#45;&gt;35 -->
<g id="edge53" class="edge"><title>9&#45;&gt;35</title>
<path fill="none" stroke="black" d="M268.915,-557.758C273.103,-569.625 278.807,-585.787 283.613,-599.403"/>
<polygon fill="black" stroke="black" points="280.444,-600.942 287.073,-609.207 287.045,-598.612 280.444,-600.942"/>
<text text-anchor="middle" x="283.5" y="-579.8" font-family="Times New Roman,serif" font-size="14.00">s</text>
</g>
<!-- 10 -->
<g id="node11" class="node"><title>10</title>
<ellipse fill="none" stroke="black" cx="120" cy="-1302" rx="27" ry="18"/>
<text text-anchor="middle" x="120" y="-1298.3" font-family="Times New Roman,serif" font-size="14.00">e</text>
</g>
<!-- 10&#45;&gt;11 -->
<g id="edge8" class="edge"><title>10&#45;&gt;11</title>
<path fill="none" stroke="black" d="M114.16,-1284.17C113.285,-1276.04 113.041,-1266.08 113.428,-1256.92"/>
<polygon fill="black" stroke="black" points="116.937,-1256.93 114.173,-1246.71 109.955,-1256.42 116.937,-1256.93"/>
</g>
<!-- 16 -->
<g id="node17" class="node"><title>16</title>
<ellipse fill="none" stroke="black" cx="121" cy="-1375" rx="27" ry="18"/>
<text text-anchor="middle" x="121" y="-1371.3" font-family="Times New Roman,serif" font-size="14.00">m</text>
</g>
<!-- 10&#45;&gt;16 -->
<g id="edge9" class="edge"><title>10&#45;&gt;16</title>
<path fill="none" stroke="black" d="M126.062,-1319.71C127.058,-1327.82 127.448,-1337.78 127.196,-1346.94"/>
<polygon fill="black" stroke="black" points="123.688,-1346.99 126.603,-1357.17 130.676,-1347.39 123.688,-1346.99"/>
</g>
<!-- 17 -->
<g id="node18" class="node"><title>17</title>
<ellipse fill="none" stroke="black" cx="27" cy="-1175" rx="27" ry="18"/>
<text text-anchor="middle" x="27" y="-1171.3" font-family="Times New Roman,serif" font-size="14.00">e,p</text>
</g>
<!-- 10&#45;&gt;17 -->
<g id="edge61" class="edge"><title>10&#45;&gt;17</title>
<path fill="none" stroke="black" d="M108.596,-1285.67C92.6297,-1264.21 63.4643,-1225.01 44.6725,-1199.75"/>
<polygon fill="black" stroke="black" points="47.2742,-1197.39 38.4969,-1191.45 41.658,-1201.57 47.2742,-1197.39"/>
</g>
<!-- 11&#45;&gt;7 -->
<g id="edge26" class="edge"><title>11&#45;&gt;7</title>
<path fill="none" stroke="black" d="M119.303,-1210.94C119.204,-1196.28 120.26,-1174.78 126,-1157 127.157,-1153.42 128.738,-1149.81 130.517,-1146.35"/>
<polygon fill="black" stroke="black" points="133.579,-1148.05 135.536,-1137.64 127.513,-1144.56 133.579,-1148.05"/>
<text text-anchor="middle" x="128" y="-1171.3" font-family="Times New Roman,serif" font-size="14.00">l</text>
</g>
<!-- 11&#45;&gt;10 -->
<g id="edge7" class="edge"><title>11&#45;&gt;10</title>
<path fill="none" stroke="black" d="M125.827,-1246.71C126.708,-1254.82 126.959,-1264.78 126.577,-1273.94"/>
<polygon fill="black" stroke="black" points="123.068,-1273.95 125.84,-1284.17 130.05,-1274.45 123.068,-1273.95"/>
</g>
<!-- 11&#45;&gt;12 -->
<g id="edge6" class="edge"><title>11&#45;&gt;12</title>
<path fill="none" stroke="black" d="M104.444,-1213.96C89.0778,-1194.3 69,-1157.04 69,-1122 69,-1122 69,-1122 69,-946 69,-926.51 69,-904.507 70.2358,-887.771"/>
<polygon fill="black" stroke="black" points="73.7391,-887.909 71.2387,-877.613 66.773,-887.221 73.7391,-887.909"/>
</g>
<!-- 12&#45;&gt;6 -->
<g id="edge19" class="edge"><title>12&#45;&gt;6</title>
<path fill="none" stroke="black" d="M97.6602,-872.415C106.867,-878.507 117.443,-886.672 125,-896 130.645,-902.967 135.242,-911.545 138.8,-919.617"/>
<polygon fill="black" stroke="black" points="135.63,-921.113 142.627,-929.069 142.119,-918.487 135.63,-921.113"/>
<text text-anchor="middle" x="137" y="-899.8" font-family="Times New Roman,serif" font-size="14.00">l</text>
</g>
<!-- 12&#45;&gt;11 -->
<g id="edge5" class="edge"><title>12&#45;&gt;11</title>
<path fill="none" stroke="black" d="M84.7613,-877.613C87,-894.747 87,-922.241 87,-946 87,-1122 87,-1122 87,-1122 87,-1150.88 100.641,-1181.27 110.709,-1202.07"/>
<polygon fill="black" stroke="black" points="107.626,-1203.73 115.155,-1211.18 113.917,-1200.66 107.626,-1203.73"/>
</g>
<!-- 13 -->
<g id="node14" class="node"><title>13</title>
<ellipse fill="none" stroke="black" cx="75" cy="-773" rx="27" ry="18"/>
</g>
<!-- 12&#45;&gt;13 -->
<g id="edge4" class="edge"><title>12&#45;&gt;13</title>
<path fill="none" stroke="black" d="M71.9036,-842.207C70.1764,-830.448 69.337,-814.485 69.6198,-800.958"/>
<polygon fill="black" stroke="black" points="73.1256,-800.909 70.0916,-790.758 66.1331,-800.586 73.1256,-800.909"/>
</g>
<!-- 13&#45;&gt;12 -->
<g id="edge3" class="edge"><title>13&#45;&gt;12</title>
<path fill="none" stroke="black" d="M81.0913,-790.758C82.8203,-802.508 83.6617,-818.47 83.3811,-832.002"/>
<polygon fill="black" stroke="black" points="79.875,-832.056 82.911,-842.207 86.8675,-832.378 79.875,-832.056"/>
</g>
<!-- 14 -->
<g id="node15" class="node"><title>14</title>
<ellipse fill="none" stroke="black" cx="75" cy="-700" rx="27" ry="18"/>
<text text-anchor="middle" x="75" y="-696.3" font-family="Times New Roman,serif" font-size="14.00">s</text>
</g>
<!-- 13&#45;&gt;14 -->
<g id="edge2" class="edge"><title>13&#45;&gt;14</title>
<path fill="none" stroke="black" d="M69.1601,-755.174C68.2848,-747.039 68.0409,-737.076 68.4283,-727.921"/>
<polygon fill="black" stroke="black" points="71.9366,-727.933 69.1731,-717.705 64.9552,-727.424 71.9366,-727.933"/>
</g>
<!-- 14&#45;&gt;13 -->
<g id="edge1" class="edge"><title>14&#45;&gt;13</title>
<path fill="none" stroke="black" d="M80.8269,-717.705C81.7084,-725.822 81.9586,-735.78 81.5774,-744.942"/>
<polygon fill="black" stroke="black" points="78.068,-744.948 80.8399,-755.174 85.0499,-745.452 78.068,-744.948"/>
</g>
<!-- 15 -->
<g id="node16" class="node"><title>15</title>
<ellipse fill="none" stroke="black" cx="121" cy="-1448" rx="27" ry="18"/>
<text text-anchor="middle" x="121" y="-1444.3" font-family="Times New Roman,serif" font-size="14.00">p</text>
</g>
<!-- 15&#45;&gt;16 -->
<g id="edge12" class="edge"><title>15&#45;&gt;16</title>
<path fill="none" stroke="black" d="M115.16,-1430.17C114.285,-1422.04 114.041,-1412.08 114.428,-1402.92"/>
<polygon fill="black" stroke="black" points="117.937,-1402.93 115.173,-1392.71 110.955,-1402.42 117.937,-1402.93"/>
</g>
<!-- 26 -->
<g id="node27" class="node"><title>26</title>
<ellipse fill="none" stroke="black" cx="148" cy="-1535" rx="27" ry="18"/>
<text text-anchor="middle" x="148" y="-1531.3" font-family="Times New Roman,serif" font-size="14.00">e,p,i</text>
</g>
<!-- 15&#45;&gt;26 -->
<g id="edge41" class="edge"><title>15&#45;&gt;26</title>
<path fill="none" stroke="black" d="M126.323,-1465.76C130.093,-1477.62 135.226,-1493.79 139.552,-1507.4"/>
<polygon fill="black" stroke="black" points="136.302,-1508.74 142.666,-1517.21 142.974,-1506.62 136.302,-1508.74"/>
<text text-anchor="middle" x="139" y="-1487.8" font-family="Times New Roman,serif" font-size="14.00">l</text>
</g>
<!-- 16&#45;&gt;10 -->
<g id="edge10" class="edge"><title>16&#45;&gt;10</title>
<path fill="none" stroke="black" d="M114.923,-1357.17C113.933,-1349.04 113.549,-1339.08 113.807,-1329.92"/>
<polygon fill="black" stroke="black" points="117.315,-1329.89 114.408,-1319.71 110.327,-1329.48 117.315,-1329.89"/>
</g>
<!-- 16&#45;&gt;15 -->
<g id="edge11" class="edge"><title>16&#45;&gt;15</title>
<path fill="none" stroke="black" d="M126.827,-1392.71C127.708,-1400.82 127.959,-1410.78 127.577,-1419.94"/>
<polygon fill="black" stroke="black" points="124.068,-1419.95 126.84,-1430.17 131.05,-1420.45 124.068,-1419.95"/>
</g>
<!-- 17&#45;&gt;6 -->
<g id="edge60" class="edge"><title>17&#45;&gt;6</title>
<path fill="none" stroke="black" d="M29.5429,-1156.71C33.1346,-1135.46 40.8865,-1098.69 55,-1070 73.9285,-1031.52 105.837,-993.183 126.909,-970.031"/>
<polygon fill="black" stroke="black" points="129.653,-972.218 133.872,-962.499 124.513,-967.466 129.653,-972.218"/>
</g>
<!-- 18&#45;&gt;8 -->
<g id="edge24" class="edge"><title>18&#45;&gt;8</title>
<path fill="none" stroke="black" d="M162.155,-841.799C159.537,-830.086 156.018,-814.342 153.03,-800.974"/>
<polygon fill="black" stroke="black" points="156.372,-799.881 150.774,-790.885 149.54,-801.408 156.372,-799.881"/>
<text text-anchor="middle" x="160" y="-812.8" font-family="Times New Roman,serif" font-size="14.00">l</text>
</g>
<!-- 19 -->
<g id="node20" class="node"><title>19</title>
<ellipse fill="none" stroke="black" cx="224" cy="-773" rx="31.6951" ry="18"/>
<text text-anchor="middle" x="224" y="-769.3" font-family="Times New Roman,serif" font-size="14.00">m,p,k</text>
</g>
<!-- 18&#45;&gt;19 -->
<g id="edge63" class="edge"><title>18&#45;&gt;19</title>
<path fill="none" stroke="black" d="M174.489,-842.82C179.952,-832.821 187.425,-819.867 195,-809 197.661,-805.183 200.635,-801.267 203.636,-797.5"/>
<polygon fill="black" stroke="black" points="206.492,-799.537 210.14,-789.59 201.085,-795.092 206.492,-799.537"/>
<text text-anchor="middle" x="199" y="-812.8" font-family="Times New Roman,serif" font-size="14.00">b</text>
</g>
<!-- 19&#45;&gt;18 -->
<g id="edge64" class="edge"><title>19&#45;&gt;18</title>
<path fill="none" stroke="black" d="M218.369,-791.055C214.596,-801.138 209.032,-813.874 202,-824 198.496,-829.045 194.194,-833.965 189.797,-838.446"/>
<polygon fill="black" stroke="black" points="187.222,-836.066 182.435,-845.518 192.072,-841.115 187.222,-836.066"/>
<text text-anchor="middle" x="215" y="-812.8" font-family="Times New Roman,serif" font-size="14.00">b</text>
</g>
<!-- 20&#45;&gt;3 -->
<g id="edge27" class="edge"><title>20&#45;&gt;3</title>
<path fill="none" stroke="black" d="M287.323,-2060.76C291.093,-2072.62 296.226,-2088.79 300.552,-2102.4"/>
<polygon fill="black" stroke="black" points="297.302,-2103.74 303.666,-2112.21 303.974,-2101.62 297.302,-2103.74"/>
<text text-anchor="middle" x="300" y="-2082.8" font-family="Times New Roman,serif" font-size="14.00">l</text>
</g>
<!-- 21 -->
<g id="node22" class="node"><title>21</title>
<ellipse fill="none" stroke="black" cx="263" cy="-1956" rx="27" ry="18"/>
<text text-anchor="middle" x="263" y="-1952.3" font-family="Times New Roman,serif" font-size="14.00">m,p</text>
</g>
<!-- 20&#45;&gt;21 -->
<g id="edge36" class="edge"><title>20&#45;&gt;21</title>
<path fill="none" stroke="black" d="M274.965,-2025.52C272.75,-2019.75 270.495,-2013.17 269,-2007 267.238,-1999.72 265.984,-1991.72 265.094,-1984.29"/>
<polygon fill="black" stroke="black" points="268.572,-1983.89 264.065,-1974.3 261.609,-1984.61 268.572,-1983.89"/>
<text text-anchor="middle" x="271" y="-1995.8" font-family="Times New Roman,serif" font-size="14.00">l</text>
</g>
<!-- 21&#45;&gt;20 -->
<g id="edge35" class="edge"><title>21&#45;&gt;20</title>
<path fill="none" stroke="black" d="M266.774,-1973.89C269.376,-1985.53 272.892,-2001.25 275.89,-2014.66"/>
<polygon fill="black" stroke="black" points="272.558,-2015.8 278.155,-2024.8 279.389,-2014.28 272.558,-2015.8"/>
</g>
<!-- 22 -->
<g id="node23" class="node"><title>22</title>
<ellipse fill="none" stroke="black" cx="233" cy="-1869" rx="27" ry="18"/>
<text text-anchor="middle" x="233" y="-1865.3" font-family="Times New Roman,serif" font-size="14.00">e,p,i</text>
</g>
<!-- 21&#45;&gt;22 -->
<g id="edge49" class="edge"><title>21&#45;&gt;22</title>
<path fill="none" stroke="black" d="M248.709,-1940.54C243.782,-1934.65 238.8,-1927.47 236,-1920 233.345,-1912.92 232.149,-1904.87 231.725,-1897.34"/>
<polygon fill="black" stroke="black" points="235.223,-1897.13 231.571,-1887.18 228.224,-1897.23 235.223,-1897.13"/>
<text text-anchor="middle" x="239.5" y="-1908.8" font-family="Times New Roman,serif" font-size="14.00">k</text>
</g>
<!-- 22&#45;&gt;21 -->
<g id="edge50" class="edge"><title>22&#45;&gt;21</title>
<path fill="none" stroke="black" d="M238.915,-1886.76C243.103,-1898.62 248.807,-1914.79 253.613,-1928.4"/>
<polygon fill="black" stroke="black" points="250.444,-1929.94 257.073,-1938.21 257.045,-1927.61 250.444,-1929.94"/>
<text text-anchor="middle" x="253.5" y="-1908.8" font-family="Times New Roman,serif" font-size="14.00">k</text>
</g>
<!-- 23 -->
<g id="node24" class="node"><title>23</title>
<ellipse fill="none" stroke="black" cx="202" cy="-1782" rx="27" ry="18"/>
<text text-anchor="middle" x="202" y="-1778.3" font-family="Times New Roman,serif" font-size="14.00">m,p</text>
</g>
<!-- 22&#45;&gt;23 -->
<g id="edge67" class="edge"><title>22&#45;&gt;23</title>
<path fill="none" stroke="black" d="M217.881,-1854.08C212.48,-1848.15 206.993,-1840.81 204,-1833 201.295,-1825.94 200.198,-1817.91 199.928,-1810.37"/>
<polygon fill="black" stroke="black" points="203.429,-1810.24 200.016,-1800.21 196.429,-1810.18 203.429,-1810.24"/>
<text text-anchor="middle" x="208" y="-1821.8" font-family="Times New Roman,serif" font-size="14.00">b</text>
</g>
<!-- 23&#45;&gt;22 -->
<g id="edge68" class="edge"><title>23&#45;&gt;22</title>
<path fill="none" stroke="black" d="M208.112,-1799.76C212.482,-1811.74 218.45,-1828.1 223.446,-1841.8"/>
<polygon fill="black" stroke="black" points="220.161,-1843.01 226.875,-1851.21 226.737,-1840.61 220.161,-1843.01"/>
<text text-anchor="middle" x="224" y="-1821.8" font-family="Times New Roman,serif" font-size="14.00">b</text>
</g>
<!-- 24 -->
<g id="node25" class="node"><title>24</title>
<ellipse fill="none" stroke="black" cx="175" cy="-1695" rx="27" ry="18"/>
<text text-anchor="middle" x="175" y="-1691.3" font-family="Times New Roman,serif" font-size="14.00">e</text>
</g>
<!-- 23&#45;&gt;24 -->
<g id="edge37" class="edge"><title>23&#45;&gt;24</title>
<path fill="none" stroke="black" d="M190.667,-1765.32C187.002,-1759.51 183.296,-1752.7 181,-1746 178.536,-1738.8 177.054,-1730.72 176.17,-1723.19"/>
<polygon fill="black" stroke="black" points="179.642,-1722.72 175.281,-1713.06 172.669,-1723.33 179.642,-1722.72"/>
<text text-anchor="middle" x="183" y="-1734.8" font-family="Times New Roman,serif" font-size="14.00">l</text>
</g>
<!-- 24&#45;&gt;23 -->
<g id="edge38" class="edge"><title>24&#45;&gt;23</title>
<path fill="none" stroke="black" d="M180.323,-1712.76C184.093,-1724.62 189.226,-1740.79 193.552,-1754.4"/>
<polygon fill="black" stroke="black" points="190.302,-1755.74 196.666,-1764.21 196.974,-1753.62 190.302,-1755.74"/>
<text text-anchor="middle" x="193" y="-1734.8" font-family="Times New Roman,serif" font-size="14.00">l</text>
</g>
<!-- 25 -->
<g id="node26" class="node"><title>25</title>
<ellipse fill="none" stroke="black" cx="148" cy="-1608" rx="27" ry="18"/>
<text text-anchor="middle" x="148" y="-1604.3" font-family="Times New Roman,serif" font-size="14.00">e,k</text>
</g>
<!-- 24&#45;&gt;25 -->
<g id="edge39" class="edge"><title>24&#45;&gt;25</title>
<path fill="none" stroke="black" d="M163.667,-1678.32C160.002,-1672.51 156.296,-1665.7 154,-1659 151.536,-1651.8 150.054,-1643.72 149.17,-1636.19"/>
<polygon fill="black" stroke="black" points="152.642,-1635.72 148.281,-1626.06 145.669,-1636.33 152.642,-1635.72"/>
<text text-anchor="middle" x="156" y="-1647.8" font-family="Times New Roman,serif" font-size="14.00">l</text>
</g>
<!-- 25&#45;&gt;24 -->
<g id="edge40" class="edge"><title>25&#45;&gt;24</title>
<path fill="none" stroke="black" d="M153.323,-1625.76C157.093,-1637.62 162.226,-1653.79 166.552,-1667.4"/>
<polygon fill="black" stroke="black" points="163.302,-1668.74 169.666,-1677.21 169.974,-1666.62 163.302,-1668.74"/>
<text text-anchor="middle" x="166" y="-1647.8" font-family="Times New Roman,serif" font-size="14.00">l</text>
</g>
<!-- 25&#45;&gt;26 -->
<g id="edge14" class="edge"><title>25&#45;&gt;26</title>
<path fill="none" stroke="black" d="M142.16,-1590.17C141.285,-1582.04 141.041,-1572.08 141.428,-1562.92"/>
<polygon fill="black" stroke="black" points="144.937,-1562.93 142.173,-1552.71 137.955,-1562.42 144.937,-1562.93"/>
</g>
<!-- 26&#45;&gt;15 -->
<g id="edge42" class="edge"><title>26&#45;&gt;15</title>
<path fill="none" stroke="black" d="M136.667,-1518.32C133.002,-1512.51 129.296,-1505.7 127,-1499 124.536,-1491.8 123.054,-1483.72 122.17,-1476.19"/>
<polygon fill="black" stroke="black" points="125.642,-1475.72 121.281,-1466.06 118.669,-1476.33 125.642,-1475.72"/>
<text text-anchor="middle" x="129" y="-1487.8" font-family="Times New Roman,serif" font-size="14.00">l</text>
</g>
<!-- 26&#45;&gt;25 -->
<g id="edge13" class="edge"><title>26&#45;&gt;25</title>
<path fill="none" stroke="black" d="M153.827,-1552.71C154.708,-1560.82 154.959,-1570.78 154.577,-1579.94"/>
<polygon fill="black" stroke="black" points="151.068,-1579.95 153.84,-1590.17 158.05,-1580.45 151.068,-1579.95"/>
</g>
<!-- 27 -->
<g id="node28" class="node"><title>27</title>
<ellipse fill="none" stroke="black" cx="255" cy="-18" rx="27" ry="18"/>
</g>
<!-- 32 -->
<g id="node33" class="node"><title>32</title>
<ellipse fill="none" stroke="black" cx="255" cy="-105" rx="27" ry="18"/>
<text text-anchor="middle" x="255" y="-101.3" font-family="Times New Roman,serif" font-size="14.00">e,p</text>
</g>
<!-- 27&#45;&gt;32 -->
<g id="edge34" class="edge"><title>27&#45;&gt;32</title>
<path fill="none" stroke="black" d="M255,-36.1754C255,-47.806 255,-63.4194 255,-76.7339"/>
<polygon fill="black" stroke="black" points="251.5,-76.7989 255,-86.799 258.5,-76.799 251.5,-76.7989"/>
<text text-anchor="middle" x="257" y="-57.8" font-family="Times New Roman,serif" font-size="14.00">l</text>
</g>
<!-- 28&#45;&gt;8 -->
<g id="edge71" class="edge"><title>28&#45;&gt;8</title>
<path fill="none" stroke="black" d="M184.385,-467.993C168.751,-483.617 147,-510.479 147,-539 147,-701 147,-701 147,-701 147,-715.349 147,-731.329 147,-744.489"/>
<polygon fill="black" stroke="black" points="143.5,-744.784 147,-754.784 150.5,-744.784 143.5,-744.784"/>
<text text-anchor="middle" x="149" y="-623.3" font-family="Times New Roman,serif" font-size="14.00">l</text>
</g>
<!-- 28&#45;&gt;9 -->
<g id="edge15" class="edge"><title>28&#45;&gt;9</title>
<path fill="none" stroke="black" d="M215.491,-467.947C226.273,-480.254 240.165,-498.505 250.296,-513.428"/>
<polygon fill="black" stroke="black" points="247.644,-515.766 256.057,-522.207 253.497,-511.926 247.644,-515.766"/>
</g>
<!-- 29 -->
<g id="node30" class="node"><title>29</title>
<ellipse fill="none" stroke="black" cx="255" cy="-192" rx="27" ry="18"/>
<text text-anchor="middle" x="255" y="-188.3" font-family="Times New Roman,serif" font-size="14.00">m</text>
</g>
<!-- 31 -->
<g id="node32" class="node"><title>31</title>
<ellipse fill="none" stroke="black" cx="255" cy="-279" rx="27" ry="18"/>
<text text-anchor="middle" x="255" y="-275.3" font-family="Times New Roman,serif" font-size="14.00">e,i</text>
</g>
<!-- 29&#45;&gt;31 -->
<g id="edge17" class="edge"><title>29&#45;&gt;31</title>
<path fill="none" stroke="black" d="M260.5,-209.758C261.814,-221.508 262.092,-237.47 261.334,-251.002"/>
<polygon fill="black" stroke="black" points="257.826,-250.956 260.504,-261.207 264.803,-251.524 257.826,-250.956"/>
</g>
<!-- 29&#45;&gt;32 -->
<g id="edge31" class="edge"><title>29&#45;&gt;32</title>
<path fill="none" stroke="black" d="M253.828,-173.919C253.49,-168.222 253.167,-161.84 253,-156 252.79,-148.648 252.938,-140.691 253.229,-133.333"/>
<polygon fill="black" stroke="black" points="256.736,-133.282 253.735,-123.121 249.745,-132.936 256.736,-133.282"/>
</g>
<!-- 30&#45;&gt;9 -->
<g id="edge51" class="edge"><title>30&#45;&gt;9</title>
<path fill="none" stroke="black" d="M273.972,-469.144C270.016,-475.005 266.097,-481.986 264,-489 261.836,-496.237 261.027,-504.33 260.903,-511.861"/>
<polygon fill="black" stroke="black" points="257.406,-512.06 261.112,-521.986 264.404,-511.915 257.406,-512.06"/>
<text text-anchor="middle" x="276" y="-492.8" font-family="Times New Roman,serif" font-size="14.00">I,S1</text>
</g>
<!-- 34 -->
<g id="node35" class="node"><title>34</title>
<ellipse fill="none" stroke="black" cx="286" cy="-366" rx="27" ry="18"/>
<text text-anchor="middle" x="286" y="-362.3" font-family="Times New Roman,serif" font-size="14.00">e,p</text>
</g>
<!-- 30&#45;&gt;34 -->
<g id="edge22" class="edge"><title>30&#45;&gt;34</title>
<path fill="none" stroke="black" d="M281.576,-434.917C279.59,-425.275 277.912,-412.99 279,-402 279.256,-399.41 279.617,-396.728 280.041,-394.053"/>
<polygon fill="black" stroke="black" points="283.525,-394.458 281.902,-383.988 276.642,-393.185 283.525,-394.458"/>
<text text-anchor="middle" x="281" y="-405.8" font-family="Times New Roman,serif" font-size="14.00">l</text>
</g>
<!-- 31&#45;&gt;29 -->
<g id="edge18" class="edge"><title>31&#45;&gt;29</title>
<path fill="none" stroke="black" d="M249.496,-261.207C248.184,-249.448 247.908,-233.485 248.668,-219.958"/>
<polygon fill="black" stroke="black" points="252.176,-220.01 249.5,-209.758 245.199,-219.441 252.176,-220.01"/>
</g>
<!-- 31&#45;&gt;34 -->
<g id="edge65" class="edge"><title>31&#45;&gt;34</title>
<path fill="none" stroke="black" d="M260.958,-296.682C264.444,-306.409 268.944,-318.909 273,-330 274.023,-332.797 275.097,-335.716 276.171,-338.625"/>
<polygon fill="black" stroke="black" points="272.992,-340.118 279.75,-348.278 279.555,-337.685 272.992,-340.118"/>
<text text-anchor="middle" x="277" y="-318.8" font-family="Times New Roman,serif" font-size="14.00">b</text>
</g>
<!-- 32&#45;&gt;27 -->
<g id="edge33" class="edge"><title>32&#45;&gt;27</title>
<path fill="none" stroke="black" d="M253.828,-86.9185C253.49,-81.2225 253.167,-74.8405 253,-69 252.79,-61.6485 252.938,-53.6914 253.229,-46.3331"/>
<polygon fill="black" stroke="black" points="256.736,-46.2819 253.735,-36.1211 249.745,-45.9358 256.736,-46.2819"/>
</g>
<!-- 32&#45;&gt;29 -->
<g id="edge32" class="edge"><title>32&#45;&gt;29</title>
<path fill="none" stroke="black" d="M255,-123.175C255,-134.806 255,-150.419 255,-163.734"/>
<polygon fill="black" stroke="black" points="251.5,-163.799 255,-173.799 258.5,-163.799 251.5,-163.799"/>
<text text-anchor="middle" x="257" y="-144.8" font-family="Times New Roman,serif" font-size="14.00">l</text>
</g>
<!-- 33 -->
<g id="node34" class="node"><title>33</title>
<ellipse fill="none" stroke="black" cx="343" cy="-279" rx="27" ry="18"/>
<text text-anchor="middle" x="343" y="-275.3" font-family="Times New Roman,serif" font-size="14.00">b</text>
</g>
<!-- 33&#45;&gt;34 -->
<g id="edge44" class="edge"><title>33&#45;&gt;34</title>
<path fill="none" stroke="black" d="M339.956,-297.244C337.585,-307.395 333.562,-320.135 327,-330 323.1,-335.864 317.95,-341.305 312.622,-346.064"/>
<polygon fill="black" stroke="black" points="310.29,-343.451 304.813,-352.52 314.751,-348.846 310.29,-343.451"/>
<text text-anchor="middle" x="347" y="-318.8" font-family="Times New Roman,serif" font-size="14.00">I,S1</text>
</g>
<!-- 36 -->
<g id="node37" class="node"><title>36</title>
<ellipse fill="none" stroke="black" cx="332" cy="-192" rx="27" ry="18"/>
<text text-anchor="middle" x="332" y="-188.3" font-family="Times New Roman,serif" font-size="14.00">t</text>
</g>
<!-- 33&#45;&gt;36 -->
<g id="edge29" class="edge"><title>33&#45;&gt;36</title>
<path fill="none" stroke="black" d="M332.328,-262.315C328.973,-256.508 325.702,-249.701 324,-243 322.096,-235.502 322.446,-227.251 323.726,-219.65"/>
<polygon fill="black" stroke="black" points="327.157,-220.343 325.923,-209.82 320.326,-218.816 327.157,-220.343"/>
</g>
<!-- 34&#45;&gt;30 -->
<g id="edge21" class="edge"><title>34&#45;&gt;30</title>
<path fill="none" stroke="black" d="M286,-384.175C286,-395.806 286,-411.419 286,-424.734"/>
<polygon fill="black" stroke="black" points="282.5,-424.799 286,-434.799 289.5,-424.799 282.5,-424.799"/>
<text text-anchor="middle" x="288" y="-405.8" font-family="Times New Roman,serif" font-size="14.00">l</text>
</g>
<!-- 34&#45;&gt;31 -->
<g id="edge66" class="edge"><title>34&#45;&gt;31</title>
<path fill="none" stroke="black" d="M270.881,-351.078C265.48,-345.154 259.993,-337.811 257,-330 254.295,-322.942 253.198,-314.907 252.928,-307.374"/>
<polygon fill="black" stroke="black" points="256.429,-307.242 253.016,-297.212 249.429,-307.182 256.429,-307.242"/>
<text text-anchor="middle" x="261" y="-318.8" font-family="Times New Roman,serif" font-size="14.00">b</text>
</g>
<!-- 34&#45;&gt;33 -->
<g id="edge43" class="edge"><title>34&#45;&gt;33</title>
<path fill="none" stroke="black" d="M289.483,-347.784C292.09,-337.644 296.37,-324.905 303,-315 306.773,-309.364 311.676,-304.079 316.75,-299.408"/>
<polygon fill="black" stroke="black" points="319.385,-301.762 324.726,-292.612 314.845,-296.434 319.385,-301.762"/>
<text text-anchor="middle" x="315" y="-318.8" font-family="Times New Roman,serif" font-size="14.00">I,S1</text>
</g>
<!-- 35&#45;&gt;1 -->
<g id="edge55" class="edge"><title>35&#45;&gt;1</title>
<path fill="none" stroke="black" d="M307.812,-642.309C314.747,-651.217 322.66,-662.932 328.924,-673.399"/>
<polygon fill="black" stroke="black" points="325.938,-675.228 333.939,-682.174 332.016,-671.755 325.938,-675.228"/>
</g>
<!-- 35&#45;&gt;9 -->
<g id="edge54" class="edge"><title>35&#45;&gt;9</title>
<path fill="none" stroke="black" d="M278.709,-611.54C273.782,-605.652 268.8,-598.474 266,-591 263.345,-583.915 262.149,-575.871 261.725,-568.338"/>
<polygon fill="black" stroke="black" points="265.223,-568.128 261.571,-558.182 258.224,-568.235 265.223,-568.128"/>
<text text-anchor="middle" x="269.5" y="-579.8" font-family="Times New Roman,serif" font-size="14.00">s</text>
</g>
<!-- 35&#45;&gt;16 -->
<g id="edge62" class="edge"><title>35&#45;&gt;16</title>
<path fill="none" stroke="black" d="M289.597,-645.139C287.049,-659.472 284,-680.487 284,-699 284,-1303 284,-1303 284,-1303 284,-1357.49 206.478,-1370.59 158.358,-1373.48"/>
<polygon fill="black" stroke="black" points="158.104,-1369.98 148.283,-1373.96 158.438,-1376.98 158.104,-1369.98"/>
</g>
<!-- 36&#45;&gt;33 -->
<g id="edge30" class="edge"><title>36&#45;&gt;33</title>
<path fill="none" stroke="black" d="M334.223,-210.175C335.728,-221.806 337.748,-237.419 339.471,-250.734"/>
<polygon fill="black" stroke="black" points="336.019,-251.331 340.774,-260.799 342.962,-250.432 336.019,-251.331"/>
<text text-anchor="middle" x="341" y="-231.8" font-family="Times New Roman,serif" font-size="14.00">l</text>
</g>
</g>
</svg>
