<?xml version="1.0" encoding="UTF-8" standalone="no"?>
<!DOCTYPE svg PUBLIC "-//W3C//DTD SVG 1.1//EN"
 "http://www.w3.org/Graphics/SVG/1.1/DTD/svg11.dtd">
<!-- Generated by graphviz version 2.38.0 (20140413.2041)
 -->
<!-- Title: %3 Pages: 1 -->
<svg width="134pt" height="785pt"
 viewBox="0.00 0.00 134.00 785.00" xmlns="http://www.w3.org/2000/svg" xmlns:xlink="http://www.w3.org/1999/xlink">
<g id="graph0" class="graph" transform="scale(1 1) rotate(0) translate(4 781)">
<title>%3</title>
<polygon fill="white" stroke="none" points="-4,4 -4,-781 130,-781 130,4 -4,4"/>
<!-- 0 -->
<g id="node1" class="node"><title>0</title>
<ellipse fill="none" stroke="black" cx="55" cy="-759" rx="27" ry="18"/>
<text text-anchor="middle" x="55" y="-755.3" font-family="Times New Roman,serif" font-size="14.00">t</text>
</g>
<!-- 1 -->
<g id="node2" class="node"><title>1</title>
<ellipse fill="none" stroke="black" cx="55" cy="-672" rx="27" ry="18"/>
<text text-anchor="middle" x="55" y="-668.3" font-family="Times New Roman,serif" font-size="14.00">e,k</text>
</g>
<!-- 0&#45;&gt;1 -->
<g id="edge14" class="edge"><title>0&#45;&gt;1</title>
<path fill="none" stroke="black" d="M53.2425,-740.929C52.7347,-735.234 52.2502,-728.849 52,-723 51.6854,-715.645 51.9069,-707.687 52.3444,-700.328"/>
<polygon fill="black" stroke="black" points="55.8524,-700.349 53.1026,-690.117 48.8716,-699.83 55.8524,-700.349"/>
<text text-anchor="middle" x="54" y="-711.8" font-family="Times New Roman,serif" font-size="14.00">l</text>
</g>
<!-- 1&#45;&gt;0 -->
<g id="edge13" class="edge"><title>1&#45;&gt;0</title>
<path fill="none" stroke="black" d="M55,-690.175C55,-701.806 55,-717.419 55,-730.734"/>
<polygon fill="black" stroke="black" points="51.5001,-730.799 55,-740.799 58.5001,-730.799 51.5001,-730.799"/>
</g>
<!-- 7 -->
<g id="node8" class="node"><title>7</title>
<ellipse fill="none" stroke="black" cx="55" cy="-585" rx="27" ry="18"/>
<text text-anchor="middle" x="55" y="-581.3" font-family="Times New Roman,serif" font-size="14.00">e,i,p</text>
</g>
<!-- 1&#45;&gt;7 -->
<g id="edge22" class="edge"><title>1&#45;&gt;7</title>
<path fill="none" stroke="black" d="M53.2425,-653.929C52.7347,-648.234 52.2502,-641.849 52,-636 51.6854,-628.645 51.9069,-620.687 52.3444,-613.328"/>
<polygon fill="black" stroke="black" points="55.8524,-613.349 53.1026,-603.117 48.8716,-612.83 55.8524,-613.349"/>
<text text-anchor="middle" x="54" y="-624.8" font-family="Times New Roman,serif" font-size="14.00">l</text>
</g>
<!-- 2 -->
<g id="node3" class="node"><title>2</title>
<ellipse fill="none" stroke="black" cx="98" cy="-18" rx="27" ry="18"/>
<text text-anchor="middle" x="98" y="-14.3" font-family="Times New Roman,serif" font-size="14.00">e,I</text>
</g>
<!-- 3 -->
<g id="node4" class="node"><title>3</title>
<ellipse fill="none" stroke="black" cx="98" cy="-105" rx="27" ry="18"/>
<text text-anchor="middle" x="98" y="-101.3" font-family="Times New Roman,serif" font-size="14.00">p</text>
</g>
<!-- 2&#45;&gt;3 -->
<g id="edge16" class="edge"><title>2&#45;&gt;3</title>
<path fill="none" stroke="black" d="M98,-36.1754C98,-47.806 98,-63.4194 98,-76.7339"/>
<polygon fill="black" stroke="black" points="94.5001,-76.7989 98,-86.799 101.5,-76.799 94.5001,-76.7989"/>
<text text-anchor="middle" x="101.5" y="-57.8" font-family="Times New Roman,serif" font-size="14.00">k</text>
</g>
<!-- 3&#45;&gt;2 -->
<g id="edge15" class="edge"><title>3&#45;&gt;2</title>
<path fill="none" stroke="black" d="M90.5911,-87.4534C87.1215,-77.7712 84.1215,-65.2712 86,-54 86.4851,-51.0893 87.1825,-48.0962 88.0004,-45.144"/>
<polygon fill="black" stroke="black" points="91.3903,-46.0349 91.1119,-35.4437 84.7248,-43.8968 91.3903,-46.0349"/>
<text text-anchor="middle" x="89.5" y="-57.8" font-family="Times New Roman,serif" font-size="14.00">k</text>
</g>
<!-- 4 -->
<g id="node5" class="node"><title>4</title>
<ellipse fill="none" stroke="black" cx="98" cy="-178" rx="27" ry="18"/>
<text text-anchor="middle" x="98" y="-174.3" font-family="Times New Roman,serif" font-size="14.00">e,k</text>
</g>
<!-- 3&#45;&gt;4 -->
<g id="edge10" class="edge"><title>3&#45;&gt;4</title>
<path fill="none" stroke="black" d="M103.827,-122.705C104.708,-130.822 104.959,-140.78 104.577,-149.942"/>
<polygon fill="black" stroke="black" points="101.068,-149.948 103.84,-160.174 108.05,-150.452 101.068,-149.948"/>
</g>
<!-- 4&#45;&gt;3 -->
<g id="edge9" class="edge"><title>4&#45;&gt;3</title>
<path fill="none" stroke="black" d="M92.1601,-160.174C91.2848,-152.039 91.0409,-142.076 91.4283,-132.921"/>
<polygon fill="black" stroke="black" points="94.9366,-132.933 92.1731,-122.705 87.9552,-132.424 94.9366,-132.933"/>
</g>
<!-- 10 -->
<g id="node11" class="node"><title>10</title>
<ellipse fill="none" stroke="black" cx="99" cy="-265" rx="27" ry="18"/>
<text text-anchor="middle" x="99" y="-261.3" font-family="Times New Roman,serif" font-size="14.00">e,p,i</text>
</g>
<!-- 4&#45;&gt;10 -->
<g id="edge12" class="edge"><title>4&#45;&gt;10</title>
<path fill="none" stroke="black" d="M98.2021,-196.175C98.3389,-207.806 98.5226,-223.419 98.6792,-236.734"/>
<polygon fill="black" stroke="black" points="95.1801,-236.841 98.7976,-246.799 102.18,-236.758 95.1801,-236.841"/>
<text text-anchor="middle" x="100" y="-217.8" font-family="Times New Roman,serif" font-size="14.00">l</text>
</g>
<!-- 5 -->
<g id="node6" class="node"><title>5</title>
<ellipse fill="none" stroke="black" cx="55" cy="-411" rx="27" ry="18"/>
<text text-anchor="middle" x="55" y="-407.3" font-family="Times New Roman,serif" font-size="14.00">e,k</text>
</g>
<!-- 6 -->
<g id="node7" class="node"><title>6</title>
<ellipse fill="none" stroke="black" cx="55" cy="-498" rx="27" ry="18"/>
<text text-anchor="middle" x="55" y="-494.3" font-family="Times New Roman,serif" font-size="14.00">b</text>
</g>
<!-- 5&#45;&gt;6 -->
<g id="edge17" class="edge"><title>5&#45;&gt;6</title>
<path fill="none" stroke="black" d="M55,-429.175C55,-440.806 55,-456.419 55,-469.734"/>
<polygon fill="black" stroke="black" points="51.5001,-469.799 55,-479.799 58.5001,-469.799 51.5001,-469.799"/>
<text text-anchor="middle" x="58.5" y="-450.8" font-family="Times New Roman,serif" font-size="14.00">k</text>
</g>
<!-- 8 -->
<g id="node9" class="node"><title>8</title>
<ellipse fill="none" stroke="black" cx="27" cy="-338" rx="27" ry="18"/>
</g>
<!-- 5&#45;&gt;8 -->
<g id="edge4" class="edge"><title>5&#45;&gt;8</title>
<path fill="none" stroke="black" d="M43.246,-394.594C38.917,-386.179 34.4168,-375.518 30.9982,-365.788"/>
<polygon fill="black" stroke="black" points="34.2801,-364.561 27.8797,-356.118 27.618,-366.709 34.2801,-364.561"/>
</g>
<!-- 11 -->
<g id="node12" class="node"><title>11</title>
<ellipse fill="none" stroke="black" cx="99" cy="-338" rx="27" ry="18"/>
<text text-anchor="middle" x="99" y="-334.3" font-family="Times New Roman,serif" font-size="14.00">e,i,k</text>
</g>
<!-- 5&#45;&gt;11 -->
<g id="edge5" class="edge"><title>5&#45;&gt;11</title>
<path fill="none" stroke="black" d="M59.5875,-393.174C64.4439,-383.691 71.6984,-371.723 78.7609,-361.449"/>
<polygon fill="black" stroke="black" points="81.6135,-363.477 84.5914,-353.309 75.9228,-359.401 81.6135,-363.477"/>
</g>
<!-- 6&#45;&gt;5 -->
<g id="edge18" class="edge"><title>6&#45;&gt;5</title>
<path fill="none" stroke="black" d="M48.2059,-480.434C45.0245,-470.745 42.2745,-458.245 44,-447 44.4202,-444.261 45.0152,-441.443 45.7135,-438.651"/>
<polygon fill="black" stroke="black" points="49.134,-439.423 48.5673,-428.843 42.4127,-437.467 49.134,-439.423"/>
<text text-anchor="middle" x="47.5" y="-450.8" font-family="Times New Roman,serif" font-size="14.00">k</text>
</g>
<!-- 6&#45;&gt;7 -->
<g id="edge19" class="edge"><title>6&#45;&gt;7</title>
<path fill="none" stroke="black" d="M55,-516.175C55,-527.806 55,-543.419 55,-556.734"/>
<polygon fill="black" stroke="black" points="51.5001,-556.799 55,-566.799 58.5001,-556.799 51.5001,-556.799"/>
<text text-anchor="middle" x="58.5" y="-537.8" font-family="Times New Roman,serif" font-size="14.00">k</text>
</g>
<!-- 7&#45;&gt;1 -->
<g id="edge21" class="edge"><title>7&#45;&gt;1</title>
<path fill="none" stroke="black" d="M55,-603.175C55,-614.806 55,-630.419 55,-643.734"/>
<polygon fill="black" stroke="black" points="51.5001,-643.799 55,-653.799 58.5001,-643.799 51.5001,-643.799"/>
</g>
<!-- 7&#45;&gt;6 -->
<g id="edge20" class="edge"><title>7&#45;&gt;6</title>
<path fill="none" stroke="black" d="M48.2059,-567.434C45.0245,-557.745 42.2745,-545.245 44,-534 44.4202,-531.261 45.0152,-528.443 45.7135,-525.651"/>
<polygon fill="black" stroke="black" points="49.134,-526.423 48.5673,-515.843 42.4127,-524.467 49.134,-526.423"/>
<text text-anchor="middle" x="47.5" y="-537.8" font-family="Times New Roman,serif" font-size="14.00">k</text>
</g>
<!-- 8&#45;&gt;5 -->
<g id="edge3" class="edge"><title>8&#45;&gt;5</title>
<path fill="none" stroke="black" d="M38.8412,-354.576C43.1424,-362.962 47.604,-373.542 50.9994,-383.205"/>
<polygon fill="black" stroke="black" points="47.6978,-384.371 54.1002,-392.813 54.3595,-382.221 47.6978,-384.371"/>
</g>
<!-- 9 -->
<g id="node10" class="node"><title>9</title>
<ellipse fill="none" stroke="black" cx="27" cy="-265" rx="27" ry="18"/>
<text text-anchor="middle" x="27" y="-261.3" font-family="Times New Roman,serif" font-size="14.00">s</text>
</g>
<!-- 8&#45;&gt;9 -->
<g id="edge2" class="edge"><title>8&#45;&gt;9</title>
<path fill="none" stroke="black" d="M21.1601,-320.174C20.2848,-312.039 20.0409,-302.076 20.4283,-292.921"/>
<polygon fill="black" stroke="black" points="23.9366,-292.933 21.1731,-282.705 16.9552,-292.424 23.9366,-292.933"/>
</g>
<!-- 9&#45;&gt;8 -->
<g id="edge1" class="edge"><title>9&#45;&gt;8</title>
<path fill="none" stroke="black" d="M32.8269,-282.705C33.7084,-290.822 33.9586,-300.78 33.5774,-309.942"/>
<polygon fill="black" stroke="black" points="30.068,-309.948 32.8399,-320.174 37.0499,-310.452 30.068,-309.948"/>
</g>
<!-- 10&#45;&gt;4 -->
<g id="edge11" class="edge"><title>10&#45;&gt;4</title>
<path fill="none" stroke="black" d="M97.2425,-246.929C96.7347,-241.234 96.2502,-234.849 96,-229 95.6857,-221.652 95.7979,-213.696 96.089,-206.338"/>
<polygon fill="black" stroke="black" points="99.5959,-206.292 96.6146,-196.125 92.6052,-205.932 99.5959,-206.292"/>
</g>
<!-- 10&#45;&gt;11 -->
<g id="edge8" class="edge"><title>10&#45;&gt;11</title>
<path fill="none" stroke="black" d="M104.827,-282.705C105.708,-290.822 105.959,-300.78 105.577,-309.942"/>
<polygon fill="black" stroke="black" points="102.068,-309.948 104.84,-320.174 109.05,-310.452 102.068,-309.948"/>
</g>
<!-- 11&#45;&gt;5 -->
<g id="edge6" class="edge"><title>11&#45;&gt;5</title>
<path fill="none" stroke="black" d="M94.4039,-355.843C89.6036,-365.214 82.4647,-377.007 75.4839,-387.194"/>
<polygon fill="black" stroke="black" points="72.4204,-385.461 69.4527,-395.632 78.1152,-389.532 72.4204,-385.461"/>
</g>
<!-- 11&#45;&gt;10 -->
<g id="edge7" class="edge"><title>11&#45;&gt;10</title>
<path fill="none" stroke="black" d="M93.1601,-320.174C92.2848,-312.039 92.0409,-302.076 92.4283,-292.921"/>
<polygon fill="black" stroke="black" points="95.9366,-292.933 93.1731,-282.705 88.9552,-292.424 95.9366,-292.933"/>
</g>
</g>
</svg>
