<?xml version="1.0" encoding="UTF-8" standalone="no"?>
<!DOCTYPE svg PUBLIC "-//W3C//DTD SVG 1.1//EN"
 "http://www.w3.org/Graphics/SVG/1.1/DTD/svg11.dtd">
<!-- Generated by graphviz version 2.38.0 (20140413.2041)
 -->
<!-- Title: %3 Pages: 1 -->
<svg width="349pt" height="566pt"
 viewBox="0.00 0.00 349.00 566.00" xmlns="http://www.w3.org/2000/svg" xmlns:xlink="http://www.w3.org/1999/xlink">
<g id="graph0" class="graph" transform="scale(1 1) rotate(0) translate(4 562)">
<title>%3</title>
<polygon fill="white" stroke="none" points="-4,4 -4,-562 345,-562 345,4 -4,4"/>
<!-- 0 -->
<g id="node1" class="node"><title>0</title>
<ellipse fill="none" stroke="black" cx="235" cy="-540" rx="27" ry="18"/>
<text text-anchor="middle" x="235" y="-536.3" font-family="Times New Roman,serif" font-size="14.00">e,p</text>
</g>
<!-- 1 -->
<g id="node2" class="node"><title>1</title>
<ellipse fill="none" stroke="black" cx="146" cy="-453" rx="28.6953" ry="18"/>
<text text-anchor="middle" x="146" y="-449.3" font-family="Times New Roman,serif" font-size="14.00">e,p,k</text>
</g>
<!-- 0&#45;&gt;1 -->
<g id="edge26" class="edge"><title>0&#45;&gt;1</title>
<path fill="none" stroke="black" d="M211.398,-531.225C197.276,-525.562 179.833,-516.652 168,-504 161.829,-497.401 157.204,-488.79 153.829,-480.577"/>
<polygon fill="black" stroke="black" points="157.023,-479.119 150.313,-470.92 150.445,-481.514 157.023,-479.119"/>
<text text-anchor="middle" x="172" y="-492.8" font-family="Times New Roman,serif" font-size="14.00">b</text>
</g>
<!-- 3 -->
<g id="node4" class="node"><title>3</title>
<ellipse fill="none" stroke="black" cx="216" cy="-279" rx="27" ry="18"/>
<text text-anchor="middle" x="216" y="-275.3" font-family="Times New Roman,serif" font-size="14.00">e,I</text>
</g>
<!-- 0&#45;&gt;3 -->
<g id="edge27" class="edge"><title>0&#45;&gt;3</title>
<path fill="none" stroke="black" d="M236.67,-521.91C239.917,-484.129 245.486,-390.843 230,-315 229.379,-311.956 228.506,-308.838 227.497,-305.777"/>
<polygon fill="black" stroke="black" points="230.75,-304.483 223.95,-296.359 224.199,-306.951 230.75,-304.483"/>
<text text-anchor="middle" x="245" y="-405.8" font-family="Times New Roman,serif" font-size="14.00">b</text>
</g>
<!-- 9 -->
<g id="node10" class="node"><title>9</title>
<ellipse fill="none" stroke="black" cx="310" cy="-453" rx="27" ry="18"/>
<text text-anchor="middle" x="310" y="-449.3" font-family="Times New Roman,serif" font-size="14.00">e,k</text>
</g>
<!-- 0&#45;&gt;9 -->
<g id="edge32" class="edge"><title>0&#45;&gt;9</title>
<path fill="none" stroke="black" d="M248.064,-524.194C259.608,-511.111 276.624,-491.826 289.901,-476.779"/>
<polygon fill="black" stroke="black" points="292.842,-478.735 296.834,-468.921 287.593,-474.104 292.842,-478.735"/>
</g>
<!-- 1&#45;&gt;0 -->
<g id="edge25" class="edge"><title>1&#45;&gt;0</title>
<path fill="none" stroke="black" d="M159.906,-469.257C169.293,-479.361 182.095,-492.771 194,-504 199.215,-508.919 204.979,-514.027 210.497,-518.772"/>
<polygon fill="black" stroke="black" points="208.423,-521.601 218.314,-525.398 212.949,-516.262 208.423,-521.601"/>
<text text-anchor="middle" x="198" y="-492.8" font-family="Times New Roman,serif" font-size="14.00">b</text>
</g>
<!-- 2 -->
<g id="node3" class="node"><title>2</title>
<ellipse fill="none" stroke="black" cx="146" cy="-366" rx="27" ry="18"/>
</g>
<!-- 1&#45;&gt;2 -->
<g id="edge6" class="edge"><title>1&#45;&gt;2</title>
<path fill="none" stroke="black" d="M140.496,-435.207C139.184,-423.448 138.908,-407.485 139.668,-393.958"/>
<polygon fill="black" stroke="black" points="143.176,-394.01 140.5,-383.758 136.199,-393.441 143.176,-394.01"/>
</g>
<!-- 5 -->
<g id="node6" class="node"><title>5</title>
<ellipse fill="none" stroke="black" cx="72" cy="-366" rx="27" ry="18"/>
<text text-anchor="middle" x="72" y="-362.3" font-family="Times New Roman,serif" font-size="14.00">e,i</text>
</g>
<!-- 1&#45;&gt;5 -->
<g id="edge7" class="edge"><title>1&#45;&gt;5</title>
<path fill="none" stroke="black" d="M128.996,-438.343C116.222,-425.673 99.2031,-406.525 86.9535,-391.256"/>
<polygon fill="black" stroke="black" points="89.6076,-388.968 80.696,-383.238 84.0892,-393.275 89.6076,-388.968"/>
</g>
<!-- 2&#45;&gt;1 -->
<g id="edge5" class="edge"><title>2&#45;&gt;1</title>
<path fill="none" stroke="black" d="M151.5,-383.758C152.814,-395.508 153.092,-411.47 152.334,-425.002"/>
<polygon fill="black" stroke="black" points="148.826,-424.956 151.504,-435.207 155.803,-425.524 148.826,-424.956"/>
</g>
<!-- 2&#45;&gt;3 -->
<g id="edge3" class="edge"><title>2&#45;&gt;3</title>
<path fill="none" stroke="black" d="M154.039,-348.611C163.619,-335.097 179.328,-315.833 192.65,-301.155"/>
<polygon fill="black" stroke="black" points="195.492,-303.24 199.752,-293.539 190.372,-298.466 195.492,-303.24"/>
</g>
<!-- 4 -->
<g id="node5" class="node"><title>4</title>
<ellipse fill="none" stroke="black" cx="142" cy="-279" rx="27" ry="18"/>
<text text-anchor="middle" x="142" y="-275.3" font-family="Times New Roman,serif" font-size="14.00">s</text>
</g>
<!-- 2&#45;&gt;4 -->
<g id="edge2" class="edge"><title>2&#45;&gt;4</title>
<path fill="none" stroke="black" d="M139.706,-348.207C137.84,-336.448 136.813,-320.485 136.937,-306.958"/>
<polygon fill="black" stroke="black" points="140.442,-306.873 137.289,-296.758 133.446,-306.632 140.442,-306.873"/>
</g>
<!-- 3&#45;&gt;0 -->
<g id="edge28" class="edge"><title>3&#45;&gt;0</title>
<path fill="none" stroke="black" d="M217.251,-297.056C220.477,-341.031 229.097,-458.537 233.014,-511.929"/>
<polygon fill="black" stroke="black" points="229.531,-512.289 233.753,-522.006 236.512,-511.777 229.531,-512.289"/>
<text text-anchor="middle" x="230" y="-405.8" font-family="Times New Roman,serif" font-size="14.00">b</text>
</g>
<!-- 3&#45;&gt;2 -->
<g id="edge4" class="edge"><title>3&#45;&gt;2</title>
<path fill="none" stroke="black" d="M208.068,-296.238C198.528,-309.716 182.823,-328.989 169.478,-343.703"/>
<polygon fill="black" stroke="black" points="166.617,-341.64 162.362,-351.343 171.739,-346.412 166.617,-341.64"/>
</g>
<!-- 4&#45;&gt;2 -->
<g id="edge1" class="edge"><title>4&#45;&gt;2</title>
<path fill="none" stroke="black" d="M148.288,-296.758C150.156,-308.508 151.185,-324.47 151.063,-338.002"/>
<polygon fill="black" stroke="black" points="147.558,-338.093 150.713,-348.207 154.554,-338.333 147.558,-338.093"/>
</g>
<!-- 5&#45;&gt;1 -->
<g id="edge8" class="edge"><title>5&#45;&gt;1</title>
<path fill="none" stroke="black" d="M88.6132,-380.27C101.369,-392.876 118.51,-412.136 130.872,-427.526"/>
<polygon fill="black" stroke="black" points="128.275,-429.887 137.19,-435.611 133.79,-425.577 128.275,-429.887"/>
</g>
<!-- 6 -->
<g id="node7" class="node"><title>6</title>
<ellipse fill="none" stroke="black" cx="70" cy="-279" rx="27" ry="18"/>
<text text-anchor="middle" x="70" y="-275.3" font-family="Times New Roman,serif" font-size="14.00">e,i,p</text>
</g>
<!-- 5&#45;&gt;6 -->
<g id="edge9" class="edge"><title>5&#45;&gt;6</title>
<path fill="none" stroke="black" d="M66.1011,-348.207C64.5123,-336.448 63.8607,-320.485 64.3026,-306.958"/>
<polygon fill="black" stroke="black" points="67.8092,-306.944 64.8945,-296.758 60.8209,-306.539 67.8092,-306.944"/>
</g>
<!-- 6&#45;&gt;5 -->
<g id="edge10" class="edge"><title>6&#45;&gt;5</title>
<path fill="none" stroke="black" d="M75.8942,-296.758C77.4849,-308.508 78.1385,-324.47 77.6987,-338.002"/>
<polygon fill="black" stroke="black" points="74.1918,-338.021 77.1086,-348.207 81.1802,-338.425 74.1918,-338.021"/>
</g>
<!-- 12 -->
<g id="node13" class="node"><title>12</title>
<ellipse fill="none" stroke="black" cx="27" cy="-192" rx="27" ry="18"/>
<text text-anchor="middle" x="27" y="-188.3" font-family="Times New Roman,serif" font-size="14.00">e,p</text>
</g>
<!-- 6&#45;&gt;12 -->
<g id="edge11" class="edge"><title>6&#45;&gt;12</title>
<path fill="none" stroke="black" d="M56.9966,-262.804C49.4213,-250.776 40.4488,-233.689 34.0698,-219.432"/>
<polygon fill="black" stroke="black" points="37.2432,-217.95 30.1169,-210.11 30.7987,-220.683 37.2432,-217.95"/>
</g>
<!-- 14 -->
<g id="node15" class="node"><title>14</title>
<ellipse fill="none" stroke="black" cx="99" cy="-192" rx="27" ry="18"/>
<text text-anchor="middle" x="99" y="-188.3" font-family="Times New Roman,serif" font-size="14.00">e,i</text>
</g>
<!-- 6&#45;&gt;14 -->
<g id="edge14" class="edge"><title>6&#45;&gt;14</title>
<path fill="none" stroke="black" d="M70.3199,-260.799C73.1697,-248.542 78.6332,-231.871 84.2058,-218.127"/>
<polygon fill="black" stroke="black" points="87.5066,-219.311 88.2469,-208.742 81.0773,-216.543 87.5066,-219.311"/>
</g>
<!-- 7 -->
<g id="node8" class="node"><title>7</title>
<ellipse fill="none" stroke="black" cx="57" cy="-18" rx="27" ry="18"/>
<text text-anchor="middle" x="57" y="-14.3" font-family="Times New Roman,serif" font-size="14.00">e,i,p</text>
</g>
<!-- 13 -->
<g id="node14" class="node"><title>13</title>
<ellipse fill="none" stroke="black" cx="57" cy="-105" rx="27" ry="18"/>
<text text-anchor="middle" x="57" y="-101.3" font-family="Times New Roman,serif" font-size="14.00">m</text>
</g>
<!-- 7&#45;&gt;13 -->
<g id="edge20" class="edge"><title>7&#45;&gt;13</title>
<path fill="none" stroke="black" d="M57,-36.1754C57,-47.806 57,-63.4194 57,-76.7339"/>
<polygon fill="black" stroke="black" points="53.5001,-76.7989 57,-86.799 60.5001,-76.799 53.5001,-76.7989"/>
<text text-anchor="middle" x="59" y="-57.8" font-family="Times New Roman,serif" font-size="14.00">l</text>
</g>
<!-- 8 -->
<g id="node9" class="node"><title>8</title>
<ellipse fill="none" stroke="black" cx="314" cy="-366" rx="27" ry="18"/>
<text text-anchor="middle" x="314" y="-362.3" font-family="Times New Roman,serif" font-size="14.00">e,p</text>
</g>
<!-- 8&#45;&gt;9 -->
<g id="edge21" class="edge"><title>8&#45;&gt;9</title>
<path fill="none" stroke="black" d="M313.192,-384.175C312.644,-395.806 311.91,-411.419 311.283,-424.734"/>
<polygon fill="black" stroke="black" points="307.783,-424.645 310.809,-434.799 314.776,-424.975 307.783,-424.645"/>
<text text-anchor="middle" x="316.5" y="-405.8" font-family="Times New Roman,serif" font-size="14.00">k</text>
</g>
<!-- 10 -->
<g id="node11" class="node"><title>10</title>
<ellipse fill="none" stroke="black" cx="303" cy="-279" rx="27" ry="18"/>
<text text-anchor="middle" x="303" y="-275.3" font-family="Times New Roman,serif" font-size="14.00">b</text>
</g>
<!-- 8&#45;&gt;10 -->
<g id="edge29" class="edge"><title>8&#45;&gt;10</title>
<path fill="none" stroke="black" d="M300.267,-350.116C295.765,-344.283 291.324,-337.253 289,-330 286.485,-322.153 287.551,-313.536 289.962,-305.698"/>
<polygon fill="black" stroke="black" points="293.251,-306.894 293.565,-296.304 286.716,-304.387 293.251,-306.894"/>
<text text-anchor="middle" x="293" y="-318.8" font-family="Times New Roman,serif" font-size="14.00">b</text>
</g>
<!-- 9&#45;&gt;0 -->
<g id="edge31" class="edge"><title>9&#45;&gt;0</title>
<path fill="none" stroke="black" d="M306.013,-471.142C302.948,-481.503 297.877,-494.5 290,-504 283.405,-511.954 274.52,-518.685 265.816,-524.055"/>
<polygon fill="black" stroke="black" points="263.854,-521.146 256.915,-529.153 267.332,-527.22 263.854,-521.146"/>
<text text-anchor="middle" x="302" y="-492.8" font-family="Times New Roman,serif" font-size="14.00">l</text>
</g>
<!-- 9&#45;&gt;8 -->
<g id="edge22" class="edge"><title>9&#45;&gt;8</title>
<path fill="none" stroke="black" d="M304.002,-435.334C301.253,-425.612 299.003,-413.112 301,-402 301.527,-399.069 302.283,-396.063 303.169,-393.104"/>
<polygon fill="black" stroke="black" points="306.567,-393.99 306.541,-383.395 299.954,-391.693 306.567,-393.99"/>
<text text-anchor="middle" x="304.5" y="-405.8" font-family="Times New Roman,serif" font-size="14.00">k</text>
</g>
<!-- 10&#45;&gt;8 -->
<g id="edge30" class="edge"><title>10&#45;&gt;8</title>
<path fill="none" stroke="black" d="M305.223,-297.175C306.728,-308.806 308.748,-324.419 310.471,-337.734"/>
<polygon fill="black" stroke="black" points="307.019,-338.331 311.774,-347.799 313.962,-337.432 307.019,-338.331"/>
<text text-anchor="middle" x="314" y="-318.8" font-family="Times New Roman,serif" font-size="14.00">b</text>
</g>
<!-- 11 -->
<g id="node12" class="node"><title>11</title>
<ellipse fill="none" stroke="black" cx="302" cy="-192" rx="27" ry="18"/>
<text text-anchor="middle" x="302" y="-188.3" font-family="Times New Roman,serif" font-size="14.00">t</text>
</g>
<!-- 10&#45;&gt;11 -->
<g id="edge15" class="edge"><title>10&#45;&gt;11</title>
<path fill="none" stroke="black" d="M301.242,-260.929C300.735,-255.234 300.25,-248.849 300,-243 299.686,-235.652 299.798,-227.696 300.089,-220.338"/>
<polygon fill="black" stroke="black" points="303.596,-220.292 300.615,-210.125 296.605,-219.932 303.596,-220.292"/>
</g>
<!-- 11&#45;&gt;10 -->
<g id="edge16" class="edge"><title>11&#45;&gt;10</title>
<path fill="none" stroke="black" d="M302.202,-210.175C302.339,-221.806 302.523,-237.419 302.679,-250.734"/>
<polygon fill="black" stroke="black" points="299.18,-250.841 302.798,-260.799 306.18,-250.758 299.18,-250.841"/>
<text text-anchor="middle" x="305" y="-231.8" font-family="Times New Roman,serif" font-size="14.00">l</text>
</g>
<!-- 12&#45;&gt;6 -->
<g id="edge12" class="edge"><title>12&#45;&gt;6</title>
<path fill="none" stroke="black" d="M39.8184,-207.903C47.4058,-219.903 56.4363,-237.075 62.8632,-251.419"/>
<polygon fill="black" stroke="black" points="59.7164,-252.963 66.847,-260.799 66.1594,-250.226 59.7164,-252.963"/>
</g>
<!-- 13&#45;&gt;7 -->
<g id="edge19" class="edge"><title>13&#45;&gt;7</title>
<path fill="none" stroke="black" d="M52.5761,-86.9165C50.5905,-77.2746 48.9117,-64.9904 50,-54 50.2565,-51.41 50.6172,-48.7278 51.0411,-46.0534"/>
<polygon fill="black" stroke="black" points="54.5255,-46.4581 52.9018,-35.9884 47.6421,-45.1855 54.5255,-46.4581"/>
<text text-anchor="middle" x="52" y="-57.8" font-family="Times New Roman,serif" font-size="14.00">l</text>
</g>
<!-- 13&#45;&gt;14 -->
<g id="edge24" class="edge"><title>13&#45;&gt;14</title>
<path fill="none" stroke="black" d="M65.0732,-122.339C71.1095,-134.555 79.4781,-151.491 86.3933,-165.486"/>
<polygon fill="black" stroke="black" points="83.3342,-167.196 90.902,-174.611 89.6099,-164.095 83.3342,-167.196"/>
<text text-anchor="middle" x="84.5" y="-144.8" font-family="Times New Roman,serif" font-size="14.00">k</text>
</g>
<!-- 14&#45;&gt;6 -->
<g id="edge13" class="edge"><title>14&#45;&gt;6</title>
<path fill="none" stroke="black" d="M98.6696,-210.246C95.8065,-222.544 90.3199,-239.268 84.7329,-253.024"/>
<polygon fill="black" stroke="black" points="81.4314,-251.841 80.6831,-262.41 87.8586,-254.615 81.4314,-251.841"/>
</g>
<!-- 14&#45;&gt;13 -->
<g id="edge23" class="edge"><title>14&#45;&gt;13</title>
<path fill="none" stroke="black" d="M78.8047,-179.685C70.4203,-173.811 61.5896,-165.799 57,-156 53.7093,-148.974 52.7163,-140.76 52.8177,-133.043"/>
<polygon fill="black" stroke="black" points="56.3147,-133.207 53.5214,-122.987 49.3318,-132.719 56.3147,-133.207"/>
<text text-anchor="middle" x="60.5" y="-144.8" font-family="Times New Roman,serif" font-size="14.00">k</text>
</g>
<!-- 15 -->
<g id="node16" class="node"><title>15</title>
<ellipse fill="none" stroke="black" cx="131" cy="-105" rx="27" ry="18"/>
<text text-anchor="middle" x="131" y="-101.3" font-family="Times New Roman,serif" font-size="14.00">e</text>
</g>
<!-- 14&#45;&gt;15 -->
<g id="edge18" class="edge"><title>14&#45;&gt;15</title>
<path fill="none" stroke="black" d="M105.322,-174.207C109.836,-162.216 115.997,-145.851 121.153,-132.157"/>
<polygon fill="black" stroke="black" points="124.443,-133.35 124.691,-122.758 117.892,-130.884 124.443,-133.35"/>
<text text-anchor="middle" x="119" y="-144.8" font-family="Times New Roman,serif" font-size="14.00">l</text>
</g>
<!-- 15&#45;&gt;14 -->
<g id="edge17" class="edge"><title>15&#45;&gt;14</title>
<path fill="none" stroke="black" d="M128.158,-123.033C126.21,-132.877 123.21,-145.377 119,-156 117.67,-159.355 116.065,-162.778 114.349,-166.106"/>
<polygon fill="black" stroke="black" points="111.151,-164.656 109.356,-175.097 117.271,-168.054 111.151,-164.656"/>
</g>
</g>
</svg>
