<?xml version="1.0" encoding="UTF-8" standalone="no"?>
<!DOCTYPE svg PUBLIC "-//W3C//DTD SVG 1.1//EN"
 "http://www.w3.org/Graphics/SVG/1.1/DTD/svg11.dtd">
<!-- Generated by graphviz version 2.38.0 (20140413.2041)
 -->
<!-- Title: %3 Pages: 1 -->
<svg width="597pt" height="1846pt"
 viewBox="0.00 0.00 597.00 1846.00" xmlns="http://www.w3.org/2000/svg" xmlns:xlink="http://www.w3.org/1999/xlink">
<g id="graph0" class="graph" transform="scale(1 1) rotate(0) translate(4 1842)">
<title>%3</title>
<polygon fill="white" stroke="none" points="-4,4 -4,-1842 593,-1842 593,4 -4,4"/>
<!-- 0 -->
<g id="node1" class="node"><title>0</title>
<ellipse fill="none" stroke="black" cx="447" cy="-1820" rx="27" ry="18"/>
</g>
<!-- 1 -->
<g id="node2" class="node"><title>1</title>
<ellipse fill="none" stroke="black" cx="410" cy="-1747" rx="27" ry="18"/>
<text text-anchor="middle" x="410" y="-1743.3" font-family="Times New Roman,serif" font-size="14.00">e</text>
</g>
<!-- 0&#45;&gt;1 -->
<g id="edge48" class="edge"><title>0&#45;&gt;1</title>
<path fill="none" stroke="black" d="M433.741,-1804.29C428.118,-1795.61 421.944,-1784.37 417.122,-1774.22"/>
<polygon fill="black" stroke="black" points="420.25,-1772.64 412.975,-1764.94 413.859,-1775.5 420.25,-1772.64"/>
</g>
<!-- 17 -->
<g id="node18" class="node"><title>17</title>
<ellipse fill="none" stroke="black" cx="404" cy="-686" rx="27" ry="18"/>
</g>
<!-- 0&#45;&gt;17 -->
<g id="edge64" class="edge"><title>0&#45;&gt;17</title>
<path fill="none" stroke="black" d="M440.806,-1802.3C440.993,-1796.52 441.659,-1789.98 442,-1784 443.396,-1759.49 439.971,-1753.36 437,-1729 435.204,-1714.28 434.474,-1710.63 432,-1696 425.139,-1655.43 420.767,-1645.74 415,-1605 402.077,-1513.7 395,-1490.71 395,-1398.5 395,-1398.5 395,-1398.5 395,-772 395,-752.51 395,-730.507 396.236,-713.771"/>
<polygon fill="black" stroke="black" points="399.739,-713.909 397.239,-703.613 392.773,-713.221 399.739,-713.909"/>
</g>
<!-- 1&#45;&gt;0 -->
<g id="edge47" class="edge"><title>1&#45;&gt;0</title>
<path fill="none" stroke="black" d="M423.511,-1763.1C429.047,-1771.7 435.087,-1782.71 439.83,-1792.68"/>
<polygon fill="black" stroke="black" points="436.638,-1794.12 443.922,-1801.81 443.026,-1791.26 436.638,-1794.12"/>
</g>
<!-- 3 -->
<g id="node4" class="node"><title>3</title>
<ellipse fill="none" stroke="black" cx="457" cy="-599" rx="27" ry="18"/>
<text text-anchor="middle" x="457" y="-595.3" font-family="Times New Roman,serif" font-size="14.00">e,p</text>
</g>
<!-- 1&#45;&gt;3 -->
<g id="edge30" class="edge"><title>1&#45;&gt;3</title>
<path fill="none" stroke="black" d="M412.629,-1728.84C417.523,-1719.17 425.14,-1706.89 432,-1696 493.256,-1598.78 571,-1592.91 571,-1478 571,-1478 571,-1478 571,-685 571,-644.247 524.737,-621.51 491.032,-610.02"/>
<polygon fill="black" stroke="black" points="492.066,-606.676 481.474,-606.939 489.918,-613.338 492.066,-606.676"/>
</g>
<!-- 6 -->
<g id="node7" class="node"><title>6</title>
<ellipse fill="none" stroke="black" cx="354" cy="-1660" rx="27" ry="18"/>
<text text-anchor="middle" x="354" y="-1656.3" font-family="Times New Roman,serif" font-size="14.00">e,p,i</text>
</g>
<!-- 1&#45;&gt;6 -->
<g id="edge42" class="edge"><title>1&#45;&gt;6</title>
<path fill="none" stroke="black" d="M390.461,-1734.16C382.106,-1728.18 372.931,-1720.23 367,-1711 362.618,-1704.18 359.71,-1695.94 357.781,-1688.14"/>
<polygon fill="black" stroke="black" points="361.199,-1687.38 355.768,-1678.28 354.341,-1688.78 361.199,-1687.38"/>
<text text-anchor="middle" x="371" y="-1699.8" font-family="Times New Roman,serif" font-size="14.00">b</text>
</g>
<!-- 2 -->
<g id="node3" class="node"><title>2</title>
<ellipse fill="none" stroke="black" cx="245" cy="-1180" rx="27" ry="18"/>
<text text-anchor="middle" x="245" y="-1176.3" font-family="Times New Roman,serif" font-size="14.00">e,i</text>
</g>
<!-- 8 -->
<g id="node9" class="node"><title>8</title>
<ellipse fill="none" stroke="black" cx="227" cy="-1267" rx="27" ry="18"/>
<text text-anchor="middle" x="227" y="-1263.3" font-family="Times New Roman,serif" font-size="14.00">e,k</text>
</g>
<!-- 2&#45;&gt;8 -->
<g id="edge72" class="edge"><title>2&#45;&gt;8</title>
<path fill="none" stroke="black" d="M241.424,-1197.89C238.959,-1209.53 235.629,-1225.25 232.789,-1238.66"/>
<polygon fill="black" stroke="black" points="229.29,-1238.29 230.643,-1248.8 236.138,-1239.74 229.29,-1238.29"/>
<text text-anchor="middle" x="241.5" y="-1219.8" font-family="Times New Roman,serif" font-size="14.00">k</text>
</g>
<!-- 31 -->
<g id="node32" class="node"><title>31</title>
<ellipse fill="none" stroke="black" cx="245" cy="-1107" rx="27" ry="18"/>
</g>
<!-- 2&#45;&gt;31 -->
<g id="edge15" class="edge"><title>2&#45;&gt;31</title>
<path fill="none" stroke="black" d="M239.16,-1162.17C238.285,-1154.04 238.041,-1144.08 238.428,-1134.92"/>
<polygon fill="black" stroke="black" points="241.937,-1134.93 239.173,-1124.71 234.955,-1134.42 241.937,-1134.93"/>
</g>
<!-- 3&#45;&gt;1 -->
<g id="edge29" class="edge"><title>3&#45;&gt;1</title>
<path fill="none" stroke="black" d="M482.937,-604.27C521.603,-612.87 589,-635.811 589,-685 589,-1478 589,-1478 589,-1478 589,-1592.91 511.256,-1598.78 450,-1696 444.201,-1705.2 437.862,-1715.4 431.788,-1724.18"/>
<polygon fill="black" stroke="black" points="428.872,-1722.24 425.832,-1732.39 434.537,-1726.35 428.872,-1722.24"/>
</g>
<!-- 3&#45;&gt;17 -->
<g id="edge78" class="edge"><title>3&#45;&gt;17</title>
<path fill="none" stroke="black" d="M447.076,-615.916C439.315,-628.363 428.385,-645.892 419.477,-660.178"/>
<polygon fill="black" stroke="black" points="416.29,-658.675 413.969,-669.012 422.23,-662.378 416.29,-658.675"/>
<text text-anchor="middle" x="438" y="-638.8" font-family="Times New Roman,serif" font-size="14.00">b</text>
</g>
<!-- 20 -->
<g id="node21" class="node"><title>20</title>
<ellipse fill="none" stroke="black" cx="524" cy="-512" rx="27" ry="18"/>
<text text-anchor="middle" x="524" y="-508.3" font-family="Times New Roman,serif" font-size="14.00">p</text>
</g>
<!-- 3&#45;&gt;20 -->
<g id="edge28" class="edge"><title>3&#45;&gt;20</title>
<path fill="none" stroke="black" d="M464.46,-581.611C473.509,-568.179 488.411,-549.065 501.165,-534.421"/>
<polygon fill="black" stroke="black" points="503.916,-536.595 507.978,-526.81 498.701,-531.927 503.916,-536.595"/>
</g>
<!-- 24 -->
<g id="node25" class="node"><title>24</title>
<ellipse fill="none" stroke="black" cx="450" cy="-512" rx="28.6953" ry="18"/>
<text text-anchor="middle" x="450" y="-508.3" font-family="Times New Roman,serif" font-size="14.00">e,k,p</text>
</g>
<!-- 3&#45;&gt;24 -->
<g id="edge82" class="edge"><title>3&#45;&gt;24</title>
<path fill="none" stroke="black" d="M455.583,-580.799C454.625,-569.163 453.339,-553.548 452.243,-540.237"/>
<polygon fill="black" stroke="black" points="455.723,-539.854 451.414,-530.175 448.747,-540.429 455.723,-539.854"/>
<text text-anchor="middle" x="456.5" y="-551.8" font-family="Times New Roman,serif" font-size="14.00">I</text>
</g>
<!-- 4 -->
<g id="node5" class="node"><title>4</title>
<ellipse fill="none" stroke="black" cx="460" cy="-1514" rx="27" ry="18"/>
<text text-anchor="middle" x="460" y="-1510.3" font-family="Times New Roman,serif" font-size="14.00">p</text>
</g>
<!-- 9 -->
<g id="node10" class="node"><title>9</title>
<ellipse fill="none" stroke="black" cx="340" cy="-1441" rx="27" ry="18"/>
<text text-anchor="middle" x="340" y="-1437.3" font-family="Times New Roman,serif" font-size="14.00">e,k</text>
</g>
<!-- 4&#45;&gt;9 -->
<g id="edge36" class="edge"><title>4&#45;&gt;9</title>
<path fill="none" stroke="black" d="M438.47,-1503.13C417.935,-1492.19 387.316,-1474.31 365.584,-1460.7"/>
<polygon fill="black" stroke="black" points="367.187,-1457.58 356.87,-1455.17 363.434,-1463.48 367.187,-1457.58"/>
</g>
<!-- 21 -->
<g id="node22" class="node"><title>21</title>
<ellipse fill="none" stroke="black" cx="460" cy="-1587" rx="27" ry="18"/>
<text text-anchor="middle" x="460" y="-1583.3" font-family="Times New Roman,serif" font-size="14.00">p</text>
</g>
<!-- 4&#45;&gt;21 -->
<g id="edge19" class="edge"><title>4&#45;&gt;21</title>
<path fill="none" stroke="black" d="M465.827,-1531.71C466.708,-1539.82 466.959,-1549.78 466.577,-1558.94"/>
<polygon fill="black" stroke="black" points="463.068,-1558.95 465.84,-1569.17 470.05,-1559.45 463.068,-1558.95"/>
</g>
<!-- 22 -->
<g id="node23" class="node"><title>22</title>
<ellipse fill="none" stroke="black" cx="385" cy="-439" rx="27" ry="18"/>
<text text-anchor="middle" x="385" y="-435.3" font-family="Times New Roman,serif" font-size="14.00">p</text>
</g>
<!-- 4&#45;&gt;22 -->
<g id="edge21" class="edge"><title>4&#45;&gt;22</title>
<path fill="none" stroke="black" d="M455.763,-1495.96C455.304,-1473.61 459,-1433.17 459,-1398.5 459,-1398.5 459,-1398.5 459,-728.5 459,-685.597 458.476,-670.91 435,-635 427.897,-624.135 418.826,-628.041 412,-617 382.935,-569.985 376.828,-503.8 378.781,-467.133"/>
<polygon fill="black" stroke="black" points="382.302,-467.007 379.629,-456.755 375.326,-466.437 382.302,-467.007"/>
</g>
<!-- 5 -->
<g id="node6" class="node"><title>5</title>
<ellipse fill="none" stroke="black" cx="340" cy="-192" rx="27" ry="18"/>
<text text-anchor="middle" x="340" y="-188.3" font-family="Times New Roman,serif" font-size="14.00">e,I</text>
</g>
<!-- 34 -->
<g id="node35" class="node"><title>34</title>
<ellipse fill="none" stroke="black" cx="342" cy="-105" rx="27" ry="18"/>
<text text-anchor="middle" x="342" y="-101.3" font-family="Times New Roman,serif" font-size="14.00">m</text>
</g>
<!-- 5&#45;&gt;34 -->
<g id="edge52" class="edge"><title>5&#45;&gt;34</title>
<path fill="none" stroke="black" d="M338.495,-173.869C337.852,-164.212 337.378,-151.929 338,-141 338.146,-138.435 338.352,-135.77 338.594,-133.107"/>
<polygon fill="black" stroke="black" points="342.086,-133.369 339.657,-123.056 335.124,-132.633 342.086,-133.369"/>
<text text-anchor="middle" x="340" y="-144.8" font-family="Times New Roman,serif" font-size="14.00">l</text>
</g>
<!-- 6&#45;&gt;1 -->
<g id="edge41" class="edge"><title>6&#45;&gt;1</title>
<path fill="none" stroke="black" d="M364.486,-1676.92C372.764,-1689.48 384.455,-1707.23 393.915,-1721.59"/>
<polygon fill="black" stroke="black" points="391.042,-1723.59 399.467,-1730.01 396.888,-1719.74 391.042,-1723.59"/>
<text text-anchor="middle" x="390" y="-1699.8" font-family="Times New Roman,serif" font-size="14.00">b</text>
</g>
<!-- 7 -->
<g id="node8" class="node"><title>7</title>
<ellipse fill="none" stroke="black" cx="255" cy="-1354" rx="27" ry="18"/>
<text text-anchor="middle" x="255" y="-1350.3" font-family="Times New Roman,serif" font-size="14.00">e,p</text>
</g>
<!-- 6&#45;&gt;7 -->
<g id="edge37" class="edge"><title>6&#45;&gt;7</title>
<path fill="none" stroke="black" d="M328.2,-1654.28C296.038,-1646.14 246,-1626.49 246,-1588 246,-1588 246,-1588 246,-1440 246,-1420.51 246,-1398.51 247.236,-1381.77"/>
<polygon fill="black" stroke="black" points="250.739,-1381.91 248.239,-1371.61 243.773,-1381.22 250.739,-1381.91"/>
</g>
<!-- 6&#45;&gt;21 -->
<g id="edge31" class="edge"><title>6&#45;&gt;21</title>
<path fill="none" stroke="black" d="M364.053,-1643.27C371.316,-1636.71 380.903,-1629.19 390,-1623 401.741,-1615 415.41,-1607.05 427.673,-1600.75"/>
<polygon fill="black" stroke="black" points="429.306,-1603.84 436.722,-1596.28 426.206,-1597.57 429.306,-1603.84"/>
</g>
<!-- 7&#45;&gt;6 -->
<g id="edge38" class="edge"><title>7&#45;&gt;6</title>
<path fill="none" stroke="black" d="M261.761,-1371.61C264,-1388.75 264,-1416.24 264,-1440 264,-1588 264,-1588 264,-1588 264,-1618.2 294.788,-1636.79 320.464,-1647.34"/>
<polygon fill="black" stroke="black" points="319.39,-1650.67 329.98,-1650.99 321.899,-1644.14 319.39,-1650.67"/>
</g>
<!-- 7&#45;&gt;8 -->
<g id="edge59" class="edge"><title>7&#45;&gt;8</title>
<path fill="none" stroke="black" d="M250.266,-1336.25C247.438,-1326.5 243.688,-1314 240,-1303 239.053,-1300.18 238.028,-1297.24 236.982,-1294.32"/>
<polygon fill="black" stroke="black" points="240.167,-1292.84 233.435,-1284.66 233.595,-1295.25 240.167,-1292.84"/>
</g>
<!-- 7&#45;&gt;9 -->
<g id="edge34" class="edge"><title>7&#45;&gt;9</title>
<path fill="none" stroke="black" d="M272.865,-1367.86C287.521,-1380.66 307.829,-1400.59 322.392,-1416.26"/>
<polygon fill="black" stroke="black" points="320.111,-1418.96 329.424,-1424.01 325.295,-1414.25 320.111,-1418.96"/>
</g>
<!-- 8&#45;&gt;2 -->
<g id="edge71" class="edge"><title>8&#45;&gt;2</title>
<path fill="none" stroke="black" d="M220.485,-1249.47C217.53,-1239.57 215.411,-1226.85 219,-1216 220.391,-1211.8 222.503,-1207.69 224.936,-1203.85"/>
<polygon fill="black" stroke="black" points="227.977,-1205.61 231.001,-1195.46 222.305,-1201.51 227.977,-1205.61"/>
<text text-anchor="middle" x="222.5" y="-1219.8" font-family="Times New Roman,serif" font-size="14.00">k</text>
</g>
<!-- 8&#45;&gt;7 -->
<g id="edge60" class="edge"><title>8&#45;&gt;7</title>
<path fill="none" stroke="black" d="M229.7,-1284.94C231.517,-1294.75 234.267,-1307.25 238,-1318 239.108,-1321.19 240.432,-1324.47 241.845,-1327.68"/>
<polygon fill="black" stroke="black" points="238.791,-1329.41 246.225,-1336.96 245.12,-1326.42 238.791,-1329.41"/>
<text text-anchor="middle" x="240" y="-1306.8" font-family="Times New Roman,serif" font-size="14.00">l</text>
</g>
<!-- 19 -->
<g id="node20" class="node"><title>19</title>
<ellipse fill="none" stroke="black" cx="157" cy="-846" rx="27" ry="18"/>
<text text-anchor="middle" x="157" y="-842.3" font-family="Times New Roman,serif" font-size="14.00">e</text>
</g>
<!-- 8&#45;&gt;19 -->
<g id="edge67" class="edge"><title>8&#45;&gt;19</title>
<path fill="none" stroke="black" d="M207.872,-1254.16C187.146,-1239.69 157,-1213.12 157,-1181 157,-1181 157,-1181 157,-932 157,-912.753 157,-891.054 157,-874.397"/>
<polygon fill="black" stroke="black" points="160.5,-874.256 157,-864.256 153.5,-874.256 160.5,-874.256"/>
<text text-anchor="middle" x="159" y="-1059.8" font-family="Times New Roman,serif" font-size="14.00">l</text>
</g>
<!-- 9&#45;&gt;4 -->
<g id="edge35" class="edge"><title>9&#45;&gt;4</title>
<path fill="none" stroke="black" d="M361.61,-1451.91C382.138,-1462.85 412.692,-1480.7 434.394,-1494.28"/>
<polygon fill="black" stroke="black" points="432.78,-1497.4 443.098,-1499.81 436.534,-1491.5 432.78,-1497.4"/>
</g>
<!-- 9&#45;&gt;7 -->
<g id="edge33" class="edge"><title>9&#45;&gt;7</title>
<path fill="none" stroke="black" d="M322.081,-1427.09C307.41,-1414.28 287.101,-1394.34 272.552,-1378.68"/>
<polygon fill="black" stroke="black" points="274.841,-1375.99 265.53,-1370.93 269.657,-1380.69 274.841,-1375.99"/>
</g>
<!-- 30 -->
<g id="node31" class="node"><title>30</title>
<ellipse fill="none" stroke="black" cx="340" cy="-1354" rx="27" ry="18"/>
<text text-anchor="middle" x="340" y="-1350.3" font-family="Times New Roman,serif" font-size="14.00">i</text>
</g>
<!-- 9&#45;&gt;30 -->
<g id="edge39" class="edge"><title>9&#45;&gt;30</title>
<path fill="none" stroke="black" d="M345.685,-1422.94C348.236,-1413.31 350.395,-1401.03 349,-1390 348.657,-1387.29 348.171,-1384.49 347.601,-1381.71"/>
<polygon fill="black" stroke="black" points="350.99,-1380.84 345.266,-1371.92 344.181,-1382.46 350.99,-1380.84"/>
<text text-anchor="middle" x="354" y="-1393.8" font-family="Times New Roman,serif" font-size="14.00">b</text>
</g>
<!-- 10 -->
<g id="node11" class="node"><title>10</title>
<ellipse fill="none" stroke="black" cx="212" cy="-933" rx="27" ry="18"/>
<text text-anchor="middle" x="212" y="-929.3" font-family="Times New Roman,serif" font-size="14.00">m</text>
</g>
<!-- 10&#45;&gt;19 -->
<g id="edge66" class="edge"><title>10&#45;&gt;19</title>
<path fill="none" stroke="black" d="M209.75,-914.762C207.822,-904.614 204.31,-891.875 198,-882 194.208,-876.066 189.103,-870.596 183.784,-865.83"/>
<polygon fill="black" stroke="black" points="185.907,-863.045 175.966,-859.38 181.452,-868.444 185.907,-863.045"/>
<text text-anchor="middle" x="208.5" y="-885.8" font-family="Times New Roman,serif" font-size="14.00">k</text>
</g>
<!-- 26 -->
<g id="node27" class="node"><title>26</title>
<ellipse fill="none" stroke="black" cx="230" cy="-1020" rx="27" ry="18"/>
<text text-anchor="middle" x="230" y="-1016.3" font-family="Times New Roman,serif" font-size="14.00">e,I</text>
</g>
<!-- 10&#45;&gt;26 -->
<g id="edge57" class="edge"><title>10&#45;&gt;26</title>
<path fill="none" stroke="black" d="M215.576,-950.885C218.041,-962.525 221.371,-978.253 224.211,-991.664"/>
<polygon fill="black" stroke="black" points="220.862,-992.741 226.357,-1001.8 227.71,-991.291 220.862,-992.741"/>
</g>
<!-- 11 -->
<g id="node12" class="node"><title>11</title>
<ellipse fill="none" stroke="black" cx="64" cy="-512" rx="27" ry="18"/>
<text text-anchor="middle" x="64" y="-508.3" font-family="Times New Roman,serif" font-size="14.00">e</text>
</g>
<!-- 13 -->
<g id="node14" class="node"><title>13</title>
<ellipse fill="none" stroke="black" cx="127" cy="-599" rx="27" ry="18"/>
</g>
<!-- 11&#45;&gt;13 -->
<g id="edge4" class="edge"><title>11&#45;&gt;13</title>
<path fill="none" stroke="black" d="M79.4914,-526.947C90.2728,-539.254 104.165,-557.505 114.296,-572.428"/>
<polygon fill="black" stroke="black" points="111.644,-574.766 120.057,-581.207 117.497,-570.926 111.644,-574.766"/>
</g>
<!-- 27 -->
<g id="node28" class="node"><title>27</title>
<ellipse fill="none" stroke="black" cx="27" cy="-439" rx="27" ry="18"/>
<text text-anchor="middle" x="27" y="-435.3" font-family="Times New Roman,serif" font-size="14.00">e</text>
</g>
<!-- 11&#45;&gt;27 -->
<g id="edge5" class="edge"><title>11&#45;&gt;27</title>
<path fill="none" stroke="black" d="M50.7408,-496.289C45.1176,-487.609 38.944,-476.368 34.1218,-466.217"/>
<polygon fill="black" stroke="black" points="37.2502,-464.639 29.9746,-456.937 30.8594,-467.495 37.2502,-464.639"/>
</g>
<!-- 12 -->
<g id="node13" class="node"><title>12</title>
<ellipse fill="none" stroke="black" cx="136" cy="-512" rx="27" ry="18"/>
<text text-anchor="middle" x="136" y="-508.3" font-family="Times New Roman,serif" font-size="14.00">s</text>
</g>
<!-- 12&#45;&gt;13 -->
<g id="edge1" class="edge"><title>12&#45;&gt;13</title>
<path fill="none" stroke="black" d="M139.726,-529.92C139.783,-541.773 138.345,-557.853 136.126,-571.409"/>
<polygon fill="black" stroke="black" points="132.616,-571.134 134.193,-581.611 139.494,-572.438 132.616,-571.134"/>
</g>
<!-- 13&#45;&gt;11 -->
<g id="edge3" class="edge"><title>13&#45;&gt;11</title>
<path fill="none" stroke="black" d="M111.431,-583.964C100.631,-571.625 86.7358,-553.361 76.6222,-538.452"/>
<polygon fill="black" stroke="black" points="79.285,-536.13 70.8752,-529.686 73.4308,-539.968 79.285,-536.13"/>
</g>
<!-- 13&#45;&gt;12 -->
<g id="edge2" class="edge"><title>13&#45;&gt;12</title>
<path fill="none" stroke="black" d="M123.273,-580.799C123.24,-569.009 124.664,-553.136 126.854,-539.713"/>
<polygon fill="black" stroke="black" points="130.348,-540.072 128.761,-529.597 123.469,-538.775 130.348,-540.072"/>
</g>
<!-- 13&#45;&gt;13 -->
<g id="edge80" class="edge"><title>13&#45;&gt;13</title>
<path fill="none" stroke="black" d="M153.795,-602.929C163.78,-603.058 172,-601.748 172,-599 172,-597.282 168.789,-596.127 163.943,-595.533"/>
<polygon fill="black" stroke="black" points="163.944,-592.03 153.795,-595.071 163.625,-599.022 163.944,-592.03"/>
</g>
<!-- 13&#45;&gt;13 -->
<g id="edge81" class="edge"><title>13&#45;&gt;13</title>
<path fill="none" stroke="black" d="M152.229,-605.944C171.041,-608.37 190,-606.055 190,-599 190,-593.213 177.242,-590.615 162.273,-591.207"/>
<polygon fill="black" stroke="black" points="161.899,-587.726 152.229,-592.056 162.488,-594.702 161.899,-587.726"/>
</g>
<!-- 14 -->
<g id="node15" class="node"><title>14</title>
<ellipse fill="none" stroke="black" cx="208" cy="-512" rx="27" ry="18"/>
<text text-anchor="middle" x="208" y="-508.3" font-family="Times New Roman,serif" font-size="14.00">e,k</text>
</g>
<!-- 13&#45;&gt;14 -->
<g id="edge9" class="edge"><title>13&#45;&gt;14</title>
<path fill="none" stroke="black" d="M136.824,-582.012C148.492,-568.043 167.736,-547.712 183.392,-532.734"/>
<polygon fill="black" stroke="black" points="185.827,-535.249 190.741,-525.862 181.046,-530.136 185.827,-535.249"/>
</g>
<!-- 16 -->
<g id="node17" class="node"><title>16</title>
<ellipse fill="none" stroke="black" cx="126" cy="-686" rx="27" ry="18"/>
<text text-anchor="middle" x="126" y="-682.3" font-family="Times New Roman,serif" font-size="14.00">m,p</text>
</g>
<!-- 13&#45;&gt;16 -->
<g id="edge7" class="edge"><title>13&#45;&gt;16</title>
<path fill="none" stroke="black" d="M132.303,-616.758C133.479,-628.508 133.569,-644.47 132.652,-658.002"/>
<polygon fill="black" stroke="black" points="129.144,-657.925 131.701,-668.207 136.114,-658.574 129.144,-657.925"/>
</g>
<!-- 14&#45;&gt;13 -->
<g id="edge10" class="edge"><title>14&#45;&gt;13</title>
<path fill="none" stroke="black" d="M198.22,-528.935C186.571,-542.888 167.331,-563.219 151.666,-578.211"/>
<polygon fill="black" stroke="black" points="149.223,-575.703 144.312,-585.09 154.005,-580.815 149.223,-575.703"/>
</g>
<!-- 15 -->
<g id="node16" class="node"><title>15</title>
<ellipse fill="none" stroke="black" cx="157" cy="-773" rx="27" ry="18"/>
<text text-anchor="middle" x="157" y="-769.3" font-family="Times New Roman,serif" font-size="14.00">e,i</text>
</g>
<!-- 15&#45;&gt;16 -->
<g id="edge56" class="edge"><title>15&#45;&gt;16</title>
<path fill="none" stroke="black" d="M150.875,-755.207C146.502,-743.216 140.534,-726.851 135.54,-713.157"/>
<polygon fill="black" stroke="black" points="138.826,-711.954 132.112,-703.758 132.25,-714.352 138.826,-711.954"/>
<text text-anchor="middle" x="146" y="-725.8" font-family="Times New Roman,serif" font-size="14.00">l</text>
</g>
<!-- 15&#45;&gt;19 -->
<g id="edge13" class="edge"><title>15&#45;&gt;19</title>
<path fill="none" stroke="black" d="M162.827,-790.705C163.708,-798.822 163.959,-808.78 163.577,-817.942"/>
<polygon fill="black" stroke="black" points="160.068,-817.948 162.84,-828.174 167.05,-818.452 160.068,-817.948"/>
</g>
<!-- 16&#45;&gt;13 -->
<g id="edge8" class="edge"><title>16&#45;&gt;13</title>
<path fill="none" stroke="black" d="M120.694,-668.207C119.52,-656.448 119.432,-640.485 120.351,-626.958"/>
<polygon fill="black" stroke="black" points="123.859,-627.04 121.303,-616.758 116.889,-626.39 123.859,-627.04"/>
</g>
<!-- 16&#45;&gt;15 -->
<g id="edge55" class="edge"><title>16&#45;&gt;15</title>
<path fill="none" stroke="black" d="M129.931,-703.909C132.407,-713.712 135.907,-726.212 140,-737 141.198,-740.158 142.577,-743.418 144.019,-746.619"/>
<polygon fill="black" stroke="black" points="140.97,-748.357 148.425,-755.886 147.292,-745.351 140.97,-748.357"/>
</g>
<!-- 16&#45;&gt;27 -->
<g id="edge11" class="edge"><title>16&#45;&gt;27</title>
<path fill="none" stroke="black" d="M108.734,-671.772C82.7902,-646.497 36.3304,-588.619 19,-530 12.8154,-509.081 13.0786,-484.214 16.056,-465.925"/>
<polygon fill="black" stroke="black" points="19.5116,-466.496 18.0944,-455.996 12.6546,-465.088 19.5116,-466.496"/>
</g>
<!-- 17&#45;&gt;0 -->
<g id="edge63" class="edge"><title>17&#45;&gt;0</title>
<path fill="none" stroke="black" d="M410.761,-703.613C413,-720.747 413,-748.241 413,-772 413,-1398.5 413,-1398.5 413,-1398.5 413,-1490.71 420.077,-1513.7 433,-1605 438.767,-1645.74 443.139,-1655.43 450,-1696 452.474,-1710.63 453.204,-1714.28 455,-1729 457.971,-1753.36 461.396,-1759.49 460,-1784 459.83,-1786.98 459.58,-1790.09 459.225,-1793.18"/>
<polygon fill="black" stroke="black" points="455.721,-1792.92 457.57,-1803.35 462.63,-1794.04 455.721,-1792.92"/>
</g>
<!-- 17&#45;&gt;3 -->
<g id="edge79" class="edge"><title>17&#45;&gt;3</title>
<path fill="none" stroke="black" d="M405.452,-667.777C406.936,-657.634 409.935,-644.895 416,-635 419.68,-628.996 424.739,-623.497 430.049,-618.726"/>
<polygon fill="black" stroke="black" points="432.381,-621.34 437.876,-612.281 427.931,-615.936 432.381,-621.34"/>
<text text-anchor="middle" x="420" y="-638.8" font-family="Times New Roman,serif" font-size="14.00">b</text>
</g>
<!-- 18 -->
<g id="node19" class="node"><title>18</title>
<ellipse fill="none" stroke="black" cx="340" cy="-773" rx="27" ry="18"/>
<text text-anchor="middle" x="340" y="-769.3" font-family="Times New Roman,serif" font-size="14.00">e</text>
</g>
<!-- 17&#45;&gt;18 -->
<g id="edge61" class="edge"><title>17&#45;&gt;18</title>
<path fill="none" stroke="black" d="M392.336,-702.491C382.704,-715.283 368.876,-733.649 357.852,-748.29"/>
<polygon fill="black" stroke="black" points="354.958,-746.316 351.739,-756.41 360.55,-750.526 354.958,-746.316"/>
</g>
<!-- 18&#45;&gt;17 -->
<g id="edge62" class="edge"><title>18&#45;&gt;17</title>
<path fill="none" stroke="black" d="M344.766,-755.174C348.202,-744.931 353.552,-731.949 361,-722 365.521,-715.961 371.304,-710.339 377.153,-705.445"/>
<polygon fill="black" stroke="black" points="379.344,-708.174 385.057,-699.251 375.027,-702.664 379.344,-708.174"/>
<text text-anchor="middle" x="363" y="-725.8" font-family="Times New Roman,serif" font-size="14.00">l</text>
</g>
<!-- 28 -->
<g id="node29" class="node"><title>28</title>
<ellipse fill="none" stroke="black" cx="340" cy="-846" rx="27" ry="18"/>
<text text-anchor="middle" x="340" y="-842.3" font-family="Times New Roman,serif" font-size="14.00">e</text>
</g>
<!-- 18&#45;&gt;28 -->
<g id="edge44" class="edge"><title>18&#45;&gt;28</title>
<path fill="none" stroke="black" d="M345.827,-790.705C346.708,-798.822 346.959,-808.78 346.577,-817.942"/>
<polygon fill="black" stroke="black" points="343.068,-817.948 345.84,-828.174 350.05,-818.452 343.068,-817.948"/>
</g>
<!-- 19&#45;&gt;8 -->
<g id="edge68" class="edge"><title>19&#45;&gt;8</title>
<path fill="none" stroke="black" d="M145.392,-862.373C134.217,-878.731 119,-905.814 119,-932 119,-1181 119,-1181 119,-1181 119,-1219.38 161.642,-1243.09 193.337,-1255.41"/>
<polygon fill="black" stroke="black" points="192.169,-1258.71 202.763,-1258.87 194.582,-1252.14 192.169,-1258.71"/>
<text text-anchor="middle" x="121" y="-1059.8" font-family="Times New Roman,serif" font-size="14.00">l</text>
</g>
<!-- 19&#45;&gt;10 -->
<g id="edge65" class="edge"><title>19&#45;&gt;10</title>
<path fill="none" stroke="black" d="M167.299,-862.916C175.429,-875.481 186.911,-893.226 196.202,-907.586"/>
<polygon fill="black" stroke="black" points="193.284,-909.518 201.655,-916.012 199.161,-905.715 193.284,-909.518"/>
<text text-anchor="middle" x="191.5" y="-885.8" font-family="Times New Roman,serif" font-size="14.00">k</text>
</g>
<!-- 19&#45;&gt;15 -->
<g id="edge14" class="edge"><title>19&#45;&gt;15</title>
<path fill="none" stroke="black" d="M151.16,-828.174C150.285,-820.039 150.041,-810.076 150.428,-800.921"/>
<polygon fill="black" stroke="black" points="153.937,-800.933 151.173,-790.705 146.955,-800.424 153.937,-800.933"/>
</g>
<!-- 20&#45;&gt;3 -->
<g id="edge27" class="edge"><title>20&#45;&gt;3</title>
<path fill="none" stroke="black" d="M516.439,-529.539C507.344,-543.017 492.422,-562.143 479.682,-576.755"/>
<polygon fill="black" stroke="black" points="476.948,-574.561 472.88,-584.343 482.161,-579.233 476.948,-574.561"/>
</g>
<!-- 20&#45;&gt;21 -->
<g id="edge24" class="edge"><title>20&#45;&gt;21</title>
<path fill="none" stroke="black" d="M529.321,-530.089C533,-561.001 533,-628.264 533,-685 533,-1515 533,-1515 533,-1515 533,-1539.61 511.526,-1559.53 491.706,-1571.94"/>
<polygon fill="black" stroke="black" points="489.696,-1569.06 482.799,-1577.1 493.206,-1575.11 489.696,-1569.06"/>
</g>
<!-- 20&#45;&gt;22 -->
<g id="edge25" class="edge"><title>20&#45;&gt;22</title>
<path fill="none" stroke="black" d="M501.41,-501.863C477.078,-490.589 438.704,-471.187 412.63,-457.112"/>
<polygon fill="black" stroke="black" points="414.083,-453.917 403.629,-452.192 410.725,-460.059 414.083,-453.917"/>
</g>
<!-- 21&#45;&gt;4 -->
<g id="edge20" class="edge"><title>21&#45;&gt;4</title>
<path fill="none" stroke="black" d="M454.16,-1569.17C453.285,-1561.04 453.041,-1551.08 453.428,-1541.92"/>
<polygon fill="black" stroke="black" points="456.937,-1541.93 454.173,-1531.71 449.955,-1541.42 456.937,-1541.93"/>
</g>
<!-- 21&#45;&gt;6 -->
<g id="edge32" class="edge"><title>21&#45;&gt;6</title>
<path fill="none" stroke="black" d="M443.064,-1601.29C432.626,-1607.51 419.404,-1615.23 408,-1623 399.653,-1628.68 390.892,-1635.48 382.79,-1641.63"/>
<polygon fill="black" stroke="black" points="380.543,-1638.94 374.63,-1647.73 384.735,-1644.55 380.543,-1638.94"/>
</g>
<!-- 21&#45;&gt;20 -->
<g id="edge23" class="edge"><title>21&#45;&gt;20</title>
<path fill="none" stroke="black" d="M476.315,-1572.61C492.733,-1560.26 515,-1540.06 515,-1515 515,-1515 515,-1515 515,-685 515,-633.805 515,-574.038 517.703,-540.142"/>
<polygon fill="black" stroke="black" points="521.197,-540.381 518.679,-530.089 514.229,-539.704 521.197,-540.381"/>
</g>
<!-- 22&#45;&gt;4 -->
<g id="edge22" class="edge"><title>22&#45;&gt;4</title>
<path fill="none" stroke="black" d="M389.735,-456.755C393.81,-489.902 397.928,-565.121 430,-617 436.826,-628.041 445.897,-624.135 453,-635 476.476,-670.91 477,-685.597 477,-728.5 477,-1398.5 477,-1398.5 477,-1398.5 477,-1428.78 474.182,-1463.45 470.009,-1486.63"/>
<polygon fill="black" stroke="black" points="466.521,-1486.22 467.931,-1496.72 473.377,-1487.63 466.521,-1486.22"/>
</g>
<!-- 22&#45;&gt;20 -->
<g id="edge26" class="edge"><title>22&#45;&gt;20</title>
<path fill="none" stroke="black" d="M407.548,-449.117C431.869,-460.385 470.252,-479.791 496.341,-493.872"/>
<polygon fill="black" stroke="black" points="494.894,-497.07 505.347,-498.795 498.251,-490.928 494.894,-497.07"/>
</g>
<!-- 33 -->
<g id="node34" class="node"><title>33</title>
<ellipse fill="none" stroke="black" cx="365" cy="-352" rx="27" ry="18"/>
<text text-anchor="middle" x="365" y="-348.3" font-family="Times New Roman,serif" font-size="14.00">m</text>
</g>
<!-- 22&#45;&gt;33 -->
<g id="edge46" class="edge"><title>22&#45;&gt;33</title>
<path fill="none" stroke="black" d="M375.032,-422.21C371.867,-416.394 368.74,-409.608 367,-403 365.105,-395.805 364.254,-387.829 363.961,-380.398"/>
<polygon fill="black" stroke="black" points="367.461,-380.363 363.867,-370.397 360.461,-380.429 367.461,-380.363"/>
<text text-anchor="middle" x="371" y="-391.8" font-family="Times New Roman,serif" font-size="14.00">b</text>
</g>
<!-- 23 -->
<g id="node24" class="node"><title>23</title>
<ellipse fill="none" stroke="black" cx="340" cy="-265" rx="27" ry="18"/>
<text text-anchor="middle" x="340" y="-261.3" font-family="Times New Roman,serif" font-size="14.00">e,i,p</text>
</g>
<!-- 23&#45;&gt;5 -->
<g id="edge75" class="edge"><title>23&#45;&gt;5</title>
<path fill="none" stroke="black" d="M340,-246.813C340,-238.789 340,-229.047 340,-220.069"/>
<polygon fill="black" stroke="black" points="343.5,-220.029 340,-210.029 336.5,-220.029 343.5,-220.029"/>
</g>
<!-- 23&#45;&gt;33 -->
<g id="edge50" class="edge"><title>23&#45;&gt;33</title>
<path fill="none" stroke="black" d="M344.929,-282.758C348.419,-294.625 353.173,-310.787 357.177,-324.403"/>
<polygon fill="black" stroke="black" points="353.881,-325.601 360.061,-334.207 360.597,-323.625 353.881,-325.601"/>
<text text-anchor="middle" x="356" y="-304.8" font-family="Times New Roman,serif" font-size="14.00">l</text>
</g>
<!-- 24&#45;&gt;3 -->
<g id="edge83" class="edge"><title>24&#45;&gt;3</title>
<path fill="none" stroke="black" d="M446.043,-530.198C444.376,-539.876 443.193,-552.158 445,-563 445.485,-565.911 446.183,-568.904 447,-571.856"/>
<polygon fill="black" stroke="black" points="443.725,-573.103 450.112,-581.556 450.39,-570.965 443.725,-573.103"/>
<text text-anchor="middle" x="447.5" y="-551.8" font-family="Times New Roman,serif" font-size="14.00">I</text>
</g>
<!-- 25 -->
<g id="node26" class="node"><title>25</title>
<ellipse fill="none" stroke="black" cx="340" cy="-933" rx="27" ry="18"/>
<text text-anchor="middle" x="340" y="-929.3" font-family="Times New Roman,serif" font-size="14.00">b</text>
</g>
<!-- 25&#45;&gt;28 -->
<g id="edge74" class="edge"><title>25&#45;&gt;28</title>
<path fill="none" stroke="black" d="M335.317,-915.042C333.964,-909.354 332.671,-902.946 332,-897 331.156,-889.519 331.772,-881.447 332.965,-874.018"/>
<polygon fill="black" stroke="black" points="336.426,-874.562 334.945,-864.071 329.561,-873.195 336.426,-874.562"/>
<text text-anchor="middle" x="335.5" y="-885.8" font-family="Times New Roman,serif" font-size="14.00">k</text>
</g>
<!-- 32 -->
<g id="node33" class="node"><title>32</title>
<ellipse fill="none" stroke="black" cx="302" cy="-1020" rx="27" ry="18"/>
<text text-anchor="middle" x="302" y="-1016.3" font-family="Times New Roman,serif" font-size="14.00">t</text>
</g>
<!-- 25&#45;&gt;32 -->
<g id="edge53" class="edge"><title>25&#45;&gt;32</title>
<path fill="none" stroke="black" d="M332.463,-950.36C329.774,-956.23 326.734,-962.904 324,-969 320.507,-976.788 316.751,-985.28 313.348,-993.018"/>
<polygon fill="black" stroke="black" points="310.085,-991.743 309.274,-1002.31 316.496,-994.555 310.085,-991.743"/>
</g>
<!-- 26&#45;&gt;10 -->
<g id="edge58" class="edge"><title>26&#45;&gt;10</title>
<path fill="none" stroke="black" d="M226.691,-1001.85C224.796,-992.189 222.337,-979.907 220,-969 219.432,-966.349 218.826,-963.588 218.211,-960.831"/>
<polygon fill="black" stroke="black" points="221.623,-960.049 216,-951.069 214.796,-961.595 221.623,-960.049"/>
<text text-anchor="middle" x="225" y="-972.8" font-family="Times New Roman,serif" font-size="14.00">l</text>
</g>
<!-- 27&#45;&gt;11 -->
<g id="edge6" class="edge"><title>27&#45;&gt;11</title>
<path fill="none" stroke="black" d="M40.5107,-455.101C46.0471,-463.697 52.0868,-474.708 56.83,-484.682"/>
<polygon fill="black" stroke="black" points="53.6384,-486.118 60.9216,-493.813 60.0264,-483.256 53.6384,-486.118"/>
</g>
<!-- 27&#45;&gt;16 -->
<g id="edge12" class="edge"><title>27&#45;&gt;16</title>
<path fill="none" stroke="black" d="M31.1134,-456.995C31.3675,-475.401 29.7345,-505.425 37,-530 52.1331,-581.187 89.4772,-631.808 110.921,-660.651"/>
<polygon fill="black" stroke="black" points="108.256,-662.932 117.024,-668.879 113.878,-658.762 108.256,-662.932"/>
</g>
<!-- 28&#45;&gt;18 -->
<g id="edge43" class="edge"><title>28&#45;&gt;18</title>
<path fill="none" stroke="black" d="M334.16,-828.174C333.285,-820.039 333.041,-810.076 333.428,-800.921"/>
<polygon fill="black" stroke="black" points="336.937,-800.933 334.173,-790.705 329.955,-800.424 336.937,-800.933"/>
</g>
<!-- 28&#45;&gt;25 -->
<g id="edge73" class="edge"><title>28&#45;&gt;25</title>
<path fill="none" stroke="black" d="M340,-864.175C340,-875.806 340,-891.419 340,-904.734"/>
<polygon fill="black" stroke="black" points="336.5,-904.799 340,-914.799 343.5,-904.799 336.5,-904.799"/>
<text text-anchor="middle" x="343.5" y="-885.8" font-family="Times New Roman,serif" font-size="14.00">k</text>
</g>
<!-- 29 -->
<g id="node30" class="node"><title>29</title>
<ellipse fill="none" stroke="black" cx="297" cy="-18" rx="27" ry="18"/>
<text text-anchor="middle" x="297" y="-14.3" font-family="Times New Roman,serif" font-size="14.00">e</text>
</g>
<!-- 29&#45;&gt;32 -->
<g id="edge18" class="edge"><title>29&#45;&gt;32</title>
<path fill="none" stroke="black" d="M297.008,-36.2734C292.999,-53.2337 285,-79.983 285,-104 285,-934 285,-934 285,-934 285,-954.001 291.664,-975.537 297.077,-991.928"/>
<polygon fill="black" stroke="black" points="293.908,-993.492 300.371,-1001.89 300.554,-991.294 293.908,-993.492"/>
</g>
<!-- 29&#45;&gt;34 -->
<g id="edge70" class="edge"><title>29&#45;&gt;34</title>
<path fill="none" stroke="black" d="M305.65,-35.3385C312.117,-47.555 321.084,-64.4914 328.493,-78.4864"/>
<polygon fill="black" stroke="black" points="325.551,-80.4109 333.324,-87.6111 331.738,-77.1356 325.551,-80.4109"/>
<text text-anchor="middle" x="325" y="-57.8" font-family="Times New Roman,serif" font-size="14.00">l</text>
</g>
<!-- 30&#45;&gt;9 -->
<g id="edge40" class="edge"><title>30&#45;&gt;9</title>
<path fill="none" stroke="black" d="M340,-1372.18C340,-1383.81 340,-1399.42 340,-1412.73"/>
<polygon fill="black" stroke="black" points="336.5,-1412.8 340,-1422.8 343.5,-1412.8 336.5,-1412.8"/>
<text text-anchor="middle" x="344" y="-1393.8" font-family="Times New Roman,serif" font-size="14.00">b</text>
</g>
<!-- 31&#45;&gt;2 -->
<g id="edge16" class="edge"><title>31&#45;&gt;2</title>
<path fill="none" stroke="black" d="M250.827,-1124.71C251.708,-1132.82 251.959,-1142.78 251.577,-1151.94"/>
<polygon fill="black" stroke="black" points="248.068,-1151.95 250.84,-1162.17 255.05,-1152.45 248.068,-1151.95"/>
</g>
<!-- 31&#45;&gt;26 -->
<g id="edge76" class="edge"><title>31&#45;&gt;26</title>
<path fill="none" stroke="black" d="M241.965,-1088.8C239.911,-1077.16 237.156,-1061.55 234.806,-1048.24"/>
<polygon fill="black" stroke="black" points="238.216,-1047.41 233.031,-1038.18 231.322,-1048.63 238.216,-1047.41"/>
</g>
<!-- 31&#45;&gt;32 -->
<g id="edge77" class="edge"><title>31&#45;&gt;32</title>
<path fill="none" stroke="black" d="M255.721,-1090.01C264.214,-1077.35 276.213,-1059.45 285.865,-1045.06"/>
<polygon fill="black" stroke="black" points="288.857,-1046.88 291.519,-1036.63 283.043,-1042.99 288.857,-1046.88"/>
</g>
<!-- 32&#45;&gt;25 -->
<g id="edge54" class="edge"><title>32&#45;&gt;25</title>
<path fill="none" stroke="black" d="M311.355,-1002.85C314.586,-996.999 318.116,-990.284 321,-984 324.447,-976.489 327.794,-968.157 330.693,-960.483"/>
<polygon fill="black" stroke="black" points="334.052,-961.491 334.218,-950.898 327.482,-959.075 334.052,-961.491"/>
<text text-anchor="middle" x="330" y="-972.8" font-family="Times New Roman,serif" font-size="14.00">l</text>
</g>
<!-- 32&#45;&gt;29 -->
<g id="edge17" class="edge"><title>32&#45;&gt;29</title>
<path fill="none" stroke="black" d="M288.073,-1004.37C277.932,-987.752 267,-959.617 267,-934 267,-934 267,-934 267,-104 267,-83.0338 273.096,-59.9854 280.127,-43.1849"/>
<polygon fill="black" stroke="black" points="283.318,-44.6238 284.336,-34.0779 276.963,-41.6872 283.318,-44.6238"/>
</g>
<!-- 33&#45;&gt;22 -->
<g id="edge45" class="edge"><title>33&#45;&gt;22</title>
<path fill="none" stroke="black" d="M369.515,-370.06C370.988,-375.755 372.603,-382.141 374,-388 375.766,-395.404 377.581,-403.45 379.215,-410.88"/>
<polygon fill="black" stroke="black" points="375.837,-411.813 381.381,-420.842 382.677,-410.326 375.837,-411.813"/>
<text text-anchor="middle" x="382" y="-391.8" font-family="Times New Roman,serif" font-size="14.00">b</text>
</g>
<!-- 33&#45;&gt;23 -->
<g id="edge49" class="edge"><title>33&#45;&gt;23</title>
<path fill="none" stroke="black" d="M357.74,-334.465C355.38,-328.696 352.886,-322.13 351,-316 348.761,-308.725 346.789,-300.722 345.156,-293.292"/>
<polygon fill="black" stroke="black" points="348.542,-292.384 343.081,-283.305 341.689,-293.808 348.542,-292.384"/>
</g>
<!-- 34&#45;&gt;5 -->
<g id="edge51" class="edge"><title>34&#45;&gt;5</title>
<path fill="none" stroke="black" d="M341.596,-123.175C341.322,-134.806 340.955,-150.419 340.642,-163.734"/>
<polygon fill="black" stroke="black" points="337.141,-163.719 340.405,-173.799 344.139,-163.884 337.141,-163.719"/>
</g>
<!-- 34&#45;&gt;29 -->
<g id="edge69" class="edge"><title>34&#45;&gt;29</title>
<path fill="none" stroke="black" d="M336.937,-87.2808C333.608,-77.3165 328.799,-64.5882 323,-54 320.873,-50.1161 318.36,-46.1796 315.75,-42.4173"/>
<polygon fill="black" stroke="black" points="318.354,-40.0506 309.614,-34.0617 312.712,-44.1936 318.354,-40.0506"/>
<text text-anchor="middle" x="332" y="-57.8" font-family="Times New Roman,serif" font-size="14.00">l</text>
</g>
</g>
</svg>
