<?xml version="1.0" encoding="UTF-8" standalone="no"?>
<!DOCTYPE svg PUBLIC "-//W3C//DTD SVG 1.1//EN"
 "http://www.w3.org/Graphics/SVG/1.1/DTD/svg11.dtd">
<!-- Generated by graphviz version 2.38.0 (20140413.2041)
 -->
<!-- Title: %3 Pages: 1 -->
<svg width="364pt" height="1147pt"
 viewBox="0.00 0.00 364.00 1147.00" xmlns="http://www.w3.org/2000/svg" xmlns:xlink="http://www.w3.org/1999/xlink">
<g id="graph0" class="graph" transform="scale(1 1) rotate(0) translate(4 1143)">
<title>%3</title>
<polygon fill="white" stroke="none" points="-4,4 -4,-1143 360,-1143 360,4 -4,4"/>
<!-- 0 -->
<g id="node1" class="node"><title>0</title>
<ellipse fill="none" stroke="black" cx="146" cy="-1121" rx="28.6953" ry="18"/>
<text text-anchor="middle" x="146" y="-1117.3" font-family="Times New Roman,serif" font-size="14.00">e,k,p</text>
</g>
<!-- 1 -->
<g id="node2" class="node"><title>1</title>
<ellipse fill="none" stroke="black" cx="147" cy="-1034" rx="27" ry="18"/>
<text text-anchor="middle" x="147" y="-1030.3" font-family="Times New Roman,serif" font-size="14.00">e</text>
</g>
<!-- 0&#45;&gt;1 -->
<g id="edge34" class="edge"><title>0&#45;&gt;1</title>
<path fill="none" stroke="black" d="M143.983,-1102.88C143.094,-1093.22 142.377,-1080.94 143,-1070 143.146,-1067.44 143.352,-1064.77 143.594,-1062.11"/>
<polygon fill="black" stroke="black" points="147.086,-1062.37 144.657,-1052.06 140.124,-1061.63 147.086,-1062.37"/>
<text text-anchor="middle" x="145" y="-1073.8" font-family="Times New Roman,serif" font-size="14.00">l</text>
</g>
<!-- 2 -->
<g id="node3" class="node"><title>2</title>
<ellipse fill="none" stroke="black" cx="111" cy="-860" rx="27" ry="18"/>
<text text-anchor="middle" x="111" y="-856.3" font-family="Times New Roman,serif" font-size="14.00">e,i,p</text>
</g>
<!-- 0&#45;&gt;2 -->
<g id="edge11" class="edge"><title>0&#45;&gt;2</title>
<path fill="none" stroke="black" d="M131.751,-1105.28C112.362,-1078.5 80.194,-1019.53 67,-965 59.7688,-935.115 49.2948,-923.999 62,-896 65.6176,-888.028 72.0477,-881.157 79.1669,-875.667"/>
<polygon fill="black" stroke="black" points="81.4006,-878.381 87.7136,-869.873 77.4724,-872.588 81.4006,-878.381"/>
</g>
<!-- 6 -->
<g id="node7" class="node"><title>6</title>
<ellipse fill="none" stroke="black" cx="233" cy="-860" rx="27" ry="18"/>
<text text-anchor="middle" x="233" y="-856.3" font-family="Times New Roman,serif" font-size="14.00">e</text>
</g>
<!-- 0&#45;&gt;6 -->
<g id="edge13" class="edge"><title>0&#45;&gt;6</title>
<path fill="none" stroke="black" d="M148.563,-1102.91C154.627,-1089.3 165.461,-1069.67 174,-1052 192.285,-1014.17 200.067,-1005.57 211,-965 217.967,-939.148 221.22,-908.657 224.435,-887.4"/>
<polygon fill="black" stroke="black" points="227.897,-887.921 226.08,-877.483 220.991,-886.776 227.897,-887.921"/>
</g>
<!-- 1&#45;&gt;0 -->
<g id="edge33" class="edge"><title>1&#45;&gt;0</title>
<path fill="none" stroke="black" d="M146.798,-1052.18C146.661,-1063.81 146.477,-1079.42 146.321,-1092.73"/>
<polygon fill="black" stroke="black" points="142.82,-1092.76 146.202,-1102.8 149.82,-1092.84 142.82,-1092.76"/>
</g>
<!-- 3 -->
<g id="node4" class="node"><title>3</title>
<ellipse fill="none" stroke="black" cx="112" cy="-947" rx="27" ry="18"/>
<text text-anchor="middle" x="112" y="-943.3" font-family="Times New Roman,serif" font-size="14.00">e,p</text>
</g>
<!-- 1&#45;&gt;3 -->
<g id="edge44" class="edge"><title>1&#45;&gt;3</title>
<path fill="none" stroke="black" d="M140.085,-1016.21C135.116,-1004.14 128.322,-987.638 122.661,-973.891"/>
<polygon fill="black" stroke="black" points="125.825,-972.383 118.781,-964.469 119.353,-975.049 125.825,-972.383"/>
<text text-anchor="middle" x="136" y="-986.8" font-family="Times New Roman,serif" font-size="14.00">b</text>
</g>
<!-- 7 -->
<g id="node8" class="node"><title>7</title>
<ellipse fill="none" stroke="black" cx="184" cy="-947" rx="27" ry="18"/>
</g>
<!-- 1&#45;&gt;7 -->
<g id="edge45" class="edge"><title>1&#45;&gt;7</title>
<path fill="none" stroke="black" d="M152.377,-1016.08C155.669,-1006.28 160.169,-993.776 165,-983 166.458,-979.747 168.1,-976.384 169.792,-973.088"/>
<polygon fill="black" stroke="black" points="172.957,-974.592 174.583,-964.122 166.783,-971.292 172.957,-974.592"/>
<text text-anchor="middle" x="169" y="-986.8" font-family="Times New Roman,serif" font-size="14.00">b</text>
</g>
<!-- 2&#45;&gt;0 -->
<g id="edge12" class="edge"><title>2&#45;&gt;0</title>
<path fill="none" stroke="black" d="M96.4712,-875.472C90.2006,-880.995 83.6605,-887.933 80,-896 67.2948,-923.999 77.7688,-935.115 85,-965 96.542,-1012.7 122.604,-1063.8 137.003,-1093.78"/>
<polygon fill="black" stroke="black" points="133.969,-1095.55 141.401,-1103.1 140.299,-1092.56 133.969,-1095.55"/>
</g>
<!-- 2&#45;&gt;3 -->
<g id="edge40" class="edge"><title>2&#45;&gt;3</title>
<path fill="none" stroke="black" d="M111.202,-878.175C111.339,-889.806 111.523,-905.419 111.679,-918.734"/>
<polygon fill="black" stroke="black" points="108.18,-918.841 111.798,-928.799 115.18,-918.758 108.18,-918.841"/>
<text text-anchor="middle" x="115.5" y="-899.8" font-family="Times New Roman,serif" font-size="14.00">k</text>
</g>
<!-- 9 -->
<g id="node10" class="node"><title>9</title>
<ellipse fill="none" stroke="black" cx="102" cy="-599" rx="27" ry="18"/>
<text text-anchor="middle" x="102" y="-595.3" font-family="Times New Roman,serif" font-size="14.00">m</text>
</g>
<!-- 2&#45;&gt;9 -->
<g id="edge26" class="edge"><title>2&#45;&gt;9</title>
<path fill="none" stroke="black" d="M108.348,-841.937C107.52,-836.242 106.653,-829.856 106,-824 96.6828,-740.476 97.119,-718.993 100,-635 100.088,-632.445 100.2,-629.787 100.328,-627.127"/>
<polygon fill="black" stroke="black" points="103.826,-627.256 100.868,-617.083 96.8357,-626.88 103.826,-627.256"/>
<text text-anchor="middle" x="101" y="-725.8" font-family="Times New Roman,serif" font-size="14.00">l</text>
</g>
<!-- 20 -->
<g id="node21" class="node"><title>20</title>
<ellipse fill="none" stroke="black" cx="162" cy="-773" rx="28.6953" ry="18"/>
<text text-anchor="middle" x="162" y="-769.3" font-family="Times New Roman,serif" font-size="14.00">e,k,p</text>
</g>
<!-- 2&#45;&gt;20 -->
<g id="edge55" class="edge"><title>2&#45;&gt;20</title>
<path fill="none" stroke="black" d="M116.129,-842.104C119.562,-832.077 124.619,-819.344 131,-809 133.753,-804.537 137.09,-800.099 140.541,-795.956"/>
<polygon fill="black" stroke="black" points="143.197,-798.236 147.196,-788.425 137.951,-793.601 143.197,-798.236"/>
<text text-anchor="middle" x="134.5" y="-812.8" font-family="Times New Roman,serif" font-size="14.00">k</text>
</g>
<!-- 3&#45;&gt;1 -->
<g id="edge43" class="edge"><title>3&#45;&gt;1</title>
<path fill="none" stroke="black" d="M104.151,-964.448C100.493,-974.548 97.942,-987.514 103,-998 106.382,-1005.01 111.927,-1011.05 117.959,-1016.04"/>
<polygon fill="black" stroke="black" points="116.198,-1019.09 126.329,-1022.2 120.344,-1013.45 116.198,-1019.09"/>
<text text-anchor="middle" x="107" y="-986.8" font-family="Times New Roman,serif" font-size="14.00">b</text>
</g>
<!-- 3&#45;&gt;2 -->
<g id="edge39" class="edge"><title>3&#45;&gt;2</title>
<path fill="none" stroke="black" d="M120.128,-929.455C123.921,-919.773 127.171,-907.273 125,-896 124.413,-892.949 123.562,-889.827 122.565,-886.764"/>
<polygon fill="black" stroke="black" points="125.82,-885.476 119.03,-877.343 119.266,-887.935 125.82,-885.476"/>
<text text-anchor="middle" x="129.5" y="-899.8" font-family="Times New Roman,serif" font-size="14.00">k</text>
</g>
<!-- 26 -->
<g id="node27" class="node"><title>26</title>
<ellipse fill="none" stroke="black" cx="27" cy="-860" rx="27" ry="18"/>
<text text-anchor="middle" x="27" y="-856.3" font-family="Times New Roman,serif" font-size="14.00">I</text>
</g>
<!-- 3&#45;&gt;26 -->
<g id="edge41" class="edge"><title>3&#45;&gt;26</title>
<path fill="none" stroke="black" d="M97.5809,-931.581C84.1485,-918.148 63.9422,-897.942 48.5871,-882.587"/>
<polygon fill="black" stroke="black" points="51.0358,-880.086 41.4898,-875.49 46.086,-885.036 51.0358,-880.086"/>
<text text-anchor="middle" x="77" y="-899.8" font-family="Times New Roman,serif" font-size="14.00">l</text>
</g>
<!-- 4 -->
<g id="node5" class="node"><title>4</title>
<ellipse fill="none" stroke="black" cx="257" cy="-265" rx="27" ry="18"/>
<text text-anchor="middle" x="257" y="-261.3" font-family="Times New Roman,serif" font-size="14.00">b</text>
</g>
<!-- 5 -->
<g id="node6" class="node"><title>5</title>
<ellipse fill="none" stroke="black" cx="268" cy="-178" rx="27" ry="18"/>
<text text-anchor="middle" x="268" y="-174.3" font-family="Times New Roman,serif" font-size="14.00">t</text>
</g>
<!-- 4&#45;&gt;5 -->
<g id="edge19" class="edge"><title>4&#45;&gt;5</title>
<path fill="none" stroke="black" d="M254.479,-246.749C253.518,-237.054 253.064,-224.774 255,-214 255.527,-211.069 256.283,-208.063 257.169,-205.104"/>
<polygon fill="black" stroke="black" points="260.567,-205.99 260.541,-195.395 253.954,-203.693 260.567,-205.99"/>
</g>
<!-- 22 -->
<g id="node23" class="node"><title>22</title>
<ellipse fill="none" stroke="black" cx="280" cy="-352" rx="27" ry="18"/>
<text text-anchor="middle" x="280" y="-348.3" font-family="Times New Roman,serif" font-size="14.00">e,p</text>
</g>
<!-- 4&#45;&gt;22 -->
<g id="edge50" class="edge"><title>4&#45;&gt;22</title>
<path fill="none" stroke="black" d="M261.535,-282.758C264.746,-294.625 269.119,-310.787 272.803,-324.403"/>
<polygon fill="black" stroke="black" points="269.465,-325.468 275.456,-334.207 276.222,-323.64 269.465,-325.468"/>
<text text-anchor="middle" x="273.5" y="-304.8" font-family="Times New Roman,serif" font-size="14.00">k</text>
</g>
<!-- 5&#45;&gt;4 -->
<g id="edge20" class="edge"><title>5&#45;&gt;4</title>
<path fill="none" stroke="black" d="M265.777,-196.175C264.272,-207.806 262.252,-223.419 260.529,-236.734"/>
<polygon fill="black" stroke="black" points="257.038,-236.432 259.226,-246.799 263.981,-237.331 257.038,-236.432"/>
<text text-anchor="middle" x="266" y="-217.8" font-family="Times New Roman,serif" font-size="14.00">l</text>
</g>
<!-- 6&#45;&gt;0 -->
<g id="edge14" class="edge"><title>6&#45;&gt;0</title>
<path fill="none" stroke="black" d="M238.648,-877.846C240.177,-898.646 237.096,-934.957 229,-965 218.067,-1005.57 210.285,-1014.17 192,-1052 184.587,-1067.34 175.444,-1084.16 167.01,-1097.23"/>
<polygon fill="black" stroke="black" points="164.036,-1095.38 161.313,-1105.62 169.827,-1099.31 164.036,-1095.38"/>
</g>
<!-- 6&#45;&gt;7 -->
<g id="edge17" class="edge"><title>6&#45;&gt;7</title>
<path fill="none" stroke="black" d="M216.695,-874.659C210.41,-880.65 203.635,-888.112 199,-896 194.85,-903.063 191.761,-911.372 189.501,-919.166"/>
<polygon fill="black" stroke="black" points="186.081,-918.412 186.987,-928.968 192.861,-920.151 186.081,-918.412"/>
</g>
<!-- 7&#45;&gt;1 -->
<g id="edge46" class="edge"><title>7&#45;&gt;1</title>
<path fill="none" stroke="black" d="M181.556,-965.203C179.742,-975.104 176.742,-987.604 172,-998 170.222,-1001.9 167.985,-1005.81 165.585,-1009.53"/>
<polygon fill="black" stroke="black" points="162.686,-1007.56 159.825,-1017.76 168.423,-1011.57 162.686,-1007.56"/>
<text text-anchor="middle" x="182" y="-986.8" font-family="Times New Roman,serif" font-size="14.00">b</text>
</g>
<!-- 7&#45;&gt;6 -->
<g id="edge18" class="edge"><title>7&#45;&gt;6</title>
<path fill="none" stroke="black" d="M193.217,-930.012C200.357,-917.625 210.382,-900.235 218.582,-886.011"/>
<polygon fill="black" stroke="black" points="221.696,-887.617 223.658,-877.205 215.632,-884.121 221.696,-887.617"/>
<text text-anchor="middle" x="214" y="-899.8" font-family="Times New Roman,serif" font-size="14.00">l</text>
</g>
<!-- 8 -->
<g id="node9" class="node"><title>8</title>
<ellipse fill="none" stroke="black" cx="255" cy="-599" rx="27" ry="18"/>
<text text-anchor="middle" x="255" y="-595.3" font-family="Times New Roman,serif" font-size="14.00">e,p</text>
</g>
<!-- 21 -->
<g id="node22" class="node"><title>21</title>
<ellipse fill="none" stroke="black" cx="224" cy="-686" rx="27" ry="18"/>
<text text-anchor="middle" x="224" y="-682.3" font-family="Times New Roman,serif" font-size="14.00">e</text>
</g>
<!-- 8&#45;&gt;21 -->
<g id="edge22" class="edge"><title>8&#45;&gt;21</title>
<path fill="none" stroke="black" d="M248.888,-616.758C244.518,-628.741 238.55,-645.104 233.554,-658.803"/>
<polygon fill="black" stroke="black" points="230.263,-657.613 230.125,-668.207 236.839,-660.011 230.263,-657.613"/>
<text text-anchor="middle" x="244" y="-638.8" font-family="Times New Roman,serif" font-size="14.00">l</text>
</g>
<!-- 24 -->
<g id="node25" class="node"><title>24</title>
<ellipse fill="none" stroke="black" cx="280" cy="-512" rx="27" ry="18"/>
<text text-anchor="middle" x="280" y="-508.3" font-family="Times New Roman,serif" font-size="14.00">e</text>
</g>
<!-- 8&#45;&gt;24 -->
<g id="edge15" class="edge"><title>8&#45;&gt;24</title>
<path fill="none" stroke="black" d="M254.95,-580.977C255.35,-571.136 256.6,-558.636 260,-548 261.099,-544.563 262.566,-541.09 264.209,-537.736"/>
<polygon fill="black" stroke="black" points="267.411,-539.176 269.145,-528.724 261.272,-535.814 267.411,-539.176"/>
<text text-anchor="middle" x="262" y="-551.8" font-family="Times New Roman,serif" font-size="14.00">l</text>
</g>
<!-- 9&#45;&gt;2 -->
<g id="edge25" class="edge"><title>9&#45;&gt;2</title>
<path fill="none" stroke="black" d="M102.602,-617.32C104.133,-661.379 108.186,-778.007 110.044,-831.493"/>
<polygon fill="black" stroke="black" points="106.55,-831.732 110.396,-841.604 113.546,-831.489 106.55,-831.732"/>
</g>
<!-- 18 -->
<g id="node19" class="node"><title>18</title>
<ellipse fill="none" stroke="black" cx="151" cy="-686" rx="27" ry="18"/>
<text text-anchor="middle" x="151" y="-682.3" font-family="Times New Roman,serif" font-size="14.00">e</text>
</g>
<!-- 9&#45;&gt;18 -->
<g id="edge23" class="edge"><title>9&#45;&gt;18</title>
<path fill="none" stroke="black" d="M116.937,-614.345C122.543,-620.326 128.612,-627.599 133,-635 137.301,-642.254 140.825,-650.702 143.58,-658.567"/>
<polygon fill="black" stroke="black" points="140.25,-659.645 146.656,-668.083 146.91,-657.492 140.25,-659.645"/>
</g>
<!-- 10 -->
<g id="node11" class="node"><title>10</title>
<ellipse fill="none" stroke="black" cx="190" cy="-178" rx="27" ry="18"/>
</g>
<!-- 11 -->
<g id="node12" class="node"><title>11</title>
<ellipse fill="none" stroke="black" cx="162" cy="-105" rx="27" ry="18"/>
<text text-anchor="middle" x="162" y="-101.3" font-family="Times New Roman,serif" font-size="14.00">s</text>
</g>
<!-- 10&#45;&gt;11 -->
<g id="edge2" class="edge"><title>10&#45;&gt;11</title>
<path fill="none" stroke="black" d="M178.246,-161.594C173.917,-153.179 169.417,-142.518 165.998,-132.788"/>
<polygon fill="black" stroke="black" points="169.28,-131.561 162.88,-123.118 162.618,-133.709 169.28,-131.561"/>
</g>
<!-- 13 -->
<g id="node14" class="node"><title>13</title>
<ellipse fill="none" stroke="black" cx="234" cy="-105" rx="27" ry="18"/>
<text text-anchor="middle" x="234" y="-101.3" font-family="Times New Roman,serif" font-size="14.00">e,k</text>
</g>
<!-- 10&#45;&gt;13 -->
<g id="edge31" class="edge"><title>10&#45;&gt;13</title>
<path fill="none" stroke="black" d="M194.587,-160.174C199.444,-150.691 206.698,-138.723 213.761,-128.449"/>
<polygon fill="black" stroke="black" points="216.614,-130.477 219.591,-120.309 210.923,-126.401 216.614,-130.477"/>
</g>
<!-- 15 -->
<g id="node16" class="node"><title>15</title>
<ellipse fill="none" stroke="black" cx="185" cy="-265" rx="27" ry="18"/>
<text text-anchor="middle" x="185" y="-261.3" font-family="Times New Roman,serif" font-size="14.00">e</text>
</g>
<!-- 10&#45;&gt;15 -->
<g id="edge35" class="edge"><title>10&#45;&gt;15</title>
<path fill="none" stroke="black" d="M188.99,-196.175C188.306,-207.806 187.387,-223.419 186.604,-236.734"/>
<polygon fill="black" stroke="black" points="183.105,-236.611 186.012,-246.799 190.093,-237.022 183.105,-236.611"/>
<text text-anchor="middle" x="191.5" y="-217.8" font-family="Times New Roman,serif" font-size="14.00">k</text>
</g>
<!-- 11&#45;&gt;10 -->
<g id="edge1" class="edge"><title>11&#45;&gt;10</title>
<path fill="none" stroke="black" d="M173.841,-121.576C178.142,-129.962 182.604,-140.542 185.999,-150.205"/>
<polygon fill="black" stroke="black" points="182.698,-151.371 189.1,-159.813 189.359,-149.221 182.698,-151.371"/>
</g>
<!-- 12 -->
<g id="node13" class="node"><title>12</title>
<ellipse fill="none" stroke="black" cx="234" cy="-18" rx="27" ry="18"/>
</g>
<!-- 12&#45;&gt;13 -->
<g id="edge38" class="edge"><title>12&#45;&gt;13</title>
<path fill="none" stroke="black" d="M234,-36.1754C234,-47.806 234,-63.4194 234,-76.7339"/>
<polygon fill="black" stroke="black" points="230.5,-76.7989 234,-86.799 237.5,-76.799 230.5,-76.7989"/>
<text text-anchor="middle" x="237.5" y="-57.8" font-family="Times New Roman,serif" font-size="14.00">k</text>
</g>
<!-- 13&#45;&gt;10 -->
<g id="edge32" class="edge"><title>13&#45;&gt;10</title>
<path fill="none" stroke="black" d="M229.404,-122.843C224.604,-132.214 217.465,-144.007 210.484,-154.194"/>
<polygon fill="black" stroke="black" points="207.42,-152.461 204.453,-162.632 213.115,-156.532 207.42,-152.461"/>
</g>
<!-- 13&#45;&gt;12 -->
<g id="edge37" class="edge"><title>13&#45;&gt;12</title>
<path fill="none" stroke="black" d="M226.591,-87.4534C223.121,-77.7712 220.121,-65.2712 222,-54 222.485,-51.0893 223.183,-48.0962 224,-45.144"/>
<polygon fill="black" stroke="black" points="227.39,-46.0349 227.112,-35.4437 220.725,-43.8968 227.39,-46.0349"/>
<text text-anchor="middle" x="225.5" y="-57.8" font-family="Times New Roman,serif" font-size="14.00">k</text>
</g>
<!-- 14 -->
<g id="node15" class="node"><title>14</title>
<ellipse fill="none" stroke="black" cx="185" cy="-352" rx="27" ry="18"/>
<text text-anchor="middle" x="185" y="-348.3" font-family="Times New Roman,serif" font-size="14.00">e,i</text>
</g>
<!-- 14&#45;&gt;15 -->
<g id="edge4" class="edge"><title>14&#45;&gt;15</title>
<path fill="none" stroke="black" d="M179.496,-334.207C178.184,-322.448 177.908,-306.485 178.668,-292.958"/>
<polygon fill="black" stroke="black" points="182.176,-293.01 179.5,-282.758 175.199,-292.441 182.176,-293.01"/>
</g>
<!-- 17 -->
<g id="node18" class="node"><title>17</title>
<ellipse fill="none" stroke="black" cx="185" cy="-425" rx="27" ry="18"/>
<text text-anchor="middle" x="185" y="-421.3" font-family="Times New Roman,serif" font-size="14.00">e,i,p</text>
</g>
<!-- 14&#45;&gt;17 -->
<g id="edge5" class="edge"><title>14&#45;&gt;17</title>
<path fill="none" stroke="black" d="M190.827,-369.705C191.708,-377.822 191.959,-387.78 191.577,-396.942"/>
<polygon fill="black" stroke="black" points="188.068,-396.948 190.84,-407.174 195.05,-397.452 188.068,-396.948"/>
</g>
<!-- 15&#45;&gt;10 -->
<g id="edge36" class="edge"><title>15&#45;&gt;10</title>
<path fill="none" stroke="black" d="M182.514,-246.837C181.479,-237.171 180.771,-224.888 182,-214 182.304,-211.306 182.736,-208.516 183.243,-205.742"/>
<polygon fill="black" stroke="black" points="186.667,-206.466 185.317,-195.958 179.819,-205.014 186.667,-206.466"/>
<text text-anchor="middle" x="185.5" y="-217.8" font-family="Times New Roman,serif" font-size="14.00">k</text>
</g>
<!-- 15&#45;&gt;14 -->
<g id="edge3" class="edge"><title>15&#45;&gt;14</title>
<path fill="none" stroke="black" d="M190.5,-282.758C191.814,-294.508 192.092,-310.47 191.334,-324.002"/>
<polygon fill="black" stroke="black" points="187.826,-323.956 190.504,-334.207 194.803,-324.524 187.826,-323.956"/>
</g>
<!-- 16 -->
<g id="node17" class="node"><title>16</title>
<ellipse fill="none" stroke="black" cx="183" cy="-512" rx="27" ry="18"/>
<text text-anchor="middle" x="183" y="-508.3" font-family="Times New Roman,serif" font-size="14.00">p</text>
</g>
<!-- 16&#45;&gt;17 -->
<g id="edge30" class="edge"><title>16&#45;&gt;17</title>
<path fill="none" stroke="black" d="M183.306,-493.875C183.488,-484.22 183.734,-471.936 184,-461 184.062,-458.448 184.131,-455.791 184.202,-453.132"/>
<polygon fill="black" stroke="black" points="187.702,-453.183 184.482,-443.089 180.704,-452.987 187.702,-453.183"/>
<text text-anchor="middle" x="186" y="-464.8" font-family="Times New Roman,serif" font-size="14.00">l</text>
</g>
<!-- 19 -->
<g id="node20" class="node"><title>19</title>
<ellipse fill="none" stroke="black" cx="181" cy="-599" rx="27" ry="18"/>
<text text-anchor="middle" x="181" y="-595.3" font-family="Times New Roman,serif" font-size="14.00">e</text>
</g>
<!-- 16&#45;&gt;19 -->
<g id="edge52" class="edge"><title>16&#45;&gt;19</title>
<path fill="none" stroke="black" d="M184.505,-530.131C185.148,-539.788 185.622,-552.071 185,-563 184.854,-565.565 184.648,-568.23 184.406,-570.893"/>
<polygon fill="black" stroke="black" points="180.914,-570.631 183.343,-580.944 187.876,-571.367 180.914,-570.631"/>
<text text-anchor="middle" x="188" y="-551.8" font-family="Times New Roman,serif" font-size="14.00">l</text>
</g>
<!-- 17&#45;&gt;14 -->
<g id="edge6" class="edge"><title>17&#45;&gt;14</title>
<path fill="none" stroke="black" d="M179.16,-407.174C178.285,-399.039 178.041,-389.076 178.428,-379.921"/>
<polygon fill="black" stroke="black" points="181.937,-379.933 179.173,-369.705 174.955,-379.424 181.937,-379.933"/>
</g>
<!-- 17&#45;&gt;16 -->
<g id="edge29" class="edge"><title>17&#45;&gt;16</title>
<path fill="none" stroke="black" d="M184.596,-443.175C184.322,-454.806 183.955,-470.419 183.642,-483.734"/>
<polygon fill="black" stroke="black" points="180.141,-483.719 183.405,-493.799 187.139,-483.884 180.141,-483.719"/>
</g>
<!-- 18&#45;&gt;9 -->
<g id="edge24" class="edge"><title>18&#45;&gt;9</title>
<path fill="none" stroke="black" d="M141.783,-669.012C134.643,-656.625 124.618,-639.235 116.418,-625.011"/>
<polygon fill="black" stroke="black" points="119.368,-623.121 111.342,-616.205 113.304,-626.617 119.368,-623.121"/>
<text text-anchor="middle" x="132" y="-638.8" font-family="Times New Roman,serif" font-size="14.00">l</text>
</g>
<!-- 18&#45;&gt;19 -->
<g id="edge54" class="edge"><title>18&#45;&gt;19</title>
<path fill="none" stroke="black" d="M156.927,-668.207C161.118,-656.332 166.823,-640.168 171.627,-626.557"/>
<polygon fill="black" stroke="black" points="175.057,-627.353 175.085,-616.758 168.457,-625.023 175.057,-627.353"/>
<text text-anchor="middle" x="170" y="-638.8" font-family="Times New Roman,serif" font-size="14.00">l</text>
</g>
<!-- 18&#45;&gt;20 -->
<g id="edge48" class="edge"><title>18&#45;&gt;20</title>
<path fill="none" stroke="black" d="M153.223,-704.175C154.728,-715.806 156.748,-731.419 158.471,-744.734"/>
<polygon fill="black" stroke="black" points="155.019,-745.331 159.774,-754.799 161.962,-744.432 155.019,-745.331"/>
<text text-anchor="middle" x="162" y="-725.8" font-family="Times New Roman,serif" font-size="14.00">b</text>
</g>
<!-- 19&#45;&gt;16 -->
<g id="edge51" class="edge"><title>19&#45;&gt;16</title>
<path fill="none" stroke="black" d="M181.405,-580.799C181.679,-569.163 182.046,-553.548 182.359,-540.237"/>
<polygon fill="black" stroke="black" points="185.86,-540.255 182.596,-530.175 178.862,-540.09 185.86,-540.255"/>
</g>
<!-- 19&#45;&gt;18 -->
<g id="edge53" class="edge"><title>19&#45;&gt;18</title>
<path fill="none" stroke="black" d="M186.046,-616.79C188.158,-626.78 189.256,-639.51 185,-650 182.85,-655.299 179.47,-660.236 175.658,-664.635"/>
<polygon fill="black" stroke="black" points="173.005,-662.342 168.503,-671.932 178.003,-667.243 173.005,-662.342"/>
</g>
<!-- 20&#45;&gt;2 -->
<g id="edge56" class="edge"><title>20&#45;&gt;2</title>
<path fill="none" stroke="black" d="M154.135,-790.533C149.248,-800.432 142.647,-813.156 136,-824 133.717,-827.724 131.172,-831.574 128.604,-835.298"/>
<polygon fill="black" stroke="black" points="125.618,-833.458 122.682,-843.638 131.325,-837.511 125.618,-833.458"/>
<text text-anchor="middle" x="148.5" y="-812.8" font-family="Times New Roman,serif" font-size="14.00">k</text>
</g>
<!-- 20&#45;&gt;18 -->
<g id="edge47" class="edge"><title>20&#45;&gt;18</title>
<path fill="none" stroke="black" d="M148.267,-757.116C143.765,-751.283 139.324,-744.253 137,-737 134.485,-729.153 135.551,-720.536 137.962,-712.698"/>
<polygon fill="black" stroke="black" points="141.251,-713.894 141.565,-703.304 134.716,-711.387 141.251,-713.894"/>
<text text-anchor="middle" x="141" y="-725.8" font-family="Times New Roman,serif" font-size="14.00">b</text>
</g>
<!-- 20&#45;&gt;21 -->
<g id="edge28" class="edge"><title>20&#45;&gt;21</title>
<path fill="none" stroke="black" d="M173.372,-756.41C182.723,-743.589 196.123,-725.219 206.788,-710.597"/>
<polygon fill="black" stroke="black" points="209.635,-712.633 212.7,-702.491 203.98,-708.508 209.635,-712.633"/>
<text text-anchor="middle" x="199" y="-725.8" font-family="Times New Roman,serif" font-size="14.00">l</text>
</g>
<!-- 21&#45;&gt;8 -->
<g id="edge21" class="edge"><title>21&#45;&gt;8</title>
<path fill="none" stroke="black" d="M227.931,-668.091C230.407,-658.288 233.907,-645.788 238,-635 239.198,-631.842 240.577,-628.582 242.019,-625.381"/>
<polygon fill="black" stroke="black" points="245.292,-626.649 246.425,-616.114 238.97,-623.643 245.292,-626.649"/>
</g>
<!-- 21&#45;&gt;20 -->
<g id="edge27" class="edge"><title>21&#45;&gt;20</title>
<path fill="none" stroke="black" d="M221.261,-703.912C218.979,-714.188 214.942,-727.174 208,-737 203.462,-743.424 197.391,-749.195 191.151,-754.11"/>
<polygon fill="black" stroke="black" points="188.706,-751.56 182.666,-760.265 192.816,-757.227 188.706,-751.56"/>
</g>
<!-- 22&#45;&gt;4 -->
<g id="edge49" class="edge"><title>22&#45;&gt;4</title>
<path fill="none" stroke="black" d="M263.685,-337.319C257.89,-331.429 252.051,-324.045 249,-316 246.183,-308.57 246.352,-300.153 247.751,-292.373"/>
<polygon fill="black" stroke="black" points="251.153,-293.195 250.149,-282.648 244.356,-291.519 251.153,-293.195"/>
<text text-anchor="middle" x="252.5" y="-304.8" font-family="Times New Roman,serif" font-size="14.00">k</text>
</g>
<!-- 23 -->
<g id="node24" class="node"><title>23</title>
<ellipse fill="none" stroke="black" cx="329" cy="-265" rx="27" ry="18"/>
<text text-anchor="middle" x="329" y="-261.3" font-family="Times New Roman,serif" font-size="14.00">e</text>
</g>
<!-- 22&#45;&gt;23 -->
<g id="edge57" class="edge"><title>22&#45;&gt;23</title>
<path fill="none" stroke="black" d="M289.217,-335.012C296.357,-322.625 306.382,-305.235 314.582,-291.011"/>
<polygon fill="black" stroke="black" points="317.696,-292.617 319.658,-282.205 311.632,-289.121 317.696,-292.617"/>
</g>
<!-- 25 -->
<g id="node26" class="node"><title>25</title>
<ellipse fill="none" stroke="black" cx="280" cy="-425" rx="27" ry="18"/>
<text text-anchor="middle" x="280" y="-421.3" font-family="Times New Roman,serif" font-size="14.00">e,k</text>
</g>
<!-- 22&#45;&gt;25 -->
<g id="edge7" class="edge"><title>22&#45;&gt;25</title>
<path fill="none" stroke="black" d="M285.827,-369.705C286.708,-377.822 286.959,-387.78 286.577,-396.942"/>
<polygon fill="black" stroke="black" points="283.068,-396.948 285.84,-407.174 290.05,-397.452 283.068,-396.948"/>
</g>
<!-- 23&#45;&gt;22 -->
<g id="edge58" class="edge"><title>23&#45;&gt;22</title>
<path fill="none" stroke="black" d="M323.747,-282.821C320.27,-292.821 315.209,-305.552 309,-316 306.463,-320.269 303.42,-324.555 300.274,-328.591"/>
<polygon fill="black" stroke="black" points="297.464,-326.498 293.8,-336.439 302.864,-330.952 297.464,-326.498"/>
<text text-anchor="middle" x="319" y="-304.8" font-family="Times New Roman,serif" font-size="14.00">l</text>
</g>
<!-- 24&#45;&gt;8 -->
<g id="edge16" class="edge"><title>24&#45;&gt;8</title>
<path fill="none" stroke="black" d="M275.071,-529.758C271.581,-541.625 266.827,-557.787 262.823,-571.403"/>
<polygon fill="black" stroke="black" points="259.403,-570.625 259.939,-581.207 266.119,-572.601 259.403,-570.625"/>
<text text-anchor="middle" x="271" y="-551.8" font-family="Times New Roman,serif" font-size="14.00">l</text>
</g>
<!-- 24&#45;&gt;25 -->
<g id="edge10" class="edge"><title>24&#45;&gt;25</title>
<path fill="none" stroke="black" d="M274.496,-494.207C273.184,-482.448 272.908,-466.485 273.668,-452.958"/>
<polygon fill="black" stroke="black" points="277.176,-453.01 274.5,-442.758 270.199,-452.441 277.176,-453.01"/>
</g>
<!-- 25&#45;&gt;22 -->
<g id="edge8" class="edge"><title>25&#45;&gt;22</title>
<path fill="none" stroke="black" d="M274.16,-407.174C273.285,-399.039 273.041,-389.076 273.428,-379.921"/>
<polygon fill="black" stroke="black" points="276.937,-379.933 274.173,-369.705 269.955,-379.424 276.937,-379.933"/>
</g>
<!-- 25&#45;&gt;24 -->
<g id="edge9" class="edge"><title>25&#45;&gt;24</title>
<path fill="none" stroke="black" d="M285.5,-442.758C286.814,-454.508 287.092,-470.47 286.334,-484.002"/>
<polygon fill="black" stroke="black" points="282.826,-483.956 285.504,-494.207 289.803,-484.524 282.826,-483.956"/>
</g>
<!-- 26&#45;&gt;3 -->
<g id="edge42" class="edge"><title>26&#45;&gt;3</title>
<path fill="none" stroke="black" d="M34.4973,-877.623C39.7591,-888.039 47.5351,-901.283 57,-911 64.2092,-918.401 73.2707,-924.975 81.9468,-930.37"/>
<polygon fill="black" stroke="black" points="80.3608,-933.497 90.7548,-935.55 83.9096,-927.464 80.3608,-933.497"/>
<text text-anchor="middle" x="59" y="-899.8" font-family="Times New Roman,serif" font-size="14.00">l</text>
</g>
</g>
</svg>
