<?xml version="1.0" encoding="UTF-8" standalone="no"?>
<!DOCTYPE svg PUBLIC "-//W3C//DTD SVG 1.1//EN"
 "http://www.w3.org/Graphics/SVG/1.1/DTD/svg11.dtd">
<!-- Generated by graphviz version 2.38.0 (20140413.2041)
 -->
<!-- Title: %3 Pages: 1 -->
<svg width="423pt" height="858pt"
 viewBox="0.00 0.00 423.00 858.00" xmlns="http://www.w3.org/2000/svg" xmlns:xlink="http://www.w3.org/1999/xlink">
<g id="graph0" class="graph" transform="scale(1 1) rotate(0) translate(4 854)">
<title>%3</title>
<polygon fill="white" stroke="none" points="-4,4 -4,-854 419,-854 419,4 -4,4"/>
<!-- 0 -->
<g id="node1" class="node"><title>0</title>
<ellipse fill="none" stroke="black" cx="192" cy="-832" rx="27" ry="18"/>
<text text-anchor="middle" x="192" y="-828.3" font-family="Times New Roman,serif" font-size="14.00">e</text>
</g>
<!-- 1 -->
<g id="node2" class="node"><title>1</title>
<ellipse fill="none" stroke="black" cx="99" cy="-759" rx="27" ry="18"/>
<text text-anchor="middle" x="99" y="-755.3" font-family="Times New Roman,serif" font-size="14.00">e</text>
</g>
<!-- 0&#45;&gt;1 -->
<g id="edge7" class="edge"><title>0&#45;&gt;1</title>
<path fill="none" stroke="black" d="M169.551,-821.681C157.489,-814.894 143.068,-805.299 131,-796 125.905,-792.074 120.628,-787.698 115.792,-783.386"/>
<polygon fill="black" stroke="black" points="117.879,-780.547 108.18,-776.283 113.103,-785.665 117.879,-780.547"/>
</g>
<!-- 2 -->
<g id="node3" class="node"><title>2</title>
<ellipse fill="none" stroke="black" cx="238" cy="-759" rx="27" ry="18"/>
<text text-anchor="middle" x="238" y="-755.3" font-family="Times New Roman,serif" font-size="14.00">e</text>
</g>
<!-- 0&#45;&gt;2 -->
<g id="edge10" class="edge"><title>0&#45;&gt;2</title>
<path fill="none" stroke="black" d="M197.061,-814.174C202.185,-804.691 209.777,-792.723 217.128,-782.449"/>
<polygon fill="black" stroke="black" points="220.024,-784.421 223.188,-774.309 214.409,-780.24 220.024,-784.421"/>
</g>
<!-- 3 -->
<g id="node4" class="node"><title>3</title>
<ellipse fill="none" stroke="black" cx="388" cy="-585" rx="27" ry="18"/>
<text text-anchor="middle" x="388" y="-581.3" font-family="Times New Roman,serif" font-size="14.00">e,i</text>
</g>
<!-- 0&#45;&gt;3 -->
<g id="edge41" class="edge"><title>0&#45;&gt;3</title>
<path fill="none" stroke="black" d="M212.338,-819.805C229.655,-809.776 254.72,-794.052 274,-777 312.024,-743.37 320.001,-732.342 348,-690 362.8,-667.618 365.572,-661.122 375,-636 377.773,-628.61 380.176,-620.393 382.135,-612.79"/>
<polygon fill="black" stroke="black" points="385.569,-613.482 384.525,-602.939 378.766,-611.831 385.569,-613.482"/>
<text text-anchor="middle" x="338.5" y="-711.8" font-family="Times New Roman,serif" font-size="14.00">k</text>
</g>
<!-- 16 -->
<g id="node17" class="node"><title>16</title>
<ellipse fill="none" stroke="black" cx="152" cy="-585" rx="27" ry="18"/>
<text text-anchor="middle" x="152" y="-581.3" font-family="Times New Roman,serif" font-size="14.00">e,k</text>
</g>
<!-- 0&#45;&gt;16 -->
<g id="edge6" class="edge"><title>0&#45;&gt;16</title>
<path fill="none" stroke="black" d="M185.619,-814.16C174.967,-772.563 157.07,-664.633 152.041,-613.56"/>
<polygon fill="black" stroke="black" points="155.5,-612.944 151.149,-603.284 148.527,-613.549 155.5,-612.944"/>
</g>
<!-- 1&#45;&gt;0 -->
<g id="edge8" class="edge"><title>1&#45;&gt;0</title>
<path fill="none" stroke="black" d="M118.918,-771.457C128.183,-778.752 138.945,-788.253 149,-796 155.401,-800.932 162.463,-805.947 169.045,-810.582"/>
<polygon fill="black" stroke="black" points="167.425,-813.723 177.615,-816.624 171.459,-808.002 167.425,-813.723"/>
</g>
<!-- 13 -->
<g id="node14" class="node"><title>13</title>
<ellipse fill="none" stroke="black" cx="99" cy="-672" rx="27" ry="18"/>
</g>
<!-- 1&#45;&gt;13 -->
<g id="edge20" class="edge"><title>1&#45;&gt;13</title>
<path fill="none" stroke="black" d="M93.4963,-741.207C92.1841,-729.448 91.9081,-713.485 92.6683,-699.958"/>
<polygon fill="black" stroke="black" points="96.1756,-700.01 93.5002,-689.758 89.1988,-699.441 96.1756,-700.01"/>
</g>
<!-- 15 -->
<g id="node16" class="node"><title>15</title>
<ellipse fill="none" stroke="black" cx="27" cy="-672" rx="27" ry="18"/>
<text text-anchor="middle" x="27" y="-668.3" font-family="Times New Roman,serif" font-size="14.00">e,k</text>
</g>
<!-- 1&#45;&gt;15 -->
<g id="edge32" class="edge"><title>1&#45;&gt;15</title>
<path fill="none" stroke="black" d="M78.9802,-746.608C69.5918,-740.521 58.7854,-732.354 51,-723 45.2194,-716.055 40.4518,-707.483 36.7313,-699.41"/>
<polygon fill="black" stroke="black" points="39.8455,-697.789 32.7147,-689.953 33.4025,-700.525 39.8455,-697.789"/>
<text text-anchor="middle" x="53" y="-711.8" font-family="Times New Roman,serif" font-size="14.00">l</text>
</g>
<!-- 2&#45;&gt;0 -->
<g id="edge9" class="edge"><title>2&#45;&gt;0</title>
<path fill="none" stroke="black" d="M232.929,-776.843C227.814,-786.308 220.243,-798.246 212.906,-808.503"/>
<polygon fill="black" stroke="black" points="210.019,-806.52 206.857,-816.632 215.635,-810.698 210.019,-806.52"/>
</g>
<!-- 4 -->
<g id="node5" class="node"><title>4</title>
<ellipse fill="none" stroke="black" cx="229" cy="-512" rx="27" ry="18"/>
<text text-anchor="middle" x="229" y="-508.3" font-family="Times New Roman,serif" font-size="14.00">e,k</text>
</g>
<!-- 2&#45;&gt;4 -->
<g id="edge34" class="edge"><title>2&#45;&gt;4</title>
<path fill="none" stroke="black" d="M234.803,-740.951C233.808,-735.257 232.772,-728.868 232,-723 221.855,-645.841 221.609,-625.7 226,-548 226.145,-545.443 226.322,-542.782 226.519,-540.122"/>
<polygon fill="black" stroke="black" points="230.014,-540.327 227.336,-530.076 223.037,-539.759 230.014,-540.327"/>
<text text-anchor="middle" x="225" y="-624.8" font-family="Times New Roman,serif" font-size="14.00">l</text>
</g>
<!-- 5 -->
<g id="node6" class="node"><title>5</title>
<ellipse fill="none" stroke="black" cx="312" cy="-672" rx="27" ry="18"/>
<text text-anchor="middle" x="312" y="-668.3" font-family="Times New Roman,serif" font-size="14.00">e,i</text>
</g>
<!-- 2&#45;&gt;5 -->
<g id="edge39" class="edge"><title>2&#45;&gt;5</title>
<path fill="none" stroke="black" d="M251.23,-742.804C262.595,-729.75 279.148,-710.735 292.109,-695.847"/>
<polygon fill="black" stroke="black" points="294.958,-697.905 298.885,-688.065 289.679,-693.309 294.958,-697.905"/>
<text text-anchor="middle" x="282.5" y="-711.8" font-family="Times New Roman,serif" font-size="14.00">k</text>
</g>
<!-- 3&#45;&gt;0 -->
<g id="edge42" class="edge"><title>3&#45;&gt;0</title>
<path fill="none" stroke="black" d="M391.031,-603.242C392.237,-612.934 392.933,-625.215 391,-636 378.091,-708.025 362.631,-730.663 306,-777 282.016,-796.624 249.716,-811.052 225.621,-820.033"/>
<polygon fill="black" stroke="black" points="224.395,-816.754 216.172,-823.434 226.766,-823.341 224.395,-816.754"/>
<text text-anchor="middle" x="372.5" y="-711.8" font-family="Times New Roman,serif" font-size="14.00">k</text>
</g>
<!-- 3&#45;&gt;5 -->
<g id="edge23" class="edge"><title>3&#45;&gt;5</title>
<path fill="none" stroke="black" d="M377.835,-602.019C371.055,-612.194 361.644,-625.396 352,-636 347.245,-641.229 341.754,-646.462 336.394,-651.229"/>
<polygon fill="black" stroke="black" points="334.029,-648.646 328.735,-657.824 338.597,-653.951 334.029,-648.646"/>
<text text-anchor="middle" x="367" y="-624.8" font-family="Times New Roman,serif" font-size="14.00">b</text>
</g>
<!-- 4&#45;&gt;2 -->
<g id="edge33" class="edge"><title>4&#45;&gt;2</title>
<path fill="none" stroke="black" d="M229.632,-530.209C231.171,-572.098 235.122,-679.651 236.991,-730.535"/>
<polygon fill="black" stroke="black" points="233.502,-730.907 237.367,-740.772 240.498,-730.65 233.502,-730.907"/>
</g>
<!-- 6 -->
<g id="node7" class="node"><title>6</title>
<ellipse fill="none" stroke="black" cx="177" cy="-439" rx="27" ry="18"/>
<text text-anchor="middle" x="177" y="-435.3" font-family="Times New Roman,serif" font-size="14.00">m,k</text>
</g>
<!-- 4&#45;&gt;6 -->
<g id="edge22" class="edge"><title>4&#45;&gt;6</title>
<path fill="none" stroke="black" d="M213.223,-496.973C205.403,-487.943 196.285,-475.944 189.025,-465.287"/>
<polygon fill="black" stroke="black" points="191.839,-463.196 183.433,-456.746 185.982,-467.03 191.839,-463.196"/>
</g>
<!-- 7 -->
<g id="node8" class="node"><title>7</title>
<ellipse fill="none" stroke="black" cx="307" cy="-585" rx="27.0966" ry="18"/>
<text text-anchor="middle" x="307" y="-581.3" font-family="Times New Roman,serif" font-size="14.00">p,e,I</text>
</g>
<!-- 4&#45;&gt;7 -->
<g id="edge12" class="edge"><title>4&#45;&gt;7</title>
<path fill="none" stroke="black" d="M247.782,-525.31C260.23,-535.256 276.256,-549.518 288.605,-561.493"/>
<polygon fill="black" stroke="black" points="286.192,-564.03 295.754,-568.594 291.126,-559.063 286.192,-564.03"/>
</g>
<!-- 5&#45;&gt;2 -->
<g id="edge40" class="edge"><title>5&#45;&gt;2</title>
<path fill="none" stroke="black" d="M307.168,-690.069C303.629,-700.403 298.03,-713.397 290,-723 283.797,-730.418 275.635,-736.903 267.621,-742.21"/>
<polygon fill="black" stroke="black" points="265.745,-739.255 259.084,-747.493 269.429,-745.207 265.745,-739.255"/>
<text text-anchor="middle" x="301.5" y="-711.8" font-family="Times New Roman,serif" font-size="14.00">k</text>
</g>
<!-- 5&#45;&gt;3 -->
<g id="edge24" class="edge"><title>5&#45;&gt;3</title>
<path fill="none" stroke="black" d="M320.97,-654.798C327.046,-644.549 335.649,-631.334 345,-621 350.062,-615.406 356.054,-609.957 361.934,-605.088"/>
<polygon fill="black" stroke="black" points="364.132,-607.812 369.783,-598.849 359.776,-602.332 364.132,-607.812"/>
<text text-anchor="middle" x="349" y="-624.8" font-family="Times New Roman,serif" font-size="14.00">b</text>
</g>
<!-- 5&#45;&gt;7 -->
<g id="edge25" class="edge"><title>5&#45;&gt;7</title>
<path fill="none" stroke="black" d="M296.72,-657.138C291.296,-651.222 285.836,-643.869 283,-636 279.739,-626.953 282.675,-617.355 287.47,-609.013"/>
<polygon fill="black" stroke="black" points="290.497,-610.784 293.196,-600.539 284.697,-606.864 290.497,-610.784"/>
<text text-anchor="middle" x="287" y="-624.8" font-family="Times New Roman,serif" font-size="14.00">b</text>
</g>
<!-- 6&#45;&gt;4 -->
<g id="edge21" class="edge"><title>6&#45;&gt;4</title>
<path fill="none" stroke="black" d="M192.619,-453.845C200.445,-462.862 209.6,-474.896 216.895,-485.596"/>
<polygon fill="black" stroke="black" points="214.108,-487.728 222.517,-494.174 219.963,-483.891 214.108,-487.728"/>
</g>
<!-- 9 -->
<g id="node10" class="node"><title>9</title>
<ellipse fill="none" stroke="black" cx="236" cy="-18" rx="27" ry="18"/>
<text text-anchor="middle" x="236" y="-14.3" font-family="Times New Roman,serif" font-size="14.00">p,e,i</text>
</g>
<!-- 6&#45;&gt;9 -->
<g id="edge13" class="edge"><title>6&#45;&gt;9</title>
<path fill="none" stroke="black" d="M150.543,-434.705C114.18,-428.197 54,-410.368 54,-367 54,-367 54,-367 54,-104 54,-41.7252 145.418,-25.0729 198.802,-20.6221"/>
<polygon fill="black" stroke="black" points="199.214,-24.1015 208.933,-19.8847 198.705,-17.12 199.214,-24.1015"/>
</g>
<!-- 18 -->
<g id="node19" class="node"><title>18</title>
<ellipse fill="none" stroke="black" cx="177" cy="-366" rx="27" ry="18"/>
<text text-anchor="middle" x="177" y="-362.3" font-family="Times New Roman,serif" font-size="14.00">e</text>
</g>
<!-- 6&#45;&gt;18 -->
<g id="edge15" class="edge"><title>6&#45;&gt;18</title>
<path fill="none" stroke="black" d="M171.16,-421.174C170.285,-413.039 170.041,-403.076 170.428,-393.921"/>
<polygon fill="black" stroke="black" points="173.937,-393.933 171.173,-383.705 166.955,-393.424 173.937,-393.933"/>
</g>
<!-- 7&#45;&gt;4 -->
<g id="edge11" class="edge"><title>7&#45;&gt;4</title>
<path fill="none" stroke="black" d="M288.147,-571.633C275.717,-561.696 259.741,-547.478 247.419,-535.531"/>
<polygon fill="black" stroke="black" points="249.846,-533.007 240.284,-528.444 244.913,-537.974 249.846,-533.007"/>
</g>
<!-- 7&#45;&gt;5 -->
<g id="edge26" class="edge"><title>7&#45;&gt;5</title>
<path fill="none" stroke="black" d="M308.01,-603.175C308.694,-614.806 309.613,-630.419 310.396,-643.734"/>
<polygon fill="black" stroke="black" points="306.907,-644.022 310.988,-653.799 313.895,-643.611 306.907,-644.022"/>
<text text-anchor="middle" x="313" y="-624.8" font-family="Times New Roman,serif" font-size="14.00">b</text>
</g>
<!-- 7&#45;&gt;9 -->
<g id="edge27" class="edge"><title>7&#45;&gt;9</title>
<path fill="none" stroke="black" d="M315.434,-567.84C321.998,-553.752 330,-532.565 330,-513 330,-513 330,-513 330,-104 330,-69.7541 295.251,-45.7297 268.009,-32.157"/>
<polygon fill="black" stroke="black" points="269.292,-28.8927 258.755,-27.7924 266.306,-35.2239 269.292,-28.8927"/>
<text text-anchor="middle" x="334" y="-318.8" font-family="Times New Roman,serif" font-size="14.00">b</text>
</g>
<!-- 8 -->
<g id="node9" class="node"><title>8</title>
<ellipse fill="none" stroke="black" cx="237" cy="-192" rx="27" ry="18"/>
</g>
<!-- 10 -->
<g id="node11" class="node"><title>10</title>
<ellipse fill="none" stroke="black" cx="237" cy="-105" rx="27" ry="18"/>
<text text-anchor="middle" x="237" y="-101.3" font-family="Times New Roman,serif" font-size="14.00">e</text>
</g>
<!-- 8&#45;&gt;10 -->
<g id="edge18" class="edge"><title>8&#45;&gt;10</title>
<path fill="none" stroke="black" d="M231.496,-174.207C230.184,-162.448 229.908,-146.485 230.668,-132.958"/>
<polygon fill="black" stroke="black" points="234.176,-133.01 231.5,-122.758 227.199,-132.441 234.176,-133.01"/>
</g>
<!-- 17 -->
<g id="node18" class="node"><title>17</title>
<ellipse fill="none" stroke="black" cx="184" cy="-279" rx="27" ry="18"/>
<text text-anchor="middle" x="184" y="-275.3" font-family="Times New Roman,serif" font-size="14.00">e,i</text>
</g>
<!-- 8&#45;&gt;17 -->
<g id="edge43" class="edge"><title>8&#45;&gt;17</title>
<path fill="none" stroke="black" d="M224.291,-208.25C219.557,-214.236 214.296,-221.273 210,-228 205.133,-235.621 200.392,-244.256 196.319,-252.18"/>
<polygon fill="black" stroke="black" points="193.063,-250.867 191.72,-261.377 199.324,-253.998 193.063,-250.867"/>
<text text-anchor="middle" x="214" y="-231.8" font-family="Times New Roman,serif" font-size="14.00">b</text>
</g>
<!-- 9&#45;&gt;6 -->
<g id="edge14" class="edge"><title>9&#45;&gt;6</title>
<path fill="none" stroke="black" d="M209.063,-20.7019C162.346,-25.2703 72,-42.0913 72,-104 72,-367 72,-367 72,-367 72,-401.984 111.159,-420.349 141.764,-429.558"/>
<polygon fill="black" stroke="black" points="141.174,-433.027 151.746,-432.341 143.054,-426.284 141.174,-433.027"/>
</g>
<!-- 9&#45;&gt;7 -->
<g id="edge28" class="edge"><title>9&#45;&gt;7</title>
<path fill="none" stroke="black" d="M261.764,-23.5561C300.179,-31.9975 368,-53.9835 368,-104 368,-513 368,-513 368,-513 368,-535.004 350.936,-553.593 334.859,-566.225"/>
<polygon fill="black" stroke="black" points="332.617,-563.528 326.637,-572.273 336.766,-569.167 332.617,-563.528"/>
<text text-anchor="middle" x="372" y="-318.8" font-family="Times New Roman,serif" font-size="14.00">b</text>
</g>
<!-- 9&#45;&gt;10 -->
<g id="edge29" class="edge"><title>9&#45;&gt;10</title>
<path fill="none" stroke="black" d="M236.202,-36.1754C236.339,-47.806 236.523,-63.4194 236.679,-76.7339"/>
<polygon fill="black" stroke="black" points="233.18,-76.8409 236.798,-86.799 240.18,-76.7585 233.18,-76.8409"/>
<text text-anchor="middle" x="240" y="-57.8" font-family="Times New Roman,serif" font-size="14.00">b</text>
</g>
<!-- 10&#45;&gt;8 -->
<g id="edge17" class="edge"><title>10&#45;&gt;8</title>
<path fill="none" stroke="black" d="M242.5,-122.758C243.814,-134.508 244.092,-150.47 243.334,-164.002"/>
<polygon fill="black" stroke="black" points="239.826,-163.956 242.504,-174.207 246.803,-164.524 239.826,-163.956"/>
</g>
<!-- 10&#45;&gt;9 -->
<g id="edge30" class="edge"><title>10&#45;&gt;9</title>
<path fill="none" stroke="black" d="M229.541,-87.6051C227.292,-81.8466 225.124,-75.2522 224,-69 222.61,-61.2681 223.594,-52.9436 225.484,-45.3477"/>
<polygon fill="black" stroke="black" points="228.898,-46.1519 228.484,-35.5652 222.206,-44.0993 228.898,-46.1519"/>
<text text-anchor="middle" x="228" y="-57.8" font-family="Times New Roman,serif" font-size="14.00">b</text>
</g>
<!-- 10&#45;&gt;18 -->
<g id="edge38" class="edge"><title>10&#45;&gt;18</title>
<path fill="none" stroke="black" d="M248.25,-121.611C252.242,-127.522 256.586,-134.416 260,-141 274.364,-168.704 281.431,-179.954 273,-210 258.367,-262.147 220.407,-313.831 196.841,-342.374"/>
<polygon fill="black" stroke="black" points="194.077,-340.223 190.319,-350.129 199.434,-344.728 194.077,-340.223"/>
<text text-anchor="middle" x="269.5" y="-231.8" font-family="Times New Roman,serif" font-size="14.00">k</text>
</g>
<!-- 11 -->
<g id="node12" class="node"><title>11</title>
<ellipse fill="none" stroke="black" cx="165" cy="-192" rx="27" ry="18"/>
<text text-anchor="middle" x="165" y="-188.3" font-family="Times New Roman,serif" font-size="14.00">b</text>
</g>
<!-- 12 -->
<g id="node13" class="node"><title>12</title>
<ellipse fill="none" stroke="black" cx="127" cy="-105" rx="27" ry="18"/>
<text text-anchor="middle" x="127" y="-101.3" font-family="Times New Roman,serif" font-size="14.00">t</text>
</g>
<!-- 11&#45;&gt;12 -->
<g id="edge35" class="edge"><title>11&#45;&gt;12</title>
<path fill="none" stroke="black" d="M157.673,-174.611C152.259,-162.499 144.779,-145.768 138.561,-131.86"/>
<polygon fill="black" stroke="black" points="141.581,-130.039 134.304,-122.339 135.19,-132.896 141.581,-130.039"/>
</g>
<!-- 11&#45;&gt;17 -->
<g id="edge45" class="edge"><title>11&#45;&gt;17</title>
<path fill="none" stroke="black" d="M160.021,-210C157.944,-219.834 156.694,-232.334 160,-243 161.217,-246.926 163.043,-250.802 165.154,-254.465"/>
<polygon fill="black" stroke="black" points="162.38,-256.615 170.809,-263.034 168.223,-252.76 162.38,-256.615"/>
<text text-anchor="middle" x="162" y="-231.8" font-family="Times New Roman,serif" font-size="14.00">l</text>
</g>
<!-- 12&#45;&gt;11 -->
<g id="edge36" class="edge"><title>12&#45;&gt;11</title>
<path fill="none" stroke="black" d="M127.932,-123.321C128.992,-133.262 131.242,-145.762 136,-156 138.093,-160.504 140.91,-164.909 143.968,-168.991"/>
<polygon fill="black" stroke="black" points="141.373,-171.347 150.429,-176.846 146.779,-166.899 141.373,-171.347"/>
<text text-anchor="middle" x="138" y="-144.8" font-family="Times New Roman,serif" font-size="14.00">l</text>
</g>
<!-- 13&#45;&gt;1 -->
<g id="edge19" class="edge"><title>13&#45;&gt;1</title>
<path fill="none" stroke="black" d="M104.5,-689.758C105.814,-701.508 106.092,-717.47 105.334,-731.002"/>
<polygon fill="black" stroke="black" points="101.826,-730.956 104.504,-741.207 108.803,-731.524 101.826,-730.956"/>
</g>
<!-- 14 -->
<g id="node15" class="node"><title>14</title>
<ellipse fill="none" stroke="black" cx="77" cy="-585" rx="27" ry="18"/>
<text text-anchor="middle" x="77" y="-581.3" font-family="Times New Roman,serif" font-size="14.00">s</text>
</g>
<!-- 13&#45;&gt;14 -->
<g id="edge2" class="edge"><title>13&#45;&gt;14</title>
<path fill="none" stroke="black" d="M89.4505,-655.012C85.0072,-643.209 80.4682,-626.863 77.6628,-613.042"/>
<polygon fill="black" stroke="black" points="81.0879,-612.313 75.8857,-603.083 74.1967,-613.542 81.0879,-612.313"/>
</g>
<!-- 13&#45;&gt;16 -->
<g id="edge3" class="edge"><title>13&#45;&gt;16</title>
<path fill="none" stroke="black" d="M103.967,-654.207C110.613,-641.225 121.718,-623.118 131.709,-608.823"/>
<polygon fill="black" stroke="black" points="134.708,-610.648 137.736,-600.494 129.037,-606.544 134.708,-610.648"/>
</g>
<!-- 14&#45;&gt;13 -->
<g id="edge1" class="edge"><title>14&#45;&gt;13</title>
<path fill="none" stroke="black" d="M86.5636,-602.025C90.9918,-613.798 95.5132,-630.074 98.3171,-643.859"/>
<polygon fill="black" stroke="black" points="94.8891,-644.572 100.097,-653.799 101.78,-643.339 94.8891,-644.572"/>
</g>
<!-- 15&#45;&gt;1 -->
<g id="edge31" class="edge"><title>15&#45;&gt;1</title>
<path fill="none" stroke="black" d="M39.7607,-688.065C50.7843,-701.079 66.8851,-720.087 79.5196,-735.002"/>
<polygon fill="black" stroke="black" points="76.9937,-737.435 86.1278,-742.804 82.335,-732.911 76.9937,-737.435"/>
</g>
<!-- 16&#45;&gt;0 -->
<g id="edge5" class="edge"><title>16&#45;&gt;0</title>
<path fill="none" stroke="black" d="M158.309,-602.561C168.978,-644.051 187.004,-752.764 191.995,-803.802"/>
<polygon fill="black" stroke="black" points="188.508,-804.11 192.855,-813.772 195.482,-803.508 188.508,-804.11"/>
</g>
<!-- 16&#45;&gt;13 -->
<g id="edge4" class="edge"><title>16&#45;&gt;13</title>
<path fill="none" stroke="black" d="M147.014,-602.83C140.354,-615.833 129.232,-633.962 119.236,-648.256"/>
<polygon fill="black" stroke="black" points="116.238,-646.429 113.208,-656.581 121.908,-650.534 116.238,-646.429"/>
</g>
<!-- 17&#45;&gt;8 -->
<g id="edge44" class="edge"><title>17&#45;&gt;8</title>
<path fill="none" stroke="black" d="M199.469,-264.054C205.514,-258.019 212.146,-250.602 217,-243 221.599,-235.797 225.464,-227.364 228.532,-219.496"/>
<polygon fill="black" stroke="black" points="231.868,-220.564 231.988,-209.969 225.287,-218.176 231.868,-220.564"/>
<text text-anchor="middle" x="228" y="-231.8" font-family="Times New Roman,serif" font-size="14.00">b</text>
</g>
<!-- 17&#45;&gt;11 -->
<g id="edge46" class="edge"><title>17&#45;&gt;11</title>
<path fill="none" stroke="black" d="M180.155,-260.799C177.537,-249.086 174.018,-233.342 171.03,-219.974"/>
<polygon fill="black" stroke="black" points="174.372,-218.881 168.774,-209.885 167.54,-220.408 174.372,-218.881"/>
<text text-anchor="middle" x="178" y="-231.8" font-family="Times New Roman,serif" font-size="14.00">l</text>
</g>
<!-- 17&#45;&gt;18 -->
<g id="edge47" class="edge"><title>17&#45;&gt;18</title>
<path fill="none" stroke="black" d="M179.317,-296.958C177.964,-302.646 176.671,-309.054 176,-315 175.176,-322.304 175.006,-330.245 175.148,-337.603"/>
<polygon fill="black" stroke="black" points="171.659,-337.965 175.539,-347.824 178.654,-337.697 171.659,-337.965"/>
<text text-anchor="middle" x="178" y="-318.8" font-family="Times New Roman,serif" font-size="14.00">l</text>
</g>
<!-- 18&#45;&gt;6 -->
<g id="edge16" class="edge"><title>18&#45;&gt;6</title>
<path fill="none" stroke="black" d="M182.827,-383.705C183.708,-391.822 183.959,-401.78 183.577,-410.942"/>
<polygon fill="black" stroke="black" points="180.068,-410.948 182.84,-421.174 187.05,-411.452 180.068,-410.948"/>
</g>
<!-- 18&#45;&gt;10 -->
<g id="edge37" class="edge"><title>18&#45;&gt;10</title>
<path fill="none" stroke="black" d="M165.859,-349.414C143.124,-315.526 96.198,-233.415 129,-174 144.693,-145.574 177.811,-127.409 203.261,-117.073"/>
<polygon fill="black" stroke="black" points="204.848,-120.213 212.932,-113.365 202.342,-113.677 204.848,-120.213"/>
<text text-anchor="middle" x="123.5" y="-231.8" font-family="Times New Roman,serif" font-size="14.00">k</text>
</g>
<!-- 18&#45;&gt;17 -->
<g id="edge48" class="edge"><title>18&#45;&gt;17</title>
<path fill="none" stroke="black" d="M178.417,-347.799C179.375,-336.163 180.661,-320.548 181.757,-307.237"/>
<polygon fill="black" stroke="black" points="185.253,-307.429 182.586,-297.175 178.277,-306.854 185.253,-307.429"/>
<text text-anchor="middle" x="183" y="-318.8" font-family="Times New Roman,serif" font-size="14.00">l</text>
</g>
</g>
</svg>
