<?xml version="1.0" encoding="UTF-8" standalone="no"?>
<!DOCTYPE svg PUBLIC "-//W3C//DTD SVG 1.1//EN"
 "http://www.w3.org/Graphics/SVG/1.1/DTD/svg11.dtd">
<!-- Generated by graphviz version 2.38.0 (20140413.2041)
 -->
<!-- Title: %3 Pages: 1 -->
<svg width="502pt" height="1220pt"
 viewBox="0.00 0.00 502.00 1220.00" xmlns="http://www.w3.org/2000/svg" xmlns:xlink="http://www.w3.org/1999/xlink">
<g id="graph0" class="graph" transform="scale(1 1) rotate(0) translate(4 1216)">
<title>%3</title>
<polygon fill="white" stroke="none" points="-4,4 -4,-1216 498,-1216 498,4 -4,4"/>
<!-- 0 -->
<g id="node1" class="node"><title>0</title>
<ellipse fill="none" stroke="black" cx="393" cy="-1194" rx="27" ry="18"/>
<text text-anchor="middle" x="393" y="-1190.3" font-family="Times New Roman,serif" font-size="14.00">e</text>
</g>
<!-- 22 -->
<g id="node23" class="node"><title>22</title>
<ellipse fill="none" stroke="black" cx="393" cy="-1107" rx="27" ry="18"/>
<text text-anchor="middle" x="393" y="-1103.3" font-family="Times New Roman,serif" font-size="14.00">b</text>
</g>
<!-- 0&#45;&gt;22 -->
<g id="edge41" class="edge"><title>0&#45;&gt;22</title>
<path fill="none" stroke="black" d="M388.576,-1175.92C386.59,-1166.27 384.912,-1153.99 386,-1143 386.256,-1140.41 386.617,-1137.73 387.041,-1135.05"/>
<polygon fill="black" stroke="black" points="390.525,-1135.46 388.902,-1124.99 383.642,-1134.19 390.525,-1135.46"/>
<text text-anchor="middle" x="388" y="-1146.8" font-family="Times New Roman,serif" font-size="14.00">l</text>
</g>
<!-- 1 -->
<g id="node2" class="node"><title>1</title>
<ellipse fill="none" stroke="black" cx="391" cy="-627" rx="27" ry="18"/>
<text text-anchor="middle" x="391" y="-623.3" font-family="Times New Roman,serif" font-size="14.00">e,p</text>
</g>
<!-- 15 -->
<g id="node16" class="node"><title>15</title>
<ellipse fill="none" stroke="black" cx="375" cy="-540" rx="27" ry="18"/>
<text text-anchor="middle" x="375" y="-536.3" font-family="Times New Roman,serif" font-size="14.00">m</text>
</g>
<!-- 1&#45;&gt;15 -->
<g id="edge8" class="edge"><title>1&#45;&gt;15</title>
<path fill="none" stroke="black" d="M382.457,-609.611C378.93,-597.963 375.632,-582.042 373.811,-568.469"/>
<polygon fill="black" stroke="black" points="377.256,-567.774 372.69,-558.214 370.297,-568.535 377.256,-567.774"/>
</g>
<!-- 17 -->
<g id="node18" class="node"><title>17</title>
<ellipse fill="none" stroke="black" cx="454" cy="-700" rx="27" ry="18"/>
<text text-anchor="middle" x="454" y="-696.3" font-family="Times New Roman,serif" font-size="14.00">e,k</text>
</g>
<!-- 1&#45;&gt;17 -->
<g id="edge9" class="edge"><title>1&#45;&gt;17</title>
<path fill="none" stroke="black" d="M408.098,-641.196C417.868,-650.682 429.798,-663.739 439.165,-675.043"/>
<polygon fill="black" stroke="black" points="436.475,-677.283 445.465,-682.889 441.933,-672.9 436.475,-677.283"/>
</g>
<!-- 2 -->
<g id="node3" class="node"><title>2</title>
<ellipse fill="none" stroke="black" cx="206" cy="-105" rx="27" ry="18"/>
<text text-anchor="middle" x="206" y="-101.3" font-family="Times New Roman,serif" font-size="14.00">e,p</text>
</g>
<!-- 3 -->
<g id="node4" class="node"><title>3</title>
<ellipse fill="none" stroke="black" cx="242" cy="-192" rx="27" ry="18"/>
<text text-anchor="middle" x="242" y="-188.3" font-family="Times New Roman,serif" font-size="14.00">p</text>
</g>
<!-- 2&#45;&gt;3 -->
<g id="edge36" class="edge"><title>2&#45;&gt;3</title>
<path fill="none" stroke="black" d="M212.975,-122.469C218.053,-134.458 225.034,-150.942 230.877,-164.738"/>
<polygon fill="black" stroke="black" points="227.765,-166.364 234.888,-174.207 234.21,-163.634 227.765,-166.364"/>
<text text-anchor="middle" x="230.5" y="-144.8" font-family="Times New Roman,serif" font-size="14.00">k</text>
</g>
<!-- 6 -->
<g id="node7" class="node"><title>6</title>
<ellipse fill="none" stroke="black" cx="213" cy="-18" rx="27" ry="18"/>
<text text-anchor="middle" x="213" y="-14.3" font-family="Times New Roman,serif" font-size="14.00">I</text>
</g>
<!-- 2&#45;&gt;6 -->
<g id="edge37" class="edge"><title>2&#45;&gt;6</title>
<path fill="none" stroke="black" d="M206.254,-86.8474C206.506,-77.1838 207.006,-64.901 208,-54 208.234,-51.4327 208.526,-48.7656 208.85,-46.1008"/>
<polygon fill="black" stroke="black" points="212.338,-46.4277 210.209,-36.049 205.401,-45.49 212.338,-46.4277"/>
<text text-anchor="middle" x="210" y="-57.8" font-family="Times New Roman,serif" font-size="14.00">l</text>
</g>
<!-- 3&#45;&gt;2 -->
<g id="edge35" class="edge"><title>3&#45;&gt;2</title>
<path fill="none" stroke="black" d="M221.805,-179.685C213.42,-173.811 204.59,-165.799 200,-156 196.686,-148.924 196.417,-140.694 197.471,-132.979"/>
<polygon fill="black" stroke="black" points="200.951,-133.438 199.567,-122.934 194.098,-132.008 200.951,-133.438"/>
<text text-anchor="middle" x="203.5" y="-144.8" font-family="Times New Roman,serif" font-size="14.00">k</text>
</g>
<!-- 14 -->
<g id="node15" class="node"><title>14</title>
<ellipse fill="none" stroke="black" cx="254" cy="-279" rx="27" ry="18"/>
<text text-anchor="middle" x="254" y="-275.3" font-family="Times New Roman,serif" font-size="14.00">e,p</text>
</g>
<!-- 3&#45;&gt;14 -->
<g id="edge51" class="edge"><title>3&#45;&gt;14</title>
<path fill="none" stroke="black" d="M244.425,-210.175C246.067,-221.806 248.271,-237.419 250.151,-250.734"/>
<polygon fill="black" stroke="black" points="246.708,-251.386 251.572,-260.799 253.639,-250.408 246.708,-251.386"/>
<text text-anchor="middle" x="251" y="-231.8" font-family="Times New Roman,serif" font-size="14.00">l</text>
</g>
<!-- 24 -->
<g id="node25" class="node"><title>24</title>
<ellipse fill="none" stroke="black" cx="282" cy="-105" rx="27" ry="18"/>
<text text-anchor="middle" x="282" y="-101.3" font-family="Times New Roman,serif" font-size="14.00">e</text>
</g>
<!-- 3&#45;&gt;24 -->
<g id="edge28" class="edge"><title>3&#45;&gt;24</title>
<path fill="none" stroke="black" d="M247.121,-173.962C250.328,-164.116 254.828,-151.616 260,-141 261.753,-137.401 263.787,-133.709 265.896,-130.134"/>
<polygon fill="black" stroke="black" points="268.884,-131.958 271.175,-121.614 262.933,-128.271 268.884,-131.958"/>
<text text-anchor="middle" x="263.5" y="-144.8" font-family="Times New Roman,serif" font-size="14.00">k</text>
</g>
<!-- 4 -->
<g id="node5" class="node"><title>4</title>
<ellipse fill="none" stroke="black" cx="359" cy="-1020" rx="27" ry="18"/>
<text text-anchor="middle" x="359" y="-1016.3" font-family="Times New Roman,serif" font-size="14.00">t</text>
</g>
<!-- 4&#45;&gt;22 -->
<g id="edge40" class="edge"><title>4&#45;&gt;22</title>
<path fill="none" stroke="black" d="M365.588,-1037.47C370.383,-1049.46 376.977,-1065.94 382.495,-1079.74"/>
<polygon fill="black" stroke="black" points="379.319,-1081.22 386.283,-1089.21 385.818,-1078.62 379.319,-1081.22"/>
<text text-anchor="middle" x="381" y="-1059.8" font-family="Times New Roman,serif" font-size="14.00">l</text>
</g>
<!-- 5 -->
<g id="node6" class="node"><title>5</title>
<ellipse fill="none" stroke="black" cx="380" cy="-933" rx="27" ry="18"/>
</g>
<!-- 21 -->
<g id="node22" class="node"><title>21</title>
<ellipse fill="none" stroke="black" cx="434" cy="-1020" rx="27" ry="18"/>
<text text-anchor="middle" x="434" y="-1016.3" font-family="Times New Roman,serif" font-size="14.00">e</text>
</g>
<!-- 5&#45;&gt;21 -->
<g id="edge24" class="edge"><title>5&#45;&gt;21</title>
<path fill="none" stroke="black" d="M390.111,-949.916C398.019,-962.363 409.155,-979.892 418.231,-994.178"/>
<polygon fill="black" stroke="black" points="415.526,-996.448 423.843,-1003.01 421.435,-992.695 415.526,-996.448"/>
<text text-anchor="middle" x="415" y="-972.8" font-family="Times New Roman,serif" font-size="14.00">b</text>
</g>
<!-- 6&#45;&gt;2 -->
<g id="edge38" class="edge"><title>6&#45;&gt;2</title>
<path fill="none" stroke="black" d="M211.586,-36.1754C210.628,-47.806 209.342,-63.4194 208.245,-76.7339"/>
<polygon fill="black" stroke="black" points="204.749,-76.5454 207.417,-86.799 211.726,-77.12 204.749,-76.5454"/>
<text text-anchor="middle" x="212" y="-57.8" font-family="Times New Roman,serif" font-size="14.00">l</text>
</g>
<!-- 7 -->
<g id="node8" class="node"><title>7</title>
<ellipse fill="none" stroke="black" cx="454" cy="-773" rx="27" ry="18"/>
<text text-anchor="middle" x="454" y="-769.3" font-family="Times New Roman,serif" font-size="14.00">e,i,p</text>
</g>
<!-- 7&#45;&gt;17 -->
<g id="edge12" class="edge"><title>7&#45;&gt;17</title>
<path fill="none" stroke="black" d="M448.16,-755.174C447.285,-747.039 447.041,-737.076 447.428,-727.921"/>
<polygon fill="black" stroke="black" points="450.937,-727.933 448.173,-717.705 443.955,-727.424 450.937,-727.933"/>
</g>
<!-- 19 -->
<g id="node20" class="node"><title>19</title>
<ellipse fill="none" stroke="black" cx="454" cy="-846" rx="27" ry="18"/>
<text text-anchor="middle" x="454" y="-842.3" font-family="Times New Roman,serif" font-size="14.00">e</text>
</g>
<!-- 7&#45;&gt;19 -->
<g id="edge14" class="edge"><title>7&#45;&gt;19</title>
<path fill="none" stroke="black" d="M459.827,-790.705C460.708,-798.822 460.959,-808.78 460.577,-817.942"/>
<polygon fill="black" stroke="black" points="457.068,-817.948 459.84,-828.174 464.05,-818.452 457.068,-817.948"/>
</g>
<!-- 8 -->
<g id="node9" class="node"><title>8</title>
<ellipse fill="none" stroke="black" cx="27" cy="-279" rx="27" ry="18"/>
<text text-anchor="middle" x="27" y="-275.3" font-family="Times New Roman,serif" font-size="14.00">s</text>
</g>
<!-- 10 -->
<g id="node11" class="node"><title>10</title>
<ellipse fill="none" stroke="black" cx="101" cy="-366" rx="27" ry="18"/>
</g>
<!-- 8&#45;&gt;10 -->
<g id="edge1" class="edge"><title>8&#45;&gt;10</title>
<path fill="none" stroke="black" d="M43.6132,-293.27C56.3689,-305.876 73.5097,-325.136 85.872,-340.526"/>
<polygon fill="black" stroke="black" points="83.2747,-342.887 92.1901,-348.611 88.7903,-338.577 83.2747,-342.887"/>
</g>
<!-- 9 -->
<g id="node10" class="node"><title>9</title>
<ellipse fill="none" stroke="black" cx="101" cy="-279" rx="28.6953" ry="18"/>
<text text-anchor="middle" x="101" y="-275.3" font-family="Times New Roman,serif" font-size="14.00">e,k,p</text>
</g>
<!-- 9&#45;&gt;10 -->
<g id="edge4" class="edge"><title>9&#45;&gt;10</title>
<path fill="none" stroke="black" d="M106.5,-296.758C107.814,-308.508 108.092,-324.47 107.334,-338.002"/>
<polygon fill="black" stroke="black" points="103.826,-337.956 106.504,-348.207 110.803,-338.524 103.826,-337.956"/>
</g>
<!-- 11 -->
<g id="node12" class="node"><title>11</title>
<ellipse fill="none" stroke="black" cx="146" cy="-192" rx="27" ry="18"/>
</g>
<!-- 9&#45;&gt;11 -->
<g id="edge17" class="edge"><title>9&#45;&gt;11</title>
<path fill="none" stroke="black" d="M98.7587,-260.918C98.2064,-250.825 98.9004,-238.089 104,-228 107.279,-221.512 112.356,-215.773 117.861,-210.916"/>
<polygon fill="black" stroke="black" points="120.385,-213.384 126.074,-204.446 116.053,-207.885 120.385,-213.384"/>
<text text-anchor="middle" x="108" y="-231.8" font-family="Times New Roman,serif" font-size="14.00">b</text>
</g>
<!-- 10&#45;&gt;8 -->
<g id="edge2" class="edge"><title>10&#45;&gt;8</title>
<path fill="none" stroke="black" d="M84.375,-351.719C71.5402,-339.033 54.2704,-319.616 41.8951,-304.183"/>
<polygon fill="black" stroke="black" points="44.4918,-301.822 35.5827,-296.088 38.9715,-306.126 44.4918,-301.822"/>
</g>
<!-- 10&#45;&gt;9 -->
<g id="edge3" class="edge"><title>10&#45;&gt;9</title>
<path fill="none" stroke="black" d="M95.4963,-348.207C94.1841,-336.448 93.9081,-320.485 94.6683,-306.958"/>
<polygon fill="black" stroke="black" points="98.1756,-307.01 95.5002,-296.758 91.1988,-306.441 98.1756,-307.01"/>
</g>
<!-- 12 -->
<g id="node13" class="node"><title>12</title>
<ellipse fill="none" stroke="black" cx="207" cy="-453" rx="27" ry="18"/>
<text text-anchor="middle" x="207" y="-449.3" font-family="Times New Roman,serif" font-size="14.00">e</text>
</g>
<!-- 10&#45;&gt;12 -->
<g id="edge5" class="edge"><title>10&#45;&gt;12</title>
<path fill="none" stroke="black" d="M117.75,-380.473C127.545,-391.256 139.865,-406.295 153,-417 161.134,-423.629 170.7,-429.671 179.571,-434.8"/>
<polygon fill="black" stroke="black" points="178.04,-437.954 188.473,-439.799 181.468,-431.851 178.04,-437.954"/>
</g>
<!-- 11&#45;&gt;9 -->
<g id="edge18" class="edge"><title>11&#45;&gt;9</title>
<path fill="none" stroke="black" d="M137.35,-209.339C130.883,-221.555 121.916,-238.491 114.507,-252.486"/>
<polygon fill="black" stroke="black" points="111.262,-251.136 109.676,-261.611 117.449,-254.411 111.262,-251.136"/>
<text text-anchor="middle" x="131" y="-231.8" font-family="Times New Roman,serif" font-size="14.00">b</text>
</g>
<!-- 11&#45;&gt;12 -->
<g id="edge50" class="edge"><title>11&#45;&gt;12</title>
<path fill="none" stroke="black" d="M153.874,-209.475C156.41,-215.24 159.062,-221.818 161,-228 182.736,-297.351 196.908,-382.062 203.219,-424.702"/>
<polygon fill="black" stroke="black" points="199.79,-425.448 204.688,-434.843 206.718,-424.444 199.79,-425.448"/>
<text text-anchor="middle" x="190.5" y="-318.8" font-family="Times New Roman,serif" font-size="14.00">k</text>
</g>
<!-- 12&#45;&gt;10 -->
<g id="edge6" class="edge"><title>12&#45;&gt;10</title>
<path fill="none" stroke="black" d="M182.92,-444.687C167.914,-438.435 149.257,-428.62 135,-417 126.214,-409.839 117.792,-400.739 111.288,-392.271"/>
<polygon fill="black" stroke="black" points="114.13,-390.227 105.481,-384.108 108.426,-394.286 114.13,-390.227"/>
</g>
<!-- 12&#45;&gt;11 -->
<g id="edge49" class="edge"><title>12&#45;&gt;11</title>
<path fill="none" stroke="black" d="M193.929,-436.872C189.499,-431.013 184.934,-424.029 182,-417 154.022,-349.984 147.671,-263.309 146.307,-220.054"/>
<polygon fill="black" stroke="black" points="149.805,-219.941 146.058,-210.031 142.807,-220.115 149.805,-219.941"/>
<text text-anchor="middle" x="161.5" y="-318.8" font-family="Times New Roman,serif" font-size="14.00">k</text>
</g>
<!-- 13 -->
<g id="node14" class="node"><title>13</title>
<ellipse fill="none" stroke="black" cx="258" cy="-366" rx="27" ry="18"/>
<text text-anchor="middle" x="258" y="-362.3" font-family="Times New Roman,serif" font-size="14.00">e</text>
</g>
<!-- 12&#45;&gt;13 -->
<g id="edge22" class="edge"><title>12&#45;&gt;13</title>
<path fill="none" stroke="black" d="M213.946,-435.33C218.346,-425.384 224.433,-412.656 231,-402 233.421,-398.072 236.194,-394.058 239.02,-390.216"/>
<polygon fill="black" stroke="black" points="241.874,-392.245 245.176,-382.178 236.317,-387.989 241.874,-392.245"/>
<text text-anchor="middle" x="235" y="-405.8" font-family="Times New Roman,serif" font-size="14.00">b</text>
</g>
<!-- 12&#45;&gt;15 -->
<g id="edge43" class="edge"><title>12&#45;&gt;15</title>
<path fill="none" stroke="black" d="M227.937,-464.593C257.444,-479.522 311.416,-506.83 345.128,-523.886"/>
<polygon fill="black" stroke="black" points="343.559,-527.015 354.062,-528.407 346.72,-520.769 343.559,-527.015"/>
<text text-anchor="middle" x="304" y="-492.8" font-family="Times New Roman,serif" font-size="14.00">l</text>
</g>
<!-- 13&#45;&gt;12 -->
<g id="edge21" class="edge"><title>13&#45;&gt;12</title>
<path fill="none" stroke="black" d="M252.871,-383.896C249.438,-393.923 244.381,-406.656 238,-417 235.247,-421.463 231.91,-425.901 228.459,-430.044"/>
<polygon fill="black" stroke="black" points="225.803,-427.764 221.804,-437.575 231.049,-432.399 225.803,-427.764"/>
<text text-anchor="middle" x="250" y="-405.8" font-family="Times New Roman,serif" font-size="14.00">b</text>
</g>
<!-- 13&#45;&gt;14 -->
<g id="edge19" class="edge"><title>13&#45;&gt;14</title>
<path fill="none" stroke="black" d="M242.202,-351.227C236.593,-345.324 230.943,-337.956 228,-330 224.574,-320.738 227.891,-311.006 233.167,-302.616"/>
<polygon fill="black" stroke="black" points="236.078,-304.565 239.174,-294.433 230.435,-300.423 236.078,-304.565"/>
<text text-anchor="middle" x="232" y="-318.8" font-family="Times New Roman,serif" font-size="14.00">b</text>
</g>
<!-- 16 -->
<g id="node17" class="node"><title>16</title>
<ellipse fill="none" stroke="black" cx="329" cy="-279" rx="27" ry="18"/>
<text text-anchor="middle" x="329" y="-275.3" font-family="Times New Roman,serif" font-size="14.00">e</text>
</g>
<!-- 13&#45;&gt;16 -->
<g id="edge47" class="edge"><title>13&#45;&gt;16</title>
<path fill="none" stroke="black" d="M268.409,-349.196C275.286,-339.107 284.715,-325.919 294,-315 297.923,-310.387 302.338,-305.661 306.677,-301.235"/>
<polygon fill="black" stroke="black" points="309.188,-303.675 313.808,-294.141 304.25,-298.712 309.188,-303.675"/>
<text text-anchor="middle" x="296" y="-318.8" font-family="Times New Roman,serif" font-size="14.00">l</text>
</g>
<!-- 14&#45;&gt;3 -->
<g id="edge52" class="edge"><title>14&#45;&gt;3</title>
<path fill="none" stroke="black" d="M245.97,-261.657C243.549,-255.903 241.213,-249.298 240,-243 238.593,-235.694 238.351,-227.681 238.653,-220.251"/>
<polygon fill="black" stroke="black" points="242.144,-220.497 239.375,-210.27 235.162,-219.992 242.144,-220.497"/>
<text text-anchor="middle" x="242" y="-231.8" font-family="Times New Roman,serif" font-size="14.00">l</text>
</g>
<!-- 14&#45;&gt;13 -->
<g id="edge20" class="edge"><title>14&#45;&gt;13</title>
<path fill="none" stroke="black" d="M254.808,-297.175C255.356,-308.806 256.09,-324.419 256.717,-337.734"/>
<polygon fill="black" stroke="black" points="253.224,-337.975 257.191,-347.799 260.217,-337.645 253.224,-337.975"/>
<text text-anchor="middle" x="261" y="-318.8" font-family="Times New Roman,serif" font-size="14.00">b</text>
</g>
<!-- 15&#45;&gt;1 -->
<g id="edge7" class="edge"><title>15&#45;&gt;1</title>
<path fill="none" stroke="black" d="M383.519,-557.31C387.055,-568.963 390.362,-584.921 392.188,-598.523"/>
<polygon fill="black" stroke="black" points="388.745,-599.238 393.311,-608.799 395.704,-598.478 388.745,-599.238"/>
</g>
<!-- 15&#45;&gt;12 -->
<g id="edge44" class="edge"><title>15&#45;&gt;12</title>
<path fill="none" stroke="black" d="M350.191,-532.874C328.955,-527.08 297.951,-517.291 273,-504 257.743,-495.873 242.257,-484.349 230.123,-474.412"/>
<polygon fill="black" stroke="black" points="232.212,-471.596 222.303,-467.848 227.712,-476.958 232.212,-471.596"/>
<text text-anchor="middle" x="275" y="-492.8" font-family="Times New Roman,serif" font-size="14.00">l</text>
</g>
<!-- 15&#45;&gt;16 -->
<g id="edge45" class="edge"><title>15&#45;&gt;16</title>
<path fill="none" stroke="black" d="M365.763,-522.7C362.864,-516.949 359.922,-510.335 358,-504 337.156,-435.307 331.293,-350.313 329.645,-307.459"/>
<polygon fill="black" stroke="black" points="333.136,-307.141 329.303,-297.264 326.14,-307.376 333.136,-307.141"/>
<text text-anchor="middle" x="342" y="-405.8" font-family="Times New Roman,serif" font-size="14.00">l</text>
</g>
<!-- 18 -->
<g id="node19" class="node"><title>18</title>
<ellipse fill="none" stroke="black" cx="446" cy="-453" rx="27" ry="18"/>
<text text-anchor="middle" x="446" y="-449.3" font-family="Times New Roman,serif" font-size="14.00">i</text>
</g>
<!-- 15&#45;&gt;18 -->
<g id="edge31" class="edge"><title>15&#45;&gt;18</title>
<path fill="none" stroke="black" d="M384.188,-522.989C390.351,-512.817 398.969,-499.615 408,-489 412.272,-483.979 417.223,-478.956 422.111,-474.346"/>
<polygon fill="black" stroke="black" points="424.593,-476.82 429.635,-467.501 419.882,-471.642 424.593,-476.82"/>
<text text-anchor="middle" x="411.5" y="-492.8" font-family="Times New Roman,serif" font-size="14.00">k</text>
</g>
<!-- 16&#45;&gt;13 -->
<g id="edge48" class="edge"><title>16&#45;&gt;13</title>
<path fill="none" stroke="black" d="M318.591,-295.804C311.714,-305.893 302.285,-319.081 293,-330 289.077,-334.613 284.662,-339.339 280.323,-343.765"/>
<polygon fill="black" stroke="black" points="277.812,-341.325 273.192,-350.859 282.75,-346.288 277.812,-341.325"/>
<text text-anchor="middle" x="307" y="-318.8" font-family="Times New Roman,serif" font-size="14.00">l</text>
</g>
<!-- 16&#45;&gt;15 -->
<g id="edge46" class="edge"><title>16&#45;&gt;15</title>
<path fill="none" stroke="black" d="M337.686,-296.351C340.414,-302.106 343.185,-308.709 345,-315 364.916,-384.011 371.689,-468.868 373.932,-511.619"/>
<polygon fill="black" stroke="black" points="370.445,-511.967 374.42,-521.788 377.437,-511.631 370.445,-511.967"/>
<text text-anchor="middle" x="368" y="-405.8" font-family="Times New Roman,serif" font-size="14.00">l</text>
</g>
<!-- 17&#45;&gt;1 -->
<g id="edge10" class="edge"><title>17&#45;&gt;1</title>
<path fill="none" stroke="black" d="M436.739,-685.645C427.129,-676.298 415.463,-663.541 406.206,-652.404"/>
<polygon fill="black" stroke="black" points="408.668,-649.88 399.67,-644.286 403.215,-654.27 408.668,-649.88"/>
</g>
<!-- 17&#45;&gt;7 -->
<g id="edge11" class="edge"><title>17&#45;&gt;7</title>
<path fill="none" stroke="black" d="M459.827,-717.705C460.708,-725.822 460.959,-735.78 460.577,-744.942"/>
<polygon fill="black" stroke="black" points="457.068,-744.948 459.84,-755.174 464.05,-745.452 457.068,-744.948"/>
</g>
<!-- 17&#45;&gt;18 -->
<g id="edge54" class="edge"><title>17&#45;&gt;18</title>
<path fill="none" stroke="black" d="M453.437,-681.772C452.069,-639.863 448.557,-532.309 446.896,-481.442"/>
<polygon fill="black" stroke="black" points="450.387,-481.089 446.562,-471.209 443.39,-481.318 450.387,-481.089"/>
<text text-anchor="middle" x="454.5" y="-579.8" font-family="Times New Roman,serif" font-size="14.00">s</text>
</g>
<!-- 18&#45;&gt;15 -->
<g id="edge32" class="edge"><title>18&#45;&gt;15</title>
<path fill="none" stroke="black" d="M436.812,-470.011C430.649,-480.183 422.031,-493.385 413,-504 408.728,-509.021 403.777,-514.044 398.889,-518.654"/>
<polygon fill="black" stroke="black" points="396.407,-516.18 391.365,-525.499 401.118,-521.358 396.407,-516.18"/>
<text text-anchor="middle" x="428.5" y="-492.8" font-family="Times New Roman,serif" font-size="14.00">k</text>
</g>
<!-- 18&#45;&gt;17 -->
<g id="edge53" class="edge"><title>18&#45;&gt;17</title>
<path fill="none" stroke="black" d="M459.733,-468.884C464.235,-474.717 468.676,-481.747 471,-489 494.736,-563.067 488.434,-588.201 471,-664 470.258,-667.226 469.177,-670.499 467.915,-673.683"/>
<polygon fill="black" stroke="black" points="464.707,-672.283 463.738,-682.833 471.075,-675.19 464.707,-672.283"/>
<text text-anchor="middle" x="490.5" y="-579.8" font-family="Times New Roman,serif" font-size="14.00">s</text>
</g>
<!-- 19&#45;&gt;7 -->
<g id="edge13" class="edge"><title>19&#45;&gt;7</title>
<path fill="none" stroke="black" d="M448.16,-828.174C447.285,-820.039 447.041,-810.076 447.428,-800.921"/>
<polygon fill="black" stroke="black" points="450.937,-800.933 448.173,-790.705 443.955,-800.424 450.937,-800.933"/>
</g>
<!-- 20 -->
<g id="node21" class="node"><title>20</title>
<ellipse fill="none" stroke="black" cx="454" cy="-933" rx="28.6953" ry="18"/>
<text text-anchor="middle" x="454" y="-929.3" font-family="Times New Roman,serif" font-size="14.00">e,k,p</text>
</g>
<!-- 19&#45;&gt;20 -->
<g id="edge33" class="edge"><title>19&#45;&gt;20</title>
<path fill="none" stroke="black" d="M454,-864.175C454,-875.806 454,-891.419 454,-904.734"/>
<polygon fill="black" stroke="black" points="450.5,-904.799 454,-914.799 457.5,-904.799 450.5,-904.799"/>
<text text-anchor="middle" x="457.5" y="-885.8" font-family="Times New Roman,serif" font-size="14.00">k</text>
</g>
<!-- 20&#45;&gt;19 -->
<g id="edge34" class="edge"><title>20&#45;&gt;19</title>
<path fill="none" stroke="black" d="M447.567,-915.157C445.706,-909.477 443.927,-903.044 443,-897 441.814,-889.269 442.743,-880.945 444.473,-873.349"/>
<polygon fill="black" stroke="black" points="447.886,-874.139 447.206,-863.566 441.144,-872.256 447.886,-874.139"/>
<text text-anchor="middle" x="446.5" y="-885.8" font-family="Times New Roman,serif" font-size="14.00">k</text>
</g>
<!-- 20&#45;&gt;21 -->
<g id="edge15" class="edge"><title>20&#45;&gt;21</title>
<path fill="none" stroke="black" d="M455.516,-951.083C453.998,-963.157 450.381,-979.558 446.329,-993.218"/>
<polygon fill="black" stroke="black" points="442.909,-992.421 443.173,-1003.01 449.571,-994.567 442.909,-992.421"/>
</g>
<!-- 21&#45;&gt;5 -->
<g id="edge23" class="edge"><title>21&#45;&gt;5</title>
<path fill="none" stroke="black" d="M413.087,-1008.46C403.583,-1002.57 393.12,-994.328 387,-984 383.007,-977.26 380.948,-969.132 379.961,-961.407"/>
<polygon fill="black" stroke="black" points="383.44,-960.998 379.197,-951.29 376.46,-961.525 383.44,-960.998"/>
<text text-anchor="middle" x="391" y="-972.8" font-family="Times New Roman,serif" font-size="14.00">b</text>
</g>
<!-- 21&#45;&gt;20 -->
<g id="edge16" class="edge"><title>21&#45;&gt;20</title>
<path fill="none" stroke="black" d="M432.499,-1001.8C434.016,-989.815 437.585,-973.613 441.591,-960.052"/>
<polygon fill="black" stroke="black" points="444.994,-960.901 444.713,-950.31 438.328,-958.765 444.994,-960.901"/>
</g>
<!-- 21&#45;&gt;22 -->
<g id="edge29" class="edge"><title>21&#45;&gt;22</title>
<path fill="none" stroke="black" d="M428.475,-1038.02C425.05,-1047.86 420.3,-1060.36 415,-1071 413.215,-1074.58 411.163,-1078.27 409.046,-1081.84"/>
<polygon fill="black" stroke="black" points="406.059,-1080.01 403.762,-1090.36 412.008,-1083.7 406.059,-1080.01"/>
<text text-anchor="middle" x="425.5" y="-1059.8" font-family="Times New Roman,serif" font-size="14.00">k</text>
</g>
<!-- 22&#45;&gt;0 -->
<g id="edge42" class="edge"><title>22&#45;&gt;0</title>
<path fill="none" stroke="black" d="M393,-1125.18C393,-1136.81 393,-1152.42 393,-1165.73"/>
<polygon fill="black" stroke="black" points="389.5,-1165.8 393,-1175.8 396.5,-1165.8 389.5,-1165.8"/>
<text text-anchor="middle" x="395" y="-1146.8" font-family="Times New Roman,serif" font-size="14.00">l</text>
</g>
<!-- 22&#45;&gt;4 -->
<g id="edge39" class="edge"><title>22&#45;&gt;4</title>
<path fill="none" stroke="black" d="M375.497,-1092.93C369.029,-1087.03 362.44,-1079.48 359,-1071 356.161,-1064 355.251,-1055.99 355.288,-1048.45"/>
<polygon fill="black" stroke="black" points="358.793,-1048.46 355.867,-1038.28 351.804,-1048.06 358.793,-1048.46"/>
<text text-anchor="middle" x="361" y="-1059.8" font-family="Times New Roman,serif" font-size="14.00">l</text>
</g>
<!-- 22&#45;&gt;21 -->
<g id="edge30" class="edge"><title>22&#45;&gt;21</title>
<path fill="none" stroke="black" d="M397.558,-1088.87C400.494,-1078.99 404.744,-1066.49 410,-1056 411.841,-1052.33 414.019,-1048.59 416.3,-1045"/>
<polygon fill="black" stroke="black" points="419.363,-1046.71 422.048,-1036.46 413.558,-1042.8 419.363,-1046.71"/>
<text text-anchor="middle" x="413.5" y="-1059.8" font-family="Times New Roman,serif" font-size="14.00">k</text>
</g>
<!-- 23 -->
<g id="node24" class="node"><title>23</title>
<ellipse fill="none" stroke="black" cx="290" cy="-18" rx="27" ry="18"/>
</g>
<!-- 23&#45;&gt;24 -->
<g id="edge25" class="edge"><title>23&#45;&gt;24</title>
<path fill="none" stroke="black" d="M288.383,-36.1754C287.289,-47.806 285.819,-63.4194 284.566,-76.7339"/>
<polygon fill="black" stroke="black" points="281.071,-76.515 283.619,-86.799 288.041,-77.171 281.071,-76.515"/>
<text text-anchor="middle" x="291" y="-57.8" font-family="Times New Roman,serif" font-size="14.00">b</text>
</g>
<!-- 24&#45;&gt;3 -->
<g id="edge27" class="edge"><title>24&#45;&gt;3</title>
<path fill="none" stroke="black" d="M277.365,-123.092C274.403,-132.956 270.153,-145.456 265,-156 263.219,-159.644 261.122,-163.362 258.932,-166.948"/>
<polygon fill="black" stroke="black" points="255.909,-165.177 253.421,-175.475 261.788,-168.977 255.909,-165.177"/>
<text text-anchor="middle" x="275.5" y="-144.8" font-family="Times New Roman,serif" font-size="14.00">k</text>
</g>
<!-- 24&#45;&gt;23 -->
<g id="edge26" class="edge"><title>24&#45;&gt;23</title>
<path fill="none" stroke="black" d="M276.205,-87.2461C273.606,-77.4948 271.606,-64.9948 274,-54 274.675,-50.9011 275.649,-47.7481 276.789,-44.6675"/>
<polygon fill="black" stroke="black" points="280.112,-45.7991 280.831,-35.2287 273.677,-43.0438 280.112,-45.7991"/>
<text text-anchor="middle" x="278" y="-57.8" font-family="Times New Roman,serif" font-size="14.00">b</text>
</g>
</g>
</svg>
