<?xml version="1.0" encoding="UTF-8" standalone="no"?>
<!DOCTYPE svg PUBLIC "-//W3C//DTD SVG 1.1//EN"
 "http://www.w3.org/Graphics/SVG/1.1/DTD/svg11.dtd">
<!-- Generated by graphviz version 2.38.0 (20140413.2041)
 -->
<!-- Title: %3 Pages: 1 -->
<svg width="502pt" height="1001pt"
 viewBox="0.00 0.00 502.00 1001.00" xmlns="http://www.w3.org/2000/svg" xmlns:xlink="http://www.w3.org/1999/xlink">
<g id="graph0" class="graph" transform="scale(1 1) rotate(0) translate(4 997)">
<title>%3</title>
<polygon fill="white" stroke="none" points="-4,4 -4,-997 498,-997 498,4 -4,4"/>
<!-- 0 -->
<g id="node1" class="node"><title>0</title>
<ellipse fill="none" stroke="black" cx="110" cy="-975" rx="27" ry="18"/>
<text text-anchor="middle" x="110" y="-971.3" font-family="Times New Roman,serif" font-size="14.00">t</text>
</g>
<!-- 7 -->
<g id="node8" class="node"><title>7</title>
<ellipse fill="none" stroke="black" cx="110" cy="-888" rx="27" ry="18"/>
<text text-anchor="middle" x="110" y="-884.3" font-family="Times New Roman,serif" font-size="14.00">b</text>
</g>
<!-- 0&#45;&gt;7 -->
<g id="edge50" class="edge"><title>0&#45;&gt;7</title>
<path fill="none" stroke="black" d="M108.242,-956.929C107.735,-951.234 107.25,-944.849 107,-939 106.685,-931.645 106.907,-923.687 107.344,-916.328"/>
<polygon fill="black" stroke="black" points="110.852,-916.349 108.103,-906.117 103.872,-915.83 110.852,-916.349"/>
<text text-anchor="middle" x="109" y="-927.8" font-family="Times New Roman,serif" font-size="14.00">l</text>
</g>
<!-- 1 -->
<g id="node2" class="node"><title>1</title>
<ellipse fill="none" stroke="black" cx="222" cy="-714" rx="27" ry="18"/>
<text text-anchor="middle" x="222" y="-710.3" font-family="Times New Roman,serif" font-size="14.00">e,i</text>
</g>
<!-- 19 -->
<g id="node20" class="node"><title>19</title>
<ellipse fill="none" stroke="black" cx="172" cy="-801" rx="27" ry="18"/>
<text text-anchor="middle" x="172" y="-797.3" font-family="Times New Roman,serif" font-size="14.00">e,k</text>
</g>
<!-- 1&#45;&gt;19 -->
<g id="edge52" class="edge"><title>1&#45;&gt;19</title>
<path fill="none" stroke="black" d="M217.54,-731.971C211.381,-744.86 201.058,-762.724 191.662,-776.912"/>
<polygon fill="black" stroke="black" points="188.75,-774.969 185.976,-785.194 194.521,-778.931 188.75,-774.969"/>
</g>
<!-- 23 -->
<g id="node24" class="node"><title>23</title>
<ellipse fill="none" stroke="black" cx="215" cy="-627" rx="27" ry="18"/>
<text text-anchor="middle" x="215" y="-623.3" font-family="Times New Roman,serif" font-size="14.00">e,p</text>
</g>
<!-- 1&#45;&gt;23 -->
<g id="edge45" class="edge"><title>1&#45;&gt;23</title>
<path fill="none" stroke="black" d="M213.97,-696.657C211.549,-690.903 209.213,-684.298 208,-678 206.558,-670.512 206.904,-662.339 207.99,-654.811"/>
<polygon fill="black" stroke="black" points="211.476,-655.215 209.909,-644.737 204.6,-653.906 211.476,-655.215"/>
<text text-anchor="middle" x="210" y="-666.8" font-family="Times New Roman,serif" font-size="14.00">l</text>
</g>
<!-- 2 -->
<g id="node3" class="node"><title>2</title>
<ellipse fill="none" stroke="black" cx="467" cy="-366" rx="27" ry="18"/>
<text text-anchor="middle" x="467" y="-362.3" font-family="Times New Roman,serif" font-size="14.00">e,i</text>
</g>
<!-- 5 -->
<g id="node6" class="node"><title>5</title>
<ellipse fill="none" stroke="black" cx="352" cy="-453" rx="27" ry="18"/>
<text text-anchor="middle" x="352" y="-449.3" font-family="Times New Roman,serif" font-size="14.00">m,p</text>
</g>
<!-- 2&#45;&gt;5 -->
<g id="edge42" class="edge"><title>2&#45;&gt;5</title>
<path fill="none" stroke="black" d="M456.336,-382.966C448.602,-393.632 437.363,-407.413 425,-417 412.934,-426.357 397.964,-434.075 384.726,-439.86"/>
<polygon fill="black" stroke="black" points="383.34,-436.646 375.46,-443.727 386.036,-443.106 383.34,-436.646"/>
<text text-anchor="middle" x="443" y="-405.8" font-family="Times New Roman,serif" font-size="14.00">l</text>
</g>
<!-- 3 -->
<g id="node4" class="node"><title>3</title>
<ellipse fill="none" stroke="black" cx="395" cy="-366" rx="27" ry="18"/>
<text text-anchor="middle" x="395" y="-362.3" font-family="Times New Roman,serif" font-size="14.00">e,p</text>
</g>
<!-- 3&#45;&gt;5 -->
<g id="edge40" class="edge"><title>3&#45;&gt;5</title>
<path fill="none" stroke="black" d="M389.152,-384.043C385.536,-393.891 380.536,-406.391 375,-417 373.124,-420.596 370.973,-424.286 368.757,-427.859"/>
<polygon fill="black" stroke="black" points="365.736,-426.085 363.231,-436.379 371.609,-429.894 365.736,-426.085"/>
<text text-anchor="middle" x="384" y="-405.8" font-family="Times New Roman,serif" font-size="14.00">l</text>
</g>
<!-- 27 -->
<g id="node28" class="node"><title>27</title>
<ellipse fill="none" stroke="black" cx="376" cy="-279" rx="27" ry="18"/>
<text text-anchor="middle" x="376" y="-275.3" font-family="Times New Roman,serif" font-size="14.00">I</text>
</g>
<!-- 3&#45;&gt;27 -->
<g id="edge43" class="edge"><title>3&#45;&gt;27</title>
<path fill="none" stroke="black" d="M389.239,-348.403C387.38,-342.628 385.433,-336.075 384,-330 382.272,-322.672 380.805,-314.652 379.617,-307.222"/>
<polygon fill="black" stroke="black" points="383.066,-306.619 378.127,-297.246 376.143,-307.653 383.066,-306.619"/>
</g>
<!-- 4 -->
<g id="node5" class="node"><title>4</title>
<ellipse fill="none" stroke="black" cx="323" cy="-366" rx="27" ry="18"/>
<text text-anchor="middle" x="323" y="-362.3" font-family="Times New Roman,serif" font-size="14.00">e,i</text>
</g>
<!-- 4&#45;&gt;5 -->
<g id="edge27" class="edge"><title>4&#45;&gt;5</title>
<path fill="none" stroke="black" d="M328.718,-383.758C332.766,-395.625 338.28,-411.787 342.926,-425.403"/>
<polygon fill="black" stroke="black" points="339.729,-426.873 346.271,-435.207 346.354,-424.612 339.729,-426.873"/>
<text text-anchor="middle" x="344" y="-405.8" font-family="Times New Roman,serif" font-size="14.00">b</text>
</g>
<!-- 26 -->
<g id="node27" class="node"><title>26</title>
<ellipse fill="none" stroke="black" cx="286" cy="-279" rx="27" ry="18"/>
<text text-anchor="middle" x="286" y="-275.3" font-family="Times New Roman,serif" font-size="14.00">i</text>
</g>
<!-- 4&#45;&gt;26 -->
<g id="edge15" class="edge"><title>4&#45;&gt;26</title>
<path fill="none" stroke="black" d="M311.069,-349.804C304.408,-337.892 296.726,-321.017 291.36,-306.844"/>
<polygon fill="black" stroke="black" points="294.549,-305.366 287.909,-297.11 287.952,-307.705 294.549,-305.366"/>
</g>
<!-- 5&#45;&gt;2 -->
<g id="edge41" class="edge"><title>5&#45;&gt;2</title>
<path fill="none" stroke="black" d="M369.466,-439.09C388.548,-424.986 419.307,-402.251 441.178,-386.086"/>
<polygon fill="black" stroke="black" points="443.408,-388.79 449.37,-380.031 439.247,-383.16 443.408,-388.79"/>
<text text-anchor="middle" x="419" y="-405.8" font-family="Times New Roman,serif" font-size="14.00">l</text>
</g>
<!-- 5&#45;&gt;3 -->
<g id="edge39" class="edge"><title>5&#45;&gt;3</title>
<path fill="none" stroke="black" d="M360.291,-435.611C366.477,-423.382 375.047,-406.443 382.122,-392.456"/>
<polygon fill="black" stroke="black" points="385.344,-393.842 386.735,-383.339 379.097,-390.682 385.344,-393.842"/>
</g>
<!-- 5&#45;&gt;4 -->
<g id="edge28" class="edge"><title>5&#45;&gt;4</title>
<path fill="none" stroke="black" d="M337.022,-437.684C331.893,-431.813 326.755,-424.609 324,-417 321.429,-409.898 320.489,-401.848 320.37,-394.315"/>
<polygon fill="black" stroke="black" points="323.873,-394.26 320.663,-384.163 316.876,-394.058 323.873,-394.26"/>
<text text-anchor="middle" x="328" y="-405.8" font-family="Times New Roman,serif" font-size="14.00">b</text>
</g>
<!-- 25 -->
<g id="node26" class="node"><title>25</title>
<ellipse fill="none" stroke="black" cx="268" cy="-540" rx="27" ry="18"/>
<text text-anchor="middle" x="268" y="-536.3" font-family="Times New Roman,serif" font-size="14.00">m,i</text>
</g>
<!-- 5&#45;&gt;25 -->
<g id="edge54" class="edge"><title>5&#45;&gt;25</title>
<path fill="none" stroke="black" d="M342.067,-469.803C335.163,-480.138 325.369,-493.599 315,-504 309.04,-509.978 302.007,-515.757 295.222,-520.839"/>
<polygon fill="black" stroke="black" points="292.926,-518.179 286.859,-526.865 297.018,-523.858 292.926,-518.179"/>
<text text-anchor="middle" x="331.5" y="-492.8" font-family="Times New Roman,serif" font-size="14.00">k</text>
</g>
<!-- 6 -->
<g id="node7" class="node"><title>6</title>
<ellipse fill="none" stroke="black" cx="124" cy="-627" rx="27" ry="18"/>
</g>
<!-- 6&#45;&gt;7 -->
<g id="edge22" class="edge"><title>6&#45;&gt;7</title>
<path fill="none" stroke="black" d="M119.524,-644.899C116.145,-658.568 111.796,-678.373 110,-696 104.081,-754.099 106.306,-822.655 108.271,-859.784"/>
<polygon fill="black" stroke="black" points="104.779,-860.033 108.837,-869.82 111.768,-859.638 104.779,-860.033"/>
<text text-anchor="middle" x="111" y="-753.8" font-family="Times New Roman,serif" font-size="14.00">b</text>
</g>
<!-- 20 -->
<g id="node21" class="node"><title>20</title>
<ellipse fill="none" stroke="black" cx="148" cy="-714" rx="28.6953" ry="18"/>
<text text-anchor="middle" x="148" y="-710.3" font-family="Times New Roman,serif" font-size="14.00">e,p,k</text>
</g>
<!-- 6&#45;&gt;20 -->
<g id="edge14" class="edge"><title>6&#45;&gt;20</title>
<path fill="none" stroke="black" d="M133.941,-644.025C138.646,-655.798 143.55,-672.074 146.679,-685.859"/>
<polygon fill="black" stroke="black" points="143.276,-686.693 148.692,-695.799 150.137,-685.303 143.276,-686.693"/>
</g>
<!-- 7&#45;&gt;0 -->
<g id="edge49" class="edge"><title>7&#45;&gt;0</title>
<path fill="none" stroke="black" d="M110,-906.175C110,-917.806 110,-933.419 110,-946.734"/>
<polygon fill="black" stroke="black" points="106.5,-946.799 110,-956.799 113.5,-946.799 106.5,-946.799"/>
</g>
<!-- 7&#45;&gt;6 -->
<g id="edge21" class="edge"><title>7&#45;&gt;6</title>
<path fill="none" stroke="black" d="M93.7515,-873.499C87.5865,-867.532 81.0762,-860.046 77,-852 56.2617,-811.066 56.8328,-795.698 61,-750 64.5703,-710.847 56.24,-696.387 77,-663 81.4572,-655.832 87.9621,-649.634 94.7192,-644.53"/>
<polygon fill="black" stroke="black" points="97.0111,-647.202 103.278,-638.659 93.0516,-641.429 97.0111,-647.202"/>
<text text-anchor="middle" x="65" y="-753.8" font-family="Times New Roman,serif" font-size="14.00">b</text>
</g>
<!-- 7&#45;&gt;19 -->
<g id="edge20" class="edge"><title>7&#45;&gt;19</title>
<path fill="none" stroke="black" d="M114.848,-870.235C118.315,-860.015 123.669,-847.035 131,-837 135.228,-831.212 140.597,-825.754 146.045,-820.947"/>
<polygon fill="black" stroke="black" points="148.48,-823.475 153.959,-814.407 144.021,-818.079 148.48,-823.475"/>
<text text-anchor="middle" x="135" y="-840.8" font-family="Times New Roman,serif" font-size="14.00">b</text>
</g>
<!-- 8 -->
<g id="node9" class="node"><title>8</title>
<ellipse fill="none" stroke="black" cx="104" cy="-18" rx="27" ry="18"/>
<text text-anchor="middle" x="104" y="-14.3" font-family="Times New Roman,serif" font-size="14.00">I</text>
</g>
<!-- 14 -->
<g id="node15" class="node"><title>14</title>
<ellipse fill="none" stroke="black" cx="104" cy="-105" rx="27" ry="18"/>
<text text-anchor="middle" x="104" y="-101.3" font-family="Times New Roman,serif" font-size="14.00">e,p</text>
</g>
<!-- 8&#45;&gt;14 -->
<g id="edge32" class="edge"><title>8&#45;&gt;14</title>
<path fill="none" stroke="black" d="M104,-36.1754C104,-47.806 104,-63.4194 104,-76.7339"/>
<polygon fill="black" stroke="black" points="100.5,-76.7989 104,-86.799 107.5,-76.799 100.5,-76.7989"/>
<text text-anchor="middle" x="106" y="-57.8" font-family="Times New Roman,serif" font-size="14.00">l</text>
</g>
<!-- 9 -->
<g id="node10" class="node"><title>9</title>
<ellipse fill="none" stroke="black" cx="175" cy="-366" rx="27" ry="18"/>
<text text-anchor="middle" x="175" y="-362.3" font-family="Times New Roman,serif" font-size="14.00">m</text>
</g>
<!-- 12 -->
<g id="node13" class="node"><title>12</title>
<ellipse fill="none" stroke="black" cx="176" cy="-279" rx="27" ry="18"/>
</g>
<!-- 9&#45;&gt;12 -->
<g id="edge8" class="edge"><title>9&#45;&gt;12</title>
<path fill="none" stroke="black" d="M169.694,-348.207C168.52,-336.448 168.432,-320.485 169.351,-306.958"/>
<polygon fill="black" stroke="black" points="172.859,-307.04 170.303,-296.758 165.889,-306.39 172.859,-307.04"/>
</g>
<!-- 16 -->
<g id="node17" class="node"><title>16</title>
<ellipse fill="none" stroke="black" cx="134" cy="-453" rx="28.6953" ry="18"/>
<text text-anchor="middle" x="134" y="-449.3" font-family="Times New Roman,serif" font-size="14.00">e,p,k</text>
</g>
<!-- 9&#45;&gt;16 -->
<g id="edge17" class="edge"><title>9&#45;&gt;16</title>
<path fill="none" stroke="black" d="M174.254,-384.411C173.256,-394.381 171.006,-406.881 166,-417 163.642,-421.767 160.437,-426.356 156.962,-430.555"/>
<polygon fill="black" stroke="black" points="154.245,-428.34 150.099,-438.09 159.42,-433.053 154.245,-428.34"/>
<text text-anchor="middle" x="176" y="-405.8" font-family="Times New Roman,serif" font-size="14.00">b</text>
</g>
<!-- 10 -->
<g id="node11" class="node"><title>10</title>
<ellipse fill="none" stroke="black" cx="176" cy="-192" rx="27" ry="18"/>
<text text-anchor="middle" x="176" y="-188.3" font-family="Times New Roman,serif" font-size="14.00">s</text>
</g>
<!-- 10&#45;&gt;12 -->
<g id="edge1" class="edge"><title>10&#45;&gt;12</title>
<path fill="none" stroke="black" d="M181.5,-209.758C182.814,-221.508 183.092,-237.47 182.334,-251.002"/>
<polygon fill="black" stroke="black" points="178.826,-250.956 181.504,-261.207 185.803,-251.524 178.826,-250.956"/>
</g>
<!-- 11 -->
<g id="node12" class="node"><title>11</title>
<ellipse fill="none" stroke="black" cx="250" cy="-192" rx="28.6953" ry="18"/>
<text text-anchor="middle" x="250" y="-188.3" font-family="Times New Roman,serif" font-size="14.00">e,p,k</text>
</g>
<!-- 11&#45;&gt;12 -->
<g id="edge4" class="edge"><title>11&#45;&gt;12</title>
<path fill="none" stroke="black" d="M241.19,-209.389C230.819,-223.106 213.856,-242.749 199.714,-257.505"/>
<polygon fill="black" stroke="black" points="197.138,-255.133 192.625,-264.719 202.13,-260.039 197.138,-255.133"/>
</g>
<!-- 12&#45;&gt;9 -->
<g id="edge7" class="edge"><title>12&#45;&gt;9</title>
<path fill="none" stroke="black" d="M181.303,-296.758C182.479,-308.508 182.569,-324.47 181.652,-338.002"/>
<polygon fill="black" stroke="black" points="178.144,-337.925 180.701,-348.207 185.114,-338.574 178.144,-337.925"/>
</g>
<!-- 12&#45;&gt;10 -->
<g id="edge2" class="edge"><title>12&#45;&gt;10</title>
<path fill="none" stroke="black" d="M170.496,-261.207C169.184,-249.448 168.908,-233.485 169.668,-219.958"/>
<polygon fill="black" stroke="black" points="173.176,-220.01 170.5,-209.758 166.199,-219.441 173.176,-220.01"/>
</g>
<!-- 12&#45;&gt;11 -->
<g id="edge3" class="edge"><title>12&#45;&gt;11</title>
<path fill="none" stroke="black" d="M184.81,-261.611C195.121,-247.972 211.95,-228.476 226.043,-213.749"/>
<polygon fill="black" stroke="black" points="228.611,-216.129 233.115,-206.539 223.614,-211.227 228.611,-216.129"/>
</g>
<!-- 13 -->
<g id="node14" class="node"><title>13</title>
<ellipse fill="none" stroke="black" cx="104" cy="-192" rx="27" ry="18"/>
<text text-anchor="middle" x="104" y="-188.3" font-family="Times New Roman,serif" font-size="14.00">m</text>
</g>
<!-- 12&#45;&gt;13 -->
<g id="edge5" class="edge"><title>12&#45;&gt;13</title>
<path fill="none" stroke="black" d="M159.317,-264.343C146.841,-251.673 130.273,-232.525 118.383,-217.256"/>
<polygon fill="black" stroke="black" points="121.14,-215.099 112.314,-209.238 115.558,-219.324 121.14,-215.099"/>
</g>
<!-- 13&#45;&gt;12 -->
<g id="edge6" class="edge"><title>13&#45;&gt;12</title>
<path fill="none" stroke="black" d="M120.567,-206.539C133.011,-219.163 149.57,-238.288 161.488,-253.577"/>
<polygon fill="black" stroke="black" points="158.746,-255.755 167.576,-261.611 164.325,-251.527 158.746,-255.755"/>
</g>
<!-- 13&#45;&gt;14 -->
<g id="edge29" class="edge"><title>13&#45;&gt;14</title>
<path fill="none" stroke="black" d="M102.828,-173.919C102.49,-168.222 102.167,-161.84 102,-156 101.79,-148.648 101.938,-140.691 102.229,-133.333"/>
<polygon fill="black" stroke="black" points="105.736,-133.282 102.735,-123.121 98.7447,-132.936 105.736,-133.282"/>
</g>
<!-- 14&#45;&gt;8 -->
<g id="edge31" class="edge"><title>14&#45;&gt;8</title>
<path fill="none" stroke="black" d="M102.828,-86.9185C102.49,-81.2225 102.167,-74.8405 102,-69 101.79,-61.6485 101.938,-53.6914 102.229,-46.3331"/>
<polygon fill="black" stroke="black" points="105.736,-46.2819 102.735,-36.1211 98.7447,-45.9358 105.736,-46.2819"/>
</g>
<!-- 14&#45;&gt;13 -->
<g id="edge30" class="edge"><title>14&#45;&gt;13</title>
<path fill="none" stroke="black" d="M104,-123.175C104,-134.806 104,-150.419 104,-163.734"/>
<polygon fill="black" stroke="black" points="100.5,-163.799 104,-173.799 107.5,-163.799 100.5,-163.799"/>
<text text-anchor="middle" x="106" y="-144.8" font-family="Times New Roman,serif" font-size="14.00">l</text>
</g>
<!-- 15 -->
<g id="node16" class="node"><title>15</title>
<ellipse fill="none" stroke="black" cx="30" cy="-366" rx="27" ry="18"/>
<text text-anchor="middle" x="30" y="-362.3" font-family="Times New Roman,serif" font-size="14.00">e,p,i</text>
</g>
<!-- 15&#45;&gt;16 -->
<g id="edge58" class="edge"><title>15&#45;&gt;16</title>
<path fill="none" stroke="black" d="M46.325,-380.343C63.2612,-394.185 89.9453,-415.994 109.43,-431.919"/>
<polygon fill="black" stroke="black" points="107.333,-434.725 117.291,-438.343 111.763,-429.305 107.333,-434.725"/>
<text text-anchor="middle" x="92.5" y="-405.8" font-family="Times New Roman,serif" font-size="14.00">k</text>
</g>
<!-- 16&#45;&gt;9 -->
<g id="edge18" class="edge"><title>16&#45;&gt;9</title>
<path fill="none" stroke="black" d="M141.905,-435.611C147.804,-423.382 155.975,-406.443 162.721,-392.456"/>
<polygon fill="black" stroke="black" points="165.927,-393.866 167.119,-383.339 159.622,-390.825 165.927,-393.866"/>
<text text-anchor="middle" x="161" y="-405.8" font-family="Times New Roman,serif" font-size="14.00">b</text>
</g>
<!-- 16&#45;&gt;15 -->
<g id="edge57" class="edge"><title>16&#45;&gt;15</title>
<path fill="none" stroke="black" d="M105.751,-449.795C83.2357,-446.444 52.7921,-438.039 36,-417 30.9186,-410.633 28.7412,-402.278 28.027,-394.225"/>
<polygon fill="black" stroke="black" points="31.5216,-393.928 27.8099,-384.005 24.5232,-394.077 31.5216,-393.928"/>
<text text-anchor="middle" x="39.5" y="-405.8" font-family="Times New Roman,serif" font-size="14.00">k</text>
</g>
<!-- 17 -->
<g id="node18" class="node"><title>17</title>
<ellipse fill="none" stroke="black" cx="102" cy="-366" rx="27" ry="18"/>
<text text-anchor="middle" x="102" y="-362.3" font-family="Times New Roman,serif" font-size="14.00">e,k</text>
</g>
<!-- 16&#45;&gt;17 -->
<g id="edge35" class="edge"><title>16&#45;&gt;17</title>
<path fill="none" stroke="black" d="M121.789,-436.372C117.794,-430.571 113.695,-423.753 111,-417 108.156,-409.873 106.205,-401.816 104.869,-394.283"/>
<polygon fill="black" stroke="black" points="108.293,-393.513 103.361,-384.136 101.369,-394.542 108.293,-393.513"/>
</g>
<!-- 21 -->
<g id="node22" class="node"><title>21</title>
<ellipse fill="none" stroke="black" cx="156" cy="-540" rx="27" ry="18"/>
<text text-anchor="middle" x="156" y="-536.3" font-family="Times New Roman,serif" font-size="14.00">e</text>
</g>
<!-- 16&#45;&gt;21 -->
<g id="edge33" class="edge"><title>16&#45;&gt;21</title>
<path fill="none" stroke="black" d="M138.413,-471.049C141.482,-482.908 145.634,-498.951 149.134,-512.471"/>
<polygon fill="black" stroke="black" points="145.759,-513.403 151.654,-522.207 152.536,-511.649 145.759,-513.403"/>
</g>
<!-- 17&#45;&gt;16 -->
<g id="edge36" class="edge"><title>17&#45;&gt;16</title>
<path fill="none" stroke="black" d="M108.309,-383.758C112.82,-395.741 118.98,-412.104 124.138,-425.803"/>
<polygon fill="black" stroke="black" points="120.879,-427.081 127.678,-435.207 127.43,-424.615 120.879,-427.081"/>
<text text-anchor="middle" x="122" y="-405.8" font-family="Times New Roman,serif" font-size="14.00">l</text>
</g>
<!-- 18 -->
<g id="node19" class="node"><title>18</title>
<ellipse fill="none" stroke="black" cx="102" cy="-279" rx="28.6953" ry="18"/>
<text text-anchor="middle" x="102" y="-275.3" font-family="Times New Roman,serif" font-size="14.00">e,p,k</text>
</g>
<!-- 17&#45;&gt;18 -->
<g id="edge9" class="edge"><title>17&#45;&gt;18</title>
<path fill="none" stroke="black" d="M96.4963,-348.207C95.1841,-336.448 94.9081,-320.485 95.6683,-306.958"/>
<polygon fill="black" stroke="black" points="99.1756,-307.01 96.5002,-296.758 92.1988,-306.441 99.1756,-307.01"/>
</g>
<!-- 22 -->
<g id="node23" class="node"><title>22</title>
<ellipse fill="none" stroke="black" cx="28" cy="-279" rx="27" ry="18"/>
<text text-anchor="middle" x="28" y="-275.3" font-family="Times New Roman,serif" font-size="14.00">m</text>
</g>
<!-- 17&#45;&gt;22 -->
<g id="edge11" class="edge"><title>17&#45;&gt;22</title>
<path fill="none" stroke="black" d="M85.375,-351.719C72.5402,-339.033 55.2704,-319.616 42.8951,-304.183"/>
<polygon fill="black" stroke="black" points="45.4918,-301.822 36.5827,-296.088 39.9715,-306.126 45.4918,-301.822"/>
</g>
<!-- 18&#45;&gt;17 -->
<g id="edge10" class="edge"><title>18&#45;&gt;17</title>
<path fill="none" stroke="black" d="M107.5,-296.758C108.814,-308.508 109.092,-324.47 108.334,-338.002"/>
<polygon fill="black" stroke="black" points="104.826,-337.956 107.504,-348.207 111.803,-338.524 104.826,-337.956"/>
</g>
<!-- 19&#45;&gt;1 -->
<g id="edge51" class="edge"><title>19&#45;&gt;1</title>
<path fill="none" stroke="black" d="M176.375,-783.207C182.562,-770.225 193.028,-752.118 202.514,-737.823"/>
<polygon fill="black" stroke="black" points="205.46,-739.716 208.247,-729.494 199.694,-735.747 205.46,-739.716"/>
</g>
<!-- 19&#45;&gt;7 -->
<g id="edge19" class="edge"><title>19&#45;&gt;7</title>
<path fill="none" stroke="black" d="M162.46,-818.142C156.367,-828.128 148.113,-841.08 140,-852 136.996,-856.043 133.656,-860.214 130.327,-864.205"/>
<polygon fill="black" stroke="black" points="127.459,-862.172 123.618,-872.046 132.779,-866.723 127.459,-862.172"/>
<text text-anchor="middle" x="155" y="-840.8" font-family="Times New Roman,serif" font-size="14.00">b</text>
</g>
<!-- 19&#45;&gt;20 -->
<g id="edge47" class="edge"><title>19&#45;&gt;20</title>
<path fill="none" stroke="black" d="M167.258,-783.207C163.905,-771.332 159.342,-755.168 155.498,-741.557"/>
<polygon fill="black" stroke="black" points="158.817,-740.431 152.732,-731.758 152.081,-742.333 158.817,-740.431"/>
<text text-anchor="middle" x="164" y="-753.8" font-family="Times New Roman,serif" font-size="14.00">l</text>
</g>
<!-- 20&#45;&gt;6 -->
<g id="edge13" class="edge"><title>20&#45;&gt;6</title>
<path fill="none" stroke="black" d="M138.074,-697.012C133.353,-685.209 128.43,-668.863 125.299,-655.042"/>
<polygon fill="black" stroke="black" points="128.698,-654.192 123.288,-645.083 121.837,-655.578 128.698,-654.192"/>
</g>
<!-- 20&#45;&gt;19 -->
<g id="edge48" class="edge"><title>20&#45;&gt;19</title>
<path fill="none" stroke="black" d="M147.534,-732.012C147.711,-741.85 148.711,-754.35 152,-765 153.065,-768.448 154.512,-771.927 156.144,-775.284"/>
<polygon fill="black" stroke="black" points="153.204,-777.203 161.071,-784.299 159.346,-773.845 153.204,-777.203"/>
<text text-anchor="middle" x="154" y="-753.8" font-family="Times New Roman,serif" font-size="14.00">l</text>
</g>
<!-- 21&#45;&gt;16 -->
<g id="edge34" class="edge"><title>21&#45;&gt;16</title>
<path fill="none" stroke="black" d="M147.264,-522.663C144.532,-516.91 141.772,-510.303 140,-504 137.973,-496.792 136.631,-488.811 135.742,-481.381"/>
<polygon fill="black" stroke="black" points="139.221,-480.993 134.763,-471.382 132.254,-481.675 139.221,-480.993"/>
<text text-anchor="middle" x="142" y="-492.8" font-family="Times New Roman,serif" font-size="14.00">l</text>
</g>
<!-- 21&#45;&gt;23 -->
<g id="edge55" class="edge"><title>21&#45;&gt;23</title>
<path fill="none" stroke="black" d="M166.953,-556.779C175.75,-569.454 188.251,-587.463 198.296,-601.935"/>
<polygon fill="black" stroke="black" points="195.601,-604.19 204.178,-610.41 201.352,-600.199 195.601,-604.19"/>
<text text-anchor="middle" x="193.5" y="-579.8" font-family="Times New Roman,serif" font-size="14.00">k</text>
</g>
<!-- 22&#45;&gt;17 -->
<g id="edge12" class="edge"><title>22&#45;&gt;17</title>
<path fill="none" stroke="black" d="M44.6132,-293.27C57.3689,-305.876 74.5097,-325.136 86.872,-340.526"/>
<polygon fill="black" stroke="black" points="84.2747,-342.887 93.1901,-348.611 89.7903,-338.577 84.2747,-342.887"/>
</g>
<!-- 24 -->
<g id="node25" class="node"><title>24</title>
<ellipse fill="none" stroke="black" cx="27" cy="-192" rx="27" ry="18"/>
</g>
<!-- 22&#45;&gt;24 -->
<g id="edge37" class="edge"><title>22&#45;&gt;24</title>
<path fill="none" stroke="black" d="M27.7976,-260.799C27.6607,-249.163 27.477,-233.548 27.3204,-220.237"/>
<polygon fill="black" stroke="black" points="30.8196,-220.134 27.2021,-210.175 23.82,-220.216 30.8196,-220.134"/>
</g>
<!-- 23&#45;&gt;1 -->
<g id="edge46" class="edge"><title>23&#45;&gt;1</title>
<path fill="none" stroke="black" d="M216.414,-645.175C217.372,-656.806 218.658,-672.419 219.755,-685.734"/>
<polygon fill="black" stroke="black" points="216.274,-686.12 220.583,-695.799 223.251,-685.545 216.274,-686.12"/>
<text text-anchor="middle" x="221" y="-666.8" font-family="Times New Roman,serif" font-size="14.00">l</text>
</g>
<!-- 23&#45;&gt;21 -->
<g id="edge56" class="edge"><title>23&#45;&gt;21</title>
<path fill="none" stroke="black" d="M195.611,-614.458C186.977,-608.441 177.348,-600.376 171,-591 166.407,-584.217 163.188,-575.99 160.944,-568.185"/>
<polygon fill="black" stroke="black" points="164.307,-567.201 158.524,-558.324 157.509,-568.87 164.307,-567.201"/>
<text text-anchor="middle" x="174.5" y="-579.8" font-family="Times New Roman,serif" font-size="14.00">k</text>
</g>
<!-- 23&#45;&gt;25 -->
<g id="edge23" class="edge"><title>23&#45;&gt;25</title>
<path fill="none" stroke="black" d="M220.91,-609.131C224.781,-599.113 230.35,-586.382 237,-576 239.828,-571.585 243.202,-567.17 246.668,-563.035"/>
<polygon fill="black" stroke="black" points="249.323,-565.316 253.323,-555.505 244.078,-560.68 249.323,-565.316"/>
<text text-anchor="middle" x="241" y="-579.8" font-family="Times New Roman,serif" font-size="14.00">b</text>
</g>
<!-- 24&#45;&gt;22 -->
<g id="edge38" class="edge"><title>24&#45;&gt;22</title>
<path fill="none" stroke="black" d="M26.8792,-210.125C26.8414,-219.78 26.8438,-232.064 27,-243 27.0365,-245.553 27.0879,-248.21 27.1484,-250.869"/>
<polygon fill="black" stroke="black" points="23.6507,-251.008 27.4141,-260.912 30.6483,-250.823 23.6507,-251.008"/>
<text text-anchor="middle" x="29" y="-231.8" font-family="Times New Roman,serif" font-size="14.00">l</text>
</g>
<!-- 25&#45;&gt;5 -->
<g id="edge53" class="edge"><title>25&#45;&gt;5</title>
<path fill="none" stroke="black" d="M279.071,-523.378C286.675,-513.12 297.295,-499.676 308,-489 313.512,-483.503 319.86,-478.035 325.988,-473.11"/>
<polygon fill="black" stroke="black" points="328.373,-475.688 334.109,-466.78 324.07,-470.167 328.373,-475.688"/>
<text text-anchor="middle" x="311.5" y="-492.8" font-family="Times New Roman,serif" font-size="14.00">k</text>
</g>
<!-- 25&#45;&gt;23 -->
<g id="edge24" class="edge"><title>25&#45;&gt;23</title>
<path fill="none" stroke="black" d="M261.64,-557.814C257.528,-567.811 251.702,-580.542 245,-591 242.282,-595.241 239.088,-599.512 235.815,-603.542"/>
<polygon fill="black" stroke="black" points="232.947,-601.512 229.115,-611.389 238.27,-606.057 232.947,-601.512"/>
<text text-anchor="middle" x="258" y="-579.8" font-family="Times New Roman,serif" font-size="14.00">b</text>
</g>
<!-- 25&#45;&gt;26 -->
<g id="edge25" class="edge"><title>25&#45;&gt;26</title>
<path fill="none" stroke="black" d="M260.618,-522.502C258.249,-516.735 255.78,-510.162 254,-504 241.266,-459.915 233.833,-447.698 238,-402 241.57,-362.847 236.502,-350.206 254,-315 256.367,-310.238 259.577,-305.65 263.053,-301.453"/>
<polygon fill="black" stroke="black" points="265.77,-303.668 269.916,-293.918 260.595,-298.954 265.77,-303.668"/>
<text text-anchor="middle" x="242" y="-405.8" font-family="Times New Roman,serif" font-size="14.00">b</text>
</g>
<!-- 26&#45;&gt;4 -->
<g id="edge16" class="edge"><title>26&#45;&gt;4</title>
<path fill="none" stroke="black" d="M297.922,-295.181C304.572,-307.069 312.24,-323.907 317.607,-338.069"/>
<polygon fill="black" stroke="black" points="314.418,-339.546 321.061,-347.799 321.014,-337.204 314.418,-339.546"/>
</g>
<!-- 26&#45;&gt;25 -->
<g id="edge26" class="edge"><title>26&#45;&gt;25</title>
<path fill="none" stroke="black" d="M284.815,-297.056C281.758,-341.031 273.592,-458.537 269.881,-511.929"/>
<polygon fill="black" stroke="black" points="266.383,-511.788 269.181,-522.006 273.366,-512.273 266.383,-511.788"/>
<text text-anchor="middle" x="282" y="-405.8" font-family="Times New Roman,serif" font-size="14.00">b</text>
</g>
<!-- 27&#45;&gt;3 -->
<g id="edge44" class="edge"><title>27&#45;&gt;3</title>
<path fill="none" stroke="black" d="M379.774,-296.885C382.376,-308.525 385.892,-324.253 388.89,-337.664"/>
<polygon fill="black" stroke="black" points="385.558,-338.803 391.155,-347.799 392.389,-337.276 385.558,-338.803"/>
<text text-anchor="middle" x="389" y="-318.8" font-family="Times New Roman,serif" font-size="14.00">l</text>
</g>
</g>
</svg>
