<?xml version="1.0" encoding="UTF-8" standalone="no"?>
<!DOCTYPE svg PUBLIC "-//W3C//DTD SVG 1.1//EN"
 "http://www.w3.org/Graphics/SVG/1.1/DTD/svg11.dtd">
<!-- Generated by graphviz version 2.38.0 (20140413.2041)
 -->
<!-- Title: %3 Pages: 1 -->
<svg width="462pt" height="1408pt"
 viewBox="0.00 0.00 462.15 1408.00" xmlns="http://www.w3.org/2000/svg" xmlns:xlink="http://www.w3.org/1999/xlink">
<g id="graph0" class="graph" transform="scale(1 1) rotate(0) translate(4 1404)">
<title>%3</title>
<polygon fill="white" stroke="none" points="-4,4 -4,-1404 458.145,-1404 458.145,4 -4,4"/>
<!-- 0 -->
<g id="node1" class="node"><title>0</title>
<ellipse fill="none" stroke="black" cx="297.145" cy="-1382" rx="27" ry="18"/>
<text text-anchor="middle" x="297.145" y="-1378.3" font-family="Times New Roman,serif" font-size="14.00">I</text>
</g>
<!-- 28 -->
<g id="node29" class="node"><title>28</title>
<ellipse fill="none" stroke="black" cx="297.145" cy="-1295" rx="28.6953" ry="18"/>
<text text-anchor="middle" x="297.145" y="-1291.3" font-family="Times New Roman,serif" font-size="14.00">e,p,k</text>
</g>
<!-- 0&#45;&gt;28 -->
<g id="edge62" class="edge"><title>0&#45;&gt;28</title>
<path fill="none" stroke="black" d="M292.721,-1363.92C290.736,-1354.27 289.057,-1341.99 290.145,-1331 290.402,-1328.41 290.762,-1325.73 291.186,-1323.05"/>
<polygon fill="black" stroke="black" points="294.671,-1323.46 293.047,-1312.99 287.787,-1322.19 294.671,-1323.46"/>
<text text-anchor="middle" x="292.145" y="-1334.8" font-family="Times New Roman,serif" font-size="14.00">l</text>
</g>
<!-- 1 -->
<g id="node2" class="node"><title>1</title>
<ellipse fill="none" stroke="black" cx="419.145" cy="-512" rx="27" ry="18"/>
<text text-anchor="middle" x="419.145" y="-508.3" font-family="Times New Roman,serif" font-size="14.00">b</text>
</g>
<!-- 8 -->
<g id="node9" class="node"><title>8</title>
<ellipse fill="none" stroke="black" cx="396.145" cy="-599" rx="27" ry="18"/>
<text text-anchor="middle" x="396.145" y="-595.3" font-family="Times New Roman,serif" font-size="14.00">e,,p</text>
</g>
<!-- 1&#45;&gt;8 -->
<g id="edge30" class="edge"><title>1&#45;&gt;8</title>
<path fill="none" stroke="black" d="M414.61,-529.758C411.4,-541.625 407.026,-557.787 403.342,-571.403"/>
<polygon fill="black" stroke="black" points="399.923,-570.64 400.689,-581.207 406.68,-572.468 399.923,-570.64"/>
<text text-anchor="middle" x="413.145" y="-551.8" font-family="Times New Roman,serif" font-size="14.00">b</text>
</g>
<!-- 30 -->
<g id="node31" class="node"><title>30</title>
<ellipse fill="none" stroke="black" cx="427.145" cy="-425" rx="27" ry="18"/>
<text text-anchor="middle" x="427.145" y="-421.3" font-family="Times New Roman,serif" font-size="14.00">t</text>
</g>
<!-- 1&#45;&gt;30 -->
<g id="edge49" class="edge"><title>1&#45;&gt;30</title>
<path fill="none" stroke="black" d="M416.947,-493.801C416.088,-484.122 415.627,-471.84 417.145,-461 417.526,-458.278 418.067,-455.47 418.701,-452.684"/>
<polygon fill="black" stroke="black" points="422.12,-453.448 421.295,-442.885 415.353,-451.656 422.12,-453.448"/>
</g>
<!-- 2 -->
<g id="node3" class="node"><title>2</title>
<ellipse fill="none" stroke="black" cx="235.145" cy="-947" rx="27" ry="18"/>
<text text-anchor="middle" x="235.145" y="-943.3" font-family="Times New Roman,serif" font-size="14.00">p</text>
</g>
<!-- 7 -->
<g id="node8" class="node"><title>7</title>
<ellipse fill="none" stroke="black" cx="233.145" cy="-860" rx="27" ry="18"/>
<text text-anchor="middle" x="233.145" y="-856.3" font-family="Times New Roman,serif" font-size="14.00">e</text>
</g>
<!-- 2&#45;&gt;7 -->
<g id="edge72" class="edge"><title>2&#45;&gt;7</title>
<path fill="none" stroke="black" d="M234.74,-928.799C234.467,-917.163 234.099,-901.548 233.786,-888.237"/>
<polygon fill="black" stroke="black" points="237.284,-888.09 233.549,-878.175 230.285,-888.255 237.284,-888.09"/>
<text text-anchor="middle" x="238.645" y="-899.8" font-family="Times New Roman,serif" font-size="14.00">k</text>
</g>
<!-- 9 -->
<g id="node10" class="node"><title>9</title>
<ellipse fill="none" stroke="black" cx="336.145" cy="-1034" rx="27" ry="18"/>
<text text-anchor="middle" x="336.145" y="-1030.3" font-family="Times New Roman,serif" font-size="14.00">e,p,i</text>
</g>
<!-- 2&#45;&gt;9 -->
<g id="edge75" class="edge"><title>2&#45;&gt;9</title>
<path fill="none" stroke="black" d="M251.332,-961.623C267.735,-975.427 293.302,-996.944 312.079,-1012.75"/>
<polygon fill="black" stroke="black" points="310.013,-1015.58 319.918,-1019.34 314.52,-1010.23 310.013,-1015.58"/>
<text text-anchor="middle" x="294.145" y="-986.8" font-family="Times New Roman,serif" font-size="14.00">l</text>
</g>
<!-- 3 -->
<g id="node4" class="node"><title>3</title>
<ellipse fill="none" stroke="black" cx="343.145" cy="-1121" rx="27" ry="18"/>
<text text-anchor="middle" x="343.145" y="-1117.3" font-family="Times New Roman,serif" font-size="14.00">e</text>
</g>
<!-- 4 -->
<g id="node5" class="node"><title>4</title>
<ellipse fill="none" stroke="black" cx="408.145" cy="-1034" rx="27" ry="18"/>
<text text-anchor="middle" x="408.145" y="-1030.3" font-family="Times New Roman,serif" font-size="14.00">e,p</text>
</g>
<!-- 3&#45;&gt;4 -->
<g id="edge31" class="edge"><title>3&#45;&gt;4</title>
<path fill="none" stroke="black" d="M353.361,-1103.87C359.864,-1093.89 368.638,-1080.94 377.145,-1070 380.425,-1065.78 384.067,-1061.42 387.668,-1057.27"/>
<polygon fill="black" stroke="black" points="390.425,-1059.43 394.438,-1049.63 385.186,-1054.79 390.425,-1059.43"/>
<text text-anchor="middle" x="381.145" y="-1073.8" font-family="Times New Roman,serif" font-size="14.00">b</text>
</g>
<!-- 3&#45;&gt;9 -->
<g id="edge69" class="edge"><title>3&#45;&gt;9</title>
<path fill="none" stroke="black" d="M329.146,-1105.54C324.372,-1099.65 319.617,-1092.47 317.145,-1085 314.378,-1076.64 316.272,-1067.6 319.751,-1059.55"/>
<polygon fill="black" stroke="black" points="322.876,-1061.12 324.381,-1050.64 316.664,-1057.9 322.876,-1061.12"/>
<text text-anchor="middle" x="320.645" y="-1073.8" font-family="Times New Roman,serif" font-size="14.00">k</text>
</g>
<!-- 10 -->
<g id="node11" class="node"><title>10</title>
<ellipse fill="none" stroke="black" cx="297.145" cy="-1208" rx="27" ry="18"/>
<text text-anchor="middle" x="297.145" y="-1204.3" font-family="Times New Roman,serif" font-size="14.00">e</text>
</g>
<!-- 3&#45;&gt;10 -->
<g id="edge57" class="edge"><title>3&#45;&gt;10</title>
<path fill="none" stroke="black" d="M335.822,-1138.45C331.288,-1148.32 325.194,-1161.04 319.145,-1172 317.21,-1175.51 315.074,-1179.14 312.917,-1182.69"/>
<polygon fill="black" stroke="black" points="309.933,-1180.86 307.61,-1191.2 315.873,-1184.57 309.933,-1180.86"/>
<text text-anchor="middle" x="329.145" y="-1160.8" font-family="Times New Roman,serif" font-size="14.00">l</text>
</g>
<!-- 4&#45;&gt;3 -->
<g id="edge32" class="edge"><title>4&#45;&gt;3</title>
<path fill="none" stroke="black" d="M402.582,-1051.78C398.689,-1062.01 392.814,-1074.99 385.145,-1085 380.725,-1090.77 375.19,-1096.22 369.603,-1101.03"/>
<polygon fill="black" stroke="black" points="367.084,-1098.56 361.504,-1107.57 371.482,-1104.01 367.084,-1098.56"/>
<text text-anchor="middle" x="398.145" y="-1073.8" font-family="Times New Roman,serif" font-size="14.00">b</text>
</g>
<!-- 29 -->
<g id="node30" class="node"><title>29</title>
<ellipse fill="none" stroke="black" cx="388.145" cy="-947" rx="27" ry="18"/>
<text text-anchor="middle" x="388.145" y="-943.3" font-family="Times New Roman,serif" font-size="14.00">e,i</text>
</g>
<!-- 4&#45;&gt;29 -->
<g id="edge33" class="edge"><title>4&#45;&gt;29</title>
<path fill="none" stroke="black" d="M394.412,-1018.12C389.91,-1012.28 385.469,-1005.25 383.145,-998 380.829,-990.772 380.664,-982.683 381.457,-975.151"/>
<polygon fill="black" stroke="black" points="384.953,-975.454 383.089,-965.025 378.042,-974.34 384.953,-975.454"/>
<text text-anchor="middle" x="387.145" y="-986.8" font-family="Times New Roman,serif" font-size="14.00">b</text>
</g>
<!-- 5 -->
<g id="node6" class="node"><title>5</title>
<ellipse fill="none" stroke="black" cx="266.145" cy="-773" rx="27" ry="18"/>
<text text-anchor="middle" x="266.145" y="-769.3" font-family="Times New Roman,serif" font-size="14.00">p,m</text>
</g>
<!-- 6 -->
<g id="node7" class="node"><title>6</title>
<ellipse fill="none" stroke="black" cx="206.145" cy="-686" rx="27" ry="18"/>
<text text-anchor="middle" x="206.145" y="-682.3" font-family="Times New Roman,serif" font-size="14.00">m,k</text>
</g>
<!-- 5&#45;&gt;6 -->
<g id="edge27" class="edge"><title>5&#45;&gt;6</title>
<path fill="none" stroke="black" d="M242.402,-764.378C229.571,-758.921 214.821,-750.171 207.145,-737 203.178,-730.193 201.897,-721.928 201.898,-714.095"/>
<polygon fill="black" stroke="black" points="205.407,-714.064 202.56,-703.859 198.422,-713.612 205.407,-714.064"/>
<text text-anchor="middle" x="211.145" y="-725.8" font-family="Times New Roman,serif" font-size="14.00">b</text>
</g>
<!-- 5&#45;&gt;7 -->
<g id="edge56" class="edge"><title>5&#45;&gt;7</title>
<path fill="none" stroke="black" d="M259.639,-790.758C254.987,-802.741 248.634,-819.104 243.316,-832.803"/>
<polygon fill="black" stroke="black" points="240.021,-831.618 239.665,-842.207 246.547,-834.151 240.021,-831.618"/>
<text text-anchor="middle" x="254.145" y="-812.8" font-family="Times New Roman,serif" font-size="14.00">l</text>
</g>
<!-- 23 -->
<g id="node24" class="node"><title>23</title>
<ellipse fill="none" stroke="black" cx="278.145" cy="-686" rx="27" ry="18"/>
<text text-anchor="middle" x="278.145" y="-682.3" font-family="Times New Roman,serif" font-size="14.00">e,i,p</text>
</g>
<!-- 5&#45;&gt;23 -->
<g id="edge48" class="edge"><title>5&#45;&gt;23</title>
<path fill="none" stroke="black" d="M268.531,-754.874C269.879,-745.219 271.598,-732.935 273.145,-722 273.506,-719.447 273.883,-716.79 274.261,-714.132"/>
<polygon fill="black" stroke="black" points="277.747,-714.483 275.694,-704.088 270.817,-713.494 277.747,-714.483"/>
<text text-anchor="middle" x="275.145" y="-725.8" font-family="Times New Roman,serif" font-size="14.00">l</text>
</g>
<!-- 6&#45;&gt;5 -->
<g id="edge28" class="edge"><title>6&#45;&gt;5</title>
<path fill="none" stroke="black" d="M217.08,-702.491C226.025,-715.164 238.832,-733.306 249.118,-747.879"/>
<polygon fill="black" stroke="black" points="246.514,-750.258 255.14,-756.41 252.233,-746.222 246.514,-750.258"/>
<text text-anchor="middle" x="244.145" y="-725.8" font-family="Times New Roman,serif" font-size="14.00">b</text>
</g>
<!-- 7&#45;&gt;2 -->
<g id="edge71" class="edge"><title>7&#45;&gt;2</title>
<path fill="none" stroke="black" d="M237.828,-877.958C239.181,-883.646 240.474,-890.054 241.145,-896 241.985,-903.44 241.591,-911.498 240.695,-918.928"/>
<polygon fill="black" stroke="black" points="237.225,-918.468 239.171,-928.883 244.144,-919.528 237.225,-918.468"/>
<text text-anchor="middle" x="245.645" y="-899.8" font-family="Times New Roman,serif" font-size="14.00">k</text>
</g>
<!-- 7&#45;&gt;5 -->
<g id="edge55" class="edge"><title>7&#45;&gt;5</title>
<path fill="none" stroke="black" d="M236.894,-842.02C239.31,-832.193 242.81,-819.693 247.145,-809 248.485,-805.696 250.055,-802.303 251.71,-798.991"/>
<polygon fill="black" stroke="black" points="254.878,-800.487 256.472,-790.013 248.694,-797.207 254.878,-800.487"/>
</g>
<!-- 8&#45;&gt;1 -->
<g id="edge29" class="edge"><title>8&#45;&gt;1</title>
<path fill="none" stroke="black" d="M394.759,-580.991C394.463,-571.155 394.963,-558.655 398.145,-548 399.222,-544.393 400.757,-540.776 402.512,-537.308"/>
<polygon fill="black" stroke="black" points="405.575,-539.003 407.514,-528.587 399.503,-535.52 405.575,-539.003"/>
<text text-anchor="middle" x="402.145" y="-551.8" font-family="Times New Roman,serif" font-size="14.00">b</text>
</g>
<!-- 33 -->
<g id="node34" class="node"><title>33</title>
<ellipse fill="none" stroke="black" cx="395.145" cy="-686" rx="27" ry="18"/>
<text text-anchor="middle" x="395.145" y="-682.3" font-family="Times New Roman,serif" font-size="14.00">e,p</text>
</g>
<!-- 8&#45;&gt;33 -->
<g id="edge64" class="edge"><title>8&#45;&gt;33</title>
<path fill="none" stroke="black" d="M395.943,-617.175C395.806,-628.806 395.622,-644.419 395.466,-657.734"/>
<polygon fill="black" stroke="black" points="391.965,-657.758 395.347,-667.799 398.965,-657.841 391.965,-657.758"/>
<text text-anchor="middle" x="398.145" y="-638.8" font-family="Times New Roman,serif" font-size="14.00">l</text>
</g>
<!-- 9&#45;&gt;2 -->
<g id="edge76" class="edge"><title>9&#45;&gt;2</title>
<path fill="none" stroke="black" d="M313.913,-1023.77C300.864,-1017.68 284.554,-1008.82 272.145,-998 263.843,-990.761 256.283,-981.353 250.191,-972.654"/>
<polygon fill="black" stroke="black" points="253.077,-970.673 244.616,-964.297 247.254,-974.558 253.077,-970.673"/>
<text text-anchor="middle" x="274.145" y="-986.8" font-family="Times New Roman,serif" font-size="14.00">l</text>
</g>
<!-- 9&#45;&gt;3 -->
<g id="edge70" class="edge"><title>9&#45;&gt;3</title>
<path fill="none" stroke="black" d="M337.56,-1052.18C338.517,-1063.81 339.803,-1079.42 340.9,-1092.73"/>
<polygon fill="black" stroke="black" points="337.419,-1093.12 341.729,-1102.8 344.396,-1092.55 337.419,-1093.12"/>
<text text-anchor="middle" x="343.645" y="-1073.8" font-family="Times New Roman,serif" font-size="14.00">k</text>
</g>
<!-- 27 -->
<g id="node28" class="node"><title>27</title>
<ellipse fill="none" stroke="black" cx="313.145" cy="-947" rx="27" ry="18"/>
<text text-anchor="middle" x="313.145" y="-943.3" font-family="Times New Roman,serif" font-size="14.00">i</text>
</g>
<!-- 9&#45;&gt;27 -->
<g id="edge40" class="edge"><title>9&#45;&gt;27</title>
<path fill="none" stroke="black" d="M325.142,-1017.32C321.632,-1011.51 318.143,-1004.71 316.145,-998 313.985,-990.749 312.947,-982.652 312.517,-975.121"/>
<polygon fill="black" stroke="black" points="316.013,-974.908 312.262,-964.999 309.015,-975.084 316.013,-974.908"/>
<text text-anchor="middle" x="320.145" y="-986.8" font-family="Times New Roman,serif" font-size="14.00">b</text>
</g>
<!-- 10&#45;&gt;3 -->
<g id="edge58" class="edge"><title>10&#45;&gt;3</title>
<path fill="none" stroke="black" d="M303.998,-1190.48C308.285,-1180.59 314.122,-1167.86 320.145,-1157 322.112,-1153.45 324.313,-1149.79 326.554,-1146.23"/>
<polygon fill="black" stroke="black" points="329.573,-1148.01 332.094,-1137.72 323.706,-1144.19 329.573,-1148.01"/>
<text text-anchor="middle" x="322.145" y="-1160.8" font-family="Times New Roman,serif" font-size="14.00">l</text>
</g>
<!-- 10&#45;&gt;27 -->
<g id="edge38" class="edge"><title>10&#45;&gt;27</title>
<path fill="none" stroke="black" d="M287.264,-1191.15C264.712,-1152.77 214.364,-1052.85 254.145,-983 259.921,-972.858 269.921,-965.352 280.064,-959.95"/>
<polygon fill="black" stroke="black" points="281.77,-963.014 289.303,-955.565 278.768,-956.691 281.77,-963.014"/>
<text text-anchor="middle" x="248.145" y="-1073.8" font-family="Times New Roman,serif" font-size="14.00">b</text>
</g>
<!-- 10&#45;&gt;28 -->
<g id="edge59" class="edge"><title>10&#45;&gt;28</title>
<path fill="none" stroke="black" d="M297.145,-1226.18C297.145,-1237.81 297.145,-1253.42 297.145,-1266.73"/>
<polygon fill="black" stroke="black" points="293.645,-1266.8 297.145,-1276.8 300.645,-1266.8 293.645,-1266.8"/>
<text text-anchor="middle" x="299.145" y="-1247.8" font-family="Times New Roman,serif" font-size="14.00">l</text>
</g>
<!-- 11 -->
<g id="node12" class="node"><title>11</title>
<ellipse fill="none" stroke="black" cx="50.1451" cy="-338" rx="27" ry="18"/>
<text text-anchor="middle" x="50.1451" y="-334.3" font-family="Times New Roman,serif" font-size="14.00">s</text>
</g>
<!-- 13 -->
<g id="node14" class="node"><title>13</title>
<ellipse fill="none" stroke="black" cx="120.145" cy="-425" rx="27" ry="18"/>
</g>
<!-- 11&#45;&gt;13 -->
<g id="edge1" class="edge"><title>11&#45;&gt;13</title>
<path fill="none" stroke="black" d="M66.3934,-352.539C78.4276,-365.046 94.3513,-383.935 105.885,-399.152"/>
<polygon fill="black" stroke="black" points="103.362,-401.629 112.106,-407.611 109.001,-397.481 103.362,-401.629"/>
</g>
<!-- 12 -->
<g id="node13" class="node"><title>12</title>
<ellipse fill="none" stroke="black" cx="122.145" cy="-338" rx="27" ry="18"/>
<text text-anchor="middle" x="122.145" y="-334.3" font-family="Times New Roman,serif" font-size="14.00">m,i</text>
</g>
<!-- 12&#45;&gt;13 -->
<g id="edge9" class="edge"><title>12&#45;&gt;13</title>
<path fill="none" stroke="black" d="M127.251,-355.758C128.288,-367.508 128.191,-383.47 127.114,-397.002"/>
<polygon fill="black" stroke="black" points="123.606,-396.896 126.044,-407.207 130.568,-397.626 123.606,-396.896"/>
</g>
<!-- 15 -->
<g id="node16" class="node"><title>15</title>
<ellipse fill="none" stroke="black" cx="122.145" cy="-251" rx="27" ry="18"/>
<text text-anchor="middle" x="122.145" y="-247.3" font-family="Times New Roman,serif" font-size="14.00">e</text>
</g>
<!-- 12&#45;&gt;15 -->
<g id="edge7" class="edge"><title>12&#45;&gt;15</title>
<path fill="none" stroke="black" d="M116.641,-320.207C115.329,-308.448 115.053,-292.485 115.813,-278.958"/>
<polygon fill="black" stroke="black" points="119.321,-279.01 116.645,-268.758 112.344,-278.441 119.321,-279.01"/>
</g>
<!-- 13&#45;&gt;11 -->
<g id="edge2" class="edge"><title>13&#45;&gt;11</title>
<path fill="none" stroke="black" d="M103.784,-410.343C91.7187,-397.79 75.7863,-378.88 64.2785,-363.681"/>
<polygon fill="black" stroke="black" points="66.8176,-361.226 58.0769,-355.238 61.1759,-365.37 66.8176,-361.226"/>
</g>
<!-- 13&#45;&gt;12 -->
<g id="edge10" class="edge"><title>13&#45;&gt;12</title>
<path fill="none" stroke="black" d="M115.036,-407.207C114.001,-395.448 114.101,-379.485 115.179,-365.958"/>
<polygon fill="black" stroke="black" points="118.687,-366.069 116.251,-355.758 111.725,-365.338 118.687,-366.069"/>
</g>
<!-- 16 -->
<g id="node17" class="node"><title>16</title>
<ellipse fill="none" stroke="black" cx="132.145" cy="-512" rx="27" ry="18"/>
<text text-anchor="middle" x="132.145" y="-508.3" font-family="Times New Roman,serif" font-size="14.00">e,p,i</text>
</g>
<!-- 13&#45;&gt;16 -->
<g id="edge3" class="edge"><title>13&#45;&gt;16</title>
<path fill="none" stroke="black" d="M127.897,-442.31C130.884,-453.963 133.44,-469.921 134.626,-483.523"/>
<polygon fill="black" stroke="black" points="131.151,-484.036 135.265,-493.799 138.138,-483.601 131.151,-484.036"/>
</g>
<!-- 14 -->
<g id="node15" class="node"><title>14</title>
<ellipse fill="none" stroke="black" cx="196.145" cy="-338" rx="28.6953" ry="18"/>
<text text-anchor="middle" x="196.145" y="-334.3" font-family="Times New Roman,serif" font-size="14.00">e,p,k</text>
</g>
<!-- 18 -->
<g id="node19" class="node"><title>18</title>
<ellipse fill="none" stroke="black" cx="193.145" cy="-425" rx="27" ry="18"/>
<text text-anchor="middle" x="193.145" y="-421.3" font-family="Times New Roman,serif" font-size="14.00">e,p,i</text>
</g>
<!-- 14&#45;&gt;18 -->
<g id="edge21" class="edge"><title>14&#45;&gt;18</title>
<path fill="none" stroke="black" d="M201.053,-355.758C201.953,-367.508 201.668,-383.47 200.432,-397.002"/>
<polygon fill="black" stroke="black" points="196.924,-396.869 199.242,-407.207 203.877,-397.68 196.924,-396.869"/>
</g>
<!-- 15&#45;&gt;12 -->
<g id="edge8" class="edge"><title>15&#45;&gt;12</title>
<path fill="none" stroke="black" d="M127.645,-268.758C128.959,-280.508 129.237,-296.47 128.479,-310.002"/>
<polygon fill="black" stroke="black" points="124.971,-309.956 127.649,-320.207 131.948,-310.524 124.971,-309.956"/>
</g>
<!-- 15&#45;&gt;16 -->
<g id="edge6" class="edge"><title>15&#45;&gt;16</title>
<path fill="none" stroke="black" d="M99.7309,-261.362C75.8344,-271.348 39.7437,-289.934 23.1451,-320 15.412,-334.007 18.0309,-340.839 23.1451,-356 41.3471,-409.959 86.6529,-459.991 112.973,-487.919"/>
<polygon fill="black" stroke="black" points="110.754,-490.666 120.169,-495.526 115.839,-485.856 110.754,-490.666"/>
</g>
<!-- 19 -->
<g id="node20" class="node"><title>19</title>
<ellipse fill="none" stroke="black" cx="122.145" cy="-164" rx="27" ry="18"/>
<text text-anchor="middle" x="122.145" y="-160.3" font-family="Times New Roman,serif" font-size="14.00">e</text>
</g>
<!-- 15&#45;&gt;19 -->
<g id="edge18" class="edge"><title>15&#45;&gt;19</title>
<path fill="none" stroke="black" d="M116.641,-233.207C115.329,-221.448 115.053,-205.485 115.813,-191.958"/>
<polygon fill="black" stroke="black" points="119.321,-192.01 116.645,-181.758 112.344,-191.441 119.321,-192.01"/>
</g>
<!-- 21 -->
<g id="node22" class="node"><title>21</title>
<ellipse fill="none" stroke="black" cx="300.145" cy="-164" rx="27" ry="18"/>
<text text-anchor="middle" x="300.145" y="-160.3" font-family="Times New Roman,serif" font-size="14.00">e,p,i</text>
</g>
<!-- 15&#45;&gt;21 -->
<g id="edge45" class="edge"><title>15&#45;&gt;21</title>
<path fill="none" stroke="black" d="M143.616,-239.747C175.107,-224.709 233.96,-196.605 269.842,-179.471"/>
<polygon fill="black" stroke="black" points="271.359,-182.625 278.875,-175.157 268.343,-176.308 271.359,-182.625"/>
<text text-anchor="middle" x="226.145" y="-203.8" font-family="Times New Roman,serif" font-size="14.00">b</text>
</g>
<!-- 16&#45;&gt;13 -->
<g id="edge4" class="edge"><title>16&#45;&gt;13</title>
<path fill="none" stroke="black" d="M124.373,-494.611C121.375,-482.887 118.813,-466.834 117.64,-453.203"/>
<polygon fill="black" stroke="black" points="121.116,-452.69 117.016,-442.92 114.128,-453.114 121.116,-452.69"/>
</g>
<!-- 16&#45;&gt;15 -->
<g id="edge5" class="edge"><title>16&#45;&gt;15</title>
<path fill="none" stroke="black" d="M113.341,-499.069C83.0682,-475.127 26.1167,-418.169 5.14506,-356 0.0309036,-340.839 -2.58798,-334.007 5.14506,-320 22.1006,-289.288 59.3951,-270.554 87.5133,-260.73"/>
<polygon fill="black" stroke="black" points="88.6093,-264.054 97.028,-257.622 86.4355,-257.4 88.6093,-264.054"/>
</g>
<!-- 16&#45;&gt;18 -->
<g id="edge42" class="edge"><title>16&#45;&gt;18</title>
<path fill="none" stroke="black" d="M149.608,-498.068C156.955,-491.982 165.167,-484.252 171.145,-476 176.366,-468.793 180.716,-460.151 184.131,-452.094"/>
<polygon fill="black" stroke="black" points="187.426,-453.28 187.83,-442.693 180.912,-450.717 187.426,-453.28"/>
<text text-anchor="middle" x="184.145" y="-464.8" font-family="Times New Roman,serif" font-size="14.00">b</text>
</g>
<!-- 22 -->
<g id="node23" class="node"><title>22</title>
<ellipse fill="none" stroke="black" cx="278.145" cy="-599" rx="27" ry="18"/>
<text text-anchor="middle" x="278.145" y="-595.3" font-family="Times New Roman,serif" font-size="14.00">e</text>
</g>
<!-- 16&#45;&gt;22 -->
<g id="edge43" class="edge"><title>16&#45;&gt;22</title>
<path fill="none" stroke="black" d="M147.237,-527.529C159.033,-538.33 176.218,-552.886 193.145,-563 209.255,-572.626 228.5,-580.794 244.6,-586.812"/>
<polygon fill="black" stroke="black" points="243.569,-590.161 254.163,-590.275 245.952,-583.579 243.569,-590.161"/>
<text text-anchor="middle" x="197.145" y="-551.8" font-family="Times New Roman,serif" font-size="14.00">b</text>
</g>
<!-- 17 -->
<g id="node18" class="node"><title>17</title>
<ellipse fill="none" stroke="black" cx="93.1451" cy="-91" rx="29.4969" ry="18"/>
<text text-anchor="middle" x="93.1451" y="-87.3" font-family="Times New Roman,serif" font-size="14.00">m,p,i</text>
</g>
<!-- 17&#45;&gt;19 -->
<g id="edge12" class="edge"><title>17&#45;&gt;19</title>
<path fill="none" stroke="black" d="M105.206,-107.576C109.625,-115.962 114.236,-126.542 117.767,-136.205"/>
<polygon fill="black" stroke="black" points="114.494,-137.453 121.003,-145.813 121.128,-135.219 114.494,-137.453"/>
</g>
<!-- 20 -->
<g id="node21" class="node"><title>20</title>
<ellipse fill="none" stroke="black" cx="93.1451" cy="-18" rx="28.6953" ry="18"/>
<text text-anchor="middle" x="93.1451" y="-14.3" font-family="Times New Roman,serif" font-size="14.00">e,p,k</text>
</g>
<!-- 17&#45;&gt;20 -->
<g id="edge13" class="edge"><title>17&#45;&gt;20</title>
<path fill="none" stroke="black" d="M87.3051,-73.174C86.4299,-65.0392 86.1859,-55.0756 86.5734,-45.9214"/>
<polygon fill="black" stroke="black" points="90.0817,-45.9333 87.3182,-35.7052 83.1002,-45.4242 90.0817,-45.9333"/>
</g>
<!-- 18&#45;&gt;14 -->
<g id="edge22" class="edge"><title>18&#45;&gt;14</title>
<path fill="none" stroke="black" d="M188.234,-407.207C187.337,-395.448 187.624,-379.485 188.862,-365.958"/>
<polygon fill="black" stroke="black" points="192.369,-366.097 190.054,-355.758 185.417,-365.285 192.369,-366.097"/>
</g>
<!-- 18&#45;&gt;16 -->
<g id="edge41" class="edge"><title>18&#45;&gt;16</title>
<path fill="none" stroke="black" d="M180.024,-441.009C174.897,-447.082 169.077,-454.244 164.145,-461 158.317,-468.983 152.364,-478.002 147.199,-486.161"/>
<polygon fill="black" stroke="black" points="144.068,-484.567 141.749,-494.905 150.009,-488.269 144.068,-484.567"/>
<text text-anchor="middle" x="168.145" y="-464.8" font-family="Times New Roman,serif" font-size="14.00">b</text>
</g>
<!-- 24 -->
<g id="node25" class="node"><title>24</title>
<ellipse fill="none" stroke="black" cx="270.145" cy="-338" rx="27" ry="18"/>
<text text-anchor="middle" x="270.145" y="-334.3" font-family="Times New Roman,serif" font-size="14.00">m</text>
</g>
<!-- 18&#45;&gt;24 -->
<g id="edge19" class="edge"><title>18&#45;&gt;24</title>
<path fill="none" stroke="black" d="M202.217,-408.012C213.063,-394.252 230.97,-374.319 245.793,-359.409"/>
<polygon fill="black" stroke="black" points="248.525,-361.632 253.21,-352.13 243.621,-356.637 248.525,-361.632"/>
</g>
<!-- 19&#45;&gt;15 -->
<g id="edge17" class="edge"><title>19&#45;&gt;15</title>
<path fill="none" stroke="black" d="M127.645,-181.758C128.959,-193.508 129.237,-209.47 128.479,-223.002"/>
<polygon fill="black" stroke="black" points="124.971,-222.956 127.649,-233.207 131.948,-223.524 124.971,-222.956"/>
</g>
<!-- 19&#45;&gt;17 -->
<g id="edge11" class="edge"><title>19&#45;&gt;17</title>
<path fill="none" stroke="black" d="M110.174,-147.594C105.727,-139.179 101.076,-128.518 97.5205,-118.788"/>
<polygon fill="black" stroke="black" points="100.773,-117.479 94.2659,-109.118 94.1387,-119.712 100.773,-117.479"/>
</g>
<!-- 26 -->
<g id="node27" class="node"><title>26</title>
<ellipse fill="none" stroke="black" cx="167.145" cy="-91" rx="27" ry="18"/>
</g>
<!-- 19&#45;&gt;26 -->
<g id="edge15" class="edge"><title>19&#45;&gt;26</title>
<path fill="none" stroke="black" d="M126.97,-146.174C131.959,-136.691 139.383,-124.723 146.59,-114.449"/>
<polygon fill="black" stroke="black" points="149.463,-116.449 152.535,-106.309 143.81,-112.32 149.463,-116.449"/>
</g>
<!-- 20&#45;&gt;17 -->
<g id="edge14" class="edge"><title>20&#45;&gt;17</title>
<path fill="none" stroke="black" d="M98.9719,-35.7052C99.8535,-43.8218 100.104,-53.7804 99.7225,-62.9424"/>
<polygon fill="black" stroke="black" points="96.2131,-62.9482 98.985,-73.174 103.195,-63.4515 96.2131,-62.9482"/>
</g>
<!-- 21&#45;&gt;15 -->
<g id="edge46" class="edge"><title>21&#45;&gt;15</title>
<path fill="none" stroke="black" d="M284.915,-178.987C272.163,-190.069 253.059,-205.259 234.145,-215 209.802,-227.538 180.145,-236.559 157.466,-242.299"/>
<polygon fill="black" stroke="black" points="156.468,-238.939 147.581,-244.706 158.125,-245.741 156.468,-238.939"/>
<text text-anchor="middle" x="262.145" y="-203.8" font-family="Times New Roman,serif" font-size="14.00">b</text>
</g>
<!-- 21&#45;&gt;22 -->
<g id="edge54" class="edge"><title>21&#45;&gt;22</title>
<path fill="none" stroke="black" d="M318.03,-177.824C336.655,-192.821 363.145,-219.509 363.145,-250 363.145,-513 363.145,-513 363.145,-513 363.145,-544.644 333.325,-568.622 309.01,-582.914"/>
<polygon fill="black" stroke="black" points="307.068,-579.99 300.035,-587.913 310.474,-586.105 307.068,-579.99"/>
<text text-anchor="middle" x="365.145" y="-377.8" font-family="Times New Roman,serif" font-size="14.00">l</text>
</g>
<!-- 22&#45;&gt;16 -->
<g id="edge44" class="edge"><title>22&#45;&gt;16</title>
<path fill="none" stroke="black" d="M260.129,-585.521C244.737,-575.05 221.862,-559.935 201.145,-548 188.839,-540.91 174.927,-533.706 162.836,-527.692"/>
<polygon fill="black" stroke="black" points="164.113,-524.42 153.595,-523.149 161.025,-530.702 164.113,-524.42"/>
<text text-anchor="middle" x="229.145" y="-551.8" font-family="Times New Roman,serif" font-size="14.00">b</text>
</g>
<!-- 22&#45;&gt;21 -->
<g id="edge53" class="edge"><title>22&#45;&gt;21</title>
<path fill="none" stroke="black" d="M292.247,-583.379C306.091,-567.43 325.145,-540.486 325.145,-513 325.145,-513 325.145,-513 325.145,-250 325.145,-229.619 318.448,-207.565 311.986,-191.03"/>
<polygon fill="black" stroke="black" points="315.107,-189.418 308.055,-181.512 308.638,-192.091 315.107,-189.418"/>
</g>
<!-- 22&#45;&gt;23 -->
<g id="edge25" class="edge"><title>22&#45;&gt;23</title>
<path fill="none" stroke="black" d="M283.645,-616.758C284.959,-628.508 285.237,-644.47 284.479,-658.002"/>
<polygon fill="black" stroke="black" points="280.971,-657.956 283.649,-668.207 287.948,-658.524 280.971,-657.956"/>
</g>
<!-- 22&#45;&gt;24 -->
<g id="edge24" class="edge"><title>22&#45;&gt;24</title>
<path fill="none" stroke="black" d="M274.061,-581.006C268.727,-537.102 264.839,-419.6 266.65,-366.147"/>
<polygon fill="black" stroke="black" points="270.151,-366.204 267.107,-356.056 263.158,-365.888 270.151,-366.204"/>
</g>
<!-- 23&#45;&gt;5 -->
<g id="edge47" class="edge"><title>23&#45;&gt;5</title>
<path fill="none" stroke="black" d="M276.303,-704.153C275.211,-713.816 273.732,-726.099 272.145,-737 271.772,-739.562 271.36,-742.226 270.931,-744.889"/>
<polygon fill="black" stroke="black" points="267.448,-744.496 269.247,-754.937 274.352,-745.654 267.448,-744.496"/>
</g>
<!-- 23&#45;&gt;22 -->
<g id="edge26" class="edge"><title>23&#45;&gt;22</title>
<path fill="none" stroke="black" d="M272.641,-668.207C271.329,-656.448 271.053,-640.485 271.813,-626.958"/>
<polygon fill="black" stroke="black" points="275.321,-627.01 272.645,-616.758 268.344,-626.441 275.321,-627.01"/>
</g>
<!-- 24&#45;&gt;18 -->
<g id="edge20" class="edge"><title>24&#45;&gt;18</title>
<path fill="none" stroke="black" d="M260.995,-355.088C250.173,-368.803 232.392,-388.598 217.63,-403.457"/>
<polygon fill="black" stroke="black" points="214.919,-401.214 210.239,-410.719 219.825,-406.207 214.919,-401.214"/>
</g>
<!-- 24&#45;&gt;22 -->
<g id="edge23" class="edge"><title>24&#45;&gt;22</title>
<path fill="none" stroke="black" d="M274.237,-356.056C279.57,-400.031 283.454,-517.537 281.638,-570.929"/>
<polygon fill="black" stroke="black" points="278.137,-570.858 281.18,-581.006 285.13,-571.176 278.137,-570.858"/>
</g>
<!-- 25 -->
<g id="node26" class="node"><title>25</title>
<ellipse fill="none" stroke="black" cx="262.145" cy="-251" rx="27" ry="18"/>
</g>
<!-- 24&#45;&gt;25 -->
<g id="edge74" class="edge"><title>24&#45;&gt;25</title>
<path fill="none" stroke="black" d="M263.257,-320.556C261.181,-314.794 259.18,-308.209 258.145,-302 256.919,-294.644 256.961,-286.614 257.56,-279.184"/>
<polygon fill="black" stroke="black" points="261.041,-279.546 258.703,-269.213 254.086,-278.749 261.041,-279.546"/>
<text text-anchor="middle" x="261.645" y="-290.8" font-family="Times New Roman,serif" font-size="14.00">k</text>
</g>
<!-- 25&#45;&gt;24 -->
<g id="edge73" class="edge"><title>25&#45;&gt;24</title>
<path fill="none" stroke="black" d="M263.762,-269.175C264.856,-280.806 266.326,-296.419 267.579,-309.734"/>
<polygon fill="black" stroke="black" points="264.104,-310.171 268.526,-319.799 271.074,-309.515 264.104,-310.171"/>
<text text-anchor="middle" x="270.645" y="-290.8" font-family="Times New Roman,serif" font-size="14.00">k</text>
</g>
<!-- 26&#45;&gt;19 -->
<g id="edge16" class="edge"><title>26&#45;&gt;19</title>
<path fill="none" stroke="black" d="M162.312,-108.843C157.33,-118.308 149.927,-130.246 142.734,-140.503"/>
<polygon fill="black" stroke="black" points="139.869,-138.491 136.8,-148.632 145.523,-142.619 139.869,-138.491"/>
</g>
<!-- 27&#45;&gt;9 -->
<g id="edge39" class="edge"><title>27&#45;&gt;9</title>
<path fill="none" stroke="black" d="M318.008,-964.712C319.668,-970.496 321.515,-977.025 323.145,-983 325.19,-990.496 327.339,-998.644 329.289,-1006.14"/>
<polygon fill="black" stroke="black" points="325.905,-1007.04 331.794,-1015.85 332.683,-1005.29 325.905,-1007.04"/>
<text text-anchor="middle" x="331.145" y="-986.8" font-family="Times New Roman,serif" font-size="14.00">b</text>
</g>
<!-- 27&#45;&gt;10 -->
<g id="edge37" class="edge"><title>27&#45;&gt;10</title>
<path fill="none" stroke="black" d="M309.063,-964.926C305.968,-978.611 301.949,-998.424 300.145,-1016 294.18,-1074.1 295.003,-1142.66 296.097,-1179.78"/>
<polygon fill="black" stroke="black" points="292.6,-1179.94 296.422,-1189.82 299.596,-1179.71 292.6,-1179.94"/>
<text text-anchor="middle" x="301.145" y="-1073.8" font-family="Times New Roman,serif" font-size="14.00">b</text>
</g>
<!-- 28&#45;&gt;0 -->
<g id="edge61" class="edge"><title>28&#45;&gt;0</title>
<path fill="none" stroke="black" d="M297.145,-1313.18C297.145,-1324.81 297.145,-1340.42 297.145,-1353.73"/>
<polygon fill="black" stroke="black" points="293.645,-1353.8 297.145,-1363.8 300.645,-1353.8 293.645,-1353.8"/>
<text text-anchor="middle" x="299.145" y="-1334.8" font-family="Times New Roman,serif" font-size="14.00">l</text>
</g>
<!-- 28&#45;&gt;10 -->
<g id="edge60" class="edge"><title>28&#45;&gt;10</title>
<path fill="none" stroke="black" d="M292.721,-1276.92C290.736,-1267.27 289.057,-1254.99 290.145,-1244 290.402,-1241.41 290.762,-1238.73 291.186,-1236.05"/>
<polygon fill="black" stroke="black" points="294.671,-1236.46 293.047,-1225.99 287.787,-1235.19 294.671,-1236.46"/>
<text text-anchor="middle" x="292.145" y="-1247.8" font-family="Times New Roman,serif" font-size="14.00">l</text>
</g>
<!-- 29&#45;&gt;4 -->
<g id="edge34" class="edge"><title>29&#45;&gt;4</title>
<path fill="none" stroke="black" d="M392.118,-964.885C394.884,-976.64 398.631,-992.565 401.807,-1006.06"/>
<polygon fill="black" stroke="black" points="398.4,-1006.87 404.098,-1015.8 405.214,-1005.26 398.4,-1006.87"/>
<text text-anchor="middle" x="404.145" y="-986.8" font-family="Times New Roman,serif" font-size="14.00">b</text>
</g>
<!-- 31 -->
<g id="node32" class="node"><title>31</title>
<ellipse fill="none" stroke="black" cx="401.145" cy="-860" rx="27" ry="18"/>
<text text-anchor="middle" x="401.145" y="-856.3" font-family="Times New Roman,serif" font-size="14.00">m,</text>
</g>
<!-- 29&#45;&gt;31 -->
<g id="edge68" class="edge"><title>29&#45;&gt;31</title>
<path fill="none" stroke="black" d="M388.254,-928.77C388.545,-919.082 389.301,-906.801 391.145,-896 391.608,-893.29 392.202,-890.491 392.87,-887.71"/>
<polygon fill="black" stroke="black" points="396.286,-888.484 395.506,-877.918 389.527,-886.664 396.286,-888.484"/>
<text text-anchor="middle" x="394.645" y="-899.8" font-family="Times New Roman,serif" font-size="14.00">k</text>
</g>
<!-- 32 -->
<g id="node33" class="node"><title>32</title>
<ellipse fill="none" stroke="black" cx="329.145" cy="-860" rx="27" ry="18"/>
<text text-anchor="middle" x="329.145" y="-856.3" font-family="Times New Roman,serif" font-size="14.00">m,i</text>
</g>
<!-- 29&#45;&gt;32 -->
<g id="edge65" class="edge"><title>29&#45;&gt;32</title>
<path fill="none" stroke="black" d="M366.782,-935.592C352.395,-928.104 335.313,-918.114 331.145,-911 327.22,-904.301 325.791,-896.185 325.595,-888.458"/>
<polygon fill="black" stroke="black" points="329.097,-888.456 325.972,-878.333 322.102,-888.195 329.097,-888.456"/>
<text text-anchor="middle" x="334.645" y="-899.8" font-family="Times New Roman,serif" font-size="14.00">k</text>
</g>
<!-- 30&#45;&gt;1 -->
<g id="edge50" class="edge"><title>30&#45;&gt;1</title>
<path fill="none" stroke="black" d="M425.529,-443.175C424.434,-454.806 422.964,-470.419 421.711,-483.734"/>
<polygon fill="black" stroke="black" points="418.217,-483.515 420.764,-493.799 425.186,-484.171 418.217,-483.515"/>
<text text-anchor="middle" x="426.145" y="-464.8" font-family="Times New Roman,serif" font-size="14.00">l</text>
</g>
<!-- 31&#45;&gt;29 -->
<g id="edge67" class="edge"><title>31&#45;&gt;29</title>
<path fill="none" stroke="black" d="M399.96,-878.194C399.159,-887.87 397.92,-900.152 396.145,-911 395.707,-913.676 395.187,-916.453 394.626,-919.219"/>
<polygon fill="black" stroke="black" points="391.205,-918.477 392.481,-928.994 398.043,-919.977 391.205,-918.477"/>
<text text-anchor="middle" x="401.645" y="-899.8" font-family="Times New Roman,serif" font-size="14.00">k</text>
</g>
<!-- 34 -->
<g id="node35" class="node"><title>34</title>
<ellipse fill="none" stroke="black" cx="368.145" cy="-773" rx="29.4969" ry="18"/>
<text text-anchor="middle" x="368.145" y="-769.3" font-family="Times New Roman,serif" font-size="14.00">m,p,i</text>
</g>
<!-- 31&#45;&gt;34 -->
<g id="edge51" class="edge"><title>31&#45;&gt;34</title>
<path fill="none" stroke="black" d="M391.472,-842.987C388.21,-837.15 384.743,-830.407 382.145,-824 379.165,-816.649 376.579,-808.443 374.469,-800.839"/>
<polygon fill="black" stroke="black" points="377.807,-799.771 371.894,-790.98 371.034,-801.54 377.807,-799.771"/>
</g>
<!-- 32&#45;&gt;29 -->
<g id="edge66" class="edge"><title>32&#45;&gt;29</title>
<path fill="none" stroke="black" d="M340.098,-876.779C348.896,-889.454 361.396,-907.463 371.441,-921.935"/>
<polygon fill="black" stroke="black" points="368.746,-924.19 377.324,-930.41 374.497,-920.199 368.746,-924.19"/>
<text text-anchor="middle" x="366.645" y="-899.8" font-family="Times New Roman,serif" font-size="14.00">k</text>
</g>
<!-- 33&#45;&gt;8 -->
<g id="edge63" class="edge"><title>33&#45;&gt;8</title>
<path fill="none" stroke="black" d="M384.211,-669.034C378.881,-659.337 374.193,-646.625 377.145,-635 378.022,-631.545 379.317,-628.061 380.826,-624.701"/>
<polygon fill="black" stroke="black" points="384.002,-626.177 385.473,-615.685 377.78,-622.97 384.002,-626.177"/>
<text text-anchor="middle" x="379.145" y="-638.8" font-family="Times New Roman,serif" font-size="14.00">l</text>
</g>
<!-- 33&#45;&gt;34 -->
<g id="edge36" class="edge"><title>33&#45;&gt;34</title>
<path fill="none" stroke="black" d="M389.822,-703.758C386.052,-715.625 380.919,-731.787 376.593,-745.403"/>
<polygon fill="black" stroke="black" points="373.171,-744.616 373.479,-755.207 379.843,-746.736 373.171,-744.616"/>
<text text-anchor="middle" x="388.145" y="-725.8" font-family="Times New Roman,serif" font-size="14.00">b</text>
</g>
<!-- 34&#45;&gt;31 -->
<g id="edge52" class="edge"><title>34&#45;&gt;31</title>
<path fill="none" stroke="black" d="M374.651,-790.758C379.303,-802.741 385.656,-819.104 390.974,-832.803"/>
<polygon fill="black" stroke="black" points="387.743,-834.151 394.625,-842.207 394.269,-831.618 387.743,-834.151"/>
<text text-anchor="middle" x="389.145" y="-812.8" font-family="Times New Roman,serif" font-size="14.00">l</text>
</g>
<!-- 34&#45;&gt;33 -->
<g id="edge35" class="edge"><title>34&#45;&gt;33</title>
<path fill="none" stroke="black" d="M364.886,-754.865C363.716,-744.987 363.466,-732.487 367.145,-722 368.694,-717.585 371.059,-713.313 373.773,-709.361"/>
<polygon fill="black" stroke="black" points="376.683,-711.321 380.087,-701.288 371.169,-707.009 376.683,-711.321"/>
<text text-anchor="middle" x="371.145" y="-725.8" font-family="Times New Roman,serif" font-size="14.00">b</text>
</g>
</g>
</svg>
