<?xml version="1.0" encoding="UTF-8" standalone="no"?>
<!DOCTYPE svg PUBLIC "-//W3C//DTD SVG 1.1//EN"
 "http://www.w3.org/Graphics/SVG/1.1/DTD/svg11.dtd">
<!-- Generated by graphviz version 2.38.0 (20140413.2041)
 -->
<!-- Title: %3 Pages: 1 -->
<svg width="333pt" height="712pt"
 viewBox="0.00 0.00 333.00 712.00" xmlns="http://www.w3.org/2000/svg" xmlns:xlink="http://www.w3.org/1999/xlink">
<g id="graph0" class="graph" transform="scale(1 1) rotate(0) translate(4 708)">
<title>%3</title>
<polygon fill="white" stroke="none" points="-4,4 -4,-708 329,-708 329,4 -4,4"/>
<!-- 0 -->
<g id="node1" class="node"><title>0</title>
<ellipse fill="none" stroke="black" cx="72" cy="-686" rx="27" ry="18"/>
</g>
<!-- 14 -->
<g id="node15" class="node"><title>14</title>
<ellipse fill="none" stroke="black" cx="72" cy="-599" rx="27" ry="18"/>
<text text-anchor="middle" x="72" y="-595.3" font-family="Times New Roman,serif" font-size="14.00">e</text>
</g>
<!-- 0&#45;&gt;14 -->
<g id="edge26" class="edge"><title>0&#45;&gt;14</title>
<path fill="none" stroke="black" d="M66.7336,-668.077C65.2106,-662.391 63.756,-655.975 63,-650 62.0519,-642.506 62.7454,-634.431 64.0882,-627.001"/>
<polygon fill="black" stroke="black" points="67.5453,-627.58 66.3154,-617.056 60.7145,-626.05 67.5453,-627.58"/>
<text text-anchor="middle" x="67" y="-638.8" font-family="Times New Roman,serif" font-size="14.00">b</text>
</g>
<!-- 1 -->
<g id="node2" class="node"><title>1</title>
<ellipse fill="none" stroke="black" cx="165" cy="-439" rx="27" ry="18"/>
<text text-anchor="middle" x="165" y="-435.3" font-family="Times New Roman,serif" font-size="14.00">e,I</text>
</g>
<!-- 9 -->
<g id="node10" class="node"><title>9</title>
<ellipse fill="none" stroke="black" cx="131" cy="-352" rx="27" ry="18"/>
<text text-anchor="middle" x="131" y="-348.3" font-family="Times New Roman,serif" font-size="14.00">e,i</text>
</g>
<!-- 1&#45;&gt;9 -->
<g id="edge36" class="edge"><title>1&#45;&gt;9</title>
<path fill="none" stroke="black" d="M158.283,-421.207C153.455,-409.138 146.855,-392.638 141.356,-378.891"/>
<polygon fill="black" stroke="black" points="144.551,-377.454 137.588,-369.469 138.052,-380.054 144.551,-377.454"/>
<text text-anchor="middle" x="155" y="-391.8" font-family="Times New Roman,serif" font-size="14.00">b</text>
</g>
<!-- 13 -->
<g id="node14" class="node"><title>13</title>
<ellipse fill="none" stroke="black" cx="161" cy="-526" rx="27" ry="18"/>
<text text-anchor="middle" x="161" y="-522.3" font-family="Times New Roman,serif" font-size="14.00">e,i</text>
</g>
<!-- 1&#45;&gt;13 -->
<g id="edge8" class="edge"><title>1&#45;&gt;13</title>
<path fill="none" stroke="black" d="M157.541,-456.395C155.292,-462.153 153.124,-468.748 152,-475 150.627,-482.639 151.262,-490.935 152.686,-498.533"/>
<polygon fill="black" stroke="black" points="149.296,-499.407 155.002,-508.334 156.108,-497.797 149.296,-499.407"/>
<text text-anchor="middle" x="155.5" y="-478.8" font-family="Times New Roman,serif" font-size="14.00">k</text>
</g>
<!-- 17 -->
<g id="node18" class="node"><title>17</title>
<ellipse fill="none" stroke="black" cx="203" cy="-352" rx="27" ry="18"/>
<text text-anchor="middle" x="203" y="-348.3" font-family="Times New Roman,serif" font-size="14.00">e,k</text>
</g>
<!-- 1&#45;&gt;17 -->
<g id="edge39" class="edge"><title>1&#45;&gt;17</title>
<path fill="none" stroke="black" d="M167.141,-420.799C171.382,-408.265 178.845,-391.116 186.021,-377.201"/>
<polygon fill="black" stroke="black" points="189.22,-378.642 190.899,-368.181 183.063,-375.312 189.22,-378.642"/>
</g>
<!-- 2 -->
<g id="node3" class="node"><title>2</title>
<ellipse fill="none" stroke="black" cx="275" cy="-178" rx="27" ry="18"/>
<text text-anchor="middle" x="275" y="-174.3" font-family="Times New Roman,serif" font-size="14.00">I</text>
</g>
<!-- 18 -->
<g id="node19" class="node"><title>18</title>
<ellipse fill="none" stroke="black" cx="279" cy="-265" rx="27" ry="18"/>
<text text-anchor="middle" x="279" y="-261.3" font-family="Times New Roman,serif" font-size="14.00">p</text>
</g>
<!-- 2&#45;&gt;18 -->
<g id="edge12" class="edge"><title>2&#45;&gt;18</title>
<path fill="none" stroke="black" d="M270.748,-196.146C268.902,-205.808 267.472,-218.091 269,-229 269.381,-231.722 269.922,-234.53 270.556,-237.316"/>
<polygon fill="black" stroke="black" points="267.208,-238.344 273.15,-247.115 273.975,-236.552 267.208,-238.344"/>
<text text-anchor="middle" x="271" y="-217.8" font-family="Times New Roman,serif" font-size="14.00">l</text>
</g>
<!-- 3 -->
<g id="node4" class="node"><title>3</title>
<ellipse fill="none" stroke="black" cx="128" cy="-265" rx="27" ry="18"/>
<text text-anchor="middle" x="128" y="-261.3" font-family="Times New Roman,serif" font-size="14.00">e,k</text>
</g>
<!-- 4 -->
<g id="node5" class="node"><title>4</title>
<ellipse fill="none" stroke="black" cx="128" cy="-178" rx="27" ry="18"/>
<text text-anchor="middle" x="128" y="-174.3" font-family="Times New Roman,serif" font-size="14.00">e</text>
</g>
<!-- 3&#45;&gt;4 -->
<g id="edge32" class="edge"><title>3&#45;&gt;4</title>
<path fill="none" stroke="black" d="M122.496,-247.207C121.184,-235.448 120.908,-219.485 121.668,-205.958"/>
<polygon fill="black" stroke="black" points="125.176,-206.01 122.5,-195.758 118.199,-205.441 125.176,-206.01"/>
</g>
<!-- 3&#45;&gt;9 -->
<g id="edge13" class="edge"><title>3&#45;&gt;9</title>
<path fill="none" stroke="black" d="M134.091,-282.758C135.82,-294.508 136.662,-310.47 136.381,-324.002"/>
<polygon fill="black" stroke="black" points="132.875,-324.056 135.911,-334.207 139.868,-324.378 132.875,-324.056"/>
</g>
<!-- 10 -->
<g id="node11" class="node"><title>10</title>
<ellipse fill="none" stroke="black" cx="47" cy="-178" rx="27" ry="18"/>
<text text-anchor="middle" x="47" y="-174.3" font-family="Times New Roman,serif" font-size="14.00">e</text>
</g>
<!-- 3&#45;&gt;10 -->
<g id="edge24" class="edge"><title>3&#45;&gt;10</title>
<path fill="none" stroke="black" d="M108.057,-252.683C98.2694,-246.506 86.737,-238.238 78,-229 71.0938,-221.698 64.9164,-212.621 59.928,-204.214"/>
<polygon fill="black" stroke="black" points="62.96,-202.465 55.0035,-195.469 56.8606,-205.899 62.96,-202.465"/>
<text text-anchor="middle" x="80" y="-217.8" font-family="Times New Roman,serif" font-size="14.00">l</text>
</g>
<!-- 3&#45;&gt;13 -->
<g id="edge37" class="edge"><title>3&#45;&gt;13</title>
<path fill="none" stroke="black" d="M117.819,-281.721C109.84,-295.035 99.3795,-314.945 95,-334 91.4162,-349.593 92.0368,-354.277 95,-370 104.14,-418.498 129.905,-470.404 146.408,-500.154"/>
<polygon fill="black" stroke="black" points="143.441,-502.018 151.408,-509.003 149.536,-498.575 143.441,-502.018"/>
<text text-anchor="middle" x="108" y="-391.8" font-family="Times New Roman,serif" font-size="14.00">b</text>
</g>
<!-- 4&#45;&gt;3 -->
<g id="edge31" class="edge"><title>4&#45;&gt;3</title>
<path fill="none" stroke="black" d="M133.5,-195.758C134.814,-207.508 135.092,-223.47 134.334,-237.002"/>
<polygon fill="black" stroke="black" points="130.826,-236.956 133.504,-247.207 137.803,-237.524 130.826,-236.956"/>
</g>
<!-- 8 -->
<g id="node9" class="node"><title>8</title>
<ellipse fill="none" stroke="black" cx="128" cy="-91" rx="27" ry="18"/>
</g>
<!-- 4&#45;&gt;8 -->
<g id="edge4" class="edge"><title>4&#45;&gt;8</title>
<path fill="none" stroke="black" d="M121.567,-160.157C119.706,-154.477 117.927,-148.044 117,-142 115.814,-134.269 116.743,-125.945 118.473,-118.349"/>
<polygon fill="black" stroke="black" points="121.886,-119.139 121.206,-108.566 115.144,-117.256 121.886,-119.139"/>
<text text-anchor="middle" x="120.5" y="-130.8" font-family="Times New Roman,serif" font-size="14.00">k</text>
</g>
<!-- 5 -->
<g id="node6" class="node"><title>5</title>
<ellipse fill="none" stroke="black" cx="56" cy="-18" rx="27" ry="18"/>
<text text-anchor="middle" x="56" y="-14.3" font-family="Times New Roman,serif" font-size="14.00">e,k</text>
</g>
<!-- 5&#45;&gt;8 -->
<g id="edge16" class="edge"><title>5&#45;&gt;8</title>
<path fill="none" stroke="black" d="M74.1256,-31.6397C85.4831,-41.4045 99.8115,-55.1849 110.947,-66.903"/>
<polygon fill="black" stroke="black" points="108.38,-69.2814 117.741,-74.2428 113.517,-64.5264 108.38,-69.2814"/>
</g>
<!-- 6 -->
<g id="node7" class="node"><title>6</title>
<ellipse fill="none" stroke="black" cx="128" cy="-18" rx="27" ry="18"/>
<text text-anchor="middle" x="128" y="-14.3" font-family="Times New Roman,serif" font-size="14.00">e,k</text>
</g>
<!-- 6&#45;&gt;8 -->
<g id="edge18" class="edge"><title>6&#45;&gt;8</title>
<path fill="none" stroke="black" d="M133.827,-35.7052C134.708,-43.8218 134.959,-53.7804 134.577,-62.9424"/>
<polygon fill="black" stroke="black" points="131.068,-62.9482 133.84,-73.174 138.05,-63.4515 131.068,-62.9482"/>
</g>
<!-- 7 -->
<g id="node8" class="node"><title>7</title>
<ellipse fill="none" stroke="black" cx="200" cy="-18" rx="27" ry="18"/>
<text text-anchor="middle" x="200" y="-14.3" font-family="Times New Roman,serif" font-size="14.00">s</text>
</g>
<!-- 7&#45;&gt;8 -->
<g id="edge1" class="edge"><title>7&#45;&gt;8</title>
<path fill="none" stroke="black" d="M189.69,-34.8137C180.261,-45.3176 166.326,-59.1841 153.996,-70.3895"/>
<polygon fill="black" stroke="black" points="151.352,-68.0555 146.188,-77.3066 155.994,-73.2951 151.352,-68.0555"/>
</g>
<!-- 8&#45;&gt;4 -->
<g id="edge3" class="edge"><title>8&#45;&gt;4</title>
<path fill="none" stroke="black" d="M128,-109.175C128,-120.806 128,-136.419 128,-149.734"/>
<polygon fill="black" stroke="black" points="124.5,-149.799 128,-159.799 131.5,-149.799 124.5,-149.799"/>
<text text-anchor="middle" x="131.5" y="-130.8" font-family="Times New Roman,serif" font-size="14.00">k</text>
</g>
<!-- 8&#45;&gt;5 -->
<g id="edge15" class="edge"><title>8&#45;&gt;5</title>
<path fill="none" stroke="black" d="M109.812,-77.3066C98.5853,-67.649 84.4724,-54.0862 73.4089,-42.4715"/>
<polygon fill="black" stroke="black" points="75.6751,-39.7677 66.3098,-34.8137 70.5416,-44.5267 75.6751,-39.7677"/>
</g>
<!-- 8&#45;&gt;6 -->
<g id="edge17" class="edge"><title>8&#45;&gt;6</title>
<path fill="none" stroke="black" d="M122.16,-73.174C121.285,-65.0392 121.041,-55.0756 121.428,-45.9214"/>
<polygon fill="black" stroke="black" points="124.937,-45.9333 122.173,-35.7052 117.955,-45.4242 124.937,-45.9333"/>
</g>
<!-- 8&#45;&gt;7 -->
<g id="edge2" class="edge"><title>8&#45;&gt;7</title>
<path fill="none" stroke="black" d="M138.259,-74.2428C147.701,-63.7197 161.685,-49.8031 174.048,-38.5707"/>
<polygon fill="black" stroke="black" points="176.709,-40.8898 181.874,-31.6397 172.068,-35.6493 176.709,-40.8898"/>
</g>
<!-- 9&#45;&gt;1 -->
<g id="edge35" class="edge"><title>9&#45;&gt;1</title>
<path fill="none" stroke="black" d="M128.827,-370.287C128.269,-380.216 128.769,-392.716 133,-403 135.023,-407.918 138.063,-412.583 141.477,-416.809"/>
<polygon fill="black" stroke="black" points="139.017,-419.305 148.336,-424.345 144.194,-414.594 139.017,-419.305"/>
<text text-anchor="middle" x="137" y="-391.8" font-family="Times New Roman,serif" font-size="14.00">b</text>
</g>
<!-- 9&#45;&gt;3 -->
<g id="edge14" class="edge"><title>9&#45;&gt;3</title>
<path fill="none" stroke="black" d="M124.904,-334.207C123.176,-322.448 122.337,-306.485 122.62,-292.958"/>
<polygon fill="black" stroke="black" points="126.126,-292.909 123.092,-282.758 119.133,-292.586 126.126,-292.909"/>
</g>
<!-- 10&#45;&gt;3 -->
<g id="edge23" class="edge"><title>10&#45;&gt;3</title>
<path fill="none" stroke="black" d="M60.9474,-193.636C73.5554,-206.867 92.3019,-226.539 106.77,-241.722"/>
<polygon fill="black" stroke="black" points="104.458,-244.369 113.891,-249.194 109.526,-239.54 104.458,-244.369"/>
</g>
<!-- 10&#45;&gt;14 -->
<g id="edge5" class="edge"><title>10&#45;&gt;14</title>
<path fill="none" stroke="black" d="M44.1028,-196.2C41.4718,-213.33 38,-240.405 38,-264 38,-527 38,-527 38,-527 38,-543.879 45.9128,-560.996 54.1039,-574.193"/>
<polygon fill="black" stroke="black" points="51.2755,-576.261 59.7252,-582.653 57.1057,-572.387 51.2755,-576.261"/>
<text text-anchor="middle" x="41.5" y="-391.8" font-family="Times New Roman,serif" font-size="14.00">k</text>
</g>
<!-- 11 -->
<g id="node12" class="node"><title>11</title>
<ellipse fill="none" stroke="black" cx="200" cy="-178" rx="27" ry="18"/>
<text text-anchor="middle" x="200" y="-174.3" font-family="Times New Roman,serif" font-size="14.00">t</text>
</g>
<!-- 15 -->
<g id="node16" class="node"><title>15</title>
<ellipse fill="none" stroke="black" cx="206" cy="-265" rx="27" ry="18"/>
<text text-anchor="middle" x="206" y="-261.3" font-family="Times New Roman,serif" font-size="14.00">b</text>
</g>
<!-- 11&#45;&gt;15 -->
<g id="edge22" class="edge"><title>11&#45;&gt;15</title>
<path fill="none" stroke="black" d="M201.212,-196.175C202.033,-207.806 203.135,-223.419 204.075,-236.734"/>
<polygon fill="black" stroke="black" points="200.59,-237.07 204.786,-246.799 207.573,-236.577 200.59,-237.07"/>
<text text-anchor="middle" x="206" y="-217.8" font-family="Times New Roman,serif" font-size="14.00">l</text>
</g>
<!-- 12 -->
<g id="node13" class="node"><title>12</title>
<ellipse fill="none" stroke="black" cx="239" cy="-439" rx="28.6953" ry="18"/>
<text text-anchor="middle" x="239" y="-435.3" font-family="Times New Roman,serif" font-size="14.00">e,k,p</text>
</g>
<!-- 12&#45;&gt;13 -->
<g id="edge29" class="edge"><title>12&#45;&gt;13</title>
<path fill="none" stroke="black" d="M229.66,-456.088C218.677,-469.803 200.663,-489.598 185.727,-504.457"/>
<polygon fill="black" stroke="black" points="182.985,-502.241 178.25,-511.719 187.862,-507.262 182.985,-502.241"/>
</g>
<!-- 16 -->
<g id="node17" class="node"><title>16</title>
<ellipse fill="none" stroke="black" cx="275" cy="-352" rx="27" ry="18"/>
<text text-anchor="middle" x="275" y="-348.3" font-family="Times New Roman,serif" font-size="14.00">e,k</text>
</g>
<!-- 12&#45;&gt;16 -->
<g id="edge27" class="edge"><title>12&#45;&gt;16</title>
<path fill="none" stroke="black" d="M246.112,-421.207C251.224,-409.138 258.212,-392.638 264.035,-378.891"/>
<polygon fill="black" stroke="black" points="267.348,-380.042 268.025,-369.469 260.902,-377.312 267.348,-380.042"/>
<text text-anchor="middle" x="263.5" y="-391.8" font-family="Times New Roman,serif" font-size="14.00">k</text>
</g>
<!-- 13&#45;&gt;1 -->
<g id="edge7" class="edge"><title>13&#45;&gt;1</title>
<path fill="none" stroke="black" d="M161.809,-507.799C162.357,-496.163 163.092,-480.548 163.718,-467.237"/>
<polygon fill="black" stroke="black" points="167.218,-467.329 164.192,-457.175 160.225,-467 167.218,-467.329"/>
<text text-anchor="middle" x="167.5" y="-478.8" font-family="Times New Roman,serif" font-size="14.00">k</text>
</g>
<!-- 13&#45;&gt;3 -->
<g id="edge38" class="edge"><title>13&#45;&gt;3</title>
<path fill="none" stroke="black" d="M184.703,-516.709C210.727,-506.477 252.113,-486.703 277,-457 313.425,-413.526 327.436,-388.283 311,-334 291.689,-270.219 234.272,-300.606 170,-283 166.557,-282.057 163.016,-280.914 159.518,-279.672"/>
<polygon fill="black" stroke="black" points="160.488,-276.296 149.897,-275.992 157.987,-282.834 160.488,-276.296"/>
<text text-anchor="middle" x="321" y="-391.8" font-family="Times New Roman,serif" font-size="14.00">b</text>
</g>
<!-- 13&#45;&gt;12 -->
<g id="edge30" class="edge"><title>13&#45;&gt;12</title>
<path fill="none" stroke="black" d="M170.26,-509.012C181.202,-495.334 199.193,-475.556 214.14,-460.676"/>
<polygon fill="black" stroke="black" points="216.894,-462.88 221.625,-453.4 212.015,-457.861 216.894,-462.88"/>
</g>
<!-- 13&#45;&gt;14 -->
<g id="edge33" class="edge"><title>13&#45;&gt;14</title>
<path fill="none" stroke="black" d="M147.878,-541.954C135.298,-553.095 116.28,-568.353 100.341,-580.135"/>
<polygon fill="black" stroke="black" points="97.9088,-577.575 91.8629,-586.276 102.015,-583.245 97.9088,-577.575"/>
</g>
<!-- 14&#45;&gt;0 -->
<g id="edge25" class="edge"><title>14&#45;&gt;0</title>
<path fill="none" stroke="black" d="M72,-617.175C72,-628.806 72,-644.419 72,-657.734"/>
<polygon fill="black" stroke="black" points="68.5001,-657.799 72,-667.799 75.5001,-657.799 68.5001,-657.799"/>
</g>
<!-- 14&#45;&gt;10 -->
<g id="edge6" class="edge"><title>14&#45;&gt;10</title>
<path fill="none" stroke="black" d="M50.3976,-588.027C29.1896,-576.575 0,-555.615 0,-527 0,-527 0,-527 0,-264 0,-240.594 13.8174,-217.581 26.4684,-201.415"/>
<polygon fill="black" stroke="black" points="29.235,-203.562 32.8985,-193.621 23.8351,-199.107 29.235,-203.562"/>
<text text-anchor="middle" x="3.5" y="-391.8" font-family="Times New Roman,serif" font-size="14.00">k</text>
</g>
<!-- 14&#45;&gt;13 -->
<g id="edge34" class="edge"><title>14&#45;&gt;13</title>
<path fill="none" stroke="black" d="M85.2386,-582.943C97.8928,-571.746 116.99,-556.434 132.937,-544.659"/>
<polygon fill="black" stroke="black" points="135.359,-547.227 141.411,-538.531 131.257,-541.555 135.359,-547.227"/>
</g>
<!-- 15&#45;&gt;11 -->
<g id="edge21" class="edge"><title>15&#45;&gt;11</title>
<path fill="none" stroke="black" d="M206.173,-246.85C206.141,-237.187 205.885,-224.904 205,-214 204.792,-211.43 204.517,-208.762 204.203,-206.096"/>
<polygon fill="black" stroke="black" points="207.654,-205.491 202.86,-196.043 200.715,-206.419 207.654,-205.491"/>
</g>
<!-- 15&#45;&gt;17 -->
<g id="edge20" class="edge"><title>15&#45;&gt;17</title>
<path fill="none" stroke="black" d="M209.512,-283.136C211.04,-292.794 212.232,-305.077 211,-316 210.696,-318.694 210.264,-321.484 209.757,-324.258"/>
<polygon fill="black" stroke="black" points="206.333,-323.534 207.683,-334.042 213.181,-324.986 206.333,-323.534"/>
<text text-anchor="middle" x="214" y="-304.8" font-family="Times New Roman,serif" font-size="14.00">l</text>
</g>
<!-- 16&#45;&gt;12 -->
<g id="edge28" class="edge"><title>16&#45;&gt;12</title>
<path fill="none" stroke="black" d="M259.094,-366.848C253.355,-372.761 247.448,-380.117 244,-388 240.959,-394.954 239.407,-402.956 238.684,-410.491"/>
<polygon fill="black" stroke="black" points="235.179,-410.502 238.144,-420.673 242.169,-410.873 235.179,-410.502"/>
<text text-anchor="middle" x="247.5" y="-391.8" font-family="Times New Roman,serif" font-size="14.00">k</text>
</g>
<!-- 16&#45;&gt;18 -->
<g id="edge9" class="edge"><title>16&#45;&gt;18</title>
<path fill="none" stroke="black" d="M275.809,-333.799C276.357,-322.163 277.092,-306.548 277.718,-293.237"/>
<polygon fill="black" stroke="black" points="281.218,-293.329 278.192,-283.175 274.225,-293 281.218,-293.329"/>
<text text-anchor="middle" x="281.5" y="-304.8" font-family="Times New Roman,serif" font-size="14.00">k</text>
</g>
<!-- 17&#45;&gt;1 -->
<g id="edge40" class="edge"><title>17&#45;&gt;1</title>
<path fill="none" stroke="black" d="M200.89,-370.11C196.657,-382.642 189.184,-399.823 181.996,-413.766"/>
<polygon fill="black" stroke="black" points="178.787,-412.343 177.11,-422.804 184.945,-415.672 178.787,-412.343"/>
</g>
<!-- 17&#45;&gt;15 -->
<g id="edge19" class="edge"><title>17&#45;&gt;15</title>
<path fill="none" stroke="black" d="M203.607,-333.799C204.018,-322.163 204.569,-306.548 205.039,-293.237"/>
<polygon fill="black" stroke="black" points="208.539,-293.293 205.394,-283.175 201.543,-293.046 208.539,-293.293"/>
<text text-anchor="middle" x="208.5" y="-304.8" font-family="Times New Roman,serif" font-size="14.00">k</text>
</g>
<!-- 18&#45;&gt;2 -->
<g id="edge11" class="edge"><title>18&#45;&gt;2</title>
<path fill="none" stroke="black" d="M278.191,-246.799C277.643,-235.163 276.908,-219.548 276.282,-206.237"/>
<polygon fill="black" stroke="black" points="279.775,-206 275.808,-196.175 272.782,-206.329 279.775,-206"/>
<text text-anchor="middle" x="280" y="-217.8" font-family="Times New Roman,serif" font-size="14.00">l</text>
</g>
<!-- 18&#45;&gt;16 -->
<g id="edge10" class="edge"><title>18&#45;&gt;16</title>
<path fill="none" stroke="black" d="M274.317,-282.958C272.964,-288.646 271.671,-295.054 271,-301 270.164,-308.411 270.335,-316.459 270.933,-323.889"/>
<polygon fill="black" stroke="black" points="267.454,-324.28 272.001,-333.849 274.414,-323.533 267.454,-324.28"/>
<text text-anchor="middle" x="274.5" y="-304.8" font-family="Times New Roman,serif" font-size="14.00">k</text>
</g>
</g>
</svg>
