<?xml version="1.0" encoding="UTF-8" standalone="no"?>
<!DOCTYPE svg PUBLIC "-//W3C//DTD SVG 1.1//EN"
 "http://www.w3.org/Graphics/SVG/1.1/DTD/svg11.dtd">
<!-- Generated by graphviz version 2.38.0 (20140413.2041)
 -->
<!-- Title: %3 Pages: 1 -->
<svg width="354pt" height="813pt"
 viewBox="0.00 0.00 354.00 813.00" xmlns="http://www.w3.org/2000/svg" xmlns:xlink="http://www.w3.org/1999/xlink">
<g id="graph0" class="graph" transform="scale(1 1) rotate(0) translate(4 809)">
<title>%3</title>
<polygon fill="white" stroke="none" points="-4,4 -4,-809 350,-809 350,4 -4,4"/>
<!-- 0 -->
<g id="node1" class="node"><title>0</title>
<ellipse fill="none" stroke="black" cx="238" cy="-787" rx="27" ry="18"/>
<text text-anchor="middle" x="238" y="-783.3" font-family="Times New Roman,serif" font-size="14.00">e,i,k</text>
</g>
<!-- 1 -->
<g id="node2" class="node"><title>1</title>
<ellipse fill="none" stroke="black" cx="178" cy="-714" rx="27" ry="18"/>
<text text-anchor="middle" x="178" y="-710.3" font-family="Times New Roman,serif" font-size="14.00">e,i,k</text>
</g>
<!-- 0&#45;&gt;1 -->
<g id="edge14" class="edge"><title>0&#45;&gt;1</title>
<path fill="none" stroke="black" d="M221.303,-772.645C212.088,-763.298 200.962,-750.541 192.175,-739.404"/>
<polygon fill="black" stroke="black" points="194.83,-737.114 185.982,-731.286 189.265,-741.36 194.83,-737.114"/>
</g>
<!-- 15 -->
<g id="node16" class="node"><title>15</title>
<ellipse fill="none" stroke="black" cx="269" cy="-540" rx="27" ry="18"/>
<text text-anchor="middle" x="269" y="-536.3" font-family="Times New Roman,serif" font-size="14.00">e</text>
</g>
<!-- 0&#45;&gt;15 -->
<g id="edge15" class="edge"><title>0&#45;&gt;15</title>
<path fill="none" stroke="black" d="M236.512,-768.772C237.992,-726.674 251.454,-618.334 261.208,-567.755"/>
<polygon fill="black" stroke="black" points="264.653,-568.382 263.228,-557.884 257.795,-566.979 264.653,-568.382"/>
</g>
<!-- 1&#45;&gt;0 -->
<g id="edge13" class="edge"><title>1&#45;&gt;0</title>
<path fill="none" stroke="black" d="M194.862,-728.522C204.011,-737.819 215.011,-750.433 223.73,-761.476"/>
<polygon fill="black" stroke="black" points="221.033,-763.711 229.885,-769.533 226.596,-759.461 221.033,-763.711"/>
</g>
<!-- 4 -->
<g id="node5" class="node"><title>4</title>
<ellipse fill="none" stroke="black" cx="87" cy="-453" rx="27" ry="18"/>
</g>
<!-- 1&#45;&gt;4 -->
<g id="edge37" class="edge"><title>1&#45;&gt;4</title>
<path fill="none" stroke="black" d="M170.758,-696.365C164.894,-682.679 156.561,-662.72 150,-645 128.538,-587.034 106.633,-517.903 95.16,-480.767"/>
<polygon fill="black" stroke="black" points="98.3632,-479.275 92.078,-470.746 91.6725,-481.333 98.3632,-479.275"/>
<text text-anchor="middle" x="133.5" y="-579.8" font-family="Times New Roman,serif" font-size="14.00">k</text>
</g>
<!-- 16 -->
<g id="node17" class="node"><title>16</title>
<ellipse fill="none" stroke="black" cx="186" cy="-627" rx="27" ry="18"/>
<text text-anchor="middle" x="186" y="-623.3" font-family="Times New Roman,serif" font-size="14.00">e,i,t</text>
</g>
<!-- 1&#45;&gt;16 -->
<g id="edge12" class="edge"><title>1&#45;&gt;16</title>
<path fill="none" stroke="black" d="M174.558,-695.787C173.137,-686.105 172.196,-673.823 174,-663 174.485,-660.089 175.183,-657.096 176,-654.144"/>
<polygon fill="black" stroke="black" points="179.39,-655.035 179.112,-644.444 172.725,-652.897 179.39,-655.035"/>
<text text-anchor="middle" x="177.5" y="-666.8" font-family="Times New Roman,serif" font-size="14.00">s</text>
</g>
<!-- 2 -->
<g id="node3" class="node"><title>2</title>
<ellipse fill="none" stroke="black" cx="40" cy="-192" rx="27" ry="18"/>
<text text-anchor="middle" x="40" y="-188.3" font-family="Times New Roman,serif" font-size="14.00">e,k</text>
</g>
<!-- 3 -->
<g id="node4" class="node"><title>3</title>
<ellipse fill="none" stroke="black" cx="37" cy="-279" rx="27" ry="18"/>
</g>
<!-- 2&#45;&gt;3 -->
<g id="edge28" class="edge"><title>2&#45;&gt;3</title>
<path fill="none" stroke="black" d="M39.8144,-210.129C39.6703,-219.785 39.4215,-232.068 39,-243 38.9015,-245.554 38.7815,-248.213 38.6497,-250.872"/>
<polygon fill="black" stroke="black" points="35.1517,-250.741 38.1034,-260.916 42.1414,-251.121 35.1517,-250.741"/>
</g>
<!-- 3&#45;&gt;2 -->
<g id="edge27" class="edge"><title>3&#45;&gt;2</title>
<path fill="none" stroke="black" d="M37.6071,-260.799C38.0178,-249.163 38.5689,-233.548 39.0387,-220.237"/>
<polygon fill="black" stroke="black" points="42.5388,-220.293 39.3938,-210.175 35.5432,-220.046 42.5388,-220.293"/>
<text text-anchor="middle" x="41" y="-231.8" font-family="Times New Roman,serif" font-size="14.00">l</text>
</g>
<!-- 8 -->
<g id="node9" class="node"><title>8</title>
<ellipse fill="none" stroke="black" cx="27" cy="-366" rx="27" ry="18"/>
<text text-anchor="middle" x="27" y="-362.3" font-family="Times New Roman,serif" font-size="14.00">e,p</text>
</g>
<!-- 3&#45;&gt;8 -->
<g id="edge29" class="edge"><title>3&#45;&gt;8</title>
<path fill="none" stroke="black" d="M34.9794,-297.175C33.6111,-308.806 31.7742,-324.419 30.2078,-337.734"/>
<polygon fill="black" stroke="black" points="26.7161,-337.459 29.0236,-347.799 33.6682,-338.276 26.7161,-337.459"/>
<text text-anchor="middle" x="35" y="-318.8" font-family="Times New Roman,serif" font-size="14.00">l</text>
</g>
<!-- 4&#45;&gt;1 -->
<g id="edge38" class="edge"><title>4&#45;&gt;1</title>
<path fill="none" stroke="black" d="M88.711,-471.173C89.7619,-480.843 91.2429,-493.125 93,-504 103.39,-568.306 106.315,-585.577 133,-645 140.068,-660.739 150.605,-676.904 159.707,-689.522"/>
<polygon fill="black" stroke="black" points="156.955,-691.688 165.718,-697.643 162.581,-687.523 156.955,-691.688"/>
<text text-anchor="middle" x="114.5" y="-579.8" font-family="Times New Roman,serif" font-size="14.00">k</text>
</g>
<!-- 5 -->
<g id="node6" class="node"><title>5</title>
<ellipse fill="none" stroke="black" cx="99" cy="-366" rx="27" ry="18"/>
<text text-anchor="middle" x="99" y="-362.3" font-family="Times New Roman,serif" font-size="14.00">e,i,p</text>
</g>
<!-- 4&#45;&gt;5 -->
<g id="edge41" class="edge"><title>4&#45;&gt;5</title>
<path fill="none" stroke="black" d="M91.4051,-435.005C92.7405,-429.315 94.0924,-422.915 95,-417 96.1182,-409.713 96.9343,-401.778 97.5258,-394.42"/>
<polygon fill="black" stroke="black" points="101.035,-394.415 98.2407,-384.196 94.0516,-393.927 101.035,-394.415"/>
<text text-anchor="middle" x="99.5" y="-405.8" font-family="Times New Roman,serif" font-size="14.00">k</text>
</g>
<!-- 4&#45;&gt;8 -->
<g id="edge39" class="edge"><title>4&#45;&gt;8</title>
<path fill="none" stroke="black" d="M75.9951,-436.41C67.0299,-423.709 54.2199,-405.562 43.9468,-391.008"/>
<polygon fill="black" stroke="black" points="46.5614,-388.643 37.9352,-382.491 40.8426,-392.68 46.5614,-388.643"/>
<text text-anchor="middle" x="64.5" y="-405.8" font-family="Times New Roman,serif" font-size="14.00">k</text>
</g>
<!-- 17 -->
<g id="node18" class="node"><title>17</title>
<ellipse fill="none" stroke="black" cx="166" cy="-540" rx="27" ry="18"/>
<text text-anchor="middle" x="166" y="-536.3" font-family="Times New Roman,serif" font-size="14.00">ei</text>
</g>
<!-- 4&#45;&gt;17 -->
<g id="edge17" class="edge"><title>4&#45;&gt;17</title>
<path fill="none" stroke="black" d="M104.244,-467.13C117.986,-479.948 136.743,-499.741 150.109,-515.313"/>
<polygon fill="black" stroke="black" points="147.45,-517.589 156.552,-523.012 152.818,-513.097 147.45,-517.589"/>
</g>
<!-- 5&#45;&gt;4 -->
<g id="edge42" class="edge"><title>5&#45;&gt;4</title>
<path fill="none" stroke="black" d="M93.943,-383.953C92.434,-389.64 90.9347,-396.05 90,-402 88.8576,-409.273 88.1427,-417.203 87.6975,-424.561"/>
<polygon fill="black" stroke="black" points="84.1902,-424.636 87.2197,-434.788 91.1826,-424.962 84.1902,-424.636"/>
<text text-anchor="middle" x="93.5" y="-405.8" font-family="Times New Roman,serif" font-size="14.00">k</text>
</g>
<!-- 18 -->
<g id="node19" class="node"><title>18</title>
<ellipse fill="none" stroke="black" cx="115" cy="-279" rx="27" ry="18"/>
<text text-anchor="middle" x="115" y="-275.3" font-family="Times New Roman,serif" font-size="14.00">e</text>
</g>
<!-- 5&#45;&gt;18 -->
<g id="edge20" class="edge"><title>5&#45;&gt;18</title>
<path fill="none" stroke="black" d="M96.6892,-347.799C97.6425,-335.815 100.449,-319.613 103.817,-306.052"/>
<polygon fill="black" stroke="black" points="107.219,-306.879 106.481,-296.31 100.467,-305.033 107.219,-306.879"/>
</g>
<!-- 6 -->
<g id="node7" class="node"><title>6</title>
<ellipse fill="none" stroke="black" cx="319" cy="-366" rx="27" ry="18"/>
<text text-anchor="middle" x="319" y="-362.3" font-family="Times New Roman,serif" font-size="14.00">I</text>
</g>
<!-- 7 -->
<g id="node8" class="node"><title>7</title>
<ellipse fill="none" stroke="black" cx="319" cy="-453" rx="27" ry="18"/>
<text text-anchor="middle" x="319" y="-449.3" font-family="Times New Roman,serif" font-size="14.00">e,i</text>
</g>
<!-- 6&#45;&gt;7 -->
<g id="edge44" class="edge"><title>6&#45;&gt;7</title>
<path fill="none" stroke="black" d="M324.5,-383.758C325.814,-395.508 326.092,-411.47 325.334,-425.002"/>
<polygon fill="black" stroke="black" points="321.826,-424.956 324.504,-435.207 328.803,-425.524 321.826,-424.956"/>
</g>
<!-- 7&#45;&gt;6 -->
<g id="edge43" class="edge"><title>7&#45;&gt;6</title>
<path fill="none" stroke="black" d="M313.496,-435.207C312.184,-423.448 311.908,-407.485 312.668,-393.958"/>
<polygon fill="black" stroke="black" points="316.176,-394.01 313.5,-383.758 309.199,-393.441 316.176,-394.01"/>
</g>
<!-- 7&#45;&gt;15 -->
<g id="edge33" class="edge"><title>7&#45;&gt;15</title>
<path fill="none" stroke="black" d="M309.638,-469.916C302.316,-482.363 292.005,-499.892 283.601,-514.178"/>
<polygon fill="black" stroke="black" points="280.458,-512.618 278.405,-523.012 286.492,-516.167 280.458,-512.618"/>
<text text-anchor="middle" x="298" y="-492.8" font-family="Times New Roman,serif" font-size="14.00">l</text>
</g>
<!-- 8&#45;&gt;3 -->
<g id="edge30" class="edge"><title>8&#45;&gt;3</title>
<path fill="none" stroke="black" d="M26.3656,-347.799C26.2531,-338.121 26.5185,-325.839 28,-315 28.3696,-312.296 28.8735,-309.5 29.4553,-306.722"/>
<polygon fill="black" stroke="black" points="32.8744,-307.473 31.8035,-296.932 26.0675,-305.84 32.8744,-307.473"/>
</g>
<!-- 8&#45;&gt;4 -->
<g id="edge40" class="edge"><title>8&#45;&gt;4</title>
<path fill="none" stroke="black" d="M29.9202,-384.328C32.2474,-394.508 36.2682,-407.25 43,-417 47.4227,-423.406 53.36,-429.217 59.4389,-434.183"/>
<polygon fill="black" stroke="black" points="57.5964,-437.177 67.6872,-440.406 61.8125,-431.589 57.5964,-437.177"/>
<text text-anchor="middle" x="46.5" y="-405.8" font-family="Times New Roman,serif" font-size="14.00">k</text>
</g>
<!-- 9 -->
<g id="node10" class="node"><title>9</title>
<ellipse fill="none" stroke="black" cx="247" cy="-453" rx="27" ry="18"/>
<text text-anchor="middle" x="247" y="-449.3" font-family="Times New Roman,serif" font-size="14.00">e,k</text>
</g>
<!-- 13 -->
<g id="node14" class="node"><title>13</title>
<ellipse fill="none" stroke="black" cx="247" cy="-366" rx="27" ry="18"/>
<text text-anchor="middle" x="247" y="-362.3" font-family="Times New Roman,serif" font-size="14.00">e,k</text>
</g>
<!-- 9&#45;&gt;13 -->
<g id="edge6" class="edge"><title>9&#45;&gt;13</title>
<path fill="none" stroke="black" d="M241.496,-435.207C240.184,-423.448 239.908,-407.485 240.668,-393.958"/>
<polygon fill="black" stroke="black" points="244.176,-394.01 241.5,-383.758 237.199,-393.441 244.176,-394.01"/>
</g>
<!-- 9&#45;&gt;17 -->
<g id="edge7" class="edge"><title>9&#45;&gt;17</title>
<path fill="none" stroke="black" d="M242.18,-470.796C235.567,-480.787 225.153,-493.517 215,-504 208.909,-510.289 201.839,-516.723 194.894,-522.332"/>
<polygon fill="black" stroke="black" points="192.678,-519.621 186.865,-528.478 196.933,-525.179 192.678,-519.621"/>
</g>
<!-- 10 -->
<g id="node11" class="node"><title>10</title>
<ellipse fill="none" stroke="black" cx="117" cy="-192" rx="27" ry="18"/>
<text text-anchor="middle" x="117" y="-188.3" font-family="Times New Roman,serif" font-size="14.00">e</text>
</g>
<!-- 10&#45;&gt;18 -->
<g id="edge24" class="edge"><title>10&#45;&gt;18</title>
<path fill="none" stroke="black" d="M111.15,-209.885C109.458,-215.568 107.841,-221.992 107,-228 105.956,-235.456 106.506,-243.519 107.7,-250.948"/>
<polygon fill="black" stroke="black" points="104.3,-251.795 109.718,-260.9 111.16,-250.404 104.3,-251.795"/>
<text text-anchor="middle" x="109" y="-231.8" font-family="Times New Roman,serif" font-size="14.00">l</text>
</g>
<!-- 19 -->
<g id="node20" class="node"><title>19</title>
<ellipse fill="none" stroke="black" cx="116" cy="-105" rx="27" ry="18"/>
<text text-anchor="middle" x="116" y="-101.3" font-family="Times New Roman,serif" font-size="14.00">b</text>
</g>
<!-- 10&#45;&gt;19 -->
<g id="edge26" class="edge"><title>10&#45;&gt;19</title>
<path fill="none" stroke="black" d="M112.317,-174.042C110.964,-168.354 109.671,-161.946 109,-156 108.158,-148.541 108.663,-140.477 109.708,-133.047"/>
<polygon fill="black" stroke="black" points="113.173,-133.551 111.46,-123.096 106.279,-132.337 113.173,-133.551"/>
<text text-anchor="middle" x="111" y="-144.8" font-family="Times New Roman,serif" font-size="14.00">l</text>
</g>
<!-- 11 -->
<g id="node12" class="node"><title>11</title>
<ellipse fill="none" stroke="black" cx="116" cy="-18" rx="27" ry="18"/>
<text text-anchor="middle" x="116" y="-14.3" font-family="Times New Roman,serif" font-size="14.00">t</text>
</g>
<!-- 11&#45;&gt;19 -->
<g id="edge31" class="edge"><title>11&#45;&gt;19</title>
<path fill="none" stroke="black" d="M116,-36.1754C116,-47.806 116,-63.4194 116,-76.7339"/>
<polygon fill="black" stroke="black" points="112.5,-76.7989 116,-86.799 119.5,-76.799 112.5,-76.7989"/>
<text text-anchor="middle" x="118" y="-57.8" font-family="Times New Roman,serif" font-size="14.00">l</text>
</g>
<!-- 12 -->
<g id="node13" class="node"><title>12</title>
<ellipse fill="none" stroke="black" cx="247" cy="-192" rx="27" ry="18"/>
<text text-anchor="middle" x="247" y="-188.3" font-family="Times New Roman,serif" font-size="14.00">s</text>
</g>
<!-- 14 -->
<g id="node15" class="node"><title>14</title>
<ellipse fill="none" stroke="black" cx="247" cy="-279" rx="27" ry="18"/>
</g>
<!-- 12&#45;&gt;14 -->
<g id="edge1" class="edge"><title>12&#45;&gt;14</title>
<path fill="none" stroke="black" d="M252.5,-209.758C253.814,-221.508 254.092,-237.47 253.334,-251.002"/>
<polygon fill="black" stroke="black" points="249.826,-250.956 252.504,-261.207 256.803,-251.524 249.826,-250.956"/>
</g>
<!-- 13&#45;&gt;9 -->
<g id="edge5" class="edge"><title>13&#45;&gt;9</title>
<path fill="none" stroke="black" d="M252.5,-383.758C253.814,-395.508 254.092,-411.47 253.334,-425.002"/>
<polygon fill="black" stroke="black" points="249.826,-424.956 252.504,-435.207 256.803,-425.524 249.826,-424.956"/>
</g>
<!-- 13&#45;&gt;14 -->
<g id="edge4" class="edge"><title>13&#45;&gt;14</title>
<path fill="none" stroke="black" d="M241.496,-348.207C240.184,-336.448 239.908,-320.485 240.668,-306.958"/>
<polygon fill="black" stroke="black" points="244.176,-307.01 241.5,-296.758 237.199,-306.441 244.176,-307.01"/>
</g>
<!-- 14&#45;&gt;12 -->
<g id="edge2" class="edge"><title>14&#45;&gt;12</title>
<path fill="none" stroke="black" d="M241.496,-261.207C240.184,-249.448 239.908,-233.485 240.668,-219.958"/>
<polygon fill="black" stroke="black" points="244.176,-220.01 241.5,-209.758 237.199,-219.441 244.176,-220.01"/>
</g>
<!-- 14&#45;&gt;13 -->
<g id="edge3" class="edge"><title>14&#45;&gt;13</title>
<path fill="none" stroke="black" d="M252.5,-296.758C253.814,-308.508 254.092,-324.47 253.334,-338.002"/>
<polygon fill="black" stroke="black" points="249.826,-337.956 252.504,-348.207 256.803,-338.524 249.826,-337.956"/>
</g>
<!-- 15&#45;&gt;0 -->
<g id="edge16" class="edge"><title>15&#45;&gt;0</title>
<path fill="none" stroke="black" d="M270.486,-558.284C268.995,-600.438 255.532,-708.765 245.781,-759.299"/>
<polygon fill="black" stroke="black" points="242.339,-758.661 243.762,-769.16 249.197,-760.065 242.339,-758.661"/>
</g>
<!-- 15&#45;&gt;7 -->
<g id="edge34" class="edge"><title>15&#45;&gt;7</title>
<path fill="none" stroke="black" d="M274.644,-522.193C278.341,-512.198 283.657,-499.468 290,-489 292.574,-484.752 295.635,-480.478 298.788,-476.446"/>
<polygon fill="black" stroke="black" points="301.598,-478.54 305.263,-468.599 296.199,-474.085 301.598,-478.54"/>
</g>
<!-- 15&#45;&gt;16 -->
<g id="edge35" class="edge"><title>15&#45;&gt;16</title>
<path fill="none" stroke="black" d="M254.851,-555.49C241.831,-568.824 222.336,-588.789 207.41,-604.074"/>
<polygon fill="black" stroke="black" points="204.562,-601.981 200.08,-611.581 209.57,-606.871 204.562,-601.981"/>
<text text-anchor="middle" x="235.5" y="-579.8" font-family="Times New Roman,serif" font-size="14.00">k</text>
</g>
<!-- 16&#45;&gt;1 -->
<g id="edge11" class="edge"><title>16&#45;&gt;1</title>
<path fill="none" stroke="black" d="M184.383,-645.175C183.289,-656.806 181.819,-672.419 180.566,-685.734"/>
<polygon fill="black" stroke="black" points="177.071,-685.515 179.619,-695.799 184.041,-686.171 177.071,-685.515"/>
<text text-anchor="middle" x="185.5" y="-666.8" font-family="Times New Roman,serif" font-size="14.00">s</text>
</g>
<!-- 16&#45;&gt;15 -->
<g id="edge36" class="edge"><title>16&#45;&gt;15</title>
<path fill="none" stroke="black" d="M191.61,-609.265C195.74,-598.805 202.176,-585.553 211,-576 218.559,-567.816 228.465,-560.897 237.947,-555.426"/>
<polygon fill="black" stroke="black" points="239.684,-558.466 246.817,-550.632 236.355,-552.308 239.684,-558.466"/>
<text text-anchor="middle" x="214.5" y="-579.8" font-family="Times New Roman,serif" font-size="14.00">k</text>
</g>
<!-- 16&#45;&gt;17 -->
<g id="edge10" class="edge"><title>16&#45;&gt;17</title>
<path fill="none" stroke="black" d="M176.827,-610.012C172.661,-598.209 168.507,-581.863 166.026,-568.042"/>
<polygon fill="black" stroke="black" points="169.473,-567.429 164.484,-558.083 162.556,-568.501 169.473,-567.429"/>
</g>
<!-- 17&#45;&gt;4 -->
<g id="edge18" class="edge"><title>17&#45;&gt;4</title>
<path fill="none" stroke="black" d="M148.594,-525.719C134.887,-512.916 116.259,-493.256 102.95,-477.756"/>
<polygon fill="black" stroke="black" points="105.633,-475.508 96.529,-470.088 100.266,-480.002 105.633,-475.508"/>
</g>
<!-- 17&#45;&gt;9 -->
<g id="edge8" class="edge"><title>17&#45;&gt;9</title>
<path fill="none" stroke="black" d="M176.843,-523.234C183.073,-517.419 190.58,-510.628 197,-504 205.819,-494.894 214.835,-484.093 222.931,-474.864"/>
<polygon fill="black" stroke="black" points="225.701,-477.018 229.781,-467.24 220.494,-472.34 225.701,-477.018"/>
</g>
<!-- 17&#45;&gt;16 -->
<g id="edge9" class="edge"><title>17&#45;&gt;16</title>
<path fill="none" stroke="black" d="M175.187,-557.025C179.338,-568.798 183.476,-585.074 185.956,-598.859"/>
<polygon fill="black" stroke="black" points="182.506,-599.455 187.501,-608.799 189.423,-598.38 182.506,-599.455"/>
</g>
<!-- 17&#45;&gt;18 -->
<g id="edge22" class="edge"><title>17&#45;&gt;18</title>
<path fill="none" stroke="black" d="M164.686,-521.827C161.471,-483.88 151.821,-390.283 130,-315 129.126,-311.986 128.061,-308.886 126.905,-305.836"/>
<polygon fill="black" stroke="black" points="130.074,-304.34 123.027,-296.429 123.602,-307.008 130.074,-304.34"/>
<text text-anchor="middle" x="155" y="-405.8" font-family="Times New Roman,serif" font-size="14.00">b</text>
</g>
<!-- 18&#45;&gt;5 -->
<g id="edge19" class="edge"><title>18&#45;&gt;5</title>
<path fill="none" stroke="black" d="M117.31,-297.214C116.357,-309.176 113.559,-325.337 110.2,-338.879"/>
<polygon fill="black" stroke="black" points="106.8,-338.042 107.543,-348.611 113.553,-339.886 106.8,-338.042"/>
</g>
<!-- 18&#45;&gt;10 -->
<g id="edge23" class="edge"><title>18&#45;&gt;10</title>
<path fill="none" stroke="black" d="M115.405,-260.799C115.679,-249.163 116.046,-233.548 116.359,-220.237"/>
<polygon fill="black" stroke="black" points="119.86,-220.255 116.596,-210.175 112.862,-220.09 119.86,-220.255"/>
<text text-anchor="middle" x="118" y="-231.8" font-family="Times New Roman,serif" font-size="14.00">l</text>
</g>
<!-- 18&#45;&gt;17 -->
<g id="edge21" class="edge"><title>18&#45;&gt;17</title>
<path fill="none" stroke="black" d="M137.821,-288.868C149.052,-294.529 161.54,-303.075 168,-315 202.555,-378.79 185.688,-468.555 173.992,-512.568"/>
<polygon fill="black" stroke="black" points="170.612,-511.663 171.308,-522.235 177.356,-513.536 170.612,-511.663"/>
<text text-anchor="middle" x="192" y="-405.8" font-family="Times New Roman,serif" font-size="14.00">b</text>
</g>
<!-- 19&#45;&gt;10 -->
<g id="edge25" class="edge"><title>19&#45;&gt;10</title>
<path fill="none" stroke="black" d="M116.202,-123.175C116.339,-134.806 116.523,-150.419 116.679,-163.734"/>
<polygon fill="black" stroke="black" points="113.18,-163.841 116.798,-173.799 120.18,-163.758 113.18,-163.841"/>
<text text-anchor="middle" x="118" y="-144.8" font-family="Times New Roman,serif" font-size="14.00">l</text>
</g>
<!-- 19&#45;&gt;11 -->
<g id="edge32" class="edge"><title>19&#45;&gt;11</title>
<path fill="none" stroke="black" d="M114.828,-86.9185C114.49,-81.2225 114.167,-74.8405 114,-69 113.79,-61.6485 113.938,-53.6914 114.229,-46.3331"/>
<polygon fill="black" stroke="black" points="117.736,-46.2819 114.735,-36.1211 110.745,-45.9358 117.736,-46.2819"/>
</g>
</g>
</svg>
