<?xml version="1.0" encoding="UTF-8" standalone="no"?>
<!DOCTYPE svg PUBLIC "-//W3C//DTD SVG 1.1//EN"
 "http://www.w3.org/Graphics/SVG/1.1/DTD/svg11.dtd">
<!-- Generated by graphviz version 2.38.0 (20140413.2041)
 -->
<!-- Title: %3 Pages: 1 -->
<svg width="550pt" height="1234pt"
 viewBox="0.00 0.00 550.00 1234.00" xmlns="http://www.w3.org/2000/svg" xmlns:xlink="http://www.w3.org/1999/xlink">
<g id="graph0" class="graph" transform="scale(1 1) rotate(0) translate(4 1230)">
<title>%3</title>
<polygon fill="white" stroke="none" points="-4,4 -4,-1230 546,-1230 546,4 -4,4"/>
<!-- 0 -->
<g id="node1" class="node"><title>0</title>
<ellipse fill="none" stroke="black" cx="279" cy="-1208" rx="27" ry="18"/>
<text text-anchor="middle" x="279" y="-1204.3" font-family="Times New Roman,serif" font-size="14.00">e</text>
</g>
<!-- 16 -->
<g id="node17" class="node"><title>16</title>
<ellipse fill="none" stroke="black" cx="207" cy="-1121" rx="27" ry="18"/>
<text text-anchor="middle" x="207" y="-1117.3" font-family="Times New Roman,serif" font-size="14.00">e,p</text>
</g>
<!-- 0&#45;&gt;16 -->
<g id="edge52" class="edge"><title>0&#45;&gt;16</title>
<path fill="none" stroke="black" d="M258.487,-1195.74C248.885,-1189.69 237.86,-1181.51 230,-1172 224.287,-1165.09 219.671,-1156.53 216.117,-1148.45"/>
<polygon fill="black" stroke="black" points="219.287,-1146.95 212.305,-1138.99 212.794,-1149.57 219.287,-1146.95"/>
<text text-anchor="middle" x="232.5" y="-1160.8" font-family="Times New Roman,serif" font-size="14.00">I</text>
</g>
<!-- 20 -->
<g id="node21" class="node"><title>20</title>
<ellipse fill="none" stroke="black" cx="263" cy="-787" rx="27" ry="18"/>
<text text-anchor="middle" x="263" y="-783.3" font-family="Times New Roman,serif" font-size="14.00">e,p</text>
</g>
<!-- 0&#45;&gt;20 -->
<g id="edge35" class="edge"><title>0&#45;&gt;20</title>
<path fill="none" stroke="black" d="M283.746,-1190.22C288.141,-1173.19 294,-1145.98 294,-1122 294,-1122 294,-1122 294,-859 294,-842.549 286.923,-825.61 279.532,-812.405"/>
<polygon fill="black" stroke="black" points="282.34,-810.282 274.192,-803.51 276.339,-813.885 282.34,-810.282"/>
<text text-anchor="middle" x="297.5" y="-986.8" font-family="Times New Roman,serif" font-size="14.00">k</text>
</g>
<!-- 1 -->
<g id="node2" class="node"><title>1</title>
<ellipse fill="none" stroke="black" cx="239" cy="-860" rx="27" ry="18"/>
<text text-anchor="middle" x="239" y="-856.3" font-family="Times New Roman,serif" font-size="14.00">I</text>
</g>
<!-- 18 -->
<g id="node19" class="node"><title>18</title>
<ellipse fill="none" stroke="black" cx="239" cy="-947" rx="27" ry="18"/>
<text text-anchor="middle" x="239" y="-943.3" font-family="Times New Roman,serif" font-size="14.00">e,p</text>
</g>
<!-- 1&#45;&gt;18 -->
<g id="edge16" class="edge"><title>1&#45;&gt;18</title>
<path fill="none" stroke="black" d="M239,-878.175C239,-889.806 239,-905.419 239,-918.734"/>
<polygon fill="black" stroke="black" points="235.5,-918.799 239,-928.799 242.5,-918.799 235.5,-918.799"/>
<text text-anchor="middle" x="241" y="-899.8" font-family="Times New Roman,serif" font-size="14.00">l</text>
</g>
<!-- 2 -->
<g id="node3" class="node"><title>2</title>
<ellipse fill="none" stroke="black" cx="167" cy="-860" rx="27" ry="18"/>
<text text-anchor="middle" x="167" y="-856.3" font-family="Times New Roman,serif" font-size="14.00">e,i,p</text>
</g>
<!-- 2&#45;&gt;20 -->
<g id="edge18" class="edge"><title>2&#45;&gt;20</title>
<path fill="none" stroke="black" d="M181.299,-844.289C195.286,-832.875 216.614,-817.033 234.064,-805.063"/>
<polygon fill="black" stroke="black" points="236.434,-807.687 242.776,-799.2 232.526,-801.879 236.434,-807.687"/>
</g>
<!-- 21 -->
<g id="node22" class="node"><title>21</title>
<ellipse fill="none" stroke="black" cx="167" cy="-947" rx="27" ry="18"/>
<text text-anchor="middle" x="167" y="-943.3" font-family="Times New Roman,serif" font-size="14.00">e,p</text>
</g>
<!-- 2&#45;&gt;21 -->
<g id="edge54" class="edge"><title>2&#45;&gt;21</title>
<path fill="none" stroke="black" d="M167,-878.175C167,-889.806 167,-905.419 167,-918.734"/>
<polygon fill="black" stroke="black" points="163.5,-918.799 167,-928.799 170.5,-918.799 163.5,-918.799"/>
<text text-anchor="middle" x="170.5" y="-899.8" font-family="Times New Roman,serif" font-size="14.00">s</text>
</g>
<!-- 25 -->
<g id="node26" class="node"><title>25</title>
<ellipse fill="none" stroke="black" cx="288" cy="-105" rx="27" ry="18"/>
<text text-anchor="middle" x="288" y="-101.3" font-family="Times New Roman,serif" font-size="14.00">i</text>
</g>
<!-- 2&#45;&gt;25 -->
<g id="edge28" class="edge"><title>2&#45;&gt;25</title>
<path fill="none" stroke="black" d="M178.192,-843.49C187.071,-829.641 198,-808.444 198,-788 198,-788 198,-788 198,-191 198,-157.885 230.602,-133.841 256.562,-119.945"/>
<polygon fill="black" stroke="black" points="258.416,-122.929 265.753,-115.286 255.251,-116.685 258.416,-122.929"/>
<text text-anchor="middle" x="202" y="-478.8" font-family="Times New Roman,serif" font-size="14.00">b</text>
</g>
<!-- 3 -->
<g id="node4" class="node"><title>3</title>
<ellipse fill="none" stroke="black" cx="364" cy="-526" rx="27" ry="18"/>
</g>
<!-- 4 -->
<g id="node5" class="node"><title>4</title>
<ellipse fill="none" stroke="black" cx="334" cy="-613" rx="27" ry="18"/>
</g>
<!-- 3&#45;&gt;4 -->
<g id="edge41" class="edge"><title>3&#45;&gt;4</title>
<path fill="none" stroke="black" d="M358.085,-543.758C353.897,-555.625 348.193,-571.787 343.387,-585.403"/>
<polygon fill="black" stroke="black" points="339.955,-584.612 339.927,-595.207 346.556,-586.942 339.955,-584.612"/>
<text text-anchor="middle" x="354.5" y="-565.8" font-family="Times New Roman,serif" font-size="14.00">k</text>
</g>
<!-- 26 -->
<g id="node27" class="node"><title>26</title>
<ellipse fill="none" stroke="black" cx="392" cy="-439" rx="28.6953" ry="18"/>
<text text-anchor="middle" x="392" y="-435.3" font-family="Times New Roman,serif" font-size="14.00">e,k,p</text>
</g>
<!-- 3&#45;&gt;26 -->
<g id="edge57" class="edge"><title>3&#45;&gt;26</title>
<path fill="none" stroke="black" d="M363.703,-507.894C364.021,-498.025 365.271,-485.525 369,-475 370.29,-471.359 372.035,-467.722 373.991,-464.244"/>
<polygon fill="black" stroke="black" points="377.121,-465.842 379.492,-455.516 371.199,-462.11 377.121,-465.842"/>
<text text-anchor="middle" x="371.5" y="-478.8" font-family="Times New Roman,serif" font-size="14.00">I</text>
</g>
<!-- 4&#45;&gt;3 -->
<g id="edge42" class="edge"><title>4&#45;&gt;3</title>
<path fill="none" stroke="black" d="M332.571,-594.818C332.344,-584.923 333.094,-572.423 337,-562 338.619,-557.679 340.967,-553.457 343.612,-549.526"/>
<polygon fill="black" stroke="black" points="346.471,-551.548 349.709,-541.46 340.887,-547.327 346.471,-551.548"/>
<text text-anchor="middle" x="340.5" y="-565.8" font-family="Times New Roman,serif" font-size="14.00">k</text>
</g>
<!-- 24 -->
<g id="node25" class="node"><title>24</title>
<ellipse fill="none" stroke="black" cx="278" cy="-700" rx="27" ry="18"/>
<text text-anchor="middle" x="278" y="-696.3" font-family="Times New Roman,serif" font-size="14.00">m</text>
</g>
<!-- 4&#45;&gt;24 -->
<g id="edge48" class="edge"><title>4&#45;&gt;24</title>
<path fill="none" stroke="black" d="M328.263,-630.982C324.453,-641.04 318.887,-653.774 312,-664 308.806,-668.743 304.932,-673.418 300.96,-677.731"/>
<polygon fill="black" stroke="black" points="298.306,-675.439 293.827,-685.041 303.316,-680.328 298.306,-675.439"/>
<text text-anchor="middle" x="323" y="-652.8" font-family="Times New Roman,serif" font-size="14.00">l</text>
</g>
<!-- 5 -->
<g id="node6" class="node"><title>5</title>
<ellipse fill="none" stroke="black" cx="345" cy="-18" rx="27" ry="18"/>
</g>
<!-- 5&#45;&gt;25 -->
<g id="edge30" class="edge"><title>5&#45;&gt;25</title>
<path fill="none" stroke="black" d="M334.519,-34.629C326.094,-47.1934 314.106,-65.07 304.41,-79.529"/>
<polygon fill="black" stroke="black" points="301.384,-77.7573 298.721,-88.0122 307.198,-81.656 301.384,-77.7573"/>
<text text-anchor="middle" x="324" y="-57.8" font-family="Times New Roman,serif" font-size="14.00">b</text>
</g>
<!-- 5&#45;&gt;26 -->
<g id="edge55" class="edge"><title>5&#45;&gt;26</title>
<path fill="none" stroke="black" d="M370.392,-24.3704C406.67,-33.7023 469,-56.6284 469,-104 469,-353 469,-353 469,-353 469,-382.401 443.384,-406.163 421.701,-421.011"/>
<polygon fill="black" stroke="black" points="419.524,-418.252 413.041,-426.632 423.334,-424.124 419.524,-418.252"/>
<text text-anchor="middle" x="471.5" y="-231.8" font-family="Times New Roman,serif" font-size="14.00">I</text>
</g>
<!-- 6 -->
<g id="node7" class="node"><title>6</title>
<ellipse fill="none" stroke="black" cx="414" cy="-279" rx="27" ry="18"/>
<text text-anchor="middle" x="414" y="-275.3" font-family="Times New Roman,serif" font-size="14.00">p</text>
</g>
<!-- 8 -->
<g id="node9" class="node"><title>8</title>
<ellipse fill="none" stroke="black" cx="414" cy="-352" rx="27" ry="18"/>
</g>
<!-- 6&#45;&gt;8 -->
<g id="edge21" class="edge"><title>6&#45;&gt;8</title>
<path fill="none" stroke="black" d="M419.827,-296.705C420.708,-304.822 420.959,-314.78 420.577,-323.942"/>
<polygon fill="black" stroke="black" points="417.068,-323.948 419.84,-334.174 424.05,-324.452 417.068,-323.948"/>
</g>
<!-- 22 -->
<g id="node23" class="node"><title>22</title>
<ellipse fill="none" stroke="black" cx="414" cy="-192" rx="27" ry="18"/>
<text text-anchor="middle" x="414" y="-188.3" font-family="Times New Roman,serif" font-size="14.00">e,p</text>
</g>
<!-- 6&#45;&gt;22 -->
<g id="edge20" class="edge"><title>6&#45;&gt;22</title>
<path fill="none" stroke="black" d="M408.496,-261.207C407.184,-249.448 406.908,-233.485 407.668,-219.958"/>
<polygon fill="black" stroke="black" points="411.176,-220.01 408.5,-209.758 404.199,-219.441 411.176,-220.01"/>
</g>
<!-- 7 -->
<g id="node8" class="node"><title>7</title>
<ellipse fill="none" stroke="black" cx="515" cy="-18" rx="27" ry="18"/>
<text text-anchor="middle" x="515" y="-14.3" font-family="Times New Roman,serif" font-size="14.00">t</text>
</g>
<!-- 23 -->
<g id="node24" class="node"><title>23</title>
<ellipse fill="none" stroke="black" cx="414" cy="-105" rx="27" ry="18"/>
<text text-anchor="middle" x="414" y="-101.3" font-family="Times New Roman,serif" font-size="14.00">b</text>
</g>
<!-- 7&#45;&gt;23 -->
<g id="edge46" class="edge"><title>7&#45;&gt;23</title>
<path fill="none" stroke="black" d="M498.813,-32.6228C482.41,-46.4274 456.843,-67.9443 438.066,-83.7467"/>
<polygon fill="black" stroke="black" points="435.625,-81.2263 430.227,-90.3433 440.132,-86.5821 435.625,-81.2263"/>
<text text-anchor="middle" x="473" y="-57.8" font-family="Times New Roman,serif" font-size="14.00">l</text>
</g>
<!-- 8&#45;&gt;6 -->
<g id="edge22" class="edge"><title>8&#45;&gt;6</title>
<path fill="none" stroke="black" d="M408.16,-334.174C407.285,-326.039 407.041,-316.076 407.428,-306.921"/>
<polygon fill="black" stroke="black" points="410.937,-306.933 408.173,-296.705 403.955,-306.424 410.937,-306.933"/>
</g>
<!-- 8&#45;&gt;26 -->
<g id="edge59" class="edge"><title>8&#45;&gt;26</title>
<path fill="none" stroke="black" d="M409.587,-370.049C406.518,-381.908 402.366,-397.951 398.866,-411.471"/>
<polygon fill="black" stroke="black" points="395.464,-410.649 396.346,-421.207 402.241,-412.403 395.464,-410.649"/>
<text text-anchor="middle" x="407.5" y="-391.8" font-family="Times New Roman,serif" font-size="14.00">I</text>
</g>
<!-- 9 -->
<g id="node10" class="node"><title>9</title>
<ellipse fill="none" stroke="black" cx="32" cy="-613" rx="27" ry="18"/>
<text text-anchor="middle" x="32" y="-609.3" font-family="Times New Roman,serif" font-size="14.00">s</text>
</g>
<!-- 11 -->
<g id="node12" class="node"><title>11</title>
<ellipse fill="none" stroke="black" cx="99" cy="-700" rx="27" ry="18"/>
</g>
<!-- 9&#45;&gt;11 -->
<g id="edge1" class="edge"><title>9&#45;&gt;11</title>
<path fill="none" stroke="black" d="M48.0217,-627.81C59.5967,-640.333 74.7355,-659.089 85.6561,-674.206"/>
<polygon fill="black" stroke="black" points="82.9378,-676.426 91.5397,-682.611 88.6725,-672.412 82.9378,-676.426"/>
</g>
<!-- 10 -->
<g id="node11" class="node"><title>10</title>
<ellipse fill="none" stroke="black" cx="104" cy="-613" rx="27" ry="18"/>
<text text-anchor="middle" x="104" y="-609.3" font-family="Times New Roman,serif" font-size="14.00">e,k</text>
</g>
<!-- 10&#45;&gt;11 -->
<g id="edge4" class="edge"><title>10&#45;&gt;11</title>
<path fill="none" stroke="black" d="M108.514,-630.758C109.137,-642.508 108.476,-658.47 106.922,-672.002"/>
<polygon fill="black" stroke="black" points="103.414,-671.818 105.492,-682.207 110.346,-672.789 103.414,-671.818"/>
</g>
<!-- 11&#45;&gt;9 -->
<g id="edge2" class="edge"><title>11&#45;&gt;9</title>
<path fill="none" stroke="black" d="M83.1205,-685.343C71.5713,-672.868 56.4244,-654.116 45.4686,-638.967"/>
<polygon fill="black" stroke="black" points="48.1669,-636.719 39.5612,-630.539 42.4347,-640.736 48.1669,-636.719"/>
</g>
<!-- 11&#45;&gt;10 -->
<g id="edge3" class="edge"><title>11&#45;&gt;10</title>
<path fill="none" stroke="black" d="M94.4841,-682.207C93.8636,-670.448 94.5266,-654.485 96.0826,-640.958"/>
<polygon fill="black" stroke="black" points="99.5901,-641.148 97.5144,-630.758 92.6581,-640.175 99.5901,-641.148"/>
</g>
<!-- 13 -->
<g id="node14" class="node"><title>13</title>
<ellipse fill="none" stroke="black" cx="95" cy="-787" rx="27" ry="18"/>
<text text-anchor="middle" x="95" y="-783.3" font-family="Times New Roman,serif" font-size="14.00">e</text>
</g>
<!-- 11&#45;&gt;13 -->
<g id="edge5" class="edge"><title>11&#45;&gt;13</title>
<path fill="none" stroke="black" d="M103.711,-717.758C104.473,-729.508 103.999,-745.47 102.604,-759.002"/>
<polygon fill="black" stroke="black" points="99.0963,-758.842 101.294,-769.207 106.039,-759.734 99.0963,-758.842"/>
</g>
<!-- 12 -->
<g id="node13" class="node"><title>12</title>
<ellipse fill="none" stroke="black" cx="27" cy="-700" rx="27" ry="18"/>
<text text-anchor="middle" x="27" y="-696.3" font-family="Times New Roman,serif" font-size="14.00">e,i</text>
</g>
<!-- 12&#45;&gt;13 -->
<g id="edge32" class="edge"><title>12&#45;&gt;13</title>
<path fill="none" stroke="black" d="M39.2811,-716.351C49.6008,-729.251 64.5121,-747.89 76.3127,-762.641"/>
<polygon fill="black" stroke="black" points="73.8629,-765.181 82.843,-770.804 79.329,-760.809 73.8629,-765.181"/>
<text text-anchor="middle" x="69.5" y="-739.8" font-family="Times New Roman,serif" font-size="14.00">k</text>
</g>
<!-- 13&#45;&gt;11 -->
<g id="edge6" class="edge"><title>13&#45;&gt;11</title>
<path fill="none" stroke="black" d="M90.2865,-769.207C89.5277,-757.448 90.0029,-741.485 91.3997,-727.958"/>
<polygon fill="black" stroke="black" points="94.9072,-728.123 92.7115,-717.758 87.9644,-727.23 94.9072,-728.123"/>
</g>
<!-- 13&#45;&gt;12 -->
<g id="edge31" class="edge"><title>13&#45;&gt;12</title>
<path fill="none" stroke="black" d="M71.065,-778.21C58.0033,-772.697 42.7533,-763.947 34,-751 29.4942,-744.335 27.3195,-736.023 26.3835,-728.1"/>
<polygon fill="black" stroke="black" points="29.8749,-727.851 25.7748,-718.082 22.8878,-728.276 29.8749,-727.851"/>
<text text-anchor="middle" x="37.5" y="-739.8" font-family="Times New Roman,serif" font-size="14.00">k</text>
</g>
<!-- 15 -->
<g id="node16" class="node"><title>15</title>
<ellipse fill="none" stroke="black" cx="95" cy="-860" rx="27" ry="18"/>
<text text-anchor="middle" x="95" y="-856.3" font-family="Times New Roman,serif" font-size="14.00">e,k</text>
</g>
<!-- 13&#45;&gt;15 -->
<g id="edge7" class="edge"><title>13&#45;&gt;15</title>
<path fill="none" stroke="black" d="M100.827,-804.705C101.708,-812.822 101.959,-822.78 101.577,-831.942"/>
<polygon fill="black" stroke="black" points="98.068,-831.948 100.84,-842.174 105.05,-832.452 98.068,-831.948"/>
</g>
<!-- 14 -->
<g id="node15" class="node"><title>14</title>
<ellipse fill="none" stroke="black" cx="95" cy="-947" rx="27" ry="18"/>
<text text-anchor="middle" x="95" y="-943.3" font-family="Times New Roman,serif" font-size="14.00">e</text>
</g>
<!-- 14&#45;&gt;15 -->
<g id="edge10" class="edge"><title>14&#45;&gt;15</title>
<path fill="none" stroke="black" d="M89.4963,-929.207C88.1841,-917.448 87.9081,-901.485 88.6683,-887.958"/>
<polygon fill="black" stroke="black" points="92.1756,-888.01 89.5002,-877.758 85.1988,-887.441 92.1756,-888.01"/>
</g>
<!-- 17 -->
<g id="node18" class="node"><title>17</title>
<ellipse fill="none" stroke="black" cx="120" cy="-1034" rx="28.6953" ry="18"/>
<text text-anchor="middle" x="120" y="-1030.3" font-family="Times New Roman,serif" font-size="14.00">e,k,p</text>
</g>
<!-- 14&#45;&gt;17 -->
<g id="edge11" class="edge"><title>14&#45;&gt;17</title>
<path fill="none" stroke="black" d="M105.012,-963.742C109.883,-975.516 115.026,-991.909 118.343,-1005.79"/>
<polygon fill="black" stroke="black" points="114.97,-1006.76 120.49,-1015.8 121.815,-1005.29 114.97,-1006.76"/>
</g>
<!-- 15&#45;&gt;13 -->
<g id="edge8" class="edge"><title>15&#45;&gt;13</title>
<path fill="none" stroke="black" d="M89.1601,-842.174C88.2848,-834.039 88.0409,-824.076 88.4283,-814.921"/>
<polygon fill="black" stroke="black" points="91.9366,-814.933 89.1731,-804.705 84.9552,-814.424 91.9366,-814.933"/>
</g>
<!-- 15&#45;&gt;14 -->
<g id="edge9" class="edge"><title>15&#45;&gt;14</title>
<path fill="none" stroke="black" d="M100.5,-877.758C101.814,-889.508 102.092,-905.47 101.334,-919.002"/>
<polygon fill="black" stroke="black" points="97.8262,-918.956 100.504,-929.207 104.803,-919.524 97.8262,-918.956"/>
</g>
<!-- 16&#45;&gt;0 -->
<g id="edge51" class="edge"><title>16&#45;&gt;0</title>
<path fill="none" stroke="black" d="M219.761,-1137.06C230.784,-1150.08 246.885,-1169.09 259.52,-1184"/>
<polygon fill="black" stroke="black" points="256.994,-1186.44 266.128,-1191.8 262.335,-1181.91 256.994,-1186.44"/>
<text text-anchor="middle" x="250.5" y="-1160.8" font-family="Times New Roman,serif" font-size="14.00">I</text>
</g>
<!-- 16&#45;&gt;17 -->
<g id="edge14" class="edge"><title>16&#45;&gt;17</title>
<path fill="none" stroke="black" d="M189.207,-1107.46C174.041,-1094.52 152.709,-1074.05 137.617,-1058.16"/>
<polygon fill="black" stroke="black" points="140.134,-1055.72 130.764,-1050.78 135.005,-1060.49 140.134,-1055.72"/>
</g>
<!-- 19 -->
<g id="node20" class="node"><title>19</title>
<ellipse fill="none" stroke="black" cx="210" cy="-1034" rx="27" ry="18"/>
<text text-anchor="middle" x="210" y="-1030.3" font-family="Times New Roman,serif" font-size="14.00">e,p</text>
</g>
<!-- 16&#45;&gt;19 -->
<g id="edge33" class="edge"><title>16&#45;&gt;19</title>
<path fill="none" stroke="black" d="M199.277,-1103.39C195.702,-1093.69 192.702,-1081.19 195,-1070 195.631,-1066.93 196.544,-1063.79 197.612,-1060.72"/>
<polygon fill="black" stroke="black" points="200.92,-1061.87 201.4,-1051.29 194.425,-1059.26 200.92,-1061.87"/>
<text text-anchor="middle" x="198.5" y="-1073.8" font-family="Times New Roman,serif" font-size="14.00">k</text>
</g>
<!-- 17&#45;&gt;14 -->
<g id="edge12" class="edge"><title>17&#45;&gt;14</title>
<path fill="none" stroke="black" d="M109.886,-1017.01C105.026,-1005.21 99.9104,-988.863 96.6172,-975.042"/>
<polygon fill="black" stroke="black" points="100.001,-974.13 94.4886,-965.083 93.156,-975.594 100.001,-974.13"/>
</g>
<!-- 17&#45;&gt;16 -->
<g id="edge13" class="edge"><title>17&#45;&gt;16</title>
<path fill="none" stroke="black" d="M138.314,-1047.99C153.39,-1060.9 174.311,-1080.99 189.221,-1096.67"/>
<polygon fill="black" stroke="black" points="187.037,-1099.46 196.407,-1104.41 192.167,-1094.7 187.037,-1099.46"/>
</g>
<!-- 18&#45;&gt;1 -->
<g id="edge15" class="edge"><title>18&#45;&gt;1</title>
<path fill="none" stroke="black" d="M233.945,-928.929C231.677,-919.291 229.758,-907.007 231,-896 231.304,-893.306 231.736,-890.516 232.243,-887.742"/>
<polygon fill="black" stroke="black" points="235.667,-888.466 234.317,-877.958 228.819,-887.014 235.667,-888.466"/>
<text text-anchor="middle" x="233" y="-899.8" font-family="Times New Roman,serif" font-size="14.00">l</text>
</g>
<!-- 18&#45;&gt;19 -->
<g id="edge40" class="edge"><title>18&#45;&gt;19</title>
<path fill="none" stroke="black" d="M235.384,-964.887C233.096,-974.683 229.846,-987.183 226,-998 224.938,-1000.99 223.719,-1004.07 222.439,-1007.11"/>
<polygon fill="black" stroke="black" points="219.125,-1005.95 218.255,-1016.51 225.519,-1008.8 219.125,-1005.95"/>
<text text-anchor="middle" x="234.5" y="-986.8" font-family="Times New Roman,serif" font-size="14.00">k</text>
</g>
<!-- 19&#45;&gt;16 -->
<g id="edge34" class="edge"><title>19&#45;&gt;16</title>
<path fill="none" stroke="black" d="M209.394,-1052.18C208.983,-1063.81 208.432,-1079.42 207.962,-1092.73"/>
<polygon fill="black" stroke="black" points="204.462,-1092.68 207.607,-1102.8 211.458,-1092.93 204.462,-1092.68"/>
<text text-anchor="middle" x="212.5" y="-1073.8" font-family="Times New Roman,serif" font-size="14.00">k</text>
</g>
<!-- 19&#45;&gt;18 -->
<g id="edge39" class="edge"><title>19&#45;&gt;18</title>
<path fill="none" stroke="black" d="M212.608,-1016.03C214.394,-1006.2 217.144,-993.703 221,-983 222.194,-979.685 223.637,-976.286 225.181,-972.971"/>
<polygon fill="black" stroke="black" points="228.33,-974.499 229.674,-963.989 222.07,-971.367 228.33,-974.499"/>
<text text-anchor="middle" x="224.5" y="-986.8" font-family="Times New Roman,serif" font-size="14.00">k</text>
</g>
<!-- 19&#45;&gt;21 -->
<g id="edge37" class="edge"><title>19&#45;&gt;21</title>
<path fill="none" stroke="black" d="M201.709,-1016.61C195.523,-1004.38 186.953,-987.443 179.878,-973.456"/>
<polygon fill="black" stroke="black" points="182.903,-971.682 175.265,-964.339 176.656,-974.842 182.903,-971.682"/>
<text text-anchor="middle" x="195.5" y="-986.8" font-family="Times New Roman,serif" font-size="14.00">k</text>
</g>
<!-- 20&#45;&gt;0 -->
<g id="edge36" class="edge"><title>20&#45;&gt;0</title>
<path fill="none" stroke="black" d="M284.077,-798.425C304.369,-810.119 332,-831.155 332,-859 332,-1122 332,-1122 332,-1122 332,-1146.29 316.227,-1169.37 301.89,-1185.34"/>
<polygon fill="black" stroke="black" points="298.958,-1183.34 294.615,-1193.01 304.037,-1188.16 298.958,-1183.34"/>
<text text-anchor="middle" x="335.5" y="-986.8" font-family="Times New Roman,serif" font-size="14.00">k</text>
</g>
<!-- 20&#45;&gt;2 -->
<g id="edge17" class="edge"><title>20&#45;&gt;2</title>
<path fill="none" stroke="black" d="M249.017,-802.453C235.012,-813.906 213.441,-829.933 195.842,-842.001"/>
<polygon fill="black" stroke="black" points="193.407,-839.421 187.063,-847.906 197.314,-845.23 193.407,-839.421"/>
</g>
<!-- 20&#45;&gt;24 -->
<g id="edge50" class="edge"><title>20&#45;&gt;24</title>
<path fill="none" stroke="black" d="M262.359,-768.717C262.331,-759.013 262.849,-746.733 265,-736 265.585,-733.08 266.379,-730.082 267.288,-727.126"/>
<polygon fill="black" stroke="black" points="270.684,-728.017 270.683,-717.422 264.077,-725.705 270.684,-728.017"/>
<text text-anchor="middle" x="267" y="-739.8" font-family="Times New Roman,serif" font-size="14.00">l</text>
</g>
<!-- 21&#45;&gt;2 -->
<g id="edge53" class="edge"><title>21&#45;&gt;2</title>
<path fill="none" stroke="black" d="M159.541,-929.605C157.292,-923.847 155.124,-917.252 154,-911 152.588,-903.143 153.729,-894.706 155.819,-887.042"/>
<polygon fill="black" stroke="black" points="159.149,-888.119 158.977,-877.525 152.505,-885.914 159.149,-888.119"/>
<text text-anchor="middle" x="157.5" y="-899.8" font-family="Times New Roman,serif" font-size="14.00">s</text>
</g>
<!-- 21&#45;&gt;19 -->
<g id="edge38" class="edge"><title>21&#45;&gt;19</title>
<path fill="none" stroke="black" d="M167.13,-965.017C167.822,-975.087 169.804,-987.821 175,-998 177.637,-1003.17 181.317,-1008.04 185.307,-1012.42"/>
<polygon fill="black" stroke="black" points="183.1,-1015.16 192.663,-1019.72 188.03,-1010.19 183.1,-1015.16"/>
<text text-anchor="middle" x="178.5" y="-986.8" font-family="Times New Roman,serif" font-size="14.00">k</text>
</g>
<!-- 22&#45;&gt;6 -->
<g id="edge19" class="edge"><title>22&#45;&gt;6</title>
<path fill="none" stroke="black" d="M419.5,-209.758C420.814,-221.508 421.092,-237.47 420.334,-251.002"/>
<polygon fill="black" stroke="black" points="416.826,-250.956 419.504,-261.207 423.803,-251.524 416.826,-250.956"/>
</g>
<!-- 22&#45;&gt;23 -->
<g id="edge43" class="edge"><title>22&#45;&gt;23</title>
<path fill="none" stroke="black" d="M414,-173.799C414,-162.163 414,-146.548 414,-133.237"/>
<polygon fill="black" stroke="black" points="417.5,-133.175 414,-123.175 410.5,-133.175 417.5,-133.175"/>
<text text-anchor="middle" x="416" y="-144.8" font-family="Times New Roman,serif" font-size="14.00">l</text>
</g>
<!-- 22&#45;&gt;25 -->
<g id="edge26" class="edge"><title>22&#45;&gt;25</title>
<path fill="none" stroke="black" d="M389.564,-183.778C372.435,-177.978 349.557,-168.702 332,-156 321.958,-148.735 312.612,-138.789 305.139,-129.679"/>
<polygon fill="black" stroke="black" points="307.764,-127.355 298.836,-121.65 302.258,-131.677 307.764,-127.355"/>
<text text-anchor="middle" x="336" y="-144.8" font-family="Times New Roman,serif" font-size="14.00">b</text>
</g>
<!-- 23&#45;&gt;7 -->
<g id="edge45" class="edge"><title>23&#45;&gt;7</title>
<path fill="none" stroke="black" d="M440.639,-101.203C461.905,-97.5003 490.742,-88.9101 507,-69 512.18,-62.6557 514.65,-54.3063 515.695,-46.2518"/>
<polygon fill="black" stroke="black" points="519.204,-46.232 516.357,-36.0267 512.218,-45.7795 519.204,-46.232"/>
<text text-anchor="middle" x="517" y="-57.8" font-family="Times New Roman,serif" font-size="14.00">l</text>
</g>
<!-- 23&#45;&gt;22 -->
<g id="edge44" class="edge"><title>23&#45;&gt;22</title>
<path fill="none" stroke="black" d="M416.928,-123.038C417.775,-128.731 418.582,-135.122 419,-141 419.53,-148.452 419.145,-156.514 418.399,-163.944"/>
<polygon fill="black" stroke="black" points="414.923,-163.541 417.161,-173.896 421.869,-164.405 414.923,-163.541"/>
<text text-anchor="middle" x="422" y="-144.8" font-family="Times New Roman,serif" font-size="14.00">l</text>
</g>
<!-- 24&#45;&gt;4 -->
<g id="edge47" class="edge"><title>24&#45;&gt;4</title>
<path fill="none" stroke="black" d="M288.533,-683.012C296.824,-670.427 308.517,-652.679 317.969,-638.333"/>
<polygon fill="black" stroke="black" points="320.935,-640.192 323.514,-629.916 315.09,-636.341 320.935,-640.192"/>
<text text-anchor="middle" x="312" y="-652.8" font-family="Times New Roman,serif" font-size="14.00">l</text>
</g>
<!-- 24&#45;&gt;20 -->
<g id="edge49" class="edge"><title>24&#45;&gt;20</title>
<path fill="none" stroke="black" d="M274.969,-718.175C272.917,-729.806 270.161,-745.419 267.812,-758.734"/>
<polygon fill="black" stroke="black" points="264.327,-758.343 266.035,-768.799 271.22,-759.559 264.327,-758.343"/>
<text text-anchor="middle" x="274" y="-739.8" font-family="Times New Roman,serif" font-size="14.00">l</text>
</g>
<!-- 24&#45;&gt;25 -->
<g id="edge23" class="edge"><title>24&#45;&gt;25</title>
<path fill="none" stroke="black" d="M265.17,-683.821C252.819,-667.621 236,-640.665 236,-614 236,-614 236,-614 236,-191 236,-166.84 251.475,-143.744 265.542,-127.741"/>
<polygon fill="black" stroke="black" points="268.442,-129.761 272.68,-120.051 263.311,-124.999 268.442,-129.761"/>
<text text-anchor="middle" x="240" y="-391.8" font-family="Times New Roman,serif" font-size="14.00">b</text>
</g>
<!-- 25&#45;&gt;2 -->
<g id="edge27" class="edge"><title>25&#45;&gt;2</title>
<path fill="none" stroke="black" d="M261.646,-109.063C238.72,-112.963 205.837,-121.694 184,-141 165.533,-157.327 160,-166.35 160,-191 160,-788 160,-788 160,-788 160,-802.418 161.447,-818.404 163.026,-831.551"/>
<polygon fill="black" stroke="black" points="159.601,-832.361 164.354,-841.83 166.544,-831.464 159.601,-832.361"/>
<text text-anchor="middle" x="164" y="-478.8" font-family="Times New Roman,serif" font-size="14.00">b</text>
</g>
<!-- 25&#45;&gt;5 -->
<g id="edge29" class="edge"><title>25&#45;&gt;5</title>
<path fill="none" stroke="black" d="M290.166,-86.7082C292.065,-76.5409 295.575,-63.8003 302,-54 306.136,-47.6909 311.77,-41.9644 317.597,-37.0551"/>
<polygon fill="black" stroke="black" points="319.787,-39.7859 325.54,-30.8891 315.495,-34.2565 319.787,-39.7859"/>
<text text-anchor="middle" x="306" y="-57.8" font-family="Times New Roman,serif" font-size="14.00">b</text>
</g>
<!-- 25&#45;&gt;22 -->
<g id="edge25" class="edge"><title>25&#45;&gt;22</title>
<path fill="none" stroke="black" d="M306.344,-118.375C327.629,-132.734 362.913,-156.536 387.253,-172.956"/>
<polygon fill="black" stroke="black" points="385.431,-175.949 395.679,-178.64 389.346,-170.146 385.431,-175.949"/>
<text text-anchor="middle" x="363" y="-144.8" font-family="Times New Roman,serif" font-size="14.00">b</text>
</g>
<!-- 25&#45;&gt;24 -->
<g id="edge24" class="edge"><title>25&#45;&gt;24</title>
<path fill="none" stroke="black" d="M284.962,-122.98C280.845,-147.511 274,-194.331 274,-234.5 274,-614 274,-614 274,-614 274,-633.269 275.038,-654.967 276.057,-671.618"/>
<polygon fill="black" stroke="black" points="272.574,-672.001 276.712,-681.755 279.56,-671.55 272.574,-672.001"/>
<text text-anchor="middle" x="278" y="-391.8" font-family="Times New Roman,serif" font-size="14.00">b</text>
</g>
<!-- 26&#45;&gt;3 -->
<g id="edge58" class="edge"><title>26&#45;&gt;3</title>
<path fill="none" stroke="black" d="M386.48,-456.758C382.571,-468.625 377.247,-484.787 372.761,-498.403"/>
<polygon fill="black" stroke="black" points="369.336,-497.614 369.532,-508.207 375.985,-499.804 369.336,-497.614"/>
<text text-anchor="middle" x="382.5" y="-478.8" font-family="Times New Roman,serif" font-size="14.00">I</text>
</g>
<!-- 26&#45;&gt;5 -->
<g id="edge56" class="edge"><title>26&#45;&gt;5</title>
<path fill="none" stroke="black" d="M381.739,-422.101C372.052,-405.535 359,-378.486 359,-353 359,-353 359,-353 359,-104 359,-84.3706 355.32,-62.5262 351.733,-45.8977"/>
<polygon fill="black" stroke="black" points="355.066,-44.7704 349.43,-35.7994 348.242,-46.3274 355.066,-44.7704"/>
<text text-anchor="middle" x="361.5" y="-231.8" font-family="Times New Roman,serif" font-size="14.00">I</text>
</g>
<!-- 26&#45;&gt;8 -->
<g id="edge60" class="edge"><title>26&#45;&gt;8</title>
<path fill="none" stroke="black" d="M392.242,-420.596C392.747,-410.854 394.006,-398.576 397,-388 397.902,-384.815 399.081,-381.567 400.399,-378.397"/>
<polygon fill="black" stroke="black" points="403.603,-379.806 404.627,-369.261 397.251,-376.866 403.603,-379.806"/>
<text text-anchor="middle" x="399.5" y="-391.8" font-family="Times New Roman,serif" font-size="14.00">I</text>
</g>
</g>
</svg>
